<?xml version="1.0" encoding="UTF-8"?>
<svg xmlns="http://www.w3.org/2000/svg" xmlns:xlink="http://www.w3.org/1999/xlink" width="300px" height="89px" viewBox="-25 -25 350 150" version="1.1">
<defs>
<clipPath id="clip1">
  <path d="M 44 0 L 301 0 L 301 89 L 44 89 Z M 44 0 "/>
</clipPath>
<clipPath id="clip2">
  <path d="M 163.226562 0.160156 C 84.757812 1.902344 70.28125 11.789062 62.933594 19.394531 C 59.628906 22.871094 55.921875 27.988281 52.570312 37.859375 C 51.226562 41.804688 51.140625 41.605469 48.78125 51.730469 C 46.421875 61.855469 44.949219 80.355469 44.019531 88.183594 L 64.601562 88.183594 C 64.945312 83.910156 65.132812 79.78125 65.988281 72.222656 L 66.015625 72.222656 C 70.398438 39.589844 81.175781 24.453125 89.734375 17.453125 L 89.734375 17.449219 C 99.664062 8.914062 129.523438 1.488281 165.867188 2.378906 C 277.699219 5.125 281.65625 44.464844 281.65625 44.464844 L 300.890625 44.464844 C 297.359375 25.113281 277.214844 0 177.515625 0 C 172.917969 0 168.167969 0.0546875 163.226562 0.160156 "/>
</clipPath>
<linearGradient id="linear0" gradientUnits="userSpaceOnUse" x1="0" y1="0" x2="1" y2="0" gradientTransform="matrix(242.276663,7.107372,-7.091002,242.836004,44.799436,42.030619)">
<stop offset="0" style="stop-color:rgb(0%,25.098039%,59.607843%);stop-opacity:1;"/>
<stop offset="0.011236" style="stop-color:rgb(0%,25.098039%,59.607843%);stop-opacity:1;"/>
<stop offset="0.066335" style="stop-color:rgb(0%,25.098039%,59.607843%);stop-opacity:1;"/>
<stop offset="0.10112" style="stop-color:rgb(0%,25.098039%,59.607843%);stop-opacity:1;"/>
<stop offset="0.33146" style="stop-color:rgb(0%,60%,26.666667%);stop-opacity:1;"/>
<stop offset="0.53371" style="stop-color:rgb(100%,94.509804%,0%);stop-opacity:1;"/>
<stop offset="0.76966" style="stop-color:rgb(90.196078%,0%,7.45098%);stop-opacity:1;"/>
<stop offset="0.78174" style="stop-color:rgb(90.196078%,0%,7.45098%);stop-opacity:1;"/>
<stop offset="0.96629" style="stop-color:rgb(92.156863%,57.254902%,0%);stop-opacity:1;"/>
<stop offset="1" style="stop-color:rgb(92.156863%,57.254902%,0%);stop-opacity:1;"/>
</linearGradient>
</defs>
<g id="surface1">
<path style=" stroke:none;fill-rule:nonzero;fill:rgb(0%,25.098039%,59.607843%);fill-opacity:1;" d="M 77.09375 42.253906 L 77.113281 88.050781 L 100.640625 88.050781 L 100.640625 14.53125 C 100.601562 14.542969 85.03125 22.265625 77.09375 42.253906 "/>
<g clip-path="url(#clip1)" clip-rule="nonzero">
<g clip-path="url(#clip2)" clip-rule="nonzero">
<path style=" stroke:none;fill-rule:nonzero;fill:url(#linear0);" d="M 163.226562 0.160156 C 84.757812 1.902344 70.28125 11.789062 62.933594 19.394531 C 59.628906 22.871094 55.921875 27.988281 52.570312 37.859375 C 51.226562 41.804688 51.140625 41.605469 48.78125 51.730469 C 46.421875 61.855469 44.949219 80.355469 44.019531 88.183594 L 64.601562 88.183594 C 64.945312 83.910156 65.132812 79.78125 65.988281 72.222656 L 66.015625 72.222656 C 70.398438 39.589844 81.175781 24.453125 89.734375 17.453125 L 89.734375 17.449219 C 99.664062 8.914062 129.523438 1.488281 165.867188 2.378906 C 277.699219 5.125 281.65625 44.464844 281.65625 44.464844 L 300.890625 44.464844 C 297.359375 25.113281 277.214844 0 177.515625 0 C 172.917969 0 168.167969 0.0546875 163.226562 0.160156 "/>
</g>
</g>
<path style=" stroke:none;fill-rule:nonzero;fill:rgb(0%,25.098039%,59.607843%);fill-opacity:1;" d="M 167.511719 68.648438 C 166.589844 70.777344 165.316406 72.269531 163.683594 73.121094 C 162.054688 73.976562 159.316406 74.40625 155.464844 74.40625 L 150.945312 74.40625 L 150.945312 41.820312 L 155.542969 41.820312 C 160.324219 41.820312 163.738281 42.988281 165.800781 45.320312 C 167.863281 47.652344 168.898438 51.980469 168.898438 58.296875 C 168.898438 63.070312 168.4375 66.519531 167.511719 68.648438 M 185.851562 46.371094 C 184.878906 42.742188 183.308594 39.558594 181.144531 36.820312 C 178.976562 34.085938 176.234375 31.984375 172.917969 30.523438 C 169.597656 29.058594 165.25 28.328125 159.859375 28.328125 L 132.523438 28.328125 L 132.523438 87.898438 L 159.859375 87.898438 C 163.136719 87.898438 166.792969 87.359375 170.824219 86.269531 C 173.777344 85.488281 176.539062 83.910156 179.113281 81.539062 C 181.683594 79.171875 183.695312 76.230469 185.144531 72.722656 C 186.589844 69.214844 187.316406 64.277344 187.316406 57.910156 C 187.316406 53.847656 186.828125 50 185.851562 46.371094 "/>
<path style=" stroke:none;fill-rule:nonzero;fill:rgb(0%,25.098039%,59.607843%);fill-opacity:1;" d="M 225.097656 28.328125 L 204.839844 28.328125 L 182.605469 87.898438 L 201.375 87.898438 L 214.722656 46.773438 L 227.746094 87.917969 L 247.300781 87.898438 Z M 225.097656 28.328125 "/>
<path style=" stroke:none;fill-rule:nonzero;fill:rgb(0%,25.098039%,59.607843%);fill-opacity:1;" d="M 294.449219 59.726562 C 292.859375 57.089844 290.328125 54.886719 286.84375 53.109375 C 283.363281 51.335938 277.59375 49.578125 269.539062 47.84375 C 266.289062 47.167969 264.226562 46.4375 263.351562 45.648438 C 262.453125 44.894531 262.003906 44.042969 262.003906 43.09375 C 262.003906 41.796875 262.546875 40.691406 263.628906 39.78125 C 264.710938 38.875 266.324219 38.421875 268.460938 38.421875 C 271.0625 38.421875 273.101562 39.027344 274.574219 40.234375 C 274.816406 40.429688 275.015625 40.675781 275.230469 40.914062 C 273.058594 36.875 269.390625 31.484375 263.863281 27.585938 C 260.605469 27.949219 257.863281 28.621094 255.640625 29.59375 C 252.078125 31.15625 249.410156 33.300781 247.636719 36.027344 C 245.863281 38.753906 244.980469 41.652344 244.980469 44.71875 C 244.980469 49.386719 246.714844 53.230469 250.183594 56.242188 C 253.628906 59.253906 259.386719 61.667969 267.46875 63.480469 C 272.402344 64.566406 275.5625 65.714844 276.949219 66.929688 C 278.335938 68.152344 279.03125 69.53125 279.03125 71.074219 C 279.03125 72.699219 278.316406 74.128906 276.886719 75.359375 C 275.457031 76.589844 273.425781 77.207031 270.785156 77.207031 C 267.253906 77.207031 264.53125 76.007812 262.628906 73.605469 C 261.460938 72.121094 260.683594 69.957031 260.300781 67.121094 L 242.8125 68.214844 C 243.324219 74.246094 245.53125 79.21875 249.429688 83.132812 C 253.328125 87.042969 260.34375 89 270.472656 89 C 276.238281 89 281.015625 88.160156 284.804688 86.496094 C 288.597656 84.824219 291.546875 82.378906 293.660156 79.144531 C 295.773438 75.921875 296.828125 72.390625 296.828125 68.558594 C 296.828125 65.304688 296.039062 62.355469 294.449219 59.726562 "/>
<path style=" stroke:none;fill-rule:nonzero;fill:rgb(0%,25.098039%,59.607843%);fill-opacity:1;" d="M 107.730469 87.894531 L 126.148438 87.894531 L 126.148438 28.328125 L 107.730469 28.328125 Z M 107.730469 87.894531 "/>
<path style=" stroke:none;fill-rule:nonzero;fill:rgb(0%,25.098039%,59.607843%);fill-opacity:1;" d="M 48.226562 31.839844 C 40.324219 16.601562 32.582031 16.910156 32.582031 16.910156 L 0 16.910156 L 0 88.035156 L 23.933594 88.035156 L 23.933594 35.535156 C 29.414062 45.300781 34.703125 60.15625 37.972656 82.828125 C 38.222656 84.566406 38.46875 86.324219 38.691406 88.152344 L 41.007812 88.152344 C 41.007812 88.152344 43.347656 47.082031 49.921875 35.523438 C 49.226562 33.925781 48.925781 33.183594 48.226562 31.839844 "/>
</g>
</svg>
