<?xml version="1.0" encoding="UTF-8"?>
<svg xmlns="http://www.w3.org/2000/svg" xmlns:xlink="http://www.w3.org/1999/xlink" width="350px" height="150px" viewBox="0 0 349 103" version="1.1">
<g id="surface1">
<path style=" stroke:none;fill-rule:nonzero;fill:rgb(11.372549%,11.372549%,10.588235%);fill-opacity:1;" d="M 89.40625 48.902344 L 89.40625 101.902344 L 116.726562 101.902344 L 116.726562 16.8125 C 116.726562 16.8125 98.628906 25.769531 89.40625 48.902344 Z M 89.40625 48.902344 "/>
<path style=" stroke:none;fill-rule:nonzero;fill:rgb(11.372549%,11.372549%,10.588235%);fill-opacity:1;" d="M 189.320312 0.1875 C 98.296875 2.195312 81.503906 13.644531 72.988281 22.445312 C 69.160156 26.460938 64.847656 32.386719 60.957031 43.824219 C 59.40625 48.386719 59.296875 48.152344 56.566406 59.882812 C 53.839844 71.597656 52.128906 93.007812 51.046875 102.074219 L 74.914062 102.074219 C 75.308594 97.132812 75.527344 92.351562 76.515625 83.597656 L 76.546875 83.597656 C 81.628906 45.832031 94.140625 28.308594 104.054688 20.203125 C 115.566406 10.320312 150.207031 1.726562 192.363281 2.761719 C 322.074219 5.945312 326.667969 51.476562 326.667969 51.476562 L 348.984375 51.476562 C 344.71875 28.042969 319.359375 -2.699219 189.320312 0.1875 Z M 189.320312 0.1875 "/>
<path style=" stroke:none;fill-rule:nonzero;fill:rgb(11.372549%,11.372549%,10.588235%);fill-opacity:1;" d="M 215.589844 53.671875 C 214.460938 49.46875 212.640625 45.78125 210.132812 42.613281 C 207.621094 39.445312 204.4375 37.015625 200.597656 35.320312 C 196.753906 33.628906 191.703125 32.78125 185.445312 32.78125 L 153.734375 32.78125 L 153.734375 101.730469 L 185.445312 101.730469 C 189.242188 101.730469 193.492188 101.101562 198.164062 99.847656 C 201.582031 98.9375 204.796875 97.117188 207.777344 94.375 C 210.757812 91.628906 213.09375 88.226562 214.773438 84.164062 C 216.449219 80.101562 217.296875 74.390625 217.296875 67.019531 C 217.296875 62.3125 216.734375 57.859375 215.605469 53.671875 Z M 194.308594 79.457031 C 193.242188 81.921875 191.765625 83.644531 189.867188 84.632812 C 187.972656 85.621094 184.804688 86.125 180.335938 86.125 L 175.097656 86.125 L 175.097656 48.417969 L 180.429688 48.417969 C 185.964844 48.417969 189.929688 49.765625 192.332031 52.464844 C 194.714844 55.164062 195.921875 60.164062 195.921875 67.492188 C 195.921875 73.011719 195.390625 77.011719 194.308594 79.472656 Z M 194.308594 79.457031 "/>
<path style=" stroke:none;fill-rule:nonzero;fill:rgb(11.372549%,11.372549%,10.588235%);fill-opacity:1;" d="M 261.082031 32.796875 L 237.589844 32.796875 L 211.808594 101.746094 L 233.578125 101.746094 L 249.054688 54.144531 L 264.171875 101.761719 L 286.847656 101.746094 Z M 261.082031 32.796875 "/>
<path style=" stroke:none;fill-rule:nonzero;fill:rgb(11.372549%,11.372549%,10.588235%);fill-opacity:1;" d="M 341.550781 69.121094 C 339.699219 66.078125 336.769531 63.523438 332.738281 61.46875 C 328.691406 59.414062 322.007812 57.375 312.664062 55.382812 C 308.886719 54.597656 306.5 53.75 305.480469 52.839844 C 304.445312 51.960938 303.914062 50.976562 303.914062 49.890625 C 303.914062 48.386719 304.539062 47.117188 305.796875 46.066406 C 307.046875 45.015625 308.917969 44.496094 311.40625 44.496094 C 314.421875 44.496094 316.789062 45.203125 318.496094 46.597656 C 318.78125 46.816406 319.015625 47.117188 319.265625 47.382812 C 316.742188 42.707031 312.492188 36.464844 306.074219 31.964844 C 302.296875 32.386719 299.113281 33.15625 296.542969 34.285156 C 292.417969 36.089844 289.3125 38.582031 287.257812 41.738281 C 285.203125 44.890625 284.167969 48.246094 284.167969 51.789062 C 284.167969 57.1875 286.175781 61.640625 290.203125 65.121094 C 294.203125 68.605469 300.886719 71.394531 310.265625 73.496094 C 315.988281 74.753906 319.660156 76.085938 321.257812 77.496094 C 322.855469 78.910156 323.671875 80.507812 323.671875 82.296875 C 323.671875 84.179688 322.84375 85.824219 321.179688 87.253906 C 319.53125 88.679688 317.164062 89.386719 314.105469 89.386719 C 310.011719 89.386719 306.84375 87.988281 304.648438 85.214844 C 303.285156 83.503906 302.390625 80.996094 301.953125 77.714844 L 281.660156 78.988281 C 282.253906 85.964844 284.8125 91.722656 289.34375 96.238281 C 293.859375 100.773438 302 103.03125 313.746094 103.03125 C 320.429688 103.03125 325.976562 102.058594 330.367188 100.128906 C 334.757812 98.199219 338.195312 95.363281 340.640625 91.628906 C 343.085938 87.894531 344.3125 83.800781 344.3125 79.378906 C 344.3125 75.613281 343.402344 72.195312 341.550781 69.152344 Z M 341.550781 69.121094 "/>
<path style=" stroke:none;fill-rule:nonzero;fill:rgb(11.372549%,11.372549%,10.588235%);fill-opacity:1;" d="M 146.320312 32.796875 L 124.957031 32.796875 L 124.957031 101.746094 L 146.320312 101.746094 Z M 146.320312 32.796875 "/>
<path style=" stroke:none;fill-rule:nonzero;fill:rgb(11.372549%,11.372549%,10.588235%);fill-opacity:1;" d="M 55.941406 36.859375 C 46.78125 19.230469 37.796875 19.574219 37.796875 19.574219 L 0 19.574219 L 0 101.902344 L 27.757812 101.902344 L 27.757812 41.140625 C 34.109375 52.449219 40.242188 69.640625 44.035156 95.878906 C 44.335938 97.886719 44.617188 99.925781 44.867188 102.042969 L 47.550781 102.042969 C 47.550781 102.042969 50.261719 54.519531 57.882812 41.140625 C 57.085938 39.289062 56.722656 38.425781 55.925781 36.875 Z M 55.941406 36.859375 "/>
</g>
</svg>
