<svg width="712" height="293" viewBox="0 0 712 293" fill="none" xmlns="http://www.w3.org/2000/svg">
<rect width="712" height="293" rx="5" fill="white"/>
<circle cx="477" cy="179" r="8.5" fill="#FFF50E" stroke="black"/>
<circle cx="356" cy="179" r="8.5" fill="#0EFF8B" stroke="black"/>
<path d="M494.036 161.89L494.369 162.223C494.904 162.758 495.312 163.311 495.592 163.881C495.873 164.452 496.031 165.019 496.066 165.583C496.098 166.143 496.01 166.686 495.8 167.212C495.594 167.734 495.269 168.217 494.824 168.662C494.382 169.103 493.899 169.429 493.374 169.638C492.852 169.844 492.309 169.933 491.745 169.904C491.178 169.872 490.607 169.717 490.034 169.44C489.463 169.16 488.911 168.752 488.376 168.217L488.042 167.884C487.504 167.345 487.096 166.793 486.819 166.226C486.539 165.655 486.381 165.088 486.345 164.524C486.313 163.957 486.4 163.412 486.606 162.89C486.816 162.365 487.141 161.882 487.583 161.44C488.028 160.995 488.511 160.67 489.033 160.464C489.558 160.254 490.103 160.167 490.667 160.203C491.234 160.235 491.803 160.391 492.373 160.672C492.944 160.946 493.498 161.352 494.036 161.89ZM492.905 163.688L492.562 163.345C492.188 162.971 491.825 162.676 491.474 162.46C491.123 162.244 490.784 162.106 490.459 162.044C490.134 161.983 489.827 161.999 489.541 162.093C489.251 162.183 488.983 162.351 488.738 162.595C488.493 162.84 488.326 163.108 488.235 163.398C488.145 163.681 488.131 163.986 488.192 164.311C488.256 164.634 488.397 164.97 488.613 165.322C488.828 165.673 489.123 166.035 489.497 166.409L489.84 166.752C490.211 167.123 490.573 167.418 490.928 167.637C491.279 167.853 491.619 167.993 491.948 168.058C492.273 168.119 492.581 168.104 492.871 168.014C493.161 167.924 493.429 167.756 493.673 167.511C493.918 167.266 494.086 166.999 494.176 166.709C494.266 166.419 494.279 166.113 494.215 165.791C494.147 165.465 494.005 165.127 493.789 164.775C493.57 164.421 493.275 164.058 492.905 163.688ZM496.099 159.014L500.189 163.104L498.797 164.496L493.566 159.266L494.876 157.956L496.099 159.014ZM496.501 156.264L497.767 157.579C497.69 157.637 497.599 157.711 497.496 157.801C497.393 157.885 497.303 157.965 497.226 158.043C497.029 158.239 496.884 158.436 496.791 158.632C496.697 158.823 496.65 159.014 496.65 159.208C496.654 159.398 496.7 159.586 496.791 159.773C496.884 159.957 497.016 160.141 497.187 160.324L496.82 160.518C496.481 160.179 496.204 159.834 495.988 159.483C495.769 159.129 495.618 158.781 495.534 158.439C495.453 158.094 495.45 157.769 495.524 157.463C495.598 157.157 495.758 156.881 496.003 156.636C496.08 156.559 496.165 156.486 496.259 156.419C496.349 156.348 496.43 156.296 496.501 156.264ZM498.781 154.051L504.012 159.281L502.615 160.678L497.384 155.448L498.781 154.051ZM495.934 154.172C495.731 153.969 495.635 153.73 495.644 153.456C495.654 153.182 495.778 152.926 496.017 152.688C496.252 152.452 496.506 152.33 496.78 152.32C497.057 152.307 497.297 152.402 497.5 152.605C497.703 152.808 497.799 153.048 497.786 153.326C497.776 153.6 497.654 153.854 497.418 154.089C497.18 154.328 496.924 154.452 496.65 154.462C496.376 154.471 496.137 154.375 495.934 154.172ZM503.363 149.469L504.625 148.207L509.681 153.263C510.158 153.74 510.456 154.251 510.575 154.796C510.701 155.34 510.66 155.887 510.454 156.434C510.251 156.985 509.9 157.511 509.401 158.01C509.181 158.229 508.92 158.432 508.617 158.619C508.318 158.803 507.995 158.945 507.651 159.045C507.309 159.141 506.971 159.17 506.636 159.132L506.428 157.696C506.776 157.722 507.108 157.68 507.424 157.57C507.743 157.464 508.031 157.282 508.289 157.024C508.54 156.773 508.706 156.513 508.787 156.246C508.87 155.982 508.87 155.714 508.787 155.443C508.706 155.176 508.542 154.918 508.294 154.67L504.436 150.813L503.363 149.469ZM502.522 155.666L502.421 155.564C502.021 155.165 501.707 154.754 501.478 154.332C501.249 153.903 501.107 153.481 501.053 153.065C501.001 152.646 501.041 152.242 501.173 151.852C501.306 151.462 501.536 151.103 501.865 150.774C502.213 150.426 502.569 150.199 502.933 150.092C503.297 149.986 503.674 149.976 504.064 150.063C504.451 150.147 504.847 150.308 505.253 150.547C505.659 150.779 506.077 151.061 506.505 151.393L506.727 151.615C507.043 152.028 507.309 152.438 507.525 152.848C507.741 153.257 507.888 153.658 507.965 154.051C508.039 154.441 508.023 154.818 507.917 155.182C507.813 155.543 507.601 155.885 507.278 156.207C506.956 156.529 506.599 156.755 506.205 156.884C505.815 157.01 505.409 157.045 504.987 156.99C504.565 156.935 504.143 156.797 503.721 156.575C503.302 156.349 502.902 156.046 502.522 155.666ZM503.813 154.172L503.914 154.274C504.13 154.49 504.352 154.67 504.581 154.815C504.81 154.96 505.04 155.062 505.272 155.12C505.505 155.171 505.727 155.171 505.94 155.12C506.152 155.062 506.35 154.941 506.534 154.757C506.789 154.502 506.943 154.241 506.998 153.974C507.05 153.703 507.021 153.433 506.911 153.162C506.802 152.891 506.629 152.625 506.394 152.364L505.761 151.731C505.551 151.535 505.342 151.38 505.132 151.267C504.92 151.151 504.712 151.079 504.509 151.05C504.306 151.021 504.103 151.043 503.9 151.117C503.697 151.191 503.5 151.323 503.31 151.514C503.126 151.697 503.009 151.899 502.957 152.118C502.906 152.331 502.906 152.553 502.957 152.785C503.012 153.014 503.113 153.247 503.262 153.486C503.407 153.721 503.59 153.95 503.813 154.172ZM507.297 145.535L512.527 150.765L511.13 152.162L505.9 146.932L507.297 145.535ZM504.45 145.656C504.247 145.453 504.15 145.214 504.16 144.94C504.17 144.666 504.294 144.41 504.532 144.172C504.768 143.937 505.022 143.814 505.296 143.804C505.573 143.792 505.813 143.887 506.016 144.09C506.219 144.293 506.314 144.533 506.301 144.81C506.292 145.084 506.169 145.338 505.934 145.574C505.696 145.812 505.439 145.936 505.166 145.946C504.892 145.955 504.653 145.859 504.45 145.656ZM511.048 144.018L515.161 148.131L513.769 149.523L508.539 144.293L509.844 142.988L511.048 144.018ZM512.159 145.536L511.782 145.913C511.396 145.526 511.097 145.128 510.888 144.719C510.675 144.306 510.55 143.9 510.511 143.501C510.469 143.098 510.514 142.714 510.646 142.35C510.778 141.98 510.999 141.64 511.309 141.33C511.553 141.085 511.813 140.897 512.087 140.765C512.361 140.633 512.648 140.571 512.947 140.581C513.25 140.587 513.568 140.679 513.899 140.856C514.235 141.03 514.586 141.301 514.953 141.669L518.288 145.004L516.887 146.406L513.547 143.066C513.315 142.833 513.102 142.685 512.909 142.621C512.715 142.556 512.53 142.561 512.353 142.635C512.175 142.703 511.997 142.827 511.816 143.007C511.629 143.194 511.504 143.394 511.439 143.607C511.378 143.816 511.368 144.032 511.41 144.255C511.452 144.471 511.537 144.688 511.666 144.907C511.795 145.126 511.96 145.336 512.159 145.536ZM522.372 135.903L520.578 137.696L519.447 136.565L521.241 134.772C521.518 134.495 521.698 134.224 521.782 133.96C521.863 133.693 521.861 133.436 521.777 133.191C521.693 132.947 521.548 132.721 521.342 132.515C521.133 132.305 520.897 132.151 520.636 132.051C520.375 131.951 520.103 131.933 519.819 131.998C519.536 132.062 519.256 132.233 518.978 132.51L517.688 133.8L523.59 139.702L522.14 141.153L515.102 134.115L517.842 131.374C518.394 130.823 518.966 130.451 519.558 130.257C520.151 130.058 520.727 130.027 521.284 130.166C521.842 130.304 522.344 130.597 522.792 131.045C523.247 131.5 523.535 131.998 523.657 132.539C523.78 133.08 523.733 133.639 523.517 134.216C523.305 134.79 522.923 135.352 522.372 135.903ZM525.702 132.467L525.6 132.366C525.217 131.982 524.918 131.574 524.706 131.143C524.49 130.708 524.367 130.266 524.338 129.818C524.309 129.37 524.382 128.927 524.556 128.489C524.727 128.047 525.01 127.628 525.407 127.232C525.803 126.836 526.224 126.551 526.668 126.377C527.11 126.199 527.554 126.125 528.002 126.154C528.454 126.18 528.897 126.301 529.332 126.517C529.763 126.729 530.171 127.027 530.555 127.411L530.656 127.512C531.036 127.893 531.334 128.3 531.55 128.735C531.763 129.167 531.884 129.61 531.913 130.065C531.942 130.513 531.869 130.956 531.695 131.394C531.521 131.832 531.236 132.25 530.84 132.646C530.443 133.042 530.024 133.329 529.583 133.506C529.145 133.68 528.7 133.754 528.249 133.729C527.798 133.696 527.356 133.574 526.924 133.361C526.489 133.145 526.082 132.847 525.702 132.467ZM526.992 130.973L527.094 131.075C527.313 131.294 527.537 131.479 527.766 131.631C527.994 131.782 528.223 131.889 528.452 131.95C528.681 132.005 528.905 132.003 529.124 131.945C529.343 131.887 529.552 131.758 529.752 131.558C529.946 131.365 530.071 131.159 530.129 130.94C530.187 130.72 530.187 130.498 530.129 130.273C530.068 130.044 529.962 129.815 529.81 129.586C529.662 129.354 529.478 129.129 529.259 128.909L529.158 128.808C528.945 128.595 528.724 128.416 528.495 128.271C528.267 128.12 528.036 128.015 527.804 127.957C527.572 127.893 527.345 127.888 527.123 127.943C526.9 127.997 526.691 128.123 526.494 128.32C526.298 128.516 526.172 128.726 526.117 128.948C526.066 129.167 526.07 129.394 526.132 129.63C526.193 129.858 526.299 130.087 526.451 130.316C526.599 130.542 526.779 130.761 526.992 130.973ZM530.433 122.399L535.663 127.629L534.266 129.026L529.036 123.796L530.433 122.399ZM527.586 122.52C527.383 122.317 527.286 122.078 527.296 121.804C527.306 121.531 527.43 121.274 527.668 121.036C527.903 120.801 528.158 120.678 528.432 120.669C528.709 120.656 528.949 120.751 529.152 120.954C529.355 121.157 529.45 121.397 529.437 121.674C529.428 121.948 529.305 122.202 529.07 122.438C528.832 122.676 528.575 122.8 528.301 122.81C528.028 122.82 527.789 122.723 527.586 122.52ZM534.183 120.882L538.297 124.995L536.905 126.387L531.675 121.157L532.98 119.852L534.183 120.882ZM535.295 122.4L534.918 122.777C534.531 122.39 534.233 121.992 534.024 121.583C533.811 121.17 533.686 120.764 533.647 120.365C533.605 119.962 533.65 119.578 533.782 119.214C533.914 118.844 534.135 118.504 534.444 118.194C534.689 117.949 534.949 117.761 535.223 117.629C535.497 117.497 535.783 117.435 536.083 117.445C536.386 117.451 536.703 117.543 537.035 117.721C537.371 117.895 537.722 118.165 538.089 118.533L541.424 121.868L540.023 123.27L536.683 119.93C536.45 119.698 536.238 119.549 536.044 119.485C535.851 119.42 535.666 119.425 535.489 119.499C535.311 119.567 535.132 119.691 534.952 119.872C534.765 120.058 534.639 120.258 534.575 120.471C534.514 120.68 534.504 120.896 534.546 121.119C534.588 121.335 534.673 121.552 534.802 121.771C534.931 121.99 535.095 122.2 535.295 122.4ZM539.935 112.897L540.921 113.883L537.876 116.928L536.89 115.942L539.935 112.897ZM536.353 113.898L537.745 112.506L542.69 117.451C542.842 117.602 542.977 117.699 543.096 117.741C543.219 117.779 543.336 117.774 543.449 117.726C543.559 117.674 543.675 117.587 543.797 117.465C543.884 117.378 543.958 117.297 544.019 117.223C544.081 117.143 544.131 117.073 544.169 117.015L545.199 118.035C545.118 118.193 545.02 118.353 544.904 118.514C544.788 118.675 544.646 118.839 544.479 119.007C544.173 119.313 543.855 119.531 543.526 119.66C543.198 119.782 542.859 119.792 542.511 119.689C542.163 119.585 541.806 119.35 541.438 118.983L536.353 113.898Z" fill="black"/>
<path d="M297.057 237.76C296.932 237.634 296.8 237.541 296.661 237.479C296.522 237.412 296.361 237.386 296.178 237.402C295.991 237.415 295.765 237.47 295.501 237.566C295.237 237.663 294.916 237.81 294.539 238.006C294.117 238.222 293.698 238.409 293.282 238.567C292.87 238.722 292.468 238.823 292.079 238.871C291.689 238.913 291.316 238.883 290.962 238.78C290.611 238.673 290.284 238.469 289.981 238.166C289.687 237.872 289.486 237.542 289.376 237.175C289.264 236.804 289.238 236.418 289.299 236.015C289.357 235.609 289.497 235.201 289.72 234.792C289.945 234.379 290.248 233.983 290.628 233.603C291.147 233.084 291.693 232.725 292.267 232.525C292.841 232.325 293.397 232.281 293.935 232.394C294.476 232.504 294.956 232.768 295.375 233.187L293.935 234.627C293.728 234.421 293.505 234.284 293.263 234.217C293.021 234.142 292.768 234.147 292.504 234.231C292.243 234.312 291.982 234.482 291.721 234.743C291.47 234.995 291.299 235.243 291.208 235.488C291.115 235.73 291.091 235.957 291.136 236.169C291.178 236.379 291.278 236.563 291.436 236.72C291.555 236.84 291.692 236.919 291.847 236.957C292.004 236.993 292.185 236.993 292.388 236.957C292.591 236.922 292.817 236.854 293.065 236.754C293.313 236.654 293.587 236.525 293.886 236.368C294.386 236.1 294.853 235.894 295.288 235.749C295.726 235.601 296.134 235.518 296.511 235.502C296.888 235.486 297.241 235.543 297.57 235.672C297.898 235.8 298.208 236.01 298.498 236.3C298.804 236.606 299.018 236.94 299.141 237.3C299.263 237.661 299.295 238.038 299.237 238.432C299.179 238.825 299.038 239.221 298.812 239.621C298.586 240.02 298.28 240.413 297.894 240.8C297.546 241.148 297.157 241.446 296.729 241.694C296.297 241.939 295.849 242.107 295.385 242.197C294.924 242.284 294.466 242.265 294.012 242.139C293.558 242.013 293.132 241.752 292.736 241.356L294.191 239.901C294.41 240.12 294.629 240.272 294.848 240.355C295.067 240.439 295.285 240.467 295.501 240.438C295.72 240.405 295.936 240.325 296.149 240.196C296.364 240.064 296.576 239.895 296.782 239.688C297.033 239.437 297.204 239.195 297.294 238.963C297.388 238.728 297.41 238.509 297.362 238.306C297.317 238.1 297.215 237.918 297.057 237.76ZM298.7 229.34L299.686 230.326L296.641 233.371L295.655 232.385L298.7 229.34ZM295.118 230.341L296.51 228.948L301.455 233.893C301.607 234.045 301.742 234.141 301.861 234.183C301.984 234.222 302.101 234.217 302.214 234.169C302.324 234.117 302.44 234.03 302.562 233.908C302.649 233.821 302.723 233.74 302.785 233.666C302.846 233.586 302.896 233.516 302.934 233.458L303.964 234.478C303.884 234.636 303.785 234.796 303.669 234.957C303.553 235.118 303.411 235.282 303.244 235.45C302.938 235.756 302.62 235.973 302.292 236.102C301.963 236.225 301.625 236.234 301.277 236.131C300.928 236.028 300.571 235.793 300.203 235.426L295.118 230.341ZM306.487 229.655L304.157 227.325C303.989 227.157 303.818 227.041 303.644 226.977C303.467 226.909 303.287 226.9 303.103 226.948C302.923 226.993 302.742 227.106 302.562 227.286C302.407 227.441 302.301 227.602 302.243 227.77C302.181 227.934 302.17 228.097 302.209 228.258C302.244 228.416 302.328 228.561 302.46 228.693L301.068 230.085C300.846 229.863 300.686 229.6 300.589 229.297C300.493 228.994 300.467 228.669 300.512 228.321C300.554 227.969 300.667 227.615 300.851 227.257C301.037 226.896 301.3 226.547 301.638 226.208C302.044 225.802 302.473 225.509 302.924 225.329C303.375 225.148 303.826 225.103 304.278 225.193C304.732 225.28 305.162 225.527 305.568 225.933L307.806 228.171C308.093 228.458 308.346 228.675 308.565 228.823C308.781 228.968 308.991 229.075 309.194 229.142L309.276 229.225L307.869 230.631C307.66 230.557 307.431 230.431 307.183 230.254C306.935 230.07 306.703 229.871 306.487 229.655ZM304.664 227.465L305.462 228.243L304.684 229.022C304.5 229.205 304.361 229.386 304.268 229.563C304.175 229.74 304.123 229.911 304.113 230.075C304.1 230.236 304.123 230.388 304.181 230.53C304.242 230.668 304.332 230.797 304.452 230.916C304.571 231.036 304.706 231.116 304.858 231.158C305.006 231.197 305.159 231.192 305.317 231.144C305.472 231.092 305.618 230.997 305.757 230.858C305.966 230.649 306.106 230.425 306.177 230.187C306.248 229.948 306.264 229.726 306.226 229.519C306.19 229.31 306.119 229.149 306.013 229.036L306.97 229.258C307.051 229.442 307.117 229.65 307.168 229.882C307.223 230.111 307.246 230.356 307.236 230.617C307.223 230.875 307.162 231.139 307.052 231.409C306.939 231.677 306.753 231.941 306.491 232.202C306.16 232.534 305.792 232.769 305.389 232.908C304.987 233.04 304.589 233.067 304.195 232.99C303.802 232.906 303.454 232.713 303.151 232.41C302.877 232.136 302.686 231.841 302.576 231.525C302.467 231.21 302.439 230.879 302.494 230.535C302.549 230.183 302.691 229.819 302.919 229.442C303.145 229.062 303.458 228.672 303.857 228.272L304.664 227.465ZM307.564 222.758L311.653 226.847L310.261 228.239L305.031 223.009L306.341 221.699L307.564 222.758ZM307.965 220.007L309.232 221.322C309.154 221.38 309.064 221.454 308.961 221.544C308.858 221.628 308.768 221.709 308.69 221.786C308.494 221.983 308.349 222.179 308.255 222.376C308.162 222.566 308.115 222.758 308.115 222.951C308.118 223.141 308.165 223.33 308.255 223.517C308.349 223.7 308.481 223.884 308.652 224.068L308.284 224.261C307.946 223.923 307.669 223.578 307.453 223.227C307.234 222.872 307.082 222.524 306.998 222.182C306.918 221.838 306.915 221.512 306.989 221.206C307.063 220.9 307.222 220.624 307.467 220.379C307.545 220.302 307.63 220.23 307.723 220.162C307.814 220.091 307.894 220.04 307.965 220.007ZM311.58 216.46L312.566 217.446L309.521 220.491L308.535 219.505L311.58 216.46ZM307.998 217.461L309.39 216.068L314.335 221.013C314.487 221.165 314.622 221.261 314.741 221.303C314.864 221.342 314.981 221.337 315.094 221.289C315.204 221.237 315.32 221.15 315.442 221.028C315.529 220.941 315.603 220.86 315.665 220.786C315.726 220.706 315.776 220.636 315.815 220.578L316.844 221.598C316.764 221.756 316.665 221.916 316.549 222.077C316.433 222.238 316.291 222.402 316.124 222.57C315.818 222.876 315.5 223.093 315.172 223.222C314.843 223.345 314.505 223.354 314.157 223.251C313.809 223.148 313.451 222.913 313.083 222.546L307.998 217.461ZM320.628 212.855L318.834 214.649L317.703 213.517L319.497 211.724C319.774 211.447 319.954 211.176 320.038 210.912C320.118 210.645 320.117 210.388 320.033 210.144C319.949 209.899 319.804 209.673 319.598 209.467C319.389 209.257 319.153 209.103 318.892 209.003C318.631 208.903 318.359 208.885 318.075 208.95C317.792 209.014 317.511 209.185 317.234 209.462L315.944 210.753L321.846 216.655L320.396 218.105L313.358 211.067L316.098 208.326C316.649 207.775 317.221 207.403 317.814 207.209C318.407 207.01 318.983 206.979 319.54 207.118C320.098 207.256 320.6 207.549 321.048 207.997C321.503 208.452 321.791 208.95 321.913 209.491C322.036 210.032 321.989 210.591 321.773 211.168C321.561 211.742 321.179 212.304 320.628 212.855ZM323.957 209.419L323.856 209.318C323.472 208.934 323.174 208.526 322.962 208.095C322.746 207.66 322.623 207.218 322.594 206.77C322.565 206.322 322.638 205.879 322.812 205.441C322.983 204.999 323.266 204.581 323.663 204.184C324.059 203.788 324.479 203.503 324.924 203.329C325.366 203.151 325.81 203.077 326.258 203.106C326.709 203.132 327.153 203.253 327.588 203.469C328.019 203.681 328.427 203.98 328.811 204.363L328.912 204.465C329.292 204.845 329.59 205.252 329.806 205.687C330.019 206.119 330.14 206.562 330.169 207.017C330.198 207.465 330.125 207.908 329.951 208.346C329.777 208.784 329.492 209.202 329.096 209.598C328.699 209.994 328.28 210.281 327.839 210.458C327.401 210.632 326.956 210.706 326.505 210.681C326.054 210.648 325.612 210.526 325.18 210.313C324.745 210.097 324.338 209.799 323.957 209.419ZM325.248 207.925L325.35 208.027C325.569 208.246 325.793 208.431 326.021 208.583C326.25 208.734 326.479 208.841 326.708 208.902C326.937 208.957 327.161 208.955 327.38 208.897C327.599 208.839 327.808 208.71 328.008 208.51C328.201 208.317 328.327 208.111 328.385 207.892C328.443 207.673 328.443 207.45 328.385 207.225C328.324 206.996 328.218 206.767 328.066 206.538C327.918 206.306 327.734 206.081 327.515 205.861L327.414 205.76C327.201 205.547 326.98 205.368 326.751 205.223C326.523 205.072 326.292 204.967 326.06 204.909C325.828 204.845 325.601 204.84 325.379 204.895C325.156 204.95 324.947 205.075 324.75 205.272C324.554 205.468 324.428 205.678 324.373 205.9C324.322 206.119 324.326 206.346 324.388 206.582C324.449 206.811 324.555 207.039 324.707 207.268C324.855 207.494 325.035 207.713 325.248 207.925ZM328.689 199.351L333.919 204.581L332.522 205.978L327.292 200.748L328.689 199.351ZM325.842 199.472C325.639 199.269 325.542 199.03 325.552 198.757C325.562 198.483 325.686 198.226 325.924 197.988C326.159 197.753 326.414 197.63 326.688 197.621C326.965 197.608 327.205 197.703 327.408 197.906C327.611 198.109 327.706 198.349 327.693 198.626C327.684 198.9 327.561 199.154 327.326 199.39C327.087 199.628 326.831 199.752 326.557 199.762C326.283 199.772 326.045 199.675 325.842 199.472ZM332.439 197.834L336.553 201.947L335.161 203.34L329.931 198.109L331.236 196.804L332.439 197.834ZM333.551 199.352L333.174 199.729C332.787 199.342 332.489 198.944 332.28 198.535C332.067 198.122 331.942 197.716 331.903 197.317C331.861 196.914 331.906 196.53 332.038 196.166C332.17 195.796 332.391 195.456 332.7 195.146C332.945 194.901 333.205 194.713 333.479 194.581C333.753 194.449 334.039 194.387 334.339 194.397C334.642 194.404 334.959 194.495 335.291 194.673C335.626 194.847 335.978 195.117 336.345 195.485L339.68 198.82L338.279 200.222L334.938 196.882C334.706 196.65 334.494 196.501 334.3 196.437C334.107 196.373 333.922 196.377 333.744 196.451C333.567 196.519 333.388 196.643 333.208 196.824C333.021 197.011 332.895 197.21 332.831 197.423C332.77 197.633 332.76 197.848 332.802 198.071C332.844 198.287 332.929 198.504 333.058 198.723C333.187 198.942 333.351 199.152 333.551 199.352ZM338.191 189.849L339.177 190.835L336.132 193.881L335.146 192.894L338.191 189.849ZM334.609 190.85L336.001 189.458L340.946 194.403C341.098 194.554 341.233 194.651 341.352 194.693C341.475 194.731 341.592 194.726 341.705 194.678C341.815 194.627 341.931 194.54 342.053 194.417C342.14 194.33 342.214 194.25 342.275 194.175C342.337 194.095 342.387 194.026 342.425 193.968L343.455 194.987C343.374 195.145 343.276 195.305 343.16 195.466C343.044 195.627 342.902 195.791 342.735 195.959C342.428 196.265 342.111 196.483 341.782 196.612C341.454 196.734 341.115 196.744 340.767 196.641C340.419 196.537 340.062 196.302 339.694 195.935L334.609 190.85Z" fill="black"/>
<path d="M396 125L398.887 120L393.113 120L396 125ZM395.5 57L395.5 120.5L396.5 120.5L396.5 57L395.5 57Z" fill="black"/>
<path d="M477 125L479.887 120L474.113 120L477 125ZM476.5 57L476.5 120.5L477.5 120.5L477.5 57L476.5 57Z" fill="black"/>
<path d="M315 125L317.887 120L312.113 120L315 125ZM314.5 57L314.5 120.5L315.5 120.5L315.5 57L314.5 57Z" fill="black"/>
<path d="M232.333 179C232.333 180.473 233.527 181.667 235 181.667C236.473 181.667 237.667 180.473 237.667 179C237.667 177.527 236.473 176.333 235 176.333C233.527 176.333 232.333 177.527 232.333 179ZM353.333 179C353.333 180.473 354.527 181.667 356 181.667C357.473 181.667 358.667 180.473 358.667 179C358.667 177.527 357.473 176.333 356 176.333C354.527 176.333 353.333 177.527 353.333 179ZM235 179.5H356V178.5H235V179.5Z" fill="black"/>
<path d="M353.333 179C353.333 180.473 354.527 181.667 356 181.667C357.473 181.667 358.667 180.473 358.667 179C358.667 177.527 357.473 176.333 356 176.333C354.527 176.333 353.333 177.527 353.333 179ZM474.333 179C474.333 180.473 475.527 181.667 477 181.667C478.473 181.667 479.667 180.473 479.667 179C479.667 177.527 478.473 176.333 477 176.333C475.527 176.333 474.333 177.527 474.333 179ZM356 179.5L477 179.5L477 178.5L356 178.5L356 179.5Z" fill="black"/>
<line y1="-0.5" x2="20" y2="-0.5" transform="matrix(-4.37114e-08 -1 -1 4.37114e-08 234 165)" stroke="black"/>
<line y1="-0.5" x2="20" y2="-0.5" transform="matrix(-4.37114e-08 -1 -1 4.37114e-08 315 165)" stroke="black"/>
<line y1="-0.5" x2="20" y2="-0.5" transform="matrix(-4.37114e-08 -1 -1 4.37114e-08 396 165)" stroke="black"/>
<line y1="-0.5" x2="20" y2="-0.5" transform="matrix(-4.37114e-08 -1 -1 4.37114e-08 557 165)" stroke="black"/>
<line y1="-0.5" x2="20" y2="-0.5" transform="matrix(-4.37114e-08 -1 -1 4.37114e-08 20 165)" stroke="black"/>
<line y1="-0.5" x2="20" y2="-0.5" transform="matrix(-4.37114e-08 -1 -1 4.37114e-08 477 165)" stroke="black"/>
<line y1="-0.5" x2="20" y2="-0.5" transform="matrix(-4.37114e-08 -1 -1 4.37114e-08 692 165)" stroke="black"/>
<line y1="-0.5" x2="20" y2="-0.5" transform="matrix(-4.37114e-08 -1 -1 4.37114e-08 155 165)" stroke="black"/>
<line y1="-0.5" x2="21" y2="-0.5" transform="matrix(-4.37114e-08 -1 -1 4.37114e-08 476 220)" stroke="black"/>
<line x1="355.5" y1="254" x2="355.5" y2="199" stroke="black"/>
<line x1="154.5" y1="254" x2="154.5" y2="185" stroke="black"/>
<line x1="556.5" y1="254" x2="556.5" y2="185" stroke="black"/>
<path d="M235 152L240 154.887V149.113L235 152ZM315 152L310 149.113V154.887L315 152ZM239.5 152.5H310.5V151.5H239.5V152.5Z" fill="black"/>
<path d="M316 152L321 154.887L321 149.113L316 152ZM396 152L391 149.113L391 154.887L396 152ZM320.5 152.5L391.5 152.5L391.5 151.5L320.5 151.5L320.5 152.5Z" fill="black"/>
<path d="M397 152L402 149.113V154.887L397 152ZM477 152L472 154.887V149.113L477 152ZM401.5 151.5L472.5 151.5V152.5L401.5 152.5V151.5Z" fill="black"/>
<path d="M558 152L563 154.887V149.113L558 152ZM692 152L687 149.113V154.887L692 152ZM562.5 152.5H687.5V151.5H562.5V152.5Z" fill="black"/>
<path d="M21 152L26 154.887V149.113L21 152ZM155 152L150 149.113V154.887L155 152ZM25.5 152.5H150.5V151.5H25.5V152.5Z" fill="black"/>
<path d="M356 210L361 212.887L361 207.113L356 210ZM360.5 210.5L476 210.5L476 209.5L360.5 209.5L360.5 210.5Z" fill="black"/>
<path d="M155 248L160 250.887L160 245.113L155 248ZM350 248.5L355 250.887L355 245.113L350 247.5L350 248.5ZM159.5 248.5L350.5 248.5L350.5 247.5L159.5 247.5L159.5 248.5Z" fill="black"/>
<path d="M361 247.5L356 245.113L356 250.887L361 248.5L361 247.5ZM556 248L551 245.113L551 250.887L556 248ZM360.5 248.5L551.5 248.5L551.5 247.5L360.5 247.5L360.5 248.5Z" fill="black"/>
<path d="M234 125L236.887 120L231.113 120L234 125ZM233.5 57L233.5 120.5L234.5 120.5L234.5 57L233.5 57Z" fill="black"/>
<path d="M20 122L22.8868 117L17.1132 117L20 122ZM19.5 91L19.5 117.5L20.5 117.5L20.5 91L19.5 91Z" fill="black"/>
<path d="M557 125L559.887 120L554.113 120L557 125ZM556.5 94L556.5 120.5L557.5 120.5L557.5 94L556.5 94Z" fill="black"/>
<path d="M155 122L157.887 117L152.113 117L155 122ZM154.5 91L154.5 117.5L155.5 117.5L155.5 91L154.5 91Z" fill="black"/>
<path d="M692 125L694.887 120L689.113 120L692 125ZM691.5 94L691.5 120.5L692.5 120.5L692.5 94L691.5 94Z" fill="black"/>
<path d="M17.3333 179C17.3333 180.473 18.5272 181.667 20 181.667C21.4728 181.667 22.6667 180.473 22.6667 179C22.6667 177.527 21.4728 176.333 20 176.333C18.5272 176.333 17.3333 177.527 17.3333 179ZM152.333 179C152.333 180.473 153.527 181.667 155 181.667C156.473 181.667 157.667 180.473 157.667 179C157.667 177.527 156.473 176.333 155 176.333C153.527 176.333 152.333 177.527 152.333 179ZM20 179.5L155 179.5L155 178.5L20 178.5L20 179.5Z" fill="black"/>
<path d="M554.333 179C554.333 180.473 555.527 181.667 557 181.667C558.473 181.667 559.667 180.473 559.667 179C559.667 177.527 558.473 176.333 557 176.333C555.527 176.333 554.333 177.527 554.333 179ZM689.333 179C689.333 180.473 690.527 181.667 692 181.667C693.473 181.667 694.667 180.473 694.667 179C694.667 177.527 693.473 176.333 692 176.333C690.527 176.333 689.333 177.527 689.333 179ZM557 179.5L692 179.5L692 178.5L557 178.5L557 179.5Z" fill="black"/>
<path d="M152.333 179C152.333 180.473 153.527 181.667 155 181.667C156.473 181.667 157.667 180.473 157.667 179C157.667 177.527 156.473 176.333 155 176.333C153.527 176.333 152.333 177.527 152.333 179ZM232.333 179C232.333 180.473 233.527 181.667 235 181.667C236.473 181.667 237.667 180.473 237.667 179C237.667 177.527 236.473 176.333 235 176.333C233.527 176.333 232.333 177.527 232.333 179ZM155 179.5L235 179.5L235 178.5L155 178.5L155 179.5Z" fill="black"/>
<path d="M474.333 179C474.333 180.473 475.527 181.667 477 181.667C478.473 181.667 479.667 180.473 479.667 179C479.667 177.527 478.473 176.333 477 176.333C475.527 176.333 474.333 177.527 474.333 179ZM554.333 179C554.333 180.473 555.527 181.667 557 181.667C558.473 181.667 559.667 180.473 559.667 179C559.667 177.527 558.473 176.333 557 176.333C555.527 176.333 554.333 177.527 554.333 179ZM477 179.5L557 179.5L557 178.5L477 178.5L477 179.5Z" fill="black"/>
<line x1="20" y1="91.5" x2="155" y2="91.5" stroke="black"/>
<line x1="557" y1="94.5" x2="692" y2="94.5" stroke="black"/>
<path d="M408.341 197.483C408.434 196.922 408.795 196.274 409.422 195.54C410.05 194.805 410.824 194.431 411.746 194.418C412.213 194.418 412.641 194.538 413.028 194.778C413.415 195.019 413.702 195.319 413.889 195.68C414.45 194.839 415.125 194.418 415.912 194.418C416.407 194.418 416.834 194.565 417.194 194.859C417.555 195.152 417.742 195.546 417.755 196.04C417.755 196.428 417.662 196.742 417.475 196.982C417.288 197.222 417.108 197.369 416.934 197.423C416.76 197.476 416.607 197.503 416.473 197.503C416.22 197.503 416.013 197.429 415.852 197.282C415.692 197.136 415.612 196.942 415.612 196.701C415.612 196.087 415.946 195.667 416.614 195.44C416.467 195.266 416.2 195.179 415.812 195.179C415.639 195.179 415.512 195.192 415.432 195.219C414.924 195.433 414.55 195.874 414.31 196.541C413.509 199.493 413.108 201.215 413.108 201.709C413.108 202.083 413.215 202.35 413.429 202.511C413.642 202.671 413.876 202.751 414.13 202.751C414.624 202.751 415.111 202.531 415.592 202.09C416.073 201.649 416.4 201.108 416.574 200.467C416.614 200.334 416.654 200.26 416.694 200.247C416.734 200.234 416.841 200.22 417.014 200.207H417.094C417.295 200.207 417.395 200.26 417.395 200.367C417.395 200.381 417.381 200.454 417.355 200.588C417.141 201.349 416.727 202.023 416.113 202.611C415.498 203.198 414.784 203.492 413.969 203.492C413.035 203.492 412.327 203.072 411.846 202.23C411.299 203.058 410.671 203.472 409.963 203.472H409.843C409.189 203.472 408.721 203.299 408.441 202.951C408.16 202.604 408.013 202.237 408 201.85C408 201.422 408.127 201.075 408.381 200.808C408.634 200.541 408.935 200.407 409.282 200.407C409.856 200.407 410.143 200.688 410.143 201.249C410.143 201.516 410.063 201.749 409.903 201.95C409.743 202.15 409.589 202.284 409.442 202.35C409.295 202.417 409.209 202.451 409.182 202.451L409.122 202.471C409.122 202.484 409.162 202.511 409.242 202.551C409.322 202.591 409.429 202.638 409.562 202.691C409.696 202.744 409.823 202.764 409.943 202.751C410.424 202.751 410.838 202.451 411.185 201.85C411.305 201.636 411.459 201.182 411.646 200.487C411.833 199.793 412.02 199.072 412.207 198.324C412.394 197.576 412.5 197.136 412.527 197.002C412.594 196.641 412.627 196.381 412.627 196.221C412.627 195.847 412.527 195.58 412.327 195.419C412.126 195.259 411.899 195.179 411.646 195.179C411.112 195.179 410.611 195.393 410.143 195.82C409.676 196.247 409.349 196.795 409.162 197.463C409.135 197.583 409.102 197.65 409.062 197.663C409.022 197.676 408.915 197.69 408.741 197.703H408.461C408.381 197.623 408.341 197.549 408.341 197.483Z" fill="black"/>
<path d="M420.609 202.182C420.609 201.88 420.684 201.573 420.835 201.262C420.986 200.95 421.251 200.662 421.628 200.398C422.006 200.134 422.464 200.006 423.002 200.016C423.587 200.016 424.012 200.143 424.277 200.398C424.541 200.653 424.678 200.936 424.687 201.248C424.687 201.55 424.607 201.772 424.447 201.913C424.286 202.055 424.107 202.131 423.908 202.14C423.786 202.14 423.672 202.102 423.568 202.027C423.465 201.951 423.408 201.828 423.399 201.658C423.399 201.507 423.441 201.375 423.526 201.262C423.611 201.149 423.691 201.064 423.767 201.007C423.842 200.95 423.904 200.922 423.951 200.922C423.96 200.922 423.965 200.917 423.965 200.908C423.965 200.88 423.932 200.837 423.866 200.78C423.8 200.724 423.682 200.672 423.512 200.625C423.342 200.577 423.158 200.549 422.96 200.54C422.506 200.54 422.176 200.662 421.968 200.908C421.76 201.153 421.652 201.404 421.642 201.658C421.642 201.894 421.732 202.06 421.911 202.154C422.091 202.249 422.351 202.329 422.69 202.395C423.03 202.461 423.276 202.532 423.427 202.607C424.05 202.881 424.362 203.334 424.362 203.967C424.362 204.231 424.31 204.496 424.206 204.76C424.102 205.024 423.946 205.289 423.738 205.553C423.531 205.817 423.233 206.025 422.846 206.176C422.459 206.327 422.015 206.408 421.515 206.417C420.788 206.417 420.273 206.28 419.971 206.006C419.669 205.732 419.513 205.411 419.504 205.043C419.504 204.675 419.603 204.411 419.801 204.25C420 204.09 420.207 204.009 420.424 204.009C420.566 204.009 420.698 204.052 420.821 204.137C420.944 204.222 421.01 204.368 421.019 204.576C421.019 204.821 420.934 205.029 420.764 205.199C420.594 205.369 420.448 205.454 420.325 205.454C420.306 205.463 420.292 205.468 420.283 205.468C420.273 205.468 420.269 205.478 420.269 205.496C420.278 205.525 420.316 205.563 420.382 205.61C420.448 205.657 420.594 205.718 420.821 205.794C421.048 205.869 421.307 205.902 421.6 205.893C421.94 205.893 422.233 205.841 422.478 205.737C422.723 205.633 422.903 205.501 423.016 205.341C423.129 205.18 423.21 205.034 423.257 204.902C423.304 204.769 423.328 204.651 423.328 204.548C423.328 204.283 423.229 204.085 423.03 203.953C422.832 203.821 422.605 203.74 422.351 203.712C422.096 203.684 421.817 203.613 421.515 203.5C421.213 203.386 420.991 203.221 420.849 203.004C420.689 202.768 420.609 202.494 420.609 202.182Z" fill="black"/>
<path d="M240.34 234.381C240.434 233.821 240.794 233.174 241.421 232.44C242.048 231.707 242.821 231.333 243.742 231.32C244.208 231.32 244.635 231.44 245.022 231.68C245.409 231.92 245.696 232.22 245.882 232.581C246.443 231.74 247.116 231.32 247.903 231.32C248.397 231.32 248.824 231.467 249.184 231.76C249.544 232.054 249.731 232.447 249.744 232.941C249.744 233.327 249.651 233.641 249.464 233.881C249.277 234.121 249.097 234.268 248.924 234.321C248.75 234.375 248.597 234.401 248.464 234.401C248.21 234.401 248.003 234.328 247.843 234.181C247.683 234.034 247.603 233.841 247.603 233.601C247.603 232.987 247.937 232.567 248.604 232.34C248.457 232.167 248.19 232.08 247.803 232.08C247.63 232.08 247.503 232.094 247.423 232.12C246.916 232.334 246.543 232.774 246.303 233.441C245.502 236.389 245.102 238.11 245.102 238.603C245.102 238.977 245.209 239.243 245.422 239.403C245.636 239.563 245.869 239.643 246.123 239.643C246.616 239.643 247.103 239.423 247.583 238.983C248.063 238.543 248.39 238.003 248.564 237.363C248.604 237.229 248.644 237.156 248.684 237.142C248.724 237.129 248.83 237.116 249.004 237.102H249.084C249.284 237.102 249.384 237.156 249.384 237.262C249.384 237.276 249.371 237.349 249.344 237.483C249.13 238.243 248.717 238.917 248.103 239.503C247.49 240.09 246.776 240.384 245.962 240.384C245.029 240.384 244.322 239.964 243.842 239.123C243.295 239.95 242.668 240.364 241.961 240.364H241.841C241.187 240.364 240.72 240.19 240.44 239.844C240.16 239.497 240.013 239.13 240 238.743C240 238.316 240.127 237.969 240.38 237.703C240.634 237.436 240.934 237.302 241.281 237.302C241.854 237.302 242.141 237.583 242.141 238.143C242.141 238.41 242.061 238.643 241.901 238.843C241.741 239.043 241.587 239.177 241.441 239.243C241.294 239.31 241.207 239.343 241.18 239.343L241.12 239.363C241.12 239.377 241.16 239.403 241.241 239.443C241.321 239.483 241.427 239.53 241.561 239.583C241.694 239.637 241.821 239.657 241.941 239.643C242.421 239.643 242.835 239.343 243.181 238.743C243.301 238.53 243.455 238.076 243.642 237.383C243.828 236.689 244.015 235.969 244.202 235.222C244.389 234.475 244.495 234.034 244.522 233.901C244.589 233.541 244.622 233.281 244.622 233.121C244.622 232.747 244.522 232.48 244.322 232.32C244.122 232.16 243.895 232.08 243.642 232.08C243.108 232.08 242.608 232.294 242.141 232.721C241.674 233.147 241.347 233.694 241.16 234.361C241.134 234.481 241.1 234.548 241.06 234.561C241.02 234.575 240.914 234.588 240.74 234.601H240.46C240.38 234.521 240.34 234.448 240.34 234.381Z" fill="black"/>
<path d="M258.951 237.719C258.951 237.52 259.04 237.337 259.219 237.167C259.398 236.997 259.597 236.907 259.813 236.898C259.983 236.898 260.139 236.983 260.28 237.153C260.422 237.322 260.497 237.591 260.507 237.959C260.507 238.232 260.417 238.775 260.238 239.586C260.096 240.114 259.969 240.548 259.856 240.887C259.743 241.227 259.578 241.609 259.361 242.033C259.144 242.457 258.885 242.778 258.583 242.995C258.281 243.212 257.941 243.32 257.564 243.32C257.149 243.32 256.781 243.245 256.461 243.094C256.14 242.943 255.909 242.74 255.768 242.486C255.758 242.495 255.744 242.514 255.725 242.542C255.339 243.061 254.867 243.32 254.311 243.32C254.065 243.32 253.83 243.292 253.603 243.235C253.377 243.179 253.155 243.089 252.939 242.967C252.722 242.844 252.547 242.66 252.415 242.415C252.283 242.17 252.217 241.873 252.217 241.524C252.217 241.015 252.377 240.326 252.698 239.458C253.019 238.591 253.184 238.039 253.193 237.803C253.193 237.794 253.193 237.785 253.193 237.775C253.193 237.69 253.193 237.634 253.193 237.605C253.193 237.577 253.174 237.544 253.137 237.506C253.099 237.469 253.047 237.45 252.981 237.45H252.924C252.707 237.45 252.509 237.539 252.33 237.719C252.151 237.898 252.01 238.091 251.906 238.299C251.802 238.506 251.722 238.704 251.665 238.893C251.609 239.081 251.571 239.185 251.552 239.204C251.533 239.223 251.458 239.232 251.326 239.232H251.128C251.071 239.176 251.043 239.133 251.043 239.105C251.043 239.048 251.081 238.916 251.156 238.709C251.232 238.501 251.34 238.261 251.481 237.987C251.623 237.714 251.83 237.469 252.104 237.252C252.377 237.035 252.684 236.926 253.023 236.926C253.429 236.926 253.74 237.044 253.957 237.28C254.174 237.516 254.282 237.789 254.282 238.1C254.282 238.27 254.127 238.779 253.816 239.628C253.504 240.477 253.349 241.132 253.349 241.595C253.349 242.028 253.448 242.335 253.646 242.514C253.844 242.693 254.094 242.787 254.396 242.797C254.801 242.797 255.159 242.509 255.471 241.934L255.541 241.807V241.481C255.541 241.453 255.541 241.411 255.541 241.354C255.541 241.297 255.546 241.26 255.556 241.241C255.565 241.222 255.57 241.189 255.57 241.142C255.57 241.095 255.574 241.052 255.584 241.015C255.593 240.977 255.607 240.916 255.626 240.831C255.645 240.746 255.659 240.666 255.669 240.59C255.678 240.515 255.706 240.402 255.754 240.251C255.801 240.1 255.838 239.949 255.867 239.798C255.895 239.647 255.947 239.444 256.022 239.19C256.296 238.115 256.451 237.535 256.489 237.45C256.612 237.195 256.815 237.068 257.097 237.068C257.277 237.068 257.399 237.115 257.465 237.209C257.531 237.304 257.569 237.393 257.578 237.478C257.578 237.601 257.442 238.204 257.168 239.289C256.895 240.373 256.744 240.996 256.715 241.156C256.697 241.26 256.687 241.425 256.687 241.651V241.75C256.687 241.892 256.701 242.028 256.73 242.16C256.758 242.292 256.848 242.429 256.998 242.571C257.149 242.712 257.361 242.787 257.635 242.797C258.305 242.797 258.837 242.222 259.233 241.071C259.318 240.854 259.413 240.548 259.516 240.152C259.62 239.756 259.677 239.473 259.686 239.303C259.686 238.992 259.625 238.746 259.502 238.567C259.38 238.388 259.257 238.237 259.134 238.115C259.012 237.992 258.951 237.86 258.951 237.719Z" fill="black"/>
<path d="M262.417 237.096C262.162 237.096 261.959 237.012 261.808 236.842C261.657 236.672 261.582 236.465 261.582 236.219C261.582 235.55 261.832 234.97 262.332 234.479C262.832 233.989 263.454 233.744 264.199 233.744C265.057 233.744 265.774 234.008 266.349 234.536C266.924 235.064 267.217 235.748 267.226 236.587C267.226 236.993 267.132 237.379 266.943 237.747C266.755 238.115 266.528 238.436 266.264 238.709C266 238.983 265.623 239.331 265.133 239.756C264.793 240.048 264.322 240.482 263.718 241.057L262.883 241.849L263.959 241.864C265.439 241.864 266.227 241.84 266.321 241.793C266.387 241.774 266.5 241.354 266.66 240.534V240.491H267.226V240.534C267.217 240.562 267.156 240.991 267.042 241.821C266.929 242.651 266.858 243.085 266.83 243.123V243.165H261.582V242.896V242.727C261.582 242.661 261.61 242.59 261.667 242.514C261.723 242.439 261.865 242.274 262.091 242.019C262.365 241.717 262.601 241.453 262.799 241.227C262.883 241.133 263.044 240.958 263.28 240.704C263.515 240.449 263.676 240.275 263.761 240.18C263.845 240.086 263.982 239.93 264.171 239.713C264.359 239.497 264.491 239.336 264.567 239.232C264.642 239.129 264.751 238.987 264.892 238.808C265.034 238.629 265.133 238.478 265.189 238.355C265.246 238.233 265.317 238.096 265.401 237.945C265.486 237.794 265.548 237.643 265.585 237.493C265.623 237.342 265.656 237.2 265.684 237.068C265.713 236.936 265.727 236.781 265.727 236.601C265.727 236.007 265.566 235.493 265.246 235.059C264.925 234.626 264.468 234.409 263.874 234.409C263.562 234.409 263.289 234.489 263.053 234.649C262.817 234.81 262.652 234.965 262.558 235.116C262.464 235.267 262.417 235.356 262.417 235.385C262.417 235.394 262.44 235.399 262.487 235.399C262.657 235.399 262.832 235.465 263.011 235.597C263.19 235.729 263.28 235.946 263.28 236.248C263.28 236.483 263.204 236.681 263.053 236.842C262.902 237.002 262.69 237.087 262.417 237.096Z" fill="black"/>
<path d="M442.34 234.381C442.434 233.821 442.794 233.174 443.421 232.441C444.048 231.707 444.821 231.333 445.742 231.32C446.208 231.32 446.635 231.44 447.022 231.68C447.409 231.92 447.696 232.22 447.882 232.581C448.443 231.74 449.116 231.32 449.903 231.32C450.397 231.32 450.824 231.467 451.184 231.76C451.544 232.054 451.731 232.447 451.744 232.941C451.744 233.328 451.651 233.641 451.464 233.881C451.277 234.121 451.097 234.268 450.924 234.321C450.75 234.375 450.597 234.401 450.463 234.401C450.21 234.401 450.003 234.328 449.843 234.181C449.683 234.035 449.603 233.841 449.603 233.601C449.603 232.987 449.937 232.567 450.604 232.341C450.457 232.167 450.19 232.08 449.803 232.08C449.63 232.08 449.503 232.094 449.423 232.12C448.916 232.334 448.543 232.774 448.303 233.441C447.502 236.389 447.102 238.11 447.102 238.603C447.102 238.977 447.209 239.243 447.422 239.403C447.636 239.563 447.869 239.643 448.122 239.643C448.616 239.643 449.103 239.423 449.583 238.983C450.063 238.543 450.39 238.003 450.563 237.363C450.604 237.229 450.644 237.156 450.684 237.142C450.724 237.129 450.83 237.116 451.004 237.102H451.084C451.284 237.102 451.384 237.156 451.384 237.263C451.384 237.276 451.37 237.349 451.344 237.483C451.13 238.243 450.717 238.917 450.103 239.503C449.49 240.09 448.776 240.384 447.962 240.384C447.029 240.384 446.322 239.964 445.842 239.123C445.295 239.95 444.668 240.364 443.961 240.364H443.841C443.187 240.364 442.72 240.19 442.44 239.844C442.16 239.497 442.013 239.13 442 238.743C442 238.316 442.127 237.969 442.38 237.703C442.634 237.436 442.934 237.303 443.281 237.303C443.854 237.303 444.141 237.583 444.141 238.143C444.141 238.41 444.061 238.643 443.901 238.843C443.741 239.043 443.587 239.177 443.441 239.243C443.294 239.31 443.207 239.343 443.18 239.343L443.12 239.363C443.12 239.377 443.16 239.403 443.241 239.443C443.321 239.483 443.427 239.53 443.561 239.583C443.694 239.637 443.821 239.657 443.941 239.643C444.421 239.643 444.834 239.343 445.181 238.743C445.301 238.53 445.455 238.076 445.641 237.383C445.828 236.689 446.015 235.969 446.202 235.222C446.388 234.475 446.495 234.035 446.522 233.901C446.589 233.541 446.622 233.281 446.622 233.121C446.622 232.747 446.522 232.481 446.322 232.321C446.122 232.16 445.895 232.08 445.641 232.08C445.108 232.08 444.608 232.294 444.141 232.721C443.674 233.148 443.347 233.694 443.16 234.361C443.134 234.481 443.1 234.548 443.06 234.561C443.02 234.575 442.914 234.588 442.74 234.601H442.46C442.38 234.521 442.34 234.448 442.34 234.381Z" fill="black"/>
<path d="M460.954 237.719C460.954 237.521 461.044 237.337 461.223 237.167C461.402 236.997 461.6 236.908 461.817 236.898C461.987 236.898 462.143 236.983 462.284 237.153C462.426 237.323 462.501 237.591 462.51 237.959C462.51 238.233 462.421 238.775 462.242 239.586C462.1 240.114 461.973 240.548 461.86 240.887C461.747 241.227 461.581 241.609 461.365 242.033C461.148 242.457 460.888 242.778 460.587 242.995C460.285 243.212 459.945 243.32 459.568 243.32C459.153 243.32 458.785 243.245 458.465 243.094C458.144 242.943 457.913 242.74 457.772 242.486C457.762 242.495 457.748 242.514 457.729 242.542C457.342 243.061 456.871 243.32 456.315 243.32C456.069 243.32 455.834 243.292 455.607 243.235C455.381 243.179 455.159 243.089 454.942 242.967C454.726 242.844 454.551 242.66 454.419 242.415C454.287 242.17 454.221 241.873 454.221 241.524C454.221 241.015 454.381 240.326 454.702 239.459C455.023 238.591 455.188 238.039 455.197 237.803C455.197 237.794 455.197 237.785 455.197 237.775C455.197 237.69 455.197 237.634 455.197 237.605C455.197 237.577 455.178 237.544 455.14 237.506C455.103 237.469 455.051 237.45 454.985 237.45H454.928C454.711 237.45 454.513 237.539 454.334 237.719C454.155 237.898 454.014 238.091 453.91 238.299C453.806 238.506 453.726 238.704 453.669 238.893C453.613 239.081 453.575 239.185 453.556 239.204C453.537 239.223 453.462 239.232 453.33 239.232H453.132C453.075 239.176 453.047 239.133 453.047 239.105C453.047 239.048 453.085 238.916 453.16 238.709C453.235 238.501 453.344 238.261 453.485 237.987C453.627 237.714 453.834 237.469 454.108 237.252C454.381 237.035 454.688 236.926 455.027 236.926C455.433 236.926 455.744 237.044 455.961 237.28C456.178 237.516 456.286 237.789 456.286 238.101C456.286 238.27 456.131 238.78 455.819 239.628C455.508 240.477 455.353 241.132 455.353 241.595C455.353 242.028 455.452 242.335 455.65 242.514C455.848 242.693 456.098 242.787 456.399 242.797C456.805 242.797 457.163 242.509 457.474 241.934L457.545 241.807V241.481C457.545 241.453 457.545 241.411 457.545 241.354C457.545 241.297 457.55 241.26 457.559 241.241C457.569 241.222 457.574 241.189 457.574 241.142C457.574 241.095 457.578 241.052 457.588 241.015C457.597 240.977 457.611 240.916 457.63 240.831C457.649 240.746 457.663 240.666 457.673 240.59C457.682 240.515 457.71 240.402 457.757 240.251C457.805 240.1 457.842 239.949 457.871 239.798C457.899 239.647 457.951 239.444 458.026 239.19C458.3 238.115 458.455 237.535 458.493 237.45C458.616 237.195 458.818 237.068 459.101 237.068C459.28 237.068 459.403 237.115 459.469 237.209C459.535 237.304 459.573 237.393 459.582 237.478C459.582 237.601 459.445 238.204 459.172 239.289C458.899 240.373 458.748 240.996 458.719 241.156C458.7 241.26 458.691 241.425 458.691 241.651V241.75C458.691 241.892 458.705 242.028 458.733 242.16C458.762 242.292 458.851 242.429 459.002 242.571C459.153 242.712 459.365 242.787 459.639 242.797C460.308 242.797 460.841 242.222 461.237 241.071C461.322 240.854 461.416 240.548 461.52 240.152C461.624 239.756 461.681 239.473 461.69 239.303C461.69 238.992 461.629 238.747 461.506 238.567C461.383 238.388 461.261 238.237 461.138 238.115C461.016 237.992 460.954 237.86 460.954 237.719Z" fill="black"/>
<path d="M465.886 234.989L465.702 235.06C465.57 235.107 465.381 235.154 465.136 235.201C464.891 235.248 464.617 235.281 464.316 235.3H464.047V234.649H464.316C464.759 234.63 465.169 234.56 465.546 234.437C465.924 234.315 466.188 234.201 466.338 234.098C466.489 233.994 466.621 233.89 466.735 233.786C466.753 233.758 466.81 233.744 466.904 233.744C466.989 233.744 467.069 233.772 467.145 233.829V238.058L467.159 242.302C467.225 242.368 467.282 242.411 467.329 242.429C467.376 242.448 467.489 242.467 467.668 242.486C467.847 242.505 468.14 242.514 468.545 242.514H468.913V243.165H468.757C468.559 243.137 467.81 243.123 466.508 243.123C465.226 243.123 464.485 243.137 464.287 243.165H464.118V242.514H464.485C464.693 242.514 464.872 242.514 465.023 242.514C465.174 242.514 465.292 242.51 465.377 242.5C465.461 242.491 465.537 242.477 465.603 242.458C465.669 242.439 465.707 242.429 465.716 242.429C465.726 242.429 465.754 242.406 465.801 242.359C465.848 242.312 465.876 242.293 465.886 242.302V234.989Z" fill="black"/>
<path d="M474.092 39.8862C474.092 39.8111 473.786 39.7627 473.174 39.7413C472.916 39.7413 472.749 39.7359 472.674 39.7252C472.599 39.7144 472.561 39.6607 472.561 39.5641C472.561 39.5533 472.572 39.4942 472.594 39.3869C472.658 39.1721 472.706 39.0539 472.739 39.0324C472.771 39.011 473.813 39.0002 475.864 39.0002C477.904 39.011 478.994 39.0271 479.134 39.0486C479.821 39.1667 480.396 39.4298 480.858 39.8379C481.32 40.246 481.556 40.7884 481.567 41.465C481.567 42.2919 481.212 43.0491 480.503 43.7364C479.762 44.4667 478.806 44.9285 477.636 45.1218C477.561 45.1325 476.997 45.1433 475.944 45.154H474.414L473.931 47.071C473.608 48.3168 473.447 48.9773 473.447 49.0525C473.447 49.0954 473.453 49.1223 473.464 49.133C473.474 49.1438 473.512 49.1652 473.576 49.1975C473.641 49.2297 473.732 49.2404 473.85 49.2297C473.968 49.2189 474.145 49.2297 474.382 49.2619H474.881C474.946 49.3586 474.978 49.4176 474.978 49.4391C474.978 49.6109 474.94 49.772 474.865 49.9224C474.811 49.9761 474.725 50.0029 474.607 50.0029C474.575 50.0029 474.376 49.9976 474.011 49.9868C473.646 49.9761 473.109 49.9707 472.4 49.9707C471.734 49.9707 471.224 49.9707 470.87 49.9707C470.515 49.9707 470.322 49.9761 470.29 49.9868C470.097 49.9868 470 49.9331 470 49.8257C470 49.8042 470.016 49.7291 470.048 49.6002C470.091 49.4284 470.134 49.3317 470.177 49.3102C470.22 49.2887 470.344 49.2726 470.548 49.2619C470.838 49.2619 471.16 49.2458 471.514 49.2136C471.665 49.1814 471.767 49.1169 471.82 49.0203C471.853 48.9773 472.239 47.4845 472.98 44.5419C473.721 41.5992 474.092 40.0473 474.092 39.8862ZM479.859 41.0783C479.859 40.9387 479.848 40.826 479.827 40.74C479.805 40.6541 479.757 40.536 479.682 40.3856C479.607 40.2353 479.472 40.1171 479.279 40.0312C479.086 39.9453 478.823 39.8594 478.49 39.7735C478.414 39.7627 477.985 39.752 477.201 39.7413C477.018 39.7413 476.83 39.7413 476.637 39.7413C476.444 39.7413 476.288 39.7466 476.17 39.7574C476.052 39.7681 475.987 39.7681 475.977 39.7574C475.837 39.7681 475.74 39.8164 475.687 39.9024C475.665 39.9668 475.563 40.3803 475.381 41.1428C475.198 41.9053 475.01 42.6463 474.817 43.3659C474.623 44.0854 474.527 44.4506 474.527 44.4613C474.527 44.4828 474.962 44.4935 475.832 44.4935H476.025H476.395C477.598 44.4935 478.457 44.225 478.973 43.6881C479.263 43.3981 479.483 42.9739 479.633 42.4154C479.784 41.857 479.859 41.4113 479.859 41.0783Z" fill="black"/>
<path d="M482.231 45.8369L482.083 45.8938C481.976 45.9318 481.824 45.9698 481.627 46.0077C481.43 46.0457 481.209 46.0723 480.966 46.0875H480.75V45.5635H480.966C481.323 45.5484 481.654 45.4914 481.957 45.3927C482.261 45.294 482.474 45.2029 482.595 45.1194C482.717 45.0358 482.823 44.9523 482.914 44.8688C482.929 44.846 482.975 44.8346 483.051 44.8346C483.119 44.8346 483.184 44.8574 483.244 44.903V48.3084L483.256 51.7252C483.309 51.7783 483.354 51.8125 483.392 51.8277C483.43 51.8429 483.521 51.858 483.666 51.8732C483.81 51.8884 484.045 51.896 484.372 51.896H484.668V52.4199H484.543C484.383 52.3971 483.78 52.3858 482.732 52.3858C481.699 52.3858 481.103 52.3971 480.944 52.4199H480.807V51.896H481.103C481.27 51.896 481.414 51.896 481.536 51.896C481.657 51.896 481.752 51.8922 481.821 51.8846C481.889 51.877 481.95 51.8656 482.003 51.8505C482.056 51.8353 482.086 51.8277 482.094 51.8277C482.102 51.8277 482.124 51.8087 482.162 51.7707C482.2 51.7328 482.223 51.7176 482.231 51.7252V45.8369Z" fill="black"/>
<path d="M626.458 81.0396C626.458 80.7812 626.569 80.5462 626.793 80.3348C627.016 80.1233 627.257 80.0117 627.515 80C627.738 80 627.938 80.1057 628.114 80.3172C628.29 80.5286 628.378 80.8869 628.378 81.392C628.378 81.7444 628.308 82.2495 628.167 82.9074C628.026 83.5652 627.809 84.2876 627.515 85.0747C627.221 85.8617 626.798 86.5489 626.246 87.1363C625.694 87.7236 625.072 88.0114 624.379 87.9997C623.439 87.9997 622.793 87.5474 622.44 86.6429C622.429 86.6194 622.387 86.6488 622.317 86.731C621.624 87.5768 620.831 87.9997 619.938 87.9997C618.646 87.9997 618 87.1186 618 85.3566C618 84.2876 618.241 83.1952 618.722 82.0792C619.204 80.9632 619.598 80.323 619.903 80.1586C620.044 80.0764 620.185 80.0646 620.326 80.1233C620.479 80.2056 620.555 80.3113 620.555 80.4405C620.555 80.5815 620.437 80.8105 620.203 81.1277C619.968 81.4449 619.697 81.8736 619.392 82.414C619.087 82.9544 618.899 83.53 618.828 84.1408C618.816 84.2113 618.811 84.3346 618.811 84.5108C618.811 85.2509 618.952 85.7619 619.233 86.0438C619.515 86.3257 619.856 86.4667 620.255 86.4667C620.937 86.4667 621.536 86.1554 622.053 85.5328L622.194 85.3918V85.0571C622.252 83.4007 622.628 82.5726 623.321 82.5726C623.686 82.5726 623.868 82.784 623.868 83.2069C623.868 83.4184 623.809 83.7003 623.691 84.0527C623.574 84.4051 623.456 84.7281 623.339 85.0218L623.163 85.4271C623.175 85.4506 623.186 85.4858 623.198 85.5328C623.21 85.5798 623.257 85.662 623.339 85.7795C623.421 85.897 623.515 86.0027 623.621 86.0967C623.727 86.1906 623.868 86.2729 624.044 86.3433C624.22 86.4138 624.426 86.4549 624.661 86.4667C625.401 86.4667 626.035 86.0438 626.564 85.198C627.092 84.3522 627.356 83.6122 627.356 82.9778C627.356 82.6137 627.28 82.3141 627.127 82.0792C626.975 81.8443 626.828 81.6563 626.687 81.5154C626.546 81.3744 626.47 81.2158 626.458 81.0396Z" fill="black"/>
<path d="M618.151 134.739C617.786 134.739 617.593 134.718 617.572 134.675C617.561 134.653 617.556 134.611 617.556 134.546C617.556 134.289 617.615 134.112 617.733 134.016C617.754 134.005 617.834 134 617.974 134C618.552 134.032 619.233 134.048 620.015 134.048C621.526 134.048 622.394 134.032 622.619 134H622.812C622.876 134.064 622.909 134.112 622.909 134.144C622.909 134.177 622.898 134.273 622.876 134.434C622.823 134.594 622.775 134.696 622.732 134.739H622.121C621.382 134.75 620.948 134.798 620.819 134.884C620.744 134.927 620.669 135.077 620.594 135.334C620.519 135.591 620.16 137.006 619.517 139.578C619.345 140.274 619.163 141.014 618.97 141.796C618.777 142.578 618.633 143.168 618.536 143.564L618.392 144.143C618.392 144.186 618.44 144.207 618.536 144.207C618.633 144.207 618.949 144.218 619.485 144.239H619.758C620.101 144.239 620.374 144.234 620.578 144.223C620.781 144.212 621.044 144.175 621.365 144.111C621.687 144.046 621.955 143.95 622.169 143.821C622.384 143.693 622.619 143.51 622.876 143.275C623.134 143.039 623.359 142.744 623.552 142.391C623.723 142.069 623.884 141.71 624.034 141.314C624.184 140.917 624.275 140.692 624.307 140.638C624.361 140.606 624.452 140.59 624.58 140.59H624.789C624.854 140.687 624.886 140.746 624.886 140.767C624.886 140.788 624.779 141.105 624.564 141.715C624.35 142.326 624.114 142.969 623.857 143.644C623.6 144.32 623.461 144.716 623.439 144.834C623.418 144.887 623.396 144.92 623.375 144.93C623.353 144.941 623.268 144.957 623.118 144.979C622.968 145 622.737 145.005 622.426 144.995C622.309 144.995 621.901 144.995 621.205 144.995C620.508 144.995 619.844 144.989 619.212 144.979H616.35C615.45 144.979 615 144.925 615 144.818C615 144.743 615.011 144.668 615.032 144.593C615.086 144.389 615.139 144.277 615.193 144.255C615.236 144.245 615.316 144.239 615.434 144.239H615.53C615.82 144.239 616.141 144.223 616.495 144.191C616.645 144.159 616.747 144.094 616.8 143.998C616.832 143.955 617.218 142.466 617.958 139.529C618.697 136.593 619.067 135.045 619.067 134.884C619.067 134.809 618.761 134.761 618.151 134.739Z" fill="black"/>
<path d="M627.852 140.821L627.705 140.878C627.599 140.916 627.447 140.953 627.25 140.991C627.053 141.029 626.833 141.056 626.591 141.071H626.375V140.548H626.591C626.947 140.533 627.277 140.476 627.58 140.378C627.883 140.279 628.095 140.188 628.216 140.105C628.337 140.022 628.443 139.938 628.534 139.855C628.549 139.832 628.595 139.821 628.671 139.821C628.739 139.821 628.803 139.844 628.864 139.889V143.287L628.875 146.696C628.928 146.749 628.974 146.784 629.012 146.799C629.049 146.814 629.14 146.829 629.284 146.844C629.428 146.859 629.663 146.867 629.989 146.867H630.284V147.39H630.159C630 147.367 629.398 147.356 628.352 147.356C627.322 147.356 626.727 147.367 626.568 147.39H626.432V146.867H626.727C626.894 146.867 627.038 146.867 627.159 146.867C627.28 146.867 627.375 146.863 627.443 146.856C627.511 146.848 627.572 146.837 627.625 146.821C627.678 146.806 627.708 146.799 627.716 146.799C627.724 146.799 627.746 146.78 627.784 146.742C627.822 146.704 627.845 146.689 627.852 146.696V140.821Z" fill="black"/>
<path d="M81.1506 134.739C80.7862 134.739 80.5933 134.718 80.5719 134.675C80.5612 134.653 80.5558 134.611 80.5558 134.546C80.5558 134.289 80.6148 134.112 80.7327 134.016C80.7541 134.005 80.8345 134 80.9738 134C81.5524 134.032 82.2329 134.048 83.0152 134.048C84.5262 134.048 85.3942 134.032 85.6193 134H85.8122C85.8765 134.064 85.9086 134.112 85.9086 134.144C85.9086 134.177 85.8979 134.273 85.8765 134.434C85.8229 134.594 85.7747 134.696 85.7318 134.739H85.121C84.3815 134.75 83.9475 134.798 83.8189 134.884C83.7439 134.927 83.6689 135.077 83.5939 135.334C83.5189 135.591 83.1599 137.006 82.5169 139.578C82.3455 140.274 82.1633 141.014 81.9704 141.796C81.7775 142.578 81.6328 143.168 81.5364 143.564L81.3917 144.143C81.3917 144.186 81.4399 144.207 81.5364 144.207C81.6328 144.207 81.949 144.218 82.4848 144.239H82.758C83.101 144.239 83.3742 144.234 83.5778 144.223C83.7814 144.212 84.044 144.175 84.3655 144.111C84.687 144.046 84.9549 143.95 85.1692 143.821C85.3835 143.693 85.6193 143.51 85.8765 143.275C86.1337 143.039 86.3587 142.744 86.5516 142.391C86.7231 142.069 86.8838 141.71 87.0338 141.314C87.1839 140.917 87.2749 140.692 87.3071 140.638C87.3607 140.606 87.4518 140.59 87.5804 140.59H87.7893C87.8536 140.687 87.8858 140.746 87.8858 140.767C87.8858 140.788 87.7786 141.105 87.5643 141.715C87.35 142.326 87.1142 142.969 86.857 143.644C86.5998 144.32 86.4605 144.716 86.4391 144.834C86.4176 144.887 86.3962 144.92 86.3748 144.93C86.3533 144.941 86.2676 144.957 86.1176 144.979C85.9676 145 85.7372 145.005 85.4264 144.995C85.3085 144.995 84.9013 144.995 84.2047 144.995C83.5082 144.995 82.8438 144.989 82.2115 144.979H79.3503C78.4501 144.979 78 144.925 78 144.818C78 144.743 78.0107 144.668 78.0321 144.593C78.0857 144.389 78.1393 144.277 78.1929 144.255C78.2358 144.245 78.3161 144.239 78.434 144.239H78.5305C78.8198 144.239 79.1413 144.223 79.4949 144.191C79.6449 144.159 79.7468 144.094 79.8003 143.998C79.8325 143.955 80.2183 142.466 80.9577 139.529C81.6971 136.593 82.0668 135.045 82.0668 134.884C82.0668 134.809 81.7614 134.761 81.1506 134.739Z" fill="black"/>
<path d="M89.6705 142.514C89.4659 142.514 89.3031 142.446 89.1818 142.31C89.0606 142.173 89 142.007 89 141.81C89 141.272 89.2008 140.806 89.6023 140.412C90.0039 140.018 90.5039 139.821 91.1025 139.821C91.7919 139.821 92.3677 140.033 92.8299 140.457C93.292 140.882 93.5269 141.431 93.5345 142.105C93.5345 142.431 93.4587 142.742 93.3072 143.037C93.1557 143.332 92.9738 143.59 92.7617 143.81C92.5495 144.03 92.2465 144.31 91.8525 144.651C91.5798 144.886 91.2009 145.234 90.7161 145.696L90.0455 146.333L90.9093 146.344C92.0988 146.344 92.7314 146.325 92.8071 146.287C92.8602 146.272 92.9511 145.935 93.0799 145.276V145.242H93.5345V145.276C93.5269 145.299 93.4777 145.643 93.3867 146.31C93.2958 146.977 93.239 147.325 93.2163 147.356V147.39H89V147.174V147.037C89 146.984 89.0227 146.927 89.0682 146.867C89.1136 146.806 89.2273 146.674 89.4091 146.469C89.6288 146.227 89.8183 146.015 89.9774 145.833C90.0455 145.757 90.1743 145.617 90.3638 145.412C90.5532 145.208 90.682 145.067 90.7502 144.992C90.8183 144.916 90.9282 144.791 91.0797 144.617C91.2313 144.442 91.3373 144.314 91.3979 144.23C91.4585 144.147 91.5457 144.033 91.6593 143.889C91.773 143.745 91.8525 143.624 91.898 143.526C91.9434 143.427 92.0003 143.317 92.0684 143.196C92.1366 143.075 92.1859 142.954 92.2162 142.832C92.2465 142.711 92.273 142.598 92.2957 142.491C92.3185 142.385 92.3298 142.26 92.3298 142.116C92.3298 141.639 92.201 141.226 91.9434 140.878C91.6858 140.529 91.3184 140.355 90.8411 140.355C90.591 140.355 90.3713 140.419 90.1819 140.548C89.9925 140.677 89.8599 140.802 89.7842 140.923C89.7084 141.044 89.6705 141.116 89.6705 141.139C89.6705 141.147 89.6895 141.15 89.7273 141.15C89.8637 141.15 90.0039 141.204 90.1478 141.31C90.2918 141.416 90.3638 141.59 90.3638 141.832C90.3638 142.022 90.3031 142.181 90.1819 142.31C90.0607 142.438 89.8902 142.507 89.6705 142.514Z" fill="black"/>
<path d="M89.4578 76.0396C89.4578 75.7812 89.5694 75.5462 89.7926 75.3348C90.0158 75.1233 90.2566 75.0117 90.515 75C90.7382 75 90.9379 75.1057 91.1141 75.3172C91.2903 75.5286 91.3784 75.8869 91.3784 76.392C91.3784 76.7444 91.3079 77.2495 91.167 77.9074C91.026 78.5652 90.8087 79.2876 90.515 80.0747C90.2213 80.8617 89.7984 81.5489 89.2463 82.1363C88.6942 82.7236 88.0716 83.0114 87.3786 82.9997C86.4388 82.9997 85.7927 82.5474 85.4403 81.6429C85.4286 81.6194 85.3875 81.6488 85.317 81.731C84.6239 82.5768 83.831 82.9997 82.9382 82.9997C81.6461 82.9997 81 82.1186 81 80.3566C81 79.2876 81.2408 78.1952 81.7224 77.0792C82.2041 75.9632 82.5976 75.323 82.903 75.1586C83.044 75.0764 83.1849 75.0646 83.3259 75.1233C83.4786 75.2056 83.555 75.3113 83.555 75.4405C83.555 75.5815 83.4375 75.8105 83.2025 76.1277C82.9676 76.4449 82.6974 76.8736 82.392 77.414C82.0866 77.9544 81.8986 78.53 81.8282 79.1408C81.8164 79.2113 81.8105 79.3346 81.8105 79.5108C81.8105 80.2509 81.9515 80.7619 82.2334 81.0438C82.5154 81.3257 82.856 81.4667 83.2554 81.4667C83.9367 81.4667 84.5358 81.1554 85.0527 80.5328L85.1937 80.3918V80.0571C85.2524 78.4007 85.6283 77.5726 86.3214 77.5726C86.6855 77.5726 86.8676 77.784 86.8676 78.2069C86.8676 78.4184 86.8089 78.7003 86.6914 79.0527C86.5739 79.4051 86.4564 79.7281 86.339 80.0218L86.1628 80.4271C86.1745 80.4506 86.1863 80.4858 86.198 80.5328C86.2098 80.5798 86.2567 80.662 86.339 80.7795C86.4212 80.897 86.5152 81.0027 86.6209 81.0967C86.7266 81.1906 86.8676 81.2729 87.0438 81.3433C87.22 81.4138 87.4256 81.4549 87.6605 81.4667C88.4006 81.4667 89.0349 81.0438 89.5635 80.198C90.0921 79.3522 90.3564 78.6122 90.3564 77.9778C90.3564 77.6137 90.2801 77.3141 90.1274 77.0792C89.9746 76.8443 89.8278 76.6563 89.6868 76.5154C89.5459 76.3744 89.4695 76.2158 89.4578 76.0396Z" fill="black"/>
<path d="M432.092 135.887C432.092 135.811 431.786 135.763 431.174 135.742C430.927 135.742 430.766 135.736 430.69 135.725C430.615 135.715 430.578 135.666 430.578 135.58C430.578 135.495 430.599 135.387 430.642 135.258C430.685 135.129 430.723 135.049 430.755 135.017C430.776 135.006 431.845 135 433.961 135C435.754 135.011 436.759 135.017 436.974 135.017C437.188 135.017 437.403 135.049 437.618 135.113C438.391 135.296 439.046 135.72 439.583 136.386C440.12 137.052 440.394 137.943 440.405 139.06C440.405 140.736 439.83 142.239 438.681 143.571C437.532 144.903 436.179 145.698 434.621 145.956L434.396 145.988L431.27 146.004H429.482H428.628C428.371 146.004 428.204 145.993 428.129 145.972C428.054 145.95 428.011 145.902 428 145.827C428 145.805 428.016 145.73 428.048 145.601C428.091 145.429 428.134 145.333 428.177 145.311C428.22 145.29 428.344 145.274 428.548 145.263C428.838 145.263 429.16 145.247 429.514 145.214C429.665 145.182 429.767 145.118 429.82 145.021C429.853 144.978 430.239 143.485 430.98 140.542C431.722 137.6 432.092 136.048 432.092 135.887ZM438.794 138.448C438.794 138.04 438.735 137.675 438.617 137.353C438.499 137.03 438.359 136.778 438.198 136.595C438.037 136.413 437.838 136.257 437.602 136.128C437.366 135.999 437.156 135.913 436.974 135.87C436.791 135.827 436.603 135.79 436.41 135.758C436.388 135.758 436.313 135.758 436.184 135.758C436.055 135.758 435.899 135.758 435.717 135.758C435.534 135.758 435.357 135.752 435.185 135.742H434.493C434.02 135.742 433.751 135.795 433.687 135.903C433.666 135.946 433.273 137.492 432.511 140.542C431.748 143.593 431.367 145.134 431.367 145.166C431.367 145.209 431.426 145.231 431.544 145.231C431.662 145.231 432.076 145.236 432.785 145.247C432.839 145.247 432.941 145.247 433.091 145.247C433.241 145.247 433.37 145.252 433.478 145.263C434.831 145.263 435.948 144.822 436.829 143.942C437.215 143.555 437.532 143.104 437.779 142.588C438.026 142.073 438.257 141.391 438.472 140.542C438.687 139.694 438.794 138.996 438.794 138.448Z" fill="black"/>
<path d="M443.235 141.836L443.087 141.893C442.98 141.931 442.828 141.969 442.631 142.007C442.434 142.045 442.213 142.072 441.97 142.087H441.754V141.563H441.97C442.327 141.548 442.658 141.491 442.961 141.392C443.265 141.294 443.478 141.202 443.599 141.119C443.721 141.035 443.827 140.952 443.918 140.868C443.933 140.846 443.979 140.834 444.055 140.834C444.123 140.834 444.188 140.857 444.248 140.902V144.308L444.26 147.725C444.313 147.778 444.358 147.812 444.396 147.828C444.434 147.843 444.525 147.858 444.67 147.873C444.814 147.888 445.049 147.896 445.376 147.896H445.672V148.42H445.547C445.387 148.397 444.784 148.386 443.736 148.386C442.703 148.386 442.107 148.397 441.948 148.42H441.811V147.896H442.107C442.274 147.896 442.418 147.896 442.54 147.896C442.661 147.896 442.756 147.892 442.825 147.885C442.893 147.877 442.954 147.866 443.007 147.85C443.06 147.835 443.09 147.828 443.098 147.828C443.106 147.828 443.128 147.809 443.166 147.771C443.204 147.733 443.227 147.718 443.235 147.725V141.836Z" fill="black"/>
<path d="M350.092 135.887C350.092 135.811 349.786 135.763 349.174 135.742C348.927 135.742 348.766 135.736 348.69 135.725C348.615 135.715 348.578 135.666 348.578 135.58C348.578 135.495 348.599 135.387 348.642 135.258C348.685 135.129 348.723 135.049 348.755 135.017C348.776 135.006 349.845 135 351.961 135C353.754 135.011 354.759 135.017 354.974 135.017C355.188 135.017 355.403 135.049 355.618 135.113C356.391 135.296 357.046 135.72 357.583 136.386C358.12 137.052 358.394 137.943 358.405 139.06C358.405 140.736 357.83 142.239 356.681 143.571C355.532 144.903 354.179 145.698 352.621 145.956L352.396 145.988L349.27 146.004H347.482H346.628C346.371 146.004 346.204 145.993 346.129 145.972C346.054 145.95 346.011 145.902 346 145.827C346 145.805 346.016 145.73 346.048 145.601C346.091 145.429 346.134 145.333 346.177 145.311C346.22 145.29 346.344 145.274 346.548 145.263C346.838 145.263 347.16 145.247 347.514 145.214C347.665 145.182 347.767 145.118 347.82 145.021C347.853 144.978 348.239 143.485 348.98 140.542C349.722 137.6 350.092 136.048 350.092 135.887ZM356.794 138.448C356.794 138.04 356.735 137.675 356.617 137.353C356.499 137.03 356.359 136.778 356.198 136.595C356.037 136.413 355.838 136.257 355.602 136.128C355.366 135.999 355.156 135.913 354.974 135.87C354.791 135.827 354.603 135.79 354.41 135.758C354.388 135.758 354.313 135.758 354.184 135.758C354.055 135.758 353.899 135.758 353.717 135.758C353.534 135.758 353.357 135.752 353.185 135.742H352.493C352.02 135.742 351.751 135.795 351.687 135.903C351.666 135.946 351.273 137.492 350.511 140.542C349.748 143.593 349.367 145.134 349.367 145.166C349.367 145.209 349.426 145.231 349.544 145.231C349.662 145.231 350.076 145.236 350.785 145.247C350.839 145.247 350.941 145.247 351.091 145.247C351.241 145.247 351.37 145.252 351.478 145.263C352.831 145.263 353.948 144.822 354.829 143.942C355.215 143.555 355.532 143.104 355.779 142.588C356.026 142.073 356.257 141.391 356.472 140.542C356.687 139.694 356.794 138.996 356.794 138.448Z" fill="black"/>
<path d="M360.047 143.534C359.842 143.534 359.679 143.465 359.557 143.329C359.436 143.192 359.375 143.025 359.375 142.827C359.375 142.288 359.576 141.821 359.979 141.426C360.381 141.032 360.882 140.834 361.482 140.834C362.173 140.834 362.75 141.047 363.213 141.472C363.677 141.897 363.912 142.448 363.92 143.124C363.92 143.45 363.844 143.761 363.692 144.058C363.54 144.354 363.358 144.612 363.145 144.832C362.933 145.052 362.629 145.333 362.234 145.675C361.961 145.91 361.581 146.26 361.095 146.723L360.423 147.361L361.289 147.372C362.481 147.372 363.115 147.353 363.191 147.315C363.244 147.3 363.335 146.962 363.464 146.301V146.267H363.92V146.301C363.912 146.324 363.863 146.67 363.772 147.338C363.68 148.006 363.624 148.355 363.601 148.386V148.42H359.375V148.204V148.067C359.375 148.014 359.398 147.957 359.443 147.896C359.489 147.835 359.603 147.702 359.785 147.497C360.005 147.254 360.195 147.042 360.355 146.859C360.423 146.784 360.552 146.643 360.742 146.438C360.932 146.233 361.061 146.093 361.129 146.017C361.197 145.941 361.308 145.815 361.459 145.641C361.611 145.466 361.718 145.337 361.778 145.253C361.839 145.17 361.926 145.056 362.04 144.912C362.154 144.768 362.234 144.646 362.279 144.547C362.325 144.449 362.382 144.338 362.45 144.217C362.519 144.095 362.568 143.974 362.598 143.852C362.629 143.731 362.655 143.617 362.678 143.511C362.701 143.404 362.712 143.279 362.712 143.135C362.712 142.657 362.583 142.243 362.325 141.893C362.067 141.544 361.699 141.369 361.22 141.369C360.97 141.369 360.749 141.434 360.56 141.563C360.37 141.692 360.237 141.817 360.161 141.939C360.085 142.06 360.047 142.133 360.047 142.155C360.047 142.163 360.066 142.167 360.104 142.167C360.241 142.167 360.381 142.22 360.525 142.326C360.67 142.433 360.742 142.607 360.742 142.85C360.742 143.04 360.681 143.199 360.56 143.329C360.438 143.458 360.267 143.526 360.047 143.534Z" fill="black"/>
<path d="M262.09 135.886C262.09 135.81 261.784 135.762 261.173 135.741C260.926 135.741 260.765 135.735 260.689 135.725C260.614 135.714 260.577 135.666 260.577 135.58C260.577 135.494 260.598 135.386 260.641 135.258C260.684 135.129 260.722 135.048 260.754 135.016C260.775 135.005 261.844 135 263.959 135C265.751 135.011 266.755 135.016 266.97 135.016C267.185 135.016 267.399 135.048 267.614 135.113C268.387 135.295 269.042 135.719 269.579 136.385C270.116 137.05 270.389 137.942 270.4 139.058C270.4 140.733 269.826 142.236 268.677 143.567C267.528 144.899 266.176 145.693 264.619 145.951L264.393 145.983L261.269 145.999H259.482H258.628C258.37 145.999 258.204 145.988 258.129 145.967C258.054 145.945 258.011 145.897 258 145.822C258 145.8 258.016 145.725 258.048 145.596C258.091 145.425 258.134 145.328 258.177 145.307C258.22 145.285 258.344 145.269 258.548 145.258C258.837 145.258 259.159 145.242 259.514 145.21C259.664 145.178 259.766 145.113 259.82 145.017C259.852 144.974 260.238 143.481 260.979 140.54C261.72 137.598 262.09 136.047 262.09 135.886ZM268.79 138.446C268.79 138.038 268.731 137.673 268.613 137.351C268.495 137.029 268.355 136.777 268.194 136.594C268.033 136.412 267.834 136.256 267.598 136.127C267.362 135.998 267.153 135.912 266.97 135.87C266.787 135.827 266.6 135.789 266.406 135.757C266.385 135.757 266.31 135.757 266.181 135.757C266.052 135.757 265.896 135.757 265.714 135.757C265.531 135.757 265.354 135.751 265.182 135.741H264.49C264.018 135.741 263.749 135.794 263.685 135.902C263.663 135.945 263.271 137.491 262.509 140.54C261.747 143.589 261.366 145.129 261.366 145.162C261.366 145.205 261.425 145.226 261.543 145.226C261.661 145.226 262.074 145.231 262.783 145.242C262.837 145.242 262.939 145.242 263.089 145.242C263.239 145.242 263.368 145.247 263.475 145.258C264.828 145.258 265.945 144.818 266.825 143.938C267.212 143.551 267.528 143.1 267.775 142.585C268.022 142.07 268.253 141.388 268.468 140.54C268.682 139.692 268.79 138.994 268.79 138.446Z" fill="black"/>
<path d="M271.039 145.147C271.047 145.102 271.058 145.041 271.073 144.965C271.088 144.889 271.134 144.745 271.21 144.532C271.286 144.32 271.362 144.141 271.438 143.997C271.513 143.853 271.639 143.713 271.813 143.576C271.988 143.439 272.162 143.375 272.337 143.382C272.61 143.382 272.838 143.451 273.02 143.587C273.202 143.724 273.316 143.853 273.362 143.974C273.407 144.096 273.43 144.176 273.43 144.213C273.43 144.229 273.434 144.236 273.441 144.236L273.567 144.111C274.03 143.625 274.557 143.382 275.149 143.382C275.559 143.382 275.889 143.485 276.14 143.69C276.39 143.895 276.519 144.195 276.527 144.589C276.535 144.984 276.39 145.58 276.094 146.377C275.798 147.174 275.654 147.656 275.662 147.823C275.662 148.02 275.726 148.119 275.855 148.119C275.901 148.119 275.935 148.115 275.958 148.107C276.178 148.069 276.375 147.925 276.55 147.675C276.724 147.424 276.857 147.121 276.948 146.764C276.963 146.703 277.039 146.673 277.176 146.673C277.328 146.673 277.404 146.703 277.404 146.764C277.404 146.771 277.388 146.828 277.358 146.935C277.297 147.155 277.214 147.371 277.108 147.584C277.001 147.796 276.827 148.009 276.584 148.221C276.341 148.434 276.079 148.536 275.798 148.529C275.442 148.529 275.183 148.426 275.024 148.221C274.865 148.016 274.785 147.804 274.785 147.584C274.785 147.439 274.922 146.984 275.195 146.217C275.468 145.451 275.608 144.874 275.616 144.487C275.616 144.039 275.449 143.815 275.115 143.815H275.058C274.405 143.815 273.855 144.198 273.407 144.965L273.328 145.102L272.952 146.627C272.701 147.622 272.557 148.157 272.519 148.233C272.421 148.438 272.257 148.54 272.03 148.54C271.931 148.54 271.851 148.517 271.791 148.472C271.73 148.426 271.688 148.381 271.665 148.335C271.643 148.29 271.635 148.252 271.643 148.221C271.643 148.123 271.787 147.504 272.075 146.365C272.364 145.227 272.515 144.608 272.531 144.51C272.538 144.472 272.542 144.384 272.542 144.248C272.542 143.952 272.451 143.804 272.269 143.804C271.98 143.804 271.741 144.183 271.551 144.942C271.506 145.094 271.483 145.174 271.483 145.181C271.468 145.227 271.396 145.25 271.267 145.25H271.107C271.062 145.204 271.039 145.17 271.039 145.147Z" fill="black"/>
<path d="M278.59 145.717C278.59 145.717 278.59 145.668 278.59 145.569C278.59 145.47 278.643 145.395 278.749 145.341H285.364C285.478 145.402 285.535 145.478 285.535 145.569C285.535 145.66 285.478 145.736 285.364 145.797H278.749C278.643 145.744 278.59 145.668 278.59 145.569V145.717Z" fill="black"/>
<path d="M288.918 141.834L288.77 141.891C288.663 141.929 288.512 141.967 288.314 142.005C288.117 142.043 287.897 142.069 287.654 142.085H287.438V141.561H287.654C288.011 141.546 288.341 141.489 288.644 141.39C288.948 141.291 289.161 141.2 289.282 141.117C289.403 141.033 289.51 140.95 289.601 140.866C289.616 140.844 289.661 140.832 289.737 140.832C289.806 140.832 289.87 140.855 289.931 140.901V144.305L289.942 147.721C289.995 147.774 290.041 147.808 290.079 147.823C290.117 147.838 290.208 147.853 290.352 147.869C290.496 147.884 290.732 147.891 291.058 147.891H291.354V148.415H291.229C291.07 148.392 290.466 148.381 289.419 148.381C288.386 148.381 287.79 148.392 287.631 148.415H287.494V147.891H287.79C287.957 147.891 288.102 147.891 288.223 147.891C288.345 147.891 288.439 147.888 288.508 147.88C288.576 147.872 288.637 147.861 288.69 147.846C288.743 147.831 288.773 147.823 288.781 147.823C288.789 147.823 288.811 147.804 288.849 147.766C288.887 147.728 288.91 147.713 288.918 147.721V141.834Z" fill="black"/>
<path d="M393.092 39.8865C393.092 39.8114 392.786 39.763 392.174 39.7416C391.916 39.7416 391.75 39.7362 391.674 39.7254C391.599 39.7147 391.562 39.661 391.562 39.5643C391.562 39.5536 391.572 39.4945 391.594 39.3871C391.658 39.1723 391.707 39.0542 391.739 39.0327C391.771 39.0112 392.813 39.0005 394.864 39.0005C396.905 39.0112 397.995 39.0273 398.135 39.0488C398.822 39.1669 399.397 39.4301 399.858 39.8382C400.32 40.2463 400.557 40.7887 400.567 41.4654C400.567 42.2924 400.213 43.0496 399.504 43.7369C398.763 44.4673 397.807 44.9291 396.636 45.1224C396.561 45.1332 395.997 45.1439 394.945 45.1547H393.414L392.931 47.0718C392.609 48.3177 392.448 48.9782 392.448 49.0534C392.448 49.0964 392.453 49.1232 392.464 49.1339C392.474 49.1447 392.512 49.1662 392.577 49.1984C392.641 49.2306 392.732 49.2413 392.85 49.2306C392.969 49.2199 393.146 49.2306 393.382 49.2628H393.881C393.946 49.3595 393.978 49.4186 393.978 49.44C393.978 49.6119 393.941 49.773 393.865 49.9234C393.812 49.9771 393.726 50.0039 393.608 50.0039C393.575 50.0039 393.377 49.9985 393.012 49.9878C392.646 49.9771 392.109 49.9717 391.4 49.9717C390.735 49.9717 390.224 49.9717 389.87 49.9717C389.516 49.9717 389.322 49.9771 389.29 49.9878C389.097 49.9878 389 49.9341 389 49.8267C389 49.8052 389.016 49.73 389.048 49.6011C389.091 49.4293 389.134 49.3326 389.177 49.3112C389.22 49.2897 389.344 49.2736 389.548 49.2628C389.838 49.2628 390.16 49.2467 390.514 49.2145C390.665 49.1823 390.767 49.1178 390.82 49.0212C390.853 48.9782 391.239 47.4853 391.98 44.5425C392.722 41.5996 393.092 40.0477 393.092 39.8865ZM398.86 41.0787C398.86 40.9391 398.849 40.8263 398.827 40.7404C398.806 40.6545 398.758 40.5363 398.682 40.386C398.607 40.2356 398.473 40.1175 398.28 40.0315C398.086 39.9456 397.823 39.8597 397.49 39.7738C397.415 39.763 396.985 39.7523 396.201 39.7416C396.019 39.7416 395.831 39.7416 395.638 39.7416C395.444 39.7416 395.288 39.7469 395.17 39.7577C395.052 39.7684 394.988 39.7684 394.977 39.7577C394.837 39.7684 394.741 39.8167 394.687 39.9027C394.666 39.9671 394.563 40.3806 394.381 41.1432C394.198 41.9057 394.01 42.6468 393.817 43.3664C393.624 44.086 393.527 44.4512 393.527 44.4619C393.527 44.4834 393.962 44.4941 394.832 44.4941H395.025H395.396C396.599 44.4941 397.458 44.2256 397.974 43.6886C398.264 43.3986 398.484 42.9744 398.634 42.4159C398.784 41.8574 398.86 41.4117 398.86 41.0787Z" fill="black"/>
<path d="M400.055 47.5336C399.85 47.5336 399.687 47.4652 399.565 47.3286C399.444 47.1919 399.383 47.0248 399.383 46.8274C399.383 46.2883 399.584 45.8213 399.986 45.4264C400.389 45.0316 400.89 44.8341 401.49 44.8341C402.181 44.8341 402.758 45.0467 403.221 45.472C403.684 45.8972 403.92 46.4477 403.927 47.1235C403.927 47.45 403.852 47.7614 403.7 48.0575C403.548 48.3537 403.366 48.6118 403.153 48.832C402.94 49.0523 402.637 49.3332 402.242 49.6749C401.968 49.9103 401.589 50.2596 401.103 50.7228L400.431 51.3606L401.296 51.372C402.489 51.372 403.123 51.3531 403.198 51.3151C403.252 51.2999 403.343 50.962 403.472 50.3014V50.2672H403.927V50.3014C403.92 50.3241 403.871 50.6696 403.779 51.3379C403.688 52.0061 403.631 52.3554 403.609 52.3858V52.4199H399.383V52.2035V52.0668C399.383 52.0137 399.406 51.9567 399.451 51.896C399.497 51.8352 399.611 51.7023 399.793 51.4973C400.013 51.2543 400.203 51.0417 400.362 50.8595C400.431 50.7835 400.56 50.6431 400.75 50.438C400.939 50.233 401.069 50.0925 401.137 50.0166C401.205 49.9407 401.315 49.8154 401.467 49.6407C401.619 49.4661 401.725 49.337 401.786 49.2535C401.847 49.17 401.934 49.0561 402.048 48.9118C402.162 48.7675 402.242 48.646 402.287 48.5473C402.333 48.4486 402.39 48.3385 402.458 48.217C402.526 48.0955 402.576 47.974 402.606 47.8525C402.637 47.731 402.663 47.6171 402.686 47.5108C402.709 47.4045 402.72 47.2792 402.72 47.1349C402.72 46.6565 402.591 46.2427 402.333 45.8934C402.075 45.5441 401.706 45.3695 401.228 45.3695C400.977 45.3695 400.757 45.434 400.567 45.5631C400.378 45.6922 400.245 45.8175 400.169 45.939C400.093 46.0605 400.055 46.1326 400.055 46.1554C400.055 46.163 400.074 46.1668 400.112 46.1668C400.248 46.1668 400.389 46.2199 400.533 46.3262C400.677 46.4325 400.75 46.6072 400.75 46.8502C400.75 47.04 400.689 47.1995 400.567 47.3286C400.446 47.4576 400.275 47.526 400.055 47.5336Z" fill="black"/>
<path d="M311.092 39.886C311.092 39.8108 310.786 39.7625 310.174 39.741C309.916 39.741 309.749 39.7356 309.674 39.7249C309.599 39.7141 309.561 39.6604 309.561 39.5638C309.561 39.553 309.572 39.494 309.594 39.3866C309.658 39.1718 309.706 39.0536 309.739 39.0322C309.771 39.0107 310.813 38.9999 312.864 38.9999C314.905 39.0107 315.995 39.0268 316.134 39.0483C316.822 39.1664 317.396 39.4295 317.858 39.8377C318.32 40.2458 318.556 40.7881 318.567 41.4647C318.567 42.2917 318.212 43.0489 317.504 43.7362C316.763 44.4665 315.807 44.9283 314.636 45.1217C314.561 45.1324 313.997 45.1431 312.945 45.1539H311.414L310.931 47.0709C310.609 48.3168 310.447 48.9773 310.447 49.0525C310.447 49.0954 310.453 49.1223 310.464 49.133C310.474 49.1437 310.512 49.1652 310.576 49.1974C310.641 49.2297 310.732 49.2404 310.85 49.2297C310.968 49.2189 311.146 49.2297 311.382 49.2619H311.881C311.946 49.3585 311.978 49.4176 311.978 49.4391C311.978 49.6109 311.94 49.772 311.865 49.9224C311.811 49.9761 311.726 50.0029 311.607 50.0029C311.575 50.0029 311.376 49.9976 311.011 49.9868C310.646 49.9761 310.109 49.9707 309.4 49.9707C308.734 49.9707 308.224 49.9707 307.87 49.9707C307.516 49.9707 307.322 49.9761 307.29 49.9868C307.097 49.9868 307 49.9331 307 49.8257C307 49.8042 307.016 49.7291 307.048 49.6002C307.091 49.4283 307.134 49.3317 307.177 49.3102C307.22 49.2887 307.344 49.2726 307.548 49.2619C307.838 49.2619 308.16 49.2458 308.514 49.2135C308.665 49.1813 308.767 49.1169 308.82 49.0202C308.853 48.9773 309.239 47.4844 309.98 44.5417C310.721 41.599 311.092 40.0471 311.092 39.886ZM316.859 41.0781C316.859 40.9385 316.848 40.8257 316.827 40.7398C316.805 40.6539 316.757 40.5357 316.682 40.3854C316.607 40.235 316.473 40.1169 316.279 40.031C316.086 39.945 315.823 39.8591 315.49 39.7732C315.415 39.7625 314.985 39.7517 314.201 39.741C314.018 39.741 313.831 39.741 313.637 39.741C313.444 39.741 313.288 39.7464 313.17 39.7571C313.052 39.7678 312.987 39.7678 312.977 39.7571C312.837 39.7678 312.74 39.8162 312.687 39.9021C312.665 39.9665 312.563 40.38 312.381 41.1425C312.198 41.9051 312.01 42.6461 311.817 43.3657C311.624 44.0853 311.527 44.4504 311.527 44.4612C311.527 44.4826 311.962 44.4934 312.832 44.4934H313.025H313.396C314.598 44.4934 315.458 44.2249 315.973 43.6879C316.263 43.3979 316.483 42.9737 316.634 42.4152C316.784 41.8567 316.859 41.411 316.859 41.0781Z" fill="black"/>
<path d="M318.253 47.146C318.048 47.146 317.889 47.0814 317.775 46.9523C317.661 46.8232 317.6 46.6562 317.593 46.4512C317.593 46.0336 317.775 45.6615 318.139 45.335C318.504 45.0085 318.944 44.8453 319.461 44.8453C319.726 44.8453 319.893 44.849 319.962 44.8566C320.524 44.9478 320.953 45.149 321.249 45.4603C321.545 45.7716 321.697 46.1095 321.704 46.474C321.704 46.8688 321.575 47.2523 321.317 47.6243C321.059 47.9964 320.702 48.2659 320.246 48.433L320.212 48.4558C320.212 48.4634 320.246 48.4747 320.315 48.4899C320.383 48.5051 320.493 48.5393 320.645 48.5924C320.797 48.6456 320.941 48.7253 321.078 48.8316C321.701 49.2341 322.012 49.7656 322.012 50.4262C322.012 51.026 321.776 51.5499 321.306 51.9979C320.835 52.4459 320.239 52.6699 319.518 52.6699C318.91 52.6699 318.386 52.5067 317.946 52.1802C317.505 51.8537 317.285 51.4398 317.285 50.9387C317.285 50.7261 317.353 50.5552 317.49 50.4262C317.627 50.2971 317.798 50.2287 318.003 50.2212C318.215 50.2212 318.39 50.2895 318.527 50.4262C318.663 50.5628 318.732 50.7337 318.732 50.9387C318.732 51.0222 318.72 51.0982 318.697 51.1665C318.675 51.2348 318.648 51.2956 318.618 51.3487C318.587 51.4019 318.546 51.4474 318.492 51.4854C318.439 51.5234 318.394 51.5537 318.356 51.5765C318.318 51.5993 318.28 51.6145 318.242 51.6221C318.204 51.6297 318.174 51.6411 318.151 51.6562L318.105 51.6676C318.492 52.0093 318.963 52.1802 319.518 52.1802C319.935 52.1802 320.25 51.979 320.463 51.5765C320.592 51.3259 320.656 50.9425 320.656 50.4262V50.1984C320.656 49.477 320.414 48.9949 319.928 48.7519C319.814 48.7063 319.582 48.6798 319.233 48.6722L318.754 48.6608L318.72 48.638C318.705 48.6152 318.697 48.5545 318.697 48.4558C318.697 48.3191 318.728 48.2507 318.789 48.2507C319.001 48.2507 319.221 48.2318 319.449 48.1938C319.707 48.1558 319.943 47.9964 320.155 47.7154C320.368 47.4345 320.474 47.0093 320.474 46.4398V46.3487C320.474 45.9159 320.341 45.6159 320.076 45.4489C319.909 45.3426 319.73 45.2894 319.54 45.2894C319.297 45.2894 319.073 45.3312 318.868 45.4147C318.663 45.4983 318.519 45.5856 318.436 45.6767C318.352 45.7678 318.31 45.8134 318.31 45.8134H318.344C318.367 45.821 318.398 45.8286 318.436 45.8361C318.473 45.8437 318.511 45.8627 318.549 45.8931C318.587 45.9235 318.633 45.95 318.686 45.9728C318.739 45.9956 318.777 46.0374 318.8 46.0981C318.823 46.1589 318.853 46.2158 318.891 46.269C318.929 46.3221 318.94 46.398 318.925 46.4967C318.925 46.6638 318.872 46.8119 318.766 46.9409C318.66 47.07 318.489 47.1384 318.253 47.146Z" fill="black"/>
<path d="M230.09 39.8866C230.09 39.8114 229.784 39.7631 229.173 39.7416C228.915 39.7416 228.748 39.7363 228.673 39.7255C228.598 39.7148 228.561 39.6611 228.561 39.5645C228.561 39.5538 228.571 39.4947 228.593 39.3873C228.657 39.1726 228.706 39.0545 228.738 39.033C228.77 39.0116 229.811 39.0008 231.862 39.0008C233.902 39.0116 234.992 39.0277 235.131 39.0492C235.818 39.1673 236.393 39.4303 236.854 39.8383C237.316 40.2462 237.552 40.7884 237.563 41.4648C237.563 42.2915 237.209 43.0484 236.5 43.7355C235.759 44.4655 234.804 44.9272 233.633 45.1204C233.558 45.1312 232.995 45.1419 231.942 45.1526H230.413L229.929 47.069C229.607 48.3144 229.446 48.9747 229.446 49.0499C229.446 49.0928 229.452 49.1196 229.462 49.1304C229.473 49.1411 229.511 49.1626 229.575 49.1948C229.64 49.227 229.731 49.2377 229.849 49.227C229.967 49.2163 230.144 49.227 230.38 49.2592H230.88C230.944 49.3558 230.976 49.4149 230.976 49.4364C230.976 49.6081 230.939 49.7692 230.863 49.9195C230.81 49.9732 230.724 50 230.606 50C230.574 50 230.375 49.9946 230.01 49.9839C229.645 49.9732 229.108 49.9678 228.4 49.9678C227.734 49.9678 227.224 49.9678 226.87 49.9678C226.515 49.9678 226.322 49.9732 226.29 49.9839C226.097 49.9839 226 49.9302 226 49.8229C226 49.8014 226.016 49.7262 226.048 49.5974C226.091 49.4256 226.134 49.329 226.177 49.3075C226.22 49.286 226.344 49.2699 226.548 49.2592C226.837 49.2592 227.16 49.2431 227.514 49.2109C227.664 49.1787 227.766 49.1143 227.82 49.0176C227.852 48.9747 228.238 47.4824 228.979 44.5407C229.72 41.599 230.09 40.0476 230.09 39.8866ZM235.856 41.0783C235.856 40.9387 235.845 40.826 235.824 40.7401C235.802 40.6542 235.754 40.5361 235.679 40.3858C235.603 40.2355 235.469 40.1174 235.276 40.0315C235.083 39.9456 234.82 39.8597 234.487 39.7738C234.412 39.7631 233.982 39.7524 233.199 39.7416C233.016 39.7416 232.828 39.7416 232.635 39.7416C232.442 39.7416 232.286 39.747 232.168 39.7577C232.05 39.7685 231.985 39.7685 231.975 39.7577C231.835 39.7685 231.738 39.8168 231.685 39.9027C231.663 39.9671 231.561 40.3804 231.379 41.1427C231.196 41.905 231.008 42.6458 230.815 43.3651C230.622 44.0844 230.525 44.4494 230.525 44.4602C230.525 44.4816 230.96 44.4924 231.83 44.4924H232.023H232.393C233.596 44.4924 234.455 44.224 234.97 43.6872C235.26 43.3973 235.48 42.9732 235.63 42.4149C235.781 41.8567 235.856 41.4111 235.856 41.0783Z" fill="black"/>
<path d="M236.047 49.1471C236.054 49.1016 236.066 49.0408 236.081 48.9649C236.096 48.889 236.142 48.7448 236.218 48.5323C236.294 48.3198 236.369 48.1414 236.445 47.9972C236.521 47.8529 236.647 47.7125 236.821 47.5759C236.996 47.4393 237.17 47.3747 237.345 47.3823C237.618 47.3823 237.846 47.4506 238.028 47.5873C238.21 47.7239 238.324 47.8529 238.37 47.9744C238.415 48.0958 238.438 48.1755 238.438 48.2135C238.438 48.2287 238.442 48.2363 238.449 48.2363L238.574 48.111C239.038 47.6252 239.565 47.3823 240.157 47.3823C240.567 47.3823 240.897 47.4848 241.148 47.6897C241.398 47.8947 241.527 48.1945 241.535 48.5892C241.542 48.9839 241.398 49.5798 241.102 50.3768C240.806 51.1738 240.662 51.6558 240.669 51.8227C240.669 52.0201 240.734 52.1188 240.863 52.1188C240.909 52.1188 240.943 52.115 240.965 52.1074C241.186 52.0694 241.383 51.9252 241.558 51.6747C241.732 51.4242 241.865 51.1206 241.956 50.7639C241.971 50.7032 242.047 50.6728 242.184 50.6728C242.336 50.6728 242.411 50.7032 242.411 50.7639C242.411 50.7715 242.396 50.8284 242.366 50.9347C242.305 51.1548 242.222 51.3711 242.115 51.5836C242.009 51.7962 241.835 52.0087 241.592 52.2212C241.349 52.4338 241.087 52.5362 240.806 52.5287C240.449 52.5287 240.191 52.4262 240.032 52.2212C239.872 52.0163 239.793 51.8038 239.793 51.5836C239.793 51.4394 239.929 50.984 240.203 50.2174C240.476 49.4507 240.616 48.8739 240.624 48.4867C240.624 48.0389 240.457 47.815 240.123 47.815H240.066C239.413 47.815 238.863 48.1983 238.415 48.9649L238.335 49.1016L237.96 50.6272C237.709 51.6216 237.565 52.1567 237.527 52.2326C237.428 52.4376 237.265 52.54 237.037 52.54C236.939 52.54 236.859 52.5173 236.798 52.4717C236.738 52.4262 236.696 52.3806 236.673 52.3351C236.65 52.2896 236.643 52.2516 236.65 52.2212C236.65 52.1226 236.795 51.5039 237.083 50.3654C237.371 49.2268 237.523 48.6082 237.538 48.5095C237.546 48.4716 237.55 48.3843 237.55 48.2476C237.55 47.9516 237.459 47.8036 237.277 47.8036C236.988 47.8036 236.749 48.1831 236.559 48.9422C236.514 49.094 236.491 49.1737 236.491 49.1813C236.476 49.2268 236.404 49.2496 236.275 49.2496H236.115C236.07 49.204 236.047 49.1699 236.047 49.1471Z" fill="black"/>
</svg>
