<svg width="1258" height="283" xmlns="http://www.w3.org/2000/svg" xmlns:xlink="http://www.w3.org/1999/xlink" xml:space="preserve" overflow="hidden"><g transform="translate(-1600 -649)"><path d="M1648.6 809.342C1647.58 809.342 1646.6 809.525 1645.66 809.889 1644.73 810.254 1643.76 810.876 1642.75 811.754 1641.73 812.632 1640.77 813.814 1639.85 815.3 1638.93 816.786 1638.11 818.535 1637.38 820.548 1636.65 822.561 1635.94 825.135 1635.27 828.269L1633.85 834.794C1633.8 835.091 1633.74 835.516 1633.67 836.07 1633.6 836.624 1633.57 837.131 1633.57 837.59 1633.57 839.319 1634.28 840.65 1635.69 841.582 1637.11 842.514 1639 842.98 1641.35 842.98 1644.13 842.98 1646.6 841.852 1648.74 839.596 1650.89 837.34 1652.56 834.233 1653.75 830.275 1654.94 826.317 1655.53 822.379 1655.53 818.461 1655.53 816.705 1655.35 815.172 1654.99 813.861 1654.62 812.551 1653.92 811.47 1652.9 810.619 1651.87 809.768 1650.44 809.342 1648.6 809.342ZM1649.66 806.141C1652.28 806.141 1654.59 806.674 1656.59 807.742 1658.59 808.809 1660.1 810.356 1661.12 812.382 1662.15 814.408 1662.67 816.894 1662.67 819.839 1662.67 824.432 1661.77 828.789 1659.97 832.909 1658.17 837.029 1655.67 840.271 1652.47 842.636 1649.27 845 1645.68 846.182 1641.71 846.182 1639.88 846.182 1638.13 846.02 1636.48 845.695 1634.84 845.371 1633.19 844.817 1631.54 844.034L1627.33 863.041 1620.68 863.041 1628.91 826.364C1629.88 822.041 1631.27 818.42 1633.08 815.503 1634.89 812.585 1637.19 810.295 1639.97 808.633 1642.75 806.971 1645.98 806.141 1649.66 806.141Z" fill-rule="evenodd"/><text fill="#000000" fill-opacity="0" font-family="Arial,Arial_MSFontService,sans-serif" font-size="56.9004" x="1620.68" y="855.929">𝜌</text><path d="M1710.89 831.966C1711.61 831.966 1712.22 832.041 1712.74 832.19 1713.25 832.339 1713.72 832.572 1714.14 832.89 1714.56 833.207 1714.93 833.619 1715.26 834.126 1715.58 834.632 1715.92 835.243 1716.25 835.958 1716.43 836.394 1716.62 837.02 1716.82 837.834 1717.02 838.648 1717.23 839.591 1717.44 840.664 1717.66 841.736 1717.88 842.917 1718.1 844.208 1718.32 845.499 1718.54 846.849 1718.76 848.259 1718.97 849.669 1719.18 851.113 1719.38 852.593 1719.58 854.072 1719.77 855.526 1719.95 856.956 1721.44 855.01 1722.78 853.039 1723.97 851.044 1725.16 849.048 1726.17 847.162 1726.99 845.385 1727.81 843.607 1728.45 841.989 1728.88 840.53 1729.32 839.07 1729.53 837.904 1729.51 837.03 1729.51 836.156 1729.28 835.531 1728.82 835.153 1728.37 834.776 1727.6 834.558 1726.53 834.498L1726.92 832.592 1735.4 832.592 1736.45 834.319C1734.46 839.224 1732.14 843.955 1729.49 848.512 1726.84 853.069 1723.85 857.492 1720.51 861.781 1719.06 863.509 1717.76 864.998 1716.6 866.249 1715.43 867.5 1714.36 868.577 1713.38 869.481 1712.4 870.384 1711.48 871.124 1710.64 871.7 1709.79 872.276 1708.98 872.737 1708.18 873.085 1707.39 873.432 1706.6 873.68 1705.81 873.829 1705.03 873.978 1704.21 874.073 1703.36 874.112 1702.9 874.112 1702.35 874.063 1701.7 873.963 1701.06 873.864 1700.49 873.735 1699.99 873.576L1701.48 867.053 1704.19 867.053 1704.19 867.232C1704.19 868.582 1704.74 869.257 1705.83 869.257 1707.28 869.257 1708.75 868.696 1710.24 867.575 1711.73 866.453 1713.52 864.661 1715.63 862.198 1714.97 858.426 1714.4 855.164 1713.9 852.414 1713.4 849.664 1712.95 847.321 1712.54 845.385 1712.14 843.449 1711.77 841.875 1711.43 840.664 1711.09 839.452 1710.76 838.509 1710.44 837.834 1710.13 837.159 1709.8 836.697 1709.48 836.449 1709.15 836.201 1708.8 836.077 1708.42 836.077 1708.06 836.077 1707.73 836.121 1707.44 836.211 1707.14 836.3 1706.83 836.484 1706.51 836.762 1706.2 837.04 1705.85 837.432 1705.49 837.938 1705.12 838.445 1704.67 839.105 1704.13 839.919L1701.84 838.43C1702.69 837.179 1703.48 836.136 1704.19 835.302 1704.9 834.468 1705.61 833.808 1706.32 833.322 1707.02 832.835 1707.74 832.488 1708.48 832.279 1709.21 832.071 1710.02 831.966 1710.89 831.966ZM1676.47 831.966C1677.56 831.966 1678.46 832.205 1679.15 832.681 1679.85 833.158 1680.42 833.853 1680.88 834.766 1681.34 835.68 1681.71 836.806 1682.01 838.147 1682.31 839.487 1682.63 841.021 1682.96 842.749L1683.35 842.749C1684.54 841.18 1685.57 839.82 1686.45 838.668 1687.32 837.516 1688.1 836.543 1688.79 835.749 1689.47 834.955 1690.09 834.309 1690.63 833.813 1691.18 833.317 1691.71 832.934 1692.23 832.666 1692.74 832.398 1693.27 832.215 1693.82 832.115 1694.37 832.016 1694.98 831.966 1695.65 831.966 1696.64 831.966 1697.55 832.145 1698.36 832.503L1696.87 838.37 1694.4 838.37C1694.34 837.516 1694.02 837.089 1693.45 837.089 1693.23 837.089 1692.99 837.129 1692.73 837.209 1692.47 837.288 1692.17 837.447 1691.81 837.685 1691.45 837.923 1691.04 838.256 1690.57 838.683 1690.11 839.11 1689.56 839.666 1688.92 840.351 1688.29 841.036 1687.56 841.875 1686.75 842.868 1685.93 843.861 1685 845.032 1683.95 846.382 1684.48 849.123 1684.94 851.317 1685.33 852.965 1685.72 854.613 1686.09 855.874 1686.45 856.748 1686.81 857.621 1687.16 858.192 1687.52 858.46 1687.88 858.728 1688.29 858.862 1688.74 858.862 1689.08 858.862 1689.39 858.823 1689.68 858.743 1689.97 858.664 1690.27 858.49 1690.57 858.222 1690.88 857.954 1691.22 857.567 1691.6 857.06 1691.98 856.554 1692.43 855.884 1692.94 855.05L1695.18 856.509C1694.3 857.82 1693.53 858.892 1692.85 859.726 1692.18 860.56 1691.52 861.215 1690.89 861.692 1690.25 862.169 1689.6 862.491 1688.92 862.66 1688.25 862.829 1687.47 862.913 1686.6 862.913 1685.84 862.913 1685.17 862.809 1684.57 862.6 1683.98 862.392 1683.46 862.01 1683.02 861.454 1682.73 861.116 1682.45 860.664 1682.19 860.098 1681.93 859.533 1681.69 858.922 1681.47 858.267 1681.26 857.611 1681.06 856.931 1680.88 856.226 1680.7 855.521 1680.55 854.861 1680.43 854.246 1680.31 853.63 1680.22 853.079 1680.15 852.593 1680.08 852.106 1680.03 851.744 1680.01 851.505L1679.69 851.505C1678.5 853.094 1677.46 854.479 1676.57 855.66 1675.69 856.842 1674.89 857.855 1674.18 858.699 1673.46 859.542 1672.82 860.237 1672.24 860.784 1671.67 861.33 1671.1 861.761 1670.54 862.079 1669.99 862.397 1669.42 862.615 1668.83 862.734 1668.24 862.854 1667.59 862.913 1666.88 862.913 1665.85 862.913 1664.96 862.734 1664.23 862.377L1665.6 856.569 1668.13 856.569C1668.19 857.443 1668.52 857.879 1669.11 857.879 1669.33 857.86 1669.55 857.82 1669.75 857.76 1669.96 857.701 1670.21 857.577 1670.48 857.388 1670.76 857.199 1671.11 856.901 1671.54 856.494 1671.97 856.087 1672.51 855.521 1673.16 854.797 1673.82 854.072 1674.62 853.163 1675.58 852.071 1676.53 850.979 1677.67 849.629 1679 848.021 1678.64 846.353 1678.33 844.903 1678.06 843.672 1677.8 842.441 1677.55 841.383 1677.32 840.5 1677.09 839.616 1676.87 838.896 1676.65 838.34 1676.43 837.784 1676.21 837.343 1675.98 837.015 1675.75 836.687 1675.5 836.454 1675.23 836.315 1674.97 836.176 1674.65 836.097 1674.3 836.077 1673.96 836.077 1673.65 836.131 1673.36 836.241 1673.07 836.35 1672.77 836.543 1672.46 836.821 1672.16 837.099 1671.82 837.487 1671.45 837.983 1671.08 838.479 1670.66 839.125 1670.19 839.919L1667.89 838.43C1668.71 837.219 1669.44 836.196 1670.1 835.362 1670.75 834.528 1671.4 833.863 1672.03 833.366 1672.67 832.87 1673.34 832.512 1674.04 832.294 1674.75 832.076 1675.56 831.966 1676.47 831.966Z" fill-rule="evenodd"/><text fill="#000000" fill-opacity="0" font-family="Arial,Arial_MSFontService,sans-serif" font-size="42.146" x="1664.23" y="868.844">𝑥𝑦</text><path d="M1770.99 827.539 1820.92 827.539 1820.92 832.929 1770.99 832.929ZM1770.99 810.72 1820.92 810.72 1820.92 816.11 1770.99 816.11Z" fill-rule="evenodd"/><text fill="#000000" fill-opacity="0" font-family="Arial,Arial_MSFontService,sans-serif" font-size="22.209" x="1770.99" y="830.153">=</text><path d="M2804.17 673.084C2811.3 673.436 2816.75 676.016 2820.52 680.825 2824.29 685.634 2826.17 693.078 2826.17 703.156 2826.17 706.776 2825.76 711.275 2824.94 716.651 2824.11 722.028 2823.7 725.527 2823.7 727.148 2823.7 730.931 2824.48 733.889 2826.05 736.023 2827.62 738.158 2829.9 739.252 2832.9 739.306L2832.9 742.792C2829.87 742.873 2827.58 743.987 2826.03 746.135 2824.48 748.283 2823.7 751.208 2823.7 754.909 2823.7 756.395 2824.11 760.083 2824.94 765.973 2825.76 771.863 2826.17 776.362 2826.17 779.469 2826.17 788.898 2824.39 796.139 2820.82 801.191 2817.26 806.244 2811.7 808.878 2804.17 809.094L2804.17 805.852C2806.54 805.69 2808.64 805.116 2810.45 804.13 2812.26 803.143 2813.83 801.651 2815.15 799.651 2816.47 797.706 2817.45 795.193 2818.07 792.113 2818.69 789.033 2819 785.332 2819 781.009 2819 779.091 2818.63 775.031 2817.91 768.83 2817.18 762.63 2816.81 758.854 2816.81 757.503 2816.81 752.856 2817.8 749.181 2819.77 746.479 2821.74 743.778 2823.55 742.103 2825.2 741.454L2825.2 740.644C2823.55 740.049 2821.74 738.367 2819.77 735.598 2817.8 732.829 2816.81 729.134 2816.81 724.514 2816.81 722.46 2817.18 718.752 2817.91 713.389 2818.63 708.026 2819 703.845 2819 700.846 2819 696.55 2818.66 692.882 2817.97 689.843 2817.28 686.803 2816.28 684.311 2814.99 682.365 2813.69 680.42 2812.13 678.968 2810.31 678.009 2808.48 677.049 2806.44 676.489 2804.17 676.327ZM1882.41 673.084 1882.41 676.327C1880.14 676.489 1878.08 677.049 1876.25 678.009 1874.41 678.968 1872.85 680.42 1871.57 682.365 1870.28 684.311 1869.3 686.803 1868.61 689.843 1867.92 692.882 1867.57 696.55 1867.57 700.846 1867.57 703.845 1867.94 708.026 1868.67 713.389 1869.4 718.752 1869.76 722.46 1869.76 724.514 1869.76 729.134 1868.77 732.829 1866.78 735.598 1864.8 738.367 1862.99 740.049 1861.37 740.644L1861.37 741.454C1862.99 742.103 1864.8 743.778 1866.78 746.479 1868.77 749.181 1869.76 752.856 1869.76 757.503 1869.76 758.854 1869.4 762.63 1868.67 768.83 1867.94 775.031 1867.57 779.091 1867.57 781.009 1867.57 785.332 1867.88 789.033 1868.51 792.113 1869.13 795.193 1870.09 797.706 1871.38 799.651 1872.73 801.651 1874.31 803.143 1876.12 804.13 1877.94 805.116 1880.03 805.69 1882.41 805.852L1882.41 809.094C1874.84 808.878 1869.28 806.244 1865.73 801.191 1862.18 796.139 1860.4 788.898 1860.4 779.469 1860.4 776.362 1860.81 771.863 1861.64 765.973 1862.46 760.083 1862.87 756.395 1862.87 754.909 1862.87 751.208 1862.1 748.283 1860.54 746.135 1858.99 743.987 1856.7 742.873 1853.67 742.792L1853.67 739.306C1856.67 739.252 1858.95 738.158 1860.52 736.023 1862.09 733.889 1862.87 730.931 1862.87 727.148 1862.87 725.527 1862.46 722.028 1861.64 716.651 1860.81 711.275 1860.4 706.776 1860.4 703.156 1860.4 693.078 1862.28 685.634 1866.03 680.825 1869.79 676.016 1875.25 673.436 1882.41 673.084Z" fill-rule="evenodd"/><path d="M1912.45 660.475 1914.68 660.475C1914.52 663.069 1914.44 666.663 1914.44 671.256L1914.44 705.866C1914.44 707.433 1914.53 708.615 1914.7 709.412 1914.88 710.209 1915.19 710.858 1915.63 711.358 1916.08 711.857 1916.72 712.249 1917.56 712.533 1918.4 712.817 1919.45 713.033 1920.72 713.181 1921.99 713.33 1923.66 713.431 1925.74 713.485L1925.74 716.444 1895.79 716.444 1895.79 713.485C1898.79 713.35 1900.93 713.168 1902.22 712.938 1903.5 712.708 1904.48 712.364 1905.16 711.905 1905.83 711.445 1906.33 710.797 1906.64 709.959 1906.95 709.122 1907.1 707.757 1907.1 705.866L1907.1 672.998C1907.1 671.918 1906.91 671.127 1906.53 670.628 1906.16 670.128 1905.6 669.878 1904.87 669.878 1904.01 669.878 1902.78 670.324 1901.18 671.215 1899.59 672.107 1897.62 673.336 1895.27 674.903L1893.48 671.783Z" fill-rule="evenodd"/><text fill="#000000" fill-opacity="0" font-family="Arial,Arial_MSFontService,sans-serif" font-size="55.9683" x="1893.48" y="709.448">1</text><path d="M1897.48 766.844C1899.18 766.844 1900.52 767.405 1901.51 768.526 1902.5 769.647 1902.99 771.113 1902.99 772.923 1902.99 774.355 1902.67 775.949 1902.02 777.705L1902.5 777.867C1905.15 774.139 1907.67 771.376 1910.06 769.58 1912.45 767.783 1914.92 766.884 1917.46 766.884 1919.97 766.884 1921.9 767.607 1923.25 769.053 1924.6 770.498 1925.28 772.504 1925.28 775.071 1925.28 776.773 1924.89 779.191 1924.1 782.325L1921.47 792.944C1920.74 795.889 1920.38 797.969 1920.38 799.185 1920.38 800.266 1920.55 801.049 1920.9 801.535 1921.25 802.022 1921.81 802.265 1922.56 802.265 1923.38 802.265 1924.24 801.934 1925.16 801.272 1926.08 800.61 1927.37 799.347 1929.05 797.483L1931.36 799.752C1929.04 802.238 1927.01 804.055 1925.28 805.203 1923.55 806.351 1921.58 806.925 1919.36 806.925 1917.61 806.925 1916.2 806.297 1915.15 805.041 1914.09 803.785 1913.57 802.184 1913.57 800.238 1913.57 798.482 1914.01 795.902 1914.91 792.498L1916.69 785.487C1917.34 782.947 1917.76 781.069 1917.97 779.853 1918.17 778.637 1918.27 777.651 1918.27 776.895 1918.27 775.03 1917.96 773.686 1917.34 772.862 1916.72 772.038 1915.7 771.626 1914.3 771.626 1913.16 771.626 1911.94 772.079 1910.63 772.984 1909.32 773.889 1907.93 775.253 1906.46 777.077 1904.98 778.901 1903.8 780.671 1902.91 782.386 1902.02 784.102 1901.29 786.216 1900.72 788.729L1896.87 806.277 1889.86 806.277 1895.78 780.583C1896.37 777.989 1896.67 775.99 1896.67 774.585 1896.67 773.504 1896.49 772.72 1896.14 772.234 1895.79 771.748 1895.24 771.505 1894.48 771.505 1893.64 771.505 1892.76 771.849 1891.82 772.538 1890.89 773.227 1889.62 774.477 1888 776.287L1885.69 774.017C1888.17 771.424 1890.24 769.58 1891.89 768.485 1893.53 767.391 1895.4 766.844 1897.48 766.844Z" fill-rule="evenodd"/><text fill="#000000" fill-opacity="0" font-family="Arial,Arial_MSFontService,sans-serif" font-size="40.0815" x="1885.69" y="801.915">𝑛</text><path d="M1884.58 738.542 1933.58 738.542 1933.58 743.542 1884.58 743.542Z" fill-rule="evenodd"/><path d="M2770.05 702.661C2777.94 704.741 2784 709.233 2788.23 716.136 2792.46 723.039 2794.57 731.368 2794.57 741.121 2794.57 750.902 2792.46 759.23 2788.25 766.106 2784.03 772.983 2777.97 777.461 2770.05 779.541L2769.08 776.421C2775.32 774.34 2779.96 770.233 2783 764.1 2786.04 757.967 2787.56 750.172 2787.56 740.716 2787.56 731.584 2786.05 723.999 2783.02 717.96 2779.99 711.921 2775.31 707.862 2768.96 705.781ZM1979.25 702.661 1980.34 705.781C1974.02 707.862 1969.34 711.921 1966.3 717.96 1963.26 723.999 1961.74 731.584 1961.74 740.716 1961.74 750.172 1963.26 757.967 1966.3 764.1 1969.34 770.233 1973.98 774.34 1980.22 776.421L1979.25 779.541C1971.33 777.461 1965.27 772.983 1961.05 766.106 1956.84 759.23 1954.73 750.902 1954.73 741.121 1954.73 731.368 1956.84 723.039 1961.07 716.136 1965.3 709.233 1971.36 704.741 1979.25 702.661Z" fill-rule="evenodd"/><path d="M1984.27 703.389 2034.32 703.389 2034.32 721.423 2029.94 721.423C2029.27 718.857 2028.62 716.763 2028.02 715.142 2027.41 713.521 2026.79 712.237 2026.15 711.292 2025.52 710.346 2024.87 709.623 2024.21 709.123 2023.54 708.623 2022.78 708.245 2021.92 707.989 2021.05 707.732 2019.9 707.604 2018.47 707.604L1995.9 707.604 2015.63 737.553 2015.63 740.633 1993.51 771.029 2020.17 771.029C2021.85 771.029 2023.11 770.921 2023.96 770.705 2024.81 770.488 2025.54 770.157 2026.15 769.712 2026.76 769.266 2027.31 768.644 2027.81 767.847 2028.31 767.05 2028.79 765.949 2029.25 764.544 2029.71 763.139 2030.14 761.302 2030.55 759.033L2035.29 759.033 2034.12 778.81 1982.73 778.81 1982.73 776.541 2007.77 742.133 1984.27 705.699Z" fill-rule="evenodd"/><text fill="#000000" fill-opacity="0" font-family="Arial,Arial_MSFontService,sans-serif" font-size="75.4214" x="1982.73" y="769.382">σ</text><path d="M2740.28 702.453 2758.36 702.453 2758.36 779.739 2740.28 779.739 2740.28 776.618 2751.63 776.618 2751.63 705.574 2740.28 705.574ZM2151.12 702.453 2169.2 702.453 2169.2 705.574 2157.85 705.574 2157.85 776.618 2169.2 776.618 2169.2 779.739 2151.12 779.739Z" fill-rule="evenodd"/><path d="M2429.12 702.661C2437.01 704.741 2443.07 709.233 2447.3 716.136 2451.52 723.039 2453.64 731.368 2453.64 741.121 2453.64 750.902 2451.53 759.23 2447.32 766.106 2443.1 772.983 2437.04 777.461 2429.12 779.541L2428.15 776.421C2434.39 774.34 2439.03 770.233 2442.07 764.1 2445.11 757.967 2446.63 750.172 2446.63 740.716 2446.63 731.584 2445.11 723.999 2442.09 717.96 2439.06 711.921 2434.37 707.862 2428.03 705.781ZM2202.57 702.661 2203.67 705.781C2197.34 707.862 2192.66 711.921 2189.62 717.96 2186.58 723.999 2185.06 731.584 2185.06 740.716 2185.06 750.172 2186.58 757.967 2189.62 764.1 2192.66 770.233 2197.3 774.34 2203.54 776.421L2202.57 779.541C2194.66 777.461 2188.59 772.983 2184.38 766.106 2180.16 759.23 2178.05 750.902 2178.05 741.121 2178.05 731.368 2180.17 723.039 2184.4 716.136 2188.62 709.233 2194.68 704.741 2202.57 702.661Z" fill-rule="evenodd"/><path d="M2216.38 709.455 2232.76 709.455 2232.31 711.441C2231.15 711.63 2230.22 712.029 2229.53 712.637 2228.85 713.244 2228.5 714.129 2228.5 715.291 2228.5 717.02 2228.95 719.195 2229.84 721.816L2233.2 731.624 2240.7 722.14C2241.86 720.681 2242.77 719.486 2243.42 718.554 2244.06 717.621 2244.53 716.797 2244.81 716.081 2245.1 715.365 2245.24 714.737 2245.24 714.197 2245.24 713.467 2245.02 712.846 2244.59 712.333 2244.16 711.819 2243.42 711.522 2242.36 711.441L2242.81 709.455 2257.92 709.455 2257.48 711.441C2256.67 711.684 2255.9 712.076 2255.19 712.616 2254.47 713.157 2253.62 713.967 2252.64 715.048 2251.65 716.129 2249.82 718.263 2247.14 721.451L2235.07 735.879 2240.98 752.333C2241.88 754.819 2242.6 756.717 2243.17 758.027 2243.74 759.338 2244.24 760.303 2244.67 760.925 2245.02 761.384 2245.39 761.742 2245.77 761.999 2246.14 762.255 2246.78 762.519 2247.67 762.789L2247.27 764.775 2230.89 764.775 2231.3 762.789C2232.54 762.6 2233.49 762.174 2234.16 761.513 2234.82 760.851 2235.15 759.993 2235.15 758.939 2235.15 757.345 2234.82 755.575 2234.18 753.63L2229.96 741.269 2220.72 752.819C2219.34 754.549 2218.34 755.96 2217.72 757.055 2217.1 758.149 2216.79 759.088 2216.79 759.871 2216.79 760.925 2217.04 761.648 2217.54 762.039 2218.04 762.431 2218.75 762.681 2219.67 762.789L2219.22 764.775 2204.14 764.775 2204.55 762.789C2205.39 762.519 2206.15 762.127 2206.84 761.614 2207.53 761.1 2208.42 760.229 2209.51 759 2210.61 757.771 2212.52 755.535 2215.25 752.293L2228.1 737.014 2222.1 720.357C2221.1 717.574 2220.31 715.649 2219.75 714.582 2219.18 713.515 2218.62 712.765 2218.07 712.333 2217.51 711.9 2216.8 711.603 2215.94 711.441Z" fill-rule="evenodd"/><text fill="#000000" fill-opacity="0" font-family="Arial,Arial_MSFontService,sans-serif" font-size="55.3198" x="2204.14" y="757.86">𝑋</text><path d="M2268.95 751.506 2270.41 751.506 2266 771.343C2265.73 772.514 2265.53 773.448 2265.42 774.143 2265.31 774.838 2265.26 775.463 2265.26 776.019 2265.26 776.774 2265.41 777.32 2265.72 777.657 2266.03 777.995 2266.49 778.164 2267.11 778.164 2267.46 778.164 2267.82 778.094 2268.18 777.955 2268.54 777.816 2268.92 777.598 2269.33 777.3 2269.73 777.002 2270.18 776.62 2270.67 776.153 2271.15 775.687 2271.69 775.126 2272.29 774.47L2274.31 776.436C2273.28 777.489 2272.34 778.377 2271.5 779.102 2270.66 779.827 2269.86 780.417 2269.1 780.874 2268.35 781.331 2267.61 781.658 2266.88 781.857 2266.16 782.056 2265.39 782.155 2264.57 782.155 2263.82 782.155 2263.14 782.016 2262.53 781.738 2261.93 781.46 2261.41 781.078 2260.97 780.591 2260.53 780.105 2260.2 779.524 2259.96 778.849 2259.72 778.174 2259.6 777.429 2259.6 776.615 2259.6 775.96 2259.68 775.145 2259.84 774.172 2260 773.199 2260.2 772.142 2260.45 771 2260.7 769.859 2260.97 768.662 2261.27 767.411 2261.57 766.16 2261.86 764.919 2262.15 763.688 2262.44 762.457 2262.69 761.271 2262.92 760.129 2263.15 758.987 2263.31 757.949 2263.41 757.016 2263.45 756.857 2263.47 756.703 2263.47 756.555 2263.47 756.406 2263.47 756.272 2263.47 756.152 2263.43 755.378 2263.16 754.812 2262.65 754.455 2262.15 754.097 2261.25 753.899 2259.96 753.859L2260.32 751.834ZM2267.23 739.503 2273.18 739.503 2271.72 745.906 2265.83 745.906Z" fill-rule="evenodd"/><text fill="#000000" fill-opacity="0" font-family="Arial,Arial_MSFontService,sans-serif" font-size="42.6523" x="2259.6" y="776.823">𝑖</text><path d="M2305.7 738.351 2355.63 738.351 2355.63 743.741 2305.7 743.741Z" fill-rule="evenodd"/><text fill="#000000" fill-opacity="0" font-family="Arial,Arial_MSFontService,sans-serif" font-size="5.39014" x="2305.7" y="743.068">−</text><path d="M2395.88 725.342C2396.72 725.342 2397.45 725.436 2398.09 725.626 2398.72 725.815 2399.29 726.105 2399.77 726.497 2400.26 726.889 2400.69 727.395 2401.07 728.017 2401.45 728.638 2401.81 729.482 2402.16 730.55 2402.51 731.617 2402.84 732.941 2403.16 734.521 2403.47 736.102 2403.74 737.743 2403.99 739.445L2404.39 739.445C2406.99 735.798 2408.95 733.13 2410.29 731.441 2411.63 729.753 2412.75 728.496 2413.67 727.672 2414.59 726.848 2415.48 726.267 2416.33 725.93 2417.18 725.592 2418.31 725.423 2419.71 725.423 2420.98 725.423 2422.02 725.585 2422.83 725.909L2421.21 733.245 2418.37 733.245C2418.21 732.11 2417.74 731.543 2416.96 731.543 2416.71 731.543 2416.46 731.583 2416.19 731.664 2415.92 731.745 2415.58 731.921 2415.19 732.191 2414.8 732.461 2414.23 732.988 2413.47 733.772 2412.71 734.555 2411.86 735.514 2410.92 736.649 2409.97 737.784 2409 738.973 2408 740.215L2405.24 743.66C2405.73 746.254 2406.19 748.496 2406.62 750.388 2407.05 752.279 2407.44 753.853 2407.78 755.109 2408.11 756.366 2408.41 757.358 2408.67 758.088 2408.92 758.817 2409.2 759.365 2409.5 759.729 2409.8 760.094 2410.1 760.351 2410.41 760.499 2410.72 760.648 2411.08 760.722 2411.48 760.722 2412.21 760.722 2412.92 760.439 2413.61 759.871 2414.3 759.304 2415.29 758.02 2416.59 756.021L2419.22 757.764C2417.33 760.574 2415.62 762.553 2414.1 763.701 2412.57 764.849 2410.75 765.423 2408.65 765.423 2407.49 765.423 2406.5 765.214 2405.69 764.795 2404.88 764.376 2404.18 763.708 2403.58 762.789 2402.99 761.87 2402.46 760.439 2402 758.493 2401.16 755.035 2400.65 752.387 2400.46 750.55L2400.06 750.55C2397.19 754.576 2395.06 757.467 2393.67 759.223 2392.28 760.979 2391.13 762.276 2390.23 763.113 2389.32 763.951 2388.44 764.539 2387.59 764.876 2386.74 765.214 2385.61 765.383 2384.21 765.383 2382.94 765.383 2381.9 765.221 2381.09 764.897L2382.71 757.561 2385.55 757.561C2385.71 758.696 2386.18 759.263 2386.97 759.263 2387.34 759.263 2387.74 759.162 2388.16 758.959 2388.58 758.757 2389.18 758.27 2389.96 757.5 2390.75 756.73 2391.83 755.521 2393.21 753.873 2394.58 752.225 2396.58 749.753 2399.2 746.457 2398.8 744.322 2398.38 742.269 2397.95 740.296 2397.52 738.324 2397.07 736.487 2396.61 734.785 2396.15 733.083 2395.77 731.968 2395.48 731.441 2395.18 730.914 2394.86 730.55 2394.52 730.347 2394.19 730.144 2393.76 730.043 2393.25 730.043 2392.68 730.043 2392.17 730.171 2391.71 730.428 2391.25 730.685 2390.75 731.13 2390.21 731.765 2389.67 732.4 2388.95 733.393 2388.06 734.744L2385.43 733.002C2387.13 730.435 2388.76 728.516 2390.33 727.247 2391.9 725.977 2393.75 725.342 2395.88 725.342Z" fill-rule="evenodd"/><text fill="#000000" fill-opacity="0" font-family="Arial,Arial_MSFontService,sans-serif" font-size="40.0815" x="2381.09" y="760.413">𝑥</text><path d="M2379.58 706.542 2426.58 706.542 2426.58 711.542 2379.58 711.542Z" fill-rule="evenodd"/><path d="M2706.94 702.661C2714.83 704.741 2720.89 709.233 2725.11 716.136 2729.34 723.039 2731.46 731.368 2731.46 741.121 2731.46 750.902 2729.35 759.23 2725.14 766.106 2720.92 772.983 2714.85 777.461 2706.94 779.541L2705.97 776.421C2712.21 774.34 2716.85 770.233 2719.89 764.1 2722.93 757.967 2724.45 750.172 2724.45 740.716 2724.45 731.584 2722.93 723.999 2719.91 717.96 2716.88 711.921 2712.19 707.862 2705.84 705.781ZM2492.54 702.661 2493.63 705.781C2487.31 707.862 2482.63 711.921 2479.59 717.96 2476.55 723.999 2475.03 731.584 2475.03 740.716 2475.03 750.172 2476.55 757.967 2479.59 764.1 2482.63 770.233 2487.27 774.34 2493.51 776.421L2492.54 779.541C2484.62 777.461 2478.55 772.983 2474.34 766.106 2470.12 759.23 2468.02 750.902 2468.02 741.121 2468.02 731.368 2470.13 723.039 2474.36 716.136 2478.59 709.233 2484.65 704.741 2492.54 702.661Z" fill-rule="evenodd"/><path d="M2499.62 709.455 2515.3 709.455 2514.86 711.441C2513.72 711.549 2512.86 711.88 2512.27 712.434 2511.67 712.988 2511.37 713.846 2511.37 715.007 2511.37 716.656 2511.75 718.817 2512.51 721.492L2516.8 736.771 2526.77 723.437C2528.8 720.735 2530.13 718.729 2530.77 717.419 2531.4 716.108 2531.72 714.953 2531.72 713.954 2531.72 713.197 2531.46 712.616 2530.95 712.211 2530.44 711.806 2529.69 711.549 2528.72 711.441L2529.17 709.455 2544.36 709.455 2543.92 711.441C2543.27 711.576 2542.71 711.772 2542.24 712.029 2541.76 712.285 2541.22 712.697 2540.61 713.265 2540.01 713.832 2539.18 714.744 2538.14 716 2537.1 717.257 2535.77 718.939 2534.15 721.046L2518.39 741.512 2515.87 752.982C2515.63 754.062 2515.46 754.907 2515.37 755.514 2515.27 756.122 2515.19 756.771 2515.12 757.46 2515.05 758.149 2515.02 758.763 2515.02 759.304 2515.02 760.141 2515.16 760.797 2515.43 761.269 2515.7 761.742 2516.1 762.087 2516.64 762.303 2517.18 762.519 2518.11 762.681 2519.44 762.789L2518.99 764.775 2501.93 764.775 2502.38 762.789C2503.46 762.627 2504.25 762.411 2504.77 762.141 2505.28 761.87 2505.73 761.452 2506.13 760.884 2506.52 760.317 2506.91 759.425 2507.3 758.21 2507.69 756.994 2508.16 755.156 2508.7 752.698L2511.09 741.512 2505.21 721.046C2504.32 717.912 2503.62 715.791 2503.11 714.683 2502.59 713.575 2502.05 712.792 2501.46 712.333 2500.88 711.873 2500.12 711.576 2499.18 711.441Z" fill-rule="evenodd"/><text fill="#000000" fill-opacity="0" font-family="Arial,Arial_MSFontService,sans-serif" font-size="55.3198" x="2499.18" y="757.86">𝑌</text><path d="M2545.56 751.506 2547.02 751.506 2542.61 771.343C2542.33 772.514 2542.14 773.448 2542.03 774.143 2541.92 774.838 2541.86 775.463 2541.86 776.019 2541.86 776.774 2542.02 777.32 2542.33 777.657 2542.63 777.995 2543.09 778.164 2543.71 778.164 2544.07 778.164 2544.43 778.094 2544.78 777.955 2545.14 777.816 2545.52 777.598 2545.93 777.3 2546.34 777.002 2546.78 776.62 2547.27 776.153 2547.76 775.687 2548.3 775.126 2548.89 774.47L2550.92 776.436C2549.89 777.489 2548.95 778.377 2548.1 779.102 2547.26 779.827 2546.46 780.417 2545.71 780.874 2544.95 781.331 2544.21 781.658 2543.49 781.857 2542.76 782.056 2541.99 782.155 2541.18 782.155 2540.42 782.155 2539.74 782.016 2539.14 781.738 2538.53 781.46 2538.01 781.078 2537.57 780.591 2537.14 780.105 2536.8 779.524 2536.56 778.849 2536.32 778.174 2536.2 777.429 2536.2 776.615 2536.2 775.96 2536.28 775.145 2536.44 774.172 2536.6 773.199 2536.81 772.142 2537.05 771 2537.3 769.859 2537.57 768.662 2537.87 767.411 2538.17 766.16 2538.46 764.919 2538.75 763.688 2539.04 762.457 2539.3 761.271 2539.53 760.129 2539.75 758.987 2539.92 757.949 2540.02 757.016 2540.06 756.857 2540.08 756.703 2540.08 756.555 2540.08 756.406 2540.08 756.272 2540.08 756.152 2540.04 755.378 2539.76 754.812 2539.26 754.455 2538.75 754.097 2537.85 753.899 2536.56 753.859L2536.92 751.834ZM2543.83 739.503 2549.79 739.503 2548.33 745.906 2542.43 745.906Z" fill-rule="evenodd"/><text fill="#000000" fill-opacity="0" font-family="Arial,Arial_MSFontService,sans-serif" font-size="42.6523" x="2536.2" y="776.823">𝑖</text><path d="M2582.31 738.351 2632.24 738.351 2632.24 743.741 2582.31 743.741Z" fill-rule="evenodd"/><text fill="#000000" fill-opacity="0" font-family="Arial,Arial_MSFontService,sans-serif" font-size="5.39014" x="2582.31" y="743.068">−</text><path d="M2669.85 725.382C2670.96 725.382 2671.9 725.531 2672.69 725.828 2673.23 726.044 2673.77 726.402 2674.31 726.902 2674.85 727.402 2675.33 728.098 2675.75 728.989 2676.17 729.881 2676.53 730.881 2676.84 731.988 2677.15 733.096 2677.5 734.69 2677.88 736.771 2678.52 740.256 2679.15 743.924 2679.76 747.774 2680.37 751.624 2680.89 755.197 2681.32 758.493 2683.94 754.711 2686.16 751.009 2687.99 747.389 2689.81 743.768 2691.12 740.621 2691.92 737.946 2692.72 735.271 2693.11 733.096 2693.11 731.421 2693.11 730.151 2692.84 729.286 2692.3 728.827 2691.76 728.368 2690.84 728.098 2689.55 728.017L2689.95 726.031 2700.61 726.031 2701.71 728.057C2699.65 733.677 2696.87 739.689 2693.36 746.092 2689.9 752.36 2685.94 758.601 2681.48 764.815 2677.21 770.732 2673.66 775.015 2670.82 777.663 2668.85 779.473 2666.95 780.77 2665.11 781.553 2663.65 782.148 2662.1 782.445 2660.45 782.445 2659.88 782.445 2659.23 782.398 2658.48 782.303 2657.74 782.208 2657.17 782.08 2656.76 781.918L2658.5 774.056 2661.71 774.056C2661.71 775.785 2662.3 776.649 2663.49 776.649 2665.06 776.649 2666.88 775.67 2668.96 773.711 2671.04 771.752 2673.49 768.801 2676.29 764.856 2675.51 760.128 2674.44 754.427 2673.09 747.753 2671.66 740.621 2670.72 736.203 2670.26 734.501 2669.69 732.448 2669.09 731.137 2668.47 730.57 2668.09 730.219 2667.62 730.043 2667.05 730.043 2666.19 730.043 2665.38 730.394 2664.62 731.097 2663.87 731.799 2662.93 733.015 2661.83 734.744L2659.19 733.002C2661.06 730.219 2662.8 728.253 2664.42 727.105 2666.04 725.957 2667.85 725.382 2669.85 725.382Z" fill-rule="evenodd"/><text fill="#000000" fill-opacity="0" font-family="Arial,Arial_MSFontService,sans-serif" font-size="57.0625" x="2656.76" y="775.312">𝑦</text><path d="M2656.58 706.542 2704.58 706.542 2704.58 711.542 2656.58 711.542Z" fill-rule="evenodd"/><path d="M2050.98 700.608C2052.44 700.608 2053.58 701.09 2054.39 702.053 2055.19 703.016 2055.59 704.282 2055.59 705.85 2055.59 706.247 2055.56 706.664 2055.49 707.101 2055.42 707.538 2055.29 707.955 2055.12 708.352L2055.53 708.501C2057.46 705.86 2059.36 703.884 2061.24 702.574 2063.11 701.263 2065.05 700.608 2067.06 700.608 2069.16 700.608 2070.74 701.174 2071.78 702.306 2072.82 703.438 2073.34 705.026 2073.34 707.071 2073.34 707.687 2073.25 708.541 2073.08 709.633 2072.9 710.725 2072.67 711.917 2072.39 713.207 2072.11 714.498 2071.81 715.823 2071.5 717.184 2071.18 718.544 2070.88 719.8 2070.6 720.951 2070.33 722.103 2070.1 723.086 2069.92 723.9 2069.74 724.714 2069.65 725.221 2069.65 725.419 2069.65 726.174 2069.79 726.72 2070.07 727.057 2070.35 727.395 2070.79 727.564 2071.41 727.564 2071.78 727.564 2072.16 727.494 2072.52 727.355 2072.89 727.216 2073.27 726.998 2073.67 726.7 2074.07 726.402 2074.51 726.02 2074.98 725.553 2075.46 725.087 2075.99 724.526 2076.59 723.87L2078.65 725.836C2077.67 726.829 2076.78 727.683 2075.96 728.398 2075.15 729.112 2074.36 729.703 2073.6 730.17 2072.83 730.636 2072.07 730.984 2071.32 731.212 2070.56 731.441 2069.76 731.555 2068.91 731.555 2068.19 731.555 2067.53 731.416 2066.92 731.138 2066.32 730.86 2065.8 730.478 2065.36 729.991 2064.92 729.505 2064.59 728.929 2064.35 728.264 2064.11 727.598 2063.99 726.869 2063.99 726.074 2063.99 725.28 2064.08 724.352 2064.24 723.289 2064.41 722.227 2064.67 721.061 2065 719.79 2065.36 718.499 2065.69 717.263 2066 716.081 2066.31 714.9 2066.58 713.808 2066.81 712.805 2067.03 711.802 2067.21 710.909 2067.34 710.124 2067.47 709.34 2067.54 708.69 2067.54 708.174 2067.54 706.942 2067.3 706.039 2066.84 705.463 2066.37 704.887 2065.62 704.599 2064.59 704.599 2063.99 704.599 2063.35 704.753 2062.67 705.061 2061.98 705.369 2061.29 705.796 2060.6 706.342 2059.9 706.888 2059.22 707.533 2058.56 708.278 2057.89 709.022 2057.28 709.817 2056.72 710.661 2056.17 711.505 2055.68 712.388 2055.25 713.311 2054.82 714.235 2054.51 715.153 2054.31 716.067L2050.98 731.019 2045.14 731.019 2049.6 711.599C2049.86 710.566 2050.05 709.643 2050.17 708.829 2050.29 708.015 2050.35 707.349 2050.35 706.833 2050.35 705.384 2049.76 704.659 2048.59 704.659 2048.23 704.659 2047.87 704.733 2047.51 704.882 2047.14 705.031 2046.75 705.255 2046.34 705.552 2045.94 705.85 2045.49 706.228 2045.02 706.684 2044.54 707.141 2044.01 707.677 2043.41 708.293L2041.35 706.357C2042.35 705.344 2043.26 704.475 2044.08 703.75 2044.9 703.026 2045.69 702.43 2046.43 701.963 2047.18 701.497 2047.92 701.154 2048.65 700.936 2049.39 700.717 2050.16 700.608 2050.98 700.608Z" fill-rule="evenodd"/><text fill="#000000" fill-opacity="0" font-family="Arial,Arial_MSFontService,sans-serif" font-size="30.9468" x="2041.35" y="727.687">𝑛</text><path d="M2054.43 755.081 2055.89 755.081 2051.48 774.918C2051.2 776.089 2051.01 777.023 2050.9 777.718 2050.79 778.413 2050.74 779.038 2050.74 779.594 2050.74 780.349 2050.89 780.895 2051.2 781.232 2051.51 781.57 2051.97 781.739 2052.58 781.739 2052.94 781.739 2053.3 781.669 2053.66 781.53 2054.01 781.391 2054.4 781.173 2054.8 780.875 2055.21 780.577 2055.66 780.195 2056.14 779.728 2056.63 779.262 2057.17 778.701 2057.77 778.045L2059.79 780.011C2058.76 781.064 2057.82 781.952 2056.98 782.677 2056.13 783.402 2055.33 783.992 2054.58 784.449 2053.82 784.906 2053.08 785.233 2052.36 785.432 2051.64 785.631 2050.87 785.73 2050.05 785.73 2049.3 785.73 2048.62 785.591 2048.01 785.313 2047.41 785.035 2046.88 784.653 2046.45 784.166 2046.01 783.68 2045.67 783.099 2045.43 782.424 2045.2 781.749 2045.08 781.004 2045.08 780.19 2045.08 779.535 2045.16 778.72 2045.32 777.747 2045.47 776.774 2045.68 775.717 2045.93 774.575 2046.17 773.434 2046.45 772.237 2046.75 770.986 2047.04 769.735 2047.34 768.494 2047.62 767.263 2047.91 766.032 2048.17 764.846 2048.4 763.704 2048.63 762.562 2048.79 761.524 2048.89 760.591 2048.93 760.432 2048.95 760.278 2048.95 760.13 2048.95 759.981 2048.95 759.847 2048.95 759.727 2048.91 758.953 2048.64 758.387 2048.13 758.03 2047.62 757.672 2046.73 757.474 2045.43 757.434L2045.79 755.409ZM2052.7 743.078 2058.66 743.078 2057.2 749.481 2051.3 749.481Z" fill-rule="evenodd"/><text fill="#000000" fill-opacity="0" font-family="Arial,Arial_MSFontService,sans-serif" font-size="42.6523" x="2045.08" y="780.398">𝑖</text><path d="M2068.43 771.969 2102.74 771.969 2102.74 776.526 2068.43 776.526ZM2068.43 759.013 2102.74 759.013 2102.74 763.57 2068.43 763.57Z" fill-rule="evenodd"/><text fill="#000000" fill-opacity="0" font-family="Arial,Arial_MSFontService,sans-serif" font-size="17.5137" x="2068.43" y="774.337">=</text><path d="M2127.04 746.83 2128.86 746.83C2128.82 747.923 2128.79 748.901 2128.77 749.764 2128.75 750.628 2128.73 751.467 2128.72 752.281 2128.71 753.095 2128.71 753.899 2128.71 754.694L2128.71 777.33C2128.71 777.946 2128.73 778.477 2128.77 778.924 2128.81 779.371 2128.87 779.748 2128.96 780.056 2129.05 780.364 2129.17 780.627 2129.32 780.845 2129.47 781.064 2129.64 781.252 2129.84 781.411 2130.08 781.649 2130.4 781.833 2130.79 781.962 2131.19 782.091 2131.7 782.2 2132.31 782.29 2132.93 782.379 2133.67 782.449 2134.53 782.498 2135.4 782.548 2136.43 782.583 2137.64 782.602L2137.64 785.194 2114.02 785.194 2114.02 782.602C2115.2 782.563 2116.19 782.518 2117 782.468 2117.82 782.419 2118.51 782.349 2119.09 782.26 2119.66 782.171 2120.13 782.071 2120.47 781.962 2120.82 781.853 2121.12 781.719 2121.38 781.56 2121.66 781.381 2121.9 781.188 2122.1 780.979 2122.29 780.771 2122.45 780.508 2122.57 780.19 2122.69 779.872 2122.79 779.485 2122.86 779.028 2122.93 778.571 2122.96 778.006 2122.96 777.33L2122.96 755.974C2122.96 755.2 2122.81 754.654 2122.51 754.336 2122.22 754.019 2121.79 753.86 2121.23 753.86 2120.62 753.86 2119.7 754.177 2118.49 754.813 2117.28 755.448 2115.71 756.391 2113.79 757.642 2113.53 757.186 2113.29 756.729 2113.07 756.272 2112.85 755.816 2112.62 755.349 2112.39 754.872 2114.85 753.522 2117.29 752.177 2119.7 750.837 2122.11 749.496 2124.56 748.161 2127.04 746.83Z" fill-rule="evenodd"/><text fill="#000000" fill-opacity="0" font-family="Arial,Arial_MSFontService,sans-serif" font-size="38.3633" x="2112.39" y="780.398">1</text><path d="M2287.6 867.444C2283.98 867.552 2280.73 868.599 2277.87 870.585 2275.01 872.57 2272.78 875.238 2271.2 878.589 2269.62 881.939 2268.83 885.654 2268.83 889.734 2268.83 891.841 2269.18 893.536 2269.87 894.82 2270.55 896.103 2271.41 896.988 2272.44 897.474 2273.47 897.961 2274.57 898.204 2275.76 898.204 2278.49 898.204 2280.86 897.312 2282.85 895.529 2284.85 893.746 2286.47 891.031 2287.7 887.383 2288.93 883.736 2289.54 880.196 2289.54 876.765 2289.54 873.063 2288.89 869.956 2287.6 867.444ZM2293.84 861.972 2306.73 861.972 2305.51 867.322 2292.26 867.322 2292.18 867.646C2293.72 869.484 2294.82 871.334 2295.5 873.199 2296.17 875.063 2296.51 877.103 2296.51 879.318 2296.51 883.344 2295.65 887.079 2293.92 890.524 2292.19 893.969 2289.77 896.637 2286.66 898.528 2283.56 900.419 2280.04 901.365 2276.13 901.365 2271.67 901.365 2268.27 900.169 2265.93 897.778 2263.6 895.387 2262.43 892.003 2262.43 887.626 2262.43 884.627 2262.88 881.784 2263.79 879.095 2264.69 876.407 2266.03 873.935 2267.8 871.679 2269.57 869.423 2271.57 867.592 2273.82 866.187 2276.06 864.782 2278.73 863.729 2281.84 863.026 2284.95 862.324 2288.95 861.972 2293.84 861.972Z" fill-rule="evenodd"/><text fill="#000000" fill-opacity="0" font-family="Arial,Arial_MSFontService,sans-serif" font-size="39.3926" x="2262.43" y="896.441">𝜎</text><path d="M2314.49 887.15C2315.59 887.15 2316.48 887.388 2317.17 887.865 2317.87 888.341 2318.44 889.036 2318.9 889.95 2319.36 890.863 2319.74 891.99 2320.03 893.33 2320.33 894.67 2320.65 896.204 2320.99 897.932L2321.37 897.932C2322.56 896.363 2323.6 895.003 2324.47 893.851 2325.34 892.7 2326.12 891.727 2326.81 890.932 2327.49 890.138 2328.11 889.493 2328.66 888.996 2329.2 888.5 2329.73 888.118 2330.25 887.85 2330.77 887.582 2331.3 887.398 2331.84 887.299 2332.39 887.199 2333 887.15 2333.67 887.15 2334.67 887.15 2335.57 887.328 2336.39 887.686L2334.9 893.554 2332.42 893.554C2332.36 892.7 2332.05 892.273 2331.47 892.273 2331.25 892.273 2331.01 892.312 2330.76 892.392 2330.5 892.471 2330.19 892.63 2329.83 892.868 2329.48 893.107 2329.06 893.439 2328.6 893.866 2328.13 894.293 2327.58 894.849 2326.94 895.534 2326.31 896.219 2325.58 897.058 2324.77 898.051 2323.95 899.044 2323.02 900.215 2321.97 901.566 2322.51 904.306 2322.97 906.5 2323.35 908.148 2323.74 909.796 2324.11 911.057 2324.47 911.931 2324.83 912.805 2325.19 913.376 2325.54 913.644 2325.9 913.912 2326.31 914.046 2326.76 914.046 2327.1 914.046 2327.42 914.006 2327.7 913.927 2327.99 913.847 2328.29 913.673 2328.6 913.405 2328.9 913.137 2329.25 912.75 2329.62 912.244 2330 911.737 2330.45 911.067 2330.96 910.233L2333.2 911.693C2332.32 913.003 2331.55 914.076 2330.88 914.909 2330.2 915.743 2329.54 916.399 2328.91 916.875 2328.27 917.352 2327.62 917.675 2326.94 917.843 2326.27 918.012 2325.49 918.096 2324.62 918.096 2323.87 918.096 2323.19 917.992 2322.59 917.784 2322 917.575 2321.48 917.193 2321.05 916.637 2320.75 916.299 2320.47 915.848 2320.21 915.282 2319.95 914.716 2319.72 914.105 2319.5 913.45 2319.28 912.795 2319.08 912.115 2318.9 911.41 2318.72 910.705 2318.57 910.045 2318.45 909.429 2318.34 908.813 2318.24 908.262 2318.17 907.776 2318.1 907.289 2318.06 906.927 2318.04 906.689L2317.71 906.689C2316.52 908.277 2315.48 909.662 2314.6 910.844 2313.71 912.025 2312.91 913.038 2312.2 913.882 2311.48 914.726 2310.84 915.421 2310.26 915.967 2309.69 916.513 2309.12 916.945 2308.57 917.263 2308.01 917.58 2307.44 917.799 2306.85 917.918 2306.27 918.037 2305.62 918.096 2304.9 918.096 2303.87 918.096 2302.99 917.918 2302.25 917.56L2303.62 911.752 2306.15 911.752C2306.21 912.626 2306.54 913.063 2307.14 913.063 2307.35 913.043 2307.57 913.003 2307.78 912.944 2307.99 912.884 2308.23 912.76 2308.51 912.571 2308.78 912.383 2309.14 912.085 2309.56 911.678 2309.99 911.271 2310.53 910.705 2311.19 909.98 2311.84 909.255 2312.65 908.347 2313.6 907.255 2314.55 906.163 2315.69 904.812 2317.02 903.204 2316.67 901.536 2316.35 900.086 2316.09 898.855 2315.82 897.624 2315.57 896.567 2315.34 895.683 2315.11 894.8 2314.89 894.08 2314.67 893.524 2314.45 892.968 2314.23 892.526 2314 892.198 2313.77 891.871 2313.53 891.637 2313.26 891.498 2312.99 891.359 2312.68 891.28 2312.32 891.26 2311.98 891.26 2311.67 891.315 2311.38 891.424 2311.09 891.533 2310.79 891.727 2310.49 892.005 2310.18 892.283 2309.84 892.67 2309.47 893.166 2309.11 893.663 2308.69 894.308 2308.21 895.102L2305.92 893.613C2306.73 892.402 2307.46 891.379 2308.12 890.545 2308.77 889.711 2309.42 889.046 2310.06 888.55 2310.69 888.053 2311.36 887.696 2312.07 887.477 2312.77 887.259 2313.58 887.15 2314.49 887.15Z" fill-rule="evenodd"/><text fill="#000000" fill-opacity="0" font-family="Arial,Arial_MSFontService,sans-serif" font-size="30.9468" x="2302.25" y="914.228">𝑥</text><path d="M2370.62 867.444C2367 867.552 2363.76 868.599 2360.9 870.585 2358.03 872.57 2355.81 875.238 2354.23 878.589 2352.65 881.939 2351.86 885.654 2351.86 889.734 2351.86 891.841 2352.2 893.536 2352.89 894.82 2353.58 896.103 2354.44 896.988 2355.47 897.474 2356.49 897.961 2357.6 898.204 2358.79 898.204 2361.52 898.204 2363.88 897.312 2365.88 895.529 2367.88 893.746 2369.5 891.031 2370.72 887.383 2371.95 883.736 2372.57 880.196 2372.57 876.765 2372.57 873.063 2371.92 869.956 2370.62 867.444ZM2376.86 861.972 2389.75 861.972 2388.54 867.322 2375.28 867.322 2375.2 867.646C2376.74 869.484 2377.85 871.334 2378.53 873.199 2379.2 875.063 2379.54 877.103 2379.54 879.318 2379.54 883.344 2378.67 887.079 2376.95 890.524 2375.22 893.969 2372.8 896.637 2369.69 898.528 2366.58 900.419 2363.07 901.365 2359.15 901.365 2354.7 901.365 2351.3 900.169 2348.96 897.778 2346.62 895.387 2345.46 892.003 2345.46 887.626 2345.46 884.627 2345.91 881.784 2346.81 879.095 2347.72 876.407 2349.06 873.935 2350.83 871.679 2352.6 869.423 2354.6 867.592 2356.84 866.187 2359.09 864.782 2361.76 863.729 2364.87 863.026 2367.98 862.324 2371.97 861.972 2376.86 861.972Z" fill-rule="evenodd"/><text fill="#000000" fill-opacity="0" font-family="Arial,Arial_MSFontService,sans-serif" font-size="39.3926" x="2345.46" y="896.441">𝜎</text><path d="M2395.94 887.15C2396.66 887.15 2397.27 887.224 2397.79 887.373 2398.3 887.522 2398.77 887.755 2399.19 888.073 2399.61 888.391 2399.98 888.803 2400.31 889.309 2400.63 889.815 2400.97 890.426 2401.3 891.141 2401.48 891.578 2401.67 892.203 2401.87 893.017 2402.07 893.832 2402.28 894.775 2402.49 895.847 2402.71 896.919 2402.93 898.101 2403.15 899.391 2403.37 900.682 2403.59 902.032 2403.8 903.442 2404.02 904.852 2404.23 906.297 2404.43 907.776 2404.63 909.255 2404.82 910.71 2405 912.139 2406.49 910.193 2407.83 908.223 2409.02 906.227 2410.21 904.232 2411.22 902.345 2412.04 900.568 2412.86 898.791 2413.5 897.172 2413.93 895.713 2414.37 894.253 2414.58 893.087 2414.56 892.213 2414.56 891.339 2414.33 890.714 2413.87 890.337 2413.42 889.959 2412.65 889.741 2411.58 889.681L2411.97 887.775 2420.45 887.775 2421.5 889.503C2419.51 894.407 2417.19 899.138 2414.54 903.695 2411.89 908.253 2408.9 912.676 2405.56 916.965 2404.11 918.692 2402.81 920.181 2401.65 921.432 2400.48 922.683 2399.41 923.761 2398.43 924.664 2397.45 925.568 2396.53 926.307 2395.69 926.883 2394.84 927.459 2394.03 927.921 2393.23 928.268 2392.44 928.616 2391.65 928.864 2390.86 929.013 2390.08 929.162 2389.26 929.256 2388.41 929.296 2387.95 929.296 2387.4 929.246 2386.75 929.147 2386.11 929.047 2385.54 928.918 2385.04 928.76L2386.53 922.237 2389.24 922.237 2389.24 922.415C2389.24 923.766 2389.79 924.441 2390.88 924.441 2392.33 924.441 2393.8 923.88 2395.29 922.758 2396.78 921.636 2398.57 919.844 2400.68 917.382 2400.02 913.609 2399.45 910.347 2398.95 907.597 2398.45 904.847 2398 902.504 2397.59 900.568 2397.19 898.632 2396.82 897.058 2396.48 895.847 2396.14 894.636 2395.81 893.693 2395.49 893.017 2395.18 892.342 2394.85 891.881 2394.53 891.632 2394.2 891.384 2393.85 891.26 2393.47 891.26 2393.11 891.26 2392.78 891.305 2392.49 891.394 2392.19 891.483 2391.88 891.667 2391.56 891.945 2391.25 892.223 2390.9 892.615 2390.54 893.122 2390.17 893.628 2389.72 894.288 2389.18 895.102L2386.89 893.613C2387.74 892.362 2388.53 891.32 2389.24 890.486 2389.95 889.652 2390.66 888.991 2391.37 888.505 2392.07 888.018 2392.79 887.671 2393.53 887.462 2394.26 887.254 2395.07 887.15 2395.94 887.15Z" fill-rule="evenodd"/><text fill="#000000" fill-opacity="0" font-family="Arial,Arial_MSFontService,sans-serif" font-size="42.146" x="2385.04" y="924.027">𝑦</text><path d="M1849.58 819.542 2096.33 819.542 2343.08 819.542 2589.83 819.542 2836.58 819.542 2836.58 824.542 2589.83 824.542 2343.08 824.542 2096.33 824.542 1849.58 824.542Z" fill-rule="evenodd"/></g></svg>