<svg width="759" height="213" viewBox="0 0 759 213" fill="none" xmlns="http://www.w3.org/2000/svg">
<rect width="749" height="200" transform="translate(5 5)" fill="white"/>
<rect width="200" height="40" transform="translate(5 5)" fill="white"/>
<path d="M5 9C5 6.79086 6.79086 5 9 5H205V45H5V9Z" fill="#5F666B" stroke="#828282"/>
<path d="M64.3848 33H56.1621V18.625H58.9453V30.6953H64.3848V33ZM65.8789 19.3574C65.8789 18.9408 66.0254 18.5924 66.3184 18.3125C66.6178 18.0326 67.002 17.8926 67.4707 17.8926C67.9264 17.8926 68.3073 18.0326 68.6133 18.3125C68.9193 18.5859 69.0723 18.9342 69.0723 19.3574C69.0723 19.7806 68.9193 20.1322 68.6133 20.4121C68.3138 20.6921 67.9329 20.832 67.4707 20.832C67.0085 20.832 66.6276 20.6888 66.3281 20.4023C66.0286 20.1159 65.8789 19.7676 65.8789 19.3574ZM66.0938 33V22.7363H68.8086V33H66.0938ZM81.123 33H78.4082V27.248C78.4082 25.4902 77.7734 24.6113 76.5039 24.6113C75.8659 24.6113 75.3451 24.8522 74.9414 25.334C74.5443 25.8092 74.3457 26.4147 74.3457 27.1504V33H71.6211V22.7363H74.3457V24.3867H74.375C75.1302 23.1237 76.2402 22.4922 77.7051 22.4922C79.9837 22.4922 81.123 23.9017 81.123 26.7207V33ZM92.7246 28.6348H85.8691C85.9798 30.3796 86.9694 31.252 88.8379 31.252C89.9772 31.252 90.9928 30.9525 91.8848 30.3535V32.4238C90.9342 32.9772 89.7135 33.2539 88.2227 33.2539C86.6276 33.2539 85.3841 32.7917 84.4922 31.8672C83.6068 30.9427 83.1641 29.6504 83.1641 27.9902C83.1641 26.3626 83.6393 25.041 84.5898 24.0254C85.5469 23.0033 86.7415 22.4922 88.1738 22.4922C89.6061 22.4922 90.7227 22.9316 91.5234 23.8105C92.3242 24.6895 92.7246 25.8971 92.7246 27.4336V28.6348ZM90.1562 26.8477C90.1562 25.2201 89.4857 24.4062 88.1445 24.4062C87.5846 24.4062 87.0898 24.6276 86.6602 25.0703C86.237 25.513 85.9733 26.1055 85.8691 26.8477H90.1562ZM111.729 20.9395H107.617V33H104.824V20.9395H100.723V18.625H111.729V20.9395ZM122.783 22.7363L118.457 34.0645C117.5 36.571 116.081 37.8242 114.199 37.8242C113.548 37.8242 112.998 37.7493 112.549 37.5996V35.3828C112.939 35.5911 113.363 35.6953 113.818 35.6953C114.632 35.6953 115.215 35.2786 115.566 34.4453L116.191 32.9805L112.07 22.7363H115.088L117.246 29.4648C117.311 29.6797 117.399 30.0801 117.51 30.666H117.549C117.601 30.3275 117.699 29.9336 117.842 29.4844L120.068 22.7363H122.783ZM126.924 31.7207V37.7266H124.199V22.7363H126.924V24.3574H126.953C127.747 23.1139 128.874 22.4922 130.332 22.4922C131.628 22.4922 132.646 22.9447 133.389 23.8496C134.137 24.7546 134.512 25.998 134.512 27.5801C134.512 29.2858 134.085 30.6595 133.232 31.7012C132.386 32.7363 131.263 33.2539 129.863 33.2539C128.6 33.2539 127.63 32.7428 126.953 31.7207H126.924ZM126.885 28.5371C126.885 29.2793 127.1 29.8978 127.529 30.3926C127.959 30.8809 128.509 31.125 129.18 31.125C129.974 31.125 130.596 30.8158 131.045 30.1973C131.494 29.5788 131.719 28.7096 131.719 27.5898C131.719 25.6042 130.934 24.6113 129.365 24.6113C128.623 24.6113 128.024 24.888 127.568 25.4414C127.113 25.9948 126.885 26.6914 126.885 27.5312V28.5371ZM145.674 28.6348H138.818C138.929 30.3796 139.919 31.252 141.787 31.252C142.926 31.252 143.942 30.9525 144.834 30.3535V32.4238C143.883 32.9772 142.663 33.2539 141.172 33.2539C139.577 33.2539 138.333 32.7917 137.441 31.8672C136.556 30.9427 136.113 29.6504 136.113 27.9902C136.113 26.3626 136.589 25.041 137.539 24.0254C138.496 23.0033 139.691 22.4922 141.123 22.4922C142.555 22.4922 143.672 22.9316 144.473 23.8105C145.273 24.6895 145.674 25.8971 145.674 27.4336V28.6348ZM143.105 26.8477C143.105 25.2201 142.435 24.4062 141.094 24.4062C140.534 24.4062 140.039 24.6276 139.609 25.0703C139.186 25.513 138.923 26.1055 138.818 26.8477H143.105ZM147.393 30.3633C148.408 31.0013 149.411 31.3203 150.4 31.3203C151.676 31.3203 152.314 30.959 152.314 30.2363C152.314 29.735 151.81 29.3118 150.801 28.9668C149.329 28.472 148.395 27.987 147.998 27.5117C147.601 27.0299 147.402 26.4147 147.402 25.666C147.402 24.6764 147.806 23.9017 148.613 23.3418C149.421 22.7754 150.459 22.4922 151.729 22.4922C152.614 22.4922 153.499 22.6322 154.385 22.9121V25.1289C153.584 24.6536 152.708 24.416 151.758 24.416C151.257 24.416 150.853 24.5104 150.547 24.6992C150.241 24.888 150.088 25.1387 150.088 25.4512C150.088 25.9655 150.514 26.3724 151.367 26.6719C152.337 27.0234 153.05 27.3197 153.506 27.5605C153.962 27.7949 154.316 28.1172 154.57 28.5273C154.824 28.9375 154.951 29.4193 154.951 29.9727C154.951 31.0143 154.535 31.8216 153.701 32.3945C152.874 32.9674 151.781 33.2539 150.42 33.2539C149.274 33.2539 148.265 33.0716 147.393 32.707V30.3633Z" fill="white"/>
<rect width="200" height="40" transform="translate(5 45)" fill="white"/>
<rect x="5" y="45" width="200" height="40" fill="white" stroke="#828282"/>
<path d="M70.8887 70.5098C71.3314 70.8939 71.9238 71.2031 72.666 71.4375C73.4147 71.6719 74.1048 71.7891 74.7363 71.7891C76.8262 71.7891 77.8711 71.0306 77.8711 69.5137C77.8711 69.0775 77.7604 68.6934 77.5391 68.3613C77.3242 68.0293 77.041 67.7461 76.6895 67.5117C76.3379 67.2773 75.6055 66.8737 74.4922 66.3008C73.151 65.6107 72.2168 64.9759 71.6895 64.3965C71.1686 63.8105 70.9082 63.0781 70.9082 62.1992C70.9082 61.0273 71.3835 60.0996 72.334 59.416C73.291 58.7324 74.4694 58.3906 75.8691 58.3906C77.2884 58.3906 78.304 58.5599 78.916 58.8984V60.7246C78.0827 60.1452 76.9987 59.8555 75.6641 59.8555C74.7526 59.8555 74.0072 60.0508 73.4277 60.4414C72.8548 60.832 72.5684 61.3724 72.5684 62.0625C72.5684 62.6875 72.7702 63.1986 73.1738 63.5957C73.584 63.9863 74.4303 64.4941 75.7129 65.1191C77.2103 65.8678 78.2194 66.5742 78.7402 67.2383C79.2611 67.9023 79.5215 68.6217 79.5215 69.3965C79.5215 70.64 79.0723 71.5938 78.1738 72.2578C77.2754 72.9154 76.0319 73.2441 74.4434 73.2441C73.9421 73.2441 73.3105 73.1628 72.5488 73C71.7936 72.8438 71.2402 72.6484 70.8887 72.4141V70.5098ZM86.8652 72.9023C86.4746 73.1172 85.9766 73.2246 85.3711 73.2246C83.6068 73.2246 82.7246 72.2318 82.7246 70.2461V64.0742H80.9473V62.7363H82.7246V60.2168L84.2676 59.7188V62.7363H86.8652V64.0742H84.2676V69.9629C84.2676 70.6855 84.388 71.1901 84.6289 71.4766C84.8698 71.763 85.2604 71.9062 85.8008 71.9062C86.2109 71.9062 86.5658 71.7923 86.8652 71.5645V72.9023ZM94.3652 64.3281C94.0723 64.1068 93.6589 63.9961 93.125 63.9961C92.4219 63.9961 91.8327 64.3379 91.3574 65.0215C90.8822 65.7051 90.6445 66.6133 90.6445 67.7461V73H89.0918V62.7363H90.6445V64.8652H90.6836C90.918 64.1426 91.2728 63.5794 91.748 63.1758C92.2298 62.7656 92.7669 62.5605 93.3594 62.5605C93.7891 62.5605 94.1243 62.6061 94.3652 62.6973V64.3281ZM96.4062 63.4688C97.4089 62.8242 98.5612 62.502 99.8633 62.502C102.246 62.502 103.438 63.765 103.438 66.291V73H101.885V71.3887H101.826C101.117 72.6257 100.065 73.2441 98.6719 73.2441C97.6693 73.2441 96.8717 72.9772 96.2793 72.4434C95.6934 71.903 95.4004 71.1836 95.4004 70.2852C95.4004 68.3776 96.5267 67.2676 98.7793 66.9551L101.875 66.5059C101.875 64.722 101.165 63.8301 99.7461 63.8301C98.4961 63.8301 97.3828 64.2565 96.4062 65.1094V63.4688ZM99.3652 68.127C98.5645 68.2311 97.972 68.4264 97.5879 68.7129C97.2038 68.9993 97.0117 69.4876 97.0117 70.1777C97.0117 70.6986 97.194 71.1185 97.5586 71.4375C97.9297 71.7565 98.4147 71.916 99.0137 71.916C99.8405 71.916 100.524 71.623 101.064 71.0371C101.605 70.4512 101.875 69.7155 101.875 68.8301V67.7949L99.3652 68.127ZM106.367 59.0449C106.367 58.752 106.465 58.5078 106.66 58.3125C106.855 58.1107 107.093 58.0098 107.373 58.0098C107.666 58.0098 107.91 58.1107 108.105 58.3125C108.307 58.5143 108.408 58.7585 108.408 59.0449C108.408 59.3379 108.307 59.582 108.105 59.7773C107.91 59.9727 107.666 60.0703 107.373 60.0703C107.093 60.0703 106.855 59.9759 106.66 59.7871C106.465 59.5918 106.367 59.3444 106.367 59.0449ZM106.582 73V62.7363H108.125V73H106.582ZM120.166 72.1895C120.166 75.9525 118.385 77.834 114.824 77.834C113.574 77.834 112.464 77.5898 111.494 77.1016V75.5195C112.64 76.1641 113.747 76.4863 114.814 76.4863C117.36 76.4863 118.633 75.1224 118.633 72.3945V71.252H118.594C117.786 72.5801 116.605 73.2441 115.049 73.2441C113.779 73.2441 112.754 72.7852 111.973 71.8672C111.191 70.9492 110.801 69.7285 110.801 68.2051C110.801 66.4538 111.224 65.0671 112.07 64.0449C112.917 63.0163 114.056 62.502 115.488 62.502C116.882 62.502 117.917 63.0618 118.594 64.1816H118.633V62.7363H120.166V72.1895ZM118.633 66.8184C118.633 65.985 118.346 65.2754 117.773 64.6895C117.201 64.1035 116.504 63.8105 115.684 63.8105C114.655 63.8105 113.844 64.1914 113.252 64.9531C112.666 65.7083 112.373 66.7533 112.373 68.0879C112.373 69.2467 112.656 70.1777 113.223 70.8809C113.796 71.5775 114.538 71.9258 115.449 71.9258C116.374 71.9258 117.135 71.5905 117.734 70.9199C118.333 70.2493 118.633 69.403 118.633 68.3809V66.8184ZM131.982 73H130.439V67.082C130.439 64.901 129.626 63.8105 127.998 63.8105C127.184 63.8105 126.497 64.1263 125.938 64.7578C125.378 65.3893 125.098 66.1999 125.098 67.1895V73H123.545V57.8145H125.098V64.4551H125.137C125.924 63.153 127.051 62.502 128.516 62.502C130.827 62.502 131.982 63.8952 131.982 66.6816V73ZM139.795 72.9023C139.404 73.1172 138.906 73.2246 138.301 73.2246C136.536 73.2246 135.654 72.2318 135.654 70.2461V64.0742H133.877V62.7363H135.654V60.2168L137.197 59.7188V62.7363H139.795V64.0742H137.197V69.9629C137.197 70.6855 137.318 71.1901 137.559 71.4766C137.799 71.763 138.19 71.9062 138.73 71.9062C139.141 71.9062 139.495 71.7923 139.795 71.5645V72.9023Z" fill="black"/>
<rect width="200" height="40" transform="translate(5 85)" fill="white"/>
<rect x="5" y="85" width="200" height="40" fill="white" stroke="#828282"/>
<path d="M103.076 113H101.328L99.7656 108.918H93.6035L92.1484 113H90.3906L95.918 98.625H97.5195L103.076 113ZM99.2285 107.473L96.9336 101.262C96.849 101.034 96.7773 100.718 96.7188 100.314H96.6699C96.5983 100.764 96.5202 101.079 96.4355 101.262L94.1602 107.473H99.2285ZM110.273 104.328C109.98 104.107 109.567 103.996 109.033 103.996C108.33 103.996 107.741 104.338 107.266 105.021C106.79 105.705 106.553 106.613 106.553 107.746V113H105V102.736H106.553V104.865H106.592C106.826 104.143 107.181 103.579 107.656 103.176C108.138 102.766 108.675 102.561 109.268 102.561C109.697 102.561 110.033 102.606 110.273 102.697V104.328ZM119.023 112.521C118.216 113.003 117.288 113.244 116.24 113.244C114.808 113.244 113.639 112.775 112.734 111.838C111.829 110.9 111.377 109.657 111.377 108.107C111.377 106.408 111.855 105.051 112.812 104.035C113.776 103.013 115.062 102.502 116.67 102.502C117.555 102.502 118.343 102.668 119.033 103V104.621C118.265 104.081 117.448 103.811 116.582 103.811C115.534 103.811 114.665 104.191 113.975 104.953C113.291 105.708 112.949 106.714 112.949 107.971C112.949 109.169 113.262 110.129 113.887 110.852C114.518 111.568 115.381 111.926 116.475 111.926C117.38 111.926 118.229 111.626 119.023 111.027V112.521Z" fill="black"/>
<rect width="200" height="40" transform="translate(5 125)" fill="white"/>
<rect x="5" y="125" width="200" height="40" fill="white" stroke="#828282"/>
<path d="M78.1152 152.385C77.054 152.958 75.7357 153.244 74.1602 153.244C72.1354 153.244 70.5078 152.58 69.2773 151.252C68.0469 149.917 67.4316 148.195 67.4316 146.086C67.4316 143.859 68.112 142.02 69.4727 140.568C70.8333 139.117 72.5879 138.391 74.7363 138.391C76.097 138.391 77.2233 138.589 78.1152 138.986V140.686C77.0931 140.119 75.957 139.836 74.707 139.836C72.9948 139.836 71.6309 140.412 70.6152 141.564C69.5996 142.717 69.0918 144.195 69.0918 145.998C69.0918 147.723 69.5703 149.123 70.5273 150.197C71.4844 151.271 72.7604 151.809 74.3555 151.809C75.8008 151.809 77.054 151.49 78.1152 150.852V152.385ZM80.8594 153V137.814H82.4023V153H80.8594ZM85.0781 148C85.0781 146.294 85.5404 144.953 86.4648 143.977C87.3958 142.993 88.6654 142.502 90.2734 142.502C91.7708 142.502 92.9492 142.974 93.8086 143.918C94.6745 144.855 95.1074 146.164 95.1074 147.844C95.1074 149.471 94.6419 150.78 93.7109 151.77C92.7799 152.753 91.5527 153.244 90.0293 153.244C88.5384 153.244 87.3405 152.762 86.4355 151.799C85.5306 150.835 85.0781 149.569 85.0781 148ZM86.6504 147.932C86.6504 149.143 86.9661 150.113 87.5977 150.842C88.2357 151.564 89.082 151.926 90.1367 151.926C91.2305 151.926 92.0671 151.577 92.6465 150.881C93.2324 150.178 93.5254 149.182 93.5254 147.893C93.5254 146.597 93.2324 145.594 92.6465 144.885C92.0605 144.169 91.224 143.811 90.1367 143.811C89.0755 143.811 88.2292 144.178 87.5977 144.914C86.9661 145.65 86.6504 146.656 86.6504 147.932ZM102.432 152.902C102.041 153.117 101.543 153.225 100.938 153.225C99.1732 153.225 98.291 152.232 98.291 150.246V144.074H96.5137V142.736H98.291V140.217L99.834 139.719V142.736H102.432V144.074H99.834V149.963C99.834 150.686 99.9544 151.19 100.195 151.477C100.436 151.763 100.827 151.906 101.367 151.906C101.777 151.906 102.132 151.792 102.432 151.564V152.902ZM113.096 153H111.553V147.082C111.553 144.901 110.739 143.811 109.111 143.811C108.298 143.811 107.611 144.126 107.051 144.758C106.491 145.389 106.211 146.2 106.211 147.189V153H104.658V137.814H106.211V144.455H106.25C107.038 143.153 108.164 142.502 109.629 142.502C111.94 142.502 113.096 143.895 113.096 146.682V153ZM115.547 148C115.547 146.294 116.009 144.953 116.934 143.977C117.865 142.993 119.134 142.502 120.742 142.502C122.24 142.502 123.418 142.974 124.277 143.918C125.143 144.855 125.576 146.164 125.576 147.844C125.576 149.471 125.111 150.78 124.18 151.77C123.249 152.753 122.021 153.244 120.498 153.244C119.007 153.244 117.809 152.762 116.904 151.799C115.999 150.835 115.547 149.569 115.547 148ZM117.119 147.932C117.119 149.143 117.435 150.113 118.066 150.842C118.704 151.564 119.551 151.926 120.605 151.926C121.699 151.926 122.536 151.577 123.115 150.881C123.701 150.178 123.994 149.182 123.994 147.893C123.994 146.597 123.701 145.594 123.115 144.885C122.529 144.169 121.693 143.811 120.605 143.811C119.544 143.811 118.698 144.178 118.066 144.914C117.435 145.65 117.119 146.656 117.119 147.932ZM128.027 139.045C128.027 138.752 128.125 138.508 128.32 138.312C128.516 138.111 128.753 138.01 129.033 138.01C129.326 138.01 129.57 138.111 129.766 138.312C129.967 138.514 130.068 138.758 130.068 139.045C130.068 139.338 129.967 139.582 129.766 139.777C129.57 139.973 129.326 140.07 129.033 140.07C128.753 140.07 128.516 139.976 128.32 139.787C128.125 139.592 128.027 139.344 128.027 139.045ZM128.242 153V142.736H129.785V153H128.242ZM141.826 153H140.293V151.232H140.254C139.492 152.574 138.311 153.244 136.709 153.244C135.42 153.244 134.388 152.785 133.613 151.867C132.845 150.943 132.461 149.689 132.461 148.107C132.461 146.421 132.891 145.067 133.75 144.045C134.609 143.016 135.742 142.502 137.148 142.502C138.561 142.502 139.596 143.062 140.254 144.182H140.293V137.814H141.826V153ZM140.293 146.818C140.293 145.985 140.01 145.275 139.443 144.689C138.877 144.104 138.171 143.811 137.324 143.811C136.309 143.811 135.505 144.191 134.912 144.953C134.326 145.708 134.033 146.734 134.033 148.029C134.033 149.208 134.31 150.152 134.863 150.861C135.423 151.571 136.182 151.926 137.139 151.926C138.05 151.926 138.802 151.59 139.395 150.92C139.993 150.249 140.293 149.403 140.293 148.381V146.818Z" fill="black"/>
<rect width="200" height="40" transform="translate(5 165)" fill="white"/>
<rect x="5" y="165" width="200" height="40" fill="white" stroke="#828282"/>
<path d="M48.4766 192.385C47.4154 192.958 46.097 193.244 44.5215 193.244C42.4967 193.244 40.8691 192.58 39.6387 191.252C38.4082 189.917 37.793 188.195 37.793 186.086C37.793 183.859 38.4733 182.02 39.834 180.568C41.1947 179.117 42.9492 178.391 45.0977 178.391C46.4583 178.391 47.5846 178.589 48.4766 178.986V180.686C47.4544 180.119 46.3184 179.836 45.0684 179.836C43.3561 179.836 41.9922 180.412 40.9766 181.564C39.9609 182.717 39.4531 184.195 39.4531 185.998C39.4531 187.723 39.9316 189.123 40.8887 190.197C41.8457 191.271 43.1217 191.809 44.7168 191.809C46.1621 191.809 47.4154 191.49 48.4766 190.852V192.385ZM59.4238 193H57.8711V191.379H57.832C57.1549 192.622 56.1003 193.244 54.668 193.244C52.2201 193.244 50.9961 191.786 50.9961 188.869V182.736H52.5293V188.615C52.5293 190.822 53.3691 191.926 55.0488 191.926C55.8691 191.926 56.543 191.623 57.0703 191.018C57.6042 190.406 57.8711 189.615 57.8711 188.645V182.736H59.4238V193ZM64.3262 191.496V193H62.7734V177.814H64.3262V184.553H64.3652C65.179 183.186 66.3639 182.502 67.9199 182.502C69.2285 182.502 70.2572 182.964 71.0059 183.889C71.7611 184.807 72.1387 186.034 72.1387 187.57C72.1387 189.302 71.7122 190.682 70.8594 191.711C70.013 192.733 68.877 193.244 67.4512 193.244C66.097 193.244 65.0684 192.661 64.3652 191.496H64.3262ZM64.3262 188.83C64.3262 189.689 64.6094 190.422 65.1758 191.027C65.7487 191.626 66.4616 191.926 67.3145 191.926C68.3236 191.926 69.1146 191.538 69.6875 190.764C70.2669 189.989 70.5566 188.908 70.5566 187.521C70.5566 186.376 70.2832 185.471 69.7363 184.807C69.196 184.143 68.4733 183.811 67.5684 183.811C66.6178 183.811 65.8398 184.149 65.2344 184.826C64.6289 185.503 64.3262 186.35 64.3262 187.365V188.83ZM74.5801 179.045C74.5801 178.752 74.6777 178.508 74.873 178.312C75.0684 178.111 75.306 178.01 75.5859 178.01C75.8789 178.01 76.123 178.111 76.3184 178.312C76.5202 178.514 76.6211 178.758 76.6211 179.045C76.6211 179.338 76.5202 179.582 76.3184 179.777C76.123 179.973 75.8789 180.07 75.5859 180.07C75.306 180.07 75.0684 179.976 74.873 179.787C74.6777 179.592 74.5801 179.344 74.5801 179.045ZM74.7949 193V182.736H76.3379V193H74.7949ZM86.6602 192.521C85.8529 193.003 84.9251 193.244 83.877 193.244C82.4447 193.244 81.276 192.775 80.3711 191.838C79.4661 190.9 79.0137 189.657 79.0137 188.107C79.0137 186.408 79.4922 185.051 80.4492 184.035C81.4128 183.013 82.6986 182.502 84.3066 182.502C85.1921 182.502 85.9798 182.668 86.6699 183V184.621C85.9017 184.081 85.0846 183.811 84.2188 183.811C83.1706 183.811 82.3014 184.191 81.6113 184.953C80.9277 185.708 80.5859 186.714 80.5859 187.971C80.5859 189.169 80.8984 190.129 81.5234 190.852C82.1549 191.568 83.0176 191.926 84.1113 191.926C85.0163 191.926 85.8659 191.626 86.6602 191.027V192.521ZM97.9883 187.541V193H96.416V178.625H100.293C101.803 178.625 102.979 178.999 103.818 179.748C104.665 180.497 105.088 181.548 105.088 182.902C105.088 184.302 104.593 185.438 103.604 186.311C102.614 187.183 101.383 187.593 99.9121 187.541H97.9883ZM97.9883 180.09V186.066H99.7949C100.973 186.066 101.872 185.799 102.49 185.266C103.115 184.732 103.428 183.97 103.428 182.98C103.428 181.053 102.288 180.09 100.01 180.09H97.9883ZM107.861 183.469C108.864 182.824 110.016 182.502 111.318 182.502C113.701 182.502 114.893 183.765 114.893 186.291V193H113.34V191.389H113.281C112.572 192.626 111.52 193.244 110.127 193.244C109.124 193.244 108.327 192.977 107.734 192.443C107.148 191.903 106.855 191.184 106.855 190.285C106.855 188.378 107.982 187.268 110.234 186.955L113.33 186.506C113.33 184.722 112.62 183.83 111.201 183.83C109.951 183.83 108.838 184.257 107.861 185.109V183.469ZM110.82 188.127C110.02 188.231 109.427 188.426 109.043 188.713C108.659 188.999 108.467 189.488 108.467 190.178C108.467 190.699 108.649 191.118 109.014 191.438C109.385 191.757 109.87 191.916 110.469 191.916C111.296 191.916 111.979 191.623 112.52 191.037C113.06 190.451 113.33 189.715 113.33 188.83V187.795L110.82 188.127ZM123.301 184.328C123.008 184.107 122.594 183.996 122.061 183.996C121.357 183.996 120.768 184.338 120.293 185.021C119.818 185.705 119.58 186.613 119.58 187.746V193H118.027V182.736H119.58V184.865H119.619C119.854 184.143 120.208 183.579 120.684 183.176C121.165 182.766 121.702 182.561 122.295 182.561C122.725 182.561 123.06 182.606 123.301 182.697V184.328ZM125.342 183.469C126.344 182.824 127.497 182.502 128.799 182.502C131.182 182.502 132.373 183.765 132.373 186.291V193H130.82V191.389H130.762C130.052 192.626 129.001 193.244 127.607 193.244C126.605 193.244 125.807 192.977 125.215 192.443C124.629 191.903 124.336 191.184 124.336 190.285C124.336 188.378 125.462 187.268 127.715 186.955L130.811 186.506C130.811 184.722 130.101 183.83 128.682 183.83C127.432 183.83 126.318 184.257 125.342 185.109V183.469ZM128.301 188.127C127.5 188.231 126.908 188.426 126.523 188.713C126.139 188.999 125.947 189.488 125.947 190.178C125.947 190.699 126.13 191.118 126.494 191.438C126.865 191.757 127.35 191.916 127.949 191.916C128.776 191.916 129.46 191.623 130 191.037C130.54 190.451 130.811 189.715 130.811 188.83V187.795L128.301 188.127ZM137.061 191.496V193H135.508V177.814H137.061V184.553H137.1C137.913 183.186 139.098 182.502 140.654 182.502C141.963 182.502 142.992 182.964 143.74 183.889C144.495 184.807 144.873 186.034 144.873 187.57C144.873 189.302 144.447 190.682 143.594 191.711C142.747 192.733 141.611 193.244 140.186 193.244C138.831 193.244 137.803 192.661 137.1 191.496H137.061ZM137.061 188.83C137.061 189.689 137.344 190.422 137.91 191.027C138.483 191.626 139.196 191.926 140.049 191.926C141.058 191.926 141.849 191.538 142.422 190.764C143.001 189.989 143.291 188.908 143.291 187.521C143.291 186.376 143.018 185.471 142.471 184.807C141.93 184.143 141.208 183.811 140.303 183.811C139.352 183.811 138.574 184.149 137.969 184.826C137.363 185.503 137.061 186.35 137.061 187.365V188.83ZM146.826 188C146.826 186.294 147.288 184.953 148.213 183.977C149.144 182.993 150.413 182.502 152.021 182.502C153.519 182.502 154.697 182.974 155.557 183.918C156.423 184.855 156.855 186.164 156.855 187.844C156.855 189.471 156.39 190.78 155.459 191.77C154.528 192.753 153.301 193.244 151.777 193.244C150.286 193.244 149.089 192.762 148.184 191.799C147.279 190.835 146.826 189.569 146.826 188ZM148.398 187.932C148.398 189.143 148.714 190.113 149.346 190.842C149.984 191.564 150.83 191.926 151.885 191.926C152.979 191.926 153.815 191.577 154.395 190.881C154.98 190.178 155.273 189.182 155.273 187.893C155.273 186.597 154.98 185.594 154.395 184.885C153.809 184.169 152.972 183.811 151.885 183.811C150.824 183.811 149.977 184.178 149.346 184.914C148.714 185.65 148.398 186.656 148.398 187.932ZM159.521 193V177.814H161.064V193H159.521ZM164.678 183.469C165.68 182.824 166.833 182.502 168.135 182.502C170.518 182.502 171.709 183.765 171.709 186.291V193H170.156V191.389H170.098C169.388 192.626 168.337 193.244 166.943 193.244C165.941 193.244 165.143 192.977 164.551 192.443C163.965 191.903 163.672 191.184 163.672 190.285C163.672 188.378 164.798 187.268 167.051 186.955L170.146 186.506C170.146 184.722 169.437 183.83 168.018 183.83C166.768 183.83 165.654 184.257 164.678 185.109V183.469ZM167.637 188.127C166.836 188.231 166.243 188.426 165.859 188.713C165.475 188.999 165.283 189.488 165.283 190.178C165.283 190.699 165.465 191.118 165.83 191.438C166.201 191.757 166.686 191.916 167.285 191.916C168.112 191.916 168.796 191.623 169.336 191.037C169.876 190.451 170.146 189.715 170.146 188.83V187.795L167.637 188.127Z" fill="black"/>
<rect width="129" height="40" transform="translate(205 5)" fill="white"/>
<path d="M205 5H334V45H205V5Z" fill="#5F666B" stroke="#828282"/>
<path d="M246.541 33H238.318V18.625H241.102V30.6953H246.541V33ZM257.225 28.6348H250.369C250.48 30.3796 251.469 31.252 253.338 31.252C254.477 31.252 255.493 30.9525 256.385 30.3535V32.4238C255.434 32.9772 254.214 33.2539 252.723 33.2539C251.128 33.2539 249.884 32.7917 248.992 31.8672C248.107 30.9427 247.664 29.6504 247.664 27.9902C247.664 26.3626 248.139 25.041 249.09 24.0254C250.047 23.0033 251.242 22.4922 252.674 22.4922C254.106 22.4922 255.223 22.9316 256.023 23.8105C256.824 24.6895 257.225 25.8971 257.225 27.4336V28.6348ZM254.656 26.8477C254.656 25.2201 253.986 24.4062 252.645 24.4062C252.085 24.4062 251.59 24.6276 251.16 25.0703C250.737 25.513 250.473 26.1055 250.369 26.8477H254.656ZM268.787 33H266.072V27.248C266.072 25.4902 265.438 24.6113 264.168 24.6113C263.53 24.6113 263.009 24.8522 262.605 25.334C262.208 25.8092 262.01 26.4147 262.01 27.1504V33H259.285V22.7363H262.01V24.3867H262.039C262.794 23.1237 263.904 22.4922 265.369 22.4922C267.648 22.4922 268.787 23.9017 268.787 26.7207V33ZM281.131 31.9355C281.131 33.8366 280.607 35.2917 279.559 36.3008C278.51 37.3164 276.99 37.8242 274.998 37.8242C273.644 37.8242 272.544 37.6126 271.697 37.1895V34.8262C272.771 35.4447 273.849 35.7539 274.93 35.7539C276.036 35.7539 276.893 35.4577 277.498 34.8652C278.11 34.2793 278.416 33.4427 278.416 32.3555V31.4473H278.377C277.635 32.6517 276.538 33.2539 275.086 33.2539C273.81 33.2539 272.781 32.7949 272 31.877C271.219 30.959 270.828 29.722 270.828 28.166C270.828 26.4408 271.255 25.0638 272.107 24.0352C272.967 23.0065 274.096 22.4922 275.496 22.4922C276.766 22.4922 277.726 22.9935 278.377 23.9961H278.416V22.7363H281.131V31.9355ZM278.445 27.1406C278.445 26.444 278.227 25.8483 277.791 25.3535C277.355 24.8587 276.801 24.6113 276.131 24.6113C275.35 24.6113 274.728 24.9141 274.266 25.5195C273.81 26.125 273.582 26.9714 273.582 28.0586C273.582 28.9961 273.8 29.7415 274.236 30.2949C274.673 30.8483 275.252 31.125 275.975 31.125C276.71 31.125 277.306 30.8483 277.762 30.2949C278.217 29.7415 278.445 29.0286 278.445 28.1562V27.1406ZM289.744 32.8926C289.282 33.127 288.637 33.2441 287.811 33.2441C285.708 33.2441 284.656 32.1309 284.656 29.9043V24.8066H282.957V22.7363H284.656V20.4414L287.371 19.6504V22.7363H289.744V24.8066H287.371V29.4258C287.371 30.5586 287.817 31.125 288.709 31.125C289.08 31.125 289.425 31.0208 289.744 30.8125V32.8926ZM301.121 33H298.406V27.1504C298.406 25.4577 297.788 24.6113 296.551 24.6113C295.913 24.6113 295.392 24.8522 294.988 25.334C294.591 25.8092 294.393 26.4147 294.393 27.1504V33H291.668V17.8145H294.393V24.3184H294.422C295.203 23.1009 296.277 22.4922 297.645 22.4922C299.962 22.4922 301.121 23.8919 301.121 26.6914V33Z" fill="white"/>
<rect width="129" height="160" transform="translate(205 45)" fill="white"/>
<rect x="205" y="45" width="129" height="160" fill="white" stroke="#828282"/>
<path d="M254.432 133H247.049V118.625H248.621V131.555H254.432V133ZM273.094 127.355L264.52 131.691V130.266L270.955 127.102V127.033L264.52 123.43V121.984L273.094 126.838V127.355ZM283.709 126.105C283.709 123.566 284.122 121.646 284.949 120.344C285.776 119.042 286.967 118.391 288.523 118.391C291.512 118.391 293.006 120.845 293.006 125.754C293.006 128.176 292.589 130.031 291.756 131.32C290.929 132.603 289.744 133.244 288.201 133.244C286.743 133.244 285.63 132.622 284.861 131.379C284.093 130.129 283.709 128.371 283.709 126.105ZM285.291 126.027C285.291 129.96 286.316 131.926 288.367 131.926C290.405 131.926 291.424 129.93 291.424 125.939C291.424 121.792 290.431 119.719 288.445 119.719C286.342 119.719 285.291 121.822 285.291 126.027Z" fill="black"/>
<rect width="420" height="40" transform="translate(334 5)" fill="white"/>
<path d="M334 5H750C752.209 5 754 6.79086 754 9V45H334V5Z" fill="#5F666B" stroke="#828282"/>
<path d="M477.203 33H473.98L471.695 29.2012C471.233 28.4329 470.839 27.9284 470.514 27.6875C470.188 27.4466 469.837 27.3262 469.459 27.3262H468.443V33H465.66V18.625H470.543C473.863 18.625 475.523 19.9206 475.523 22.5117C475.523 23.4622 475.243 24.2891 474.684 24.9922C474.13 25.6888 473.339 26.1836 472.311 26.4766V26.5156C472.968 26.737 473.694 27.4759 474.488 28.7324L477.203 33ZM468.443 20.793V25.1484H470.104C470.859 25.1484 471.461 24.9303 471.91 24.4941C472.366 24.0514 472.594 23.5013 472.594 22.8438C472.594 21.4766 471.78 20.793 470.152 20.793H468.443ZM478.707 23.3906C479.169 23.1237 479.768 22.9089 480.504 22.7461C481.24 22.5768 481.9 22.4922 482.486 22.4922C485.26 22.4922 486.646 23.8984 486.646 26.7109V33H484.049V31.4863H484C483.31 32.6647 482.285 33.2539 480.924 33.2539C479.934 33.2539 479.15 32.9772 478.57 32.4238C477.991 31.8639 477.701 31.1152 477.701 30.1777C477.701 28.2181 478.867 27.082 481.197 26.7695L484.059 26.3789C484.059 25.0703 483.421 24.416 482.145 24.416C480.927 24.416 479.781 24.7969 478.707 25.5586V23.3906ZM482.018 28.3125C480.846 28.4622 480.26 28.9863 480.26 29.8848C480.26 30.2884 480.4 30.6172 480.68 30.8711C480.96 31.125 481.337 31.252 481.812 31.252C482.464 31.252 483.001 31.0241 483.424 30.5684C483.847 30.1061 484.059 29.5267 484.059 28.8301V28.0488L482.018 28.3125ZM498.99 33H496.275V31.4863H496.227C495.497 32.6647 494.407 33.2539 492.955 33.2539C491.666 33.2539 490.634 32.7917 489.859 31.8672C489.085 30.9427 488.697 29.6862 488.697 28.0977C488.697 26.4115 489.13 25.0573 489.996 24.0352C490.862 23.0065 491.988 22.4922 493.375 22.4922C494.723 22.4922 495.673 22.9902 496.227 23.9863H496.275V17.8145H498.99V33ZM496.314 27.1309C496.314 26.4082 496.093 25.8092 495.65 25.334C495.208 24.8522 494.651 24.6113 493.98 24.6113C493.199 24.6113 492.581 24.9173 492.125 25.5293C491.676 26.1413 491.451 26.9714 491.451 28.0195C491.451 29.0026 491.669 29.7676 492.105 30.3145C492.542 30.8548 493.131 31.125 493.873 31.125C494.589 31.125 495.175 30.8418 495.631 30.2754C496.087 29.709 496.314 28.9863 496.314 28.1074V27.1309ZM501.588 19.3574C501.588 18.9408 501.734 18.5924 502.027 18.3125C502.327 18.0326 502.711 17.8926 503.18 17.8926C503.635 17.8926 504.016 18.0326 504.322 18.3125C504.628 18.5859 504.781 18.9342 504.781 19.3574C504.781 19.7806 504.628 20.1322 504.322 20.4121C504.023 20.6921 503.642 20.832 503.18 20.832C502.717 20.832 502.337 20.6888 502.037 20.4023C501.738 20.1159 501.588 19.7676 501.588 19.3574ZM501.803 33V22.7363H504.518V33H501.803ZM516.666 33H513.951V31.418H513.902C513.147 32.6419 512.099 33.2539 510.758 33.2539C508.355 33.2539 507.154 31.8086 507.154 28.918V22.7363H509.879V28.6348C509.879 30.2949 510.523 31.125 511.812 31.125C512.444 31.125 512.958 30.9004 513.355 30.4512C513.753 29.9954 513.951 29.3867 513.951 28.625V22.7363H516.666V33ZM519.156 30.3633C520.172 31.0013 521.174 31.3203 522.164 31.3203C523.44 31.3203 524.078 30.959 524.078 30.2363C524.078 29.735 523.574 29.3118 522.564 28.9668C521.093 28.472 520.159 27.987 519.762 27.5117C519.365 27.0299 519.166 26.4147 519.166 25.666C519.166 24.6764 519.57 23.9017 520.377 23.3418C521.184 22.7754 522.223 22.4922 523.492 22.4922C524.378 22.4922 525.263 22.6322 526.148 22.9121V25.1289C525.348 24.6536 524.472 24.416 523.521 24.416C523.02 24.416 522.617 24.5104 522.311 24.6992C522.005 24.888 521.852 25.1387 521.852 25.4512C521.852 25.9655 522.278 26.3724 523.131 26.6719C524.101 27.0234 524.814 27.3197 525.27 27.5605C525.725 27.7949 526.08 28.1172 526.334 28.5273C526.588 28.9375 526.715 29.4193 526.715 29.9727C526.715 31.0143 526.298 31.8216 525.465 32.3945C524.638 32.9674 523.544 33.2539 522.184 33.2539C521.038 33.2539 520.029 33.0716 519.156 32.707V30.3633ZM535.387 29.5918C536.526 30.5358 537.831 31.0078 539.303 31.0078C540.188 31.0078 540.849 30.8548 541.285 30.5488C541.721 30.2363 541.939 29.8294 541.939 29.3281C541.939 28.8919 541.757 28.4915 541.393 28.127C541.028 27.7624 540.146 27.2806 538.746 26.6816C537.555 26.1478 536.689 25.5488 536.148 24.8848C535.615 24.2142 535.348 23.4297 535.348 22.5312C535.348 21.2357 535.849 20.2233 536.852 19.4941C537.854 18.7585 539.169 18.3906 540.797 18.3906C542.255 18.3906 543.404 18.5729 544.244 18.9375V21.6035C543.313 20.9655 542.19 20.6465 540.875 20.6465C540.1 20.6465 539.472 20.793 538.99 21.0859C538.515 21.3789 538.277 21.7826 538.277 22.2969C538.277 22.707 538.443 23.0814 538.775 23.4199C539.107 23.7585 539.885 24.1979 541.109 24.7383C542.516 25.3503 543.492 25.9948 544.039 26.6719C544.586 27.3424 544.859 28.1465 544.859 29.084C544.859 30.4382 544.374 31.4733 543.404 32.1895C542.441 32.8991 541.087 33.2539 539.342 33.2539C537.721 33.2539 536.402 32.9837 535.387 32.4434V29.5918ZM552.867 32.8926C552.405 33.127 551.76 33.2441 550.934 33.2441C548.831 33.2441 547.779 32.1309 547.779 29.9043V24.8066H546.08V22.7363H547.779V20.4414L550.494 19.6504V22.7363H552.867V24.8066H550.494V29.4258C550.494 30.5586 550.94 31.125 551.832 31.125C552.203 31.125 552.548 31.0208 552.867 30.8125V32.8926ZM555.035 23.3906C555.497 23.1237 556.096 22.9089 556.832 22.7461C557.568 22.5768 558.229 22.4922 558.814 22.4922C561.588 22.4922 562.975 23.8984 562.975 26.7109V33H560.377V31.4863H560.328C559.638 32.6647 558.613 33.2539 557.252 33.2539C556.262 33.2539 555.478 32.9772 554.898 32.4238C554.319 31.8639 554.029 31.1152 554.029 30.1777C554.029 28.2181 555.195 27.082 557.525 26.7695L560.387 26.3789C560.387 25.0703 559.749 24.416 558.473 24.416C557.255 24.416 556.109 24.7969 555.035 25.5586V23.3906ZM558.346 28.3125C557.174 28.4622 556.588 28.9863 556.588 29.8848C556.588 30.2884 556.728 30.6172 557.008 30.8711C557.288 31.125 557.665 31.252 558.141 31.252C558.792 31.252 559.329 31.0241 559.752 30.5684C560.175 30.1061 560.387 29.5267 560.387 28.8301V28.0488L558.346 28.3125ZM571.949 25.2461C571.591 25.0312 571.152 24.9238 570.631 24.9238C569.947 24.9238 569.4 25.2038 568.99 25.7637C568.58 26.3171 568.375 27.0625 568.375 28V33H565.65V22.7363H568.375V24.709H568.404C568.906 23.2767 569.807 22.5605 571.109 22.5605C571.48 22.5605 571.76 22.6061 571.949 22.6973V25.2461ZM579.293 32.8926C578.831 33.127 578.186 33.2441 577.359 33.2441C575.257 33.2441 574.205 32.1309 574.205 29.9043V24.8066H572.506V22.7363H574.205V20.4414L576.92 19.6504V22.7363H579.293V24.8066H576.92V29.4258C576.92 30.5586 577.366 31.125 578.258 31.125C578.629 31.125 578.974 31.0208 579.293 30.8125V32.8926ZM588.785 18.625L581.812 35.3828H579.361L586.314 18.625H588.785ZM598.609 33H590.289V18.625H598.287V20.9395H593.072V24.6016H597.916V26.9062H593.072V30.6953H598.609V33ZM610.289 33H607.574V27.248C607.574 25.4902 606.939 24.6113 605.67 24.6113C605.032 24.6113 604.511 24.8522 604.107 25.334C603.71 25.8092 603.512 26.4147 603.512 27.1504V33H600.787V22.7363H603.512V24.3867H603.541C604.296 23.1237 605.406 22.4922 606.871 22.4922C609.15 22.4922 610.289 23.9017 610.289 26.7207V33ZM622.623 33H619.908V31.4863H619.859C619.13 32.6647 618.04 33.2539 616.588 33.2539C615.299 33.2539 614.267 32.7917 613.492 31.8672C612.717 30.9427 612.33 29.6862 612.33 28.0977C612.33 26.4115 612.763 25.0573 613.629 24.0352C614.495 23.0065 615.621 22.4922 617.008 22.4922C618.355 22.4922 619.306 22.9902 619.859 23.9863H619.908V17.8145H622.623V33ZM619.947 27.1309C619.947 26.4082 619.726 25.8092 619.283 25.334C618.84 24.8522 618.284 24.6113 617.613 24.6113C616.832 24.6113 616.214 24.9173 615.758 25.5293C615.309 26.1413 615.084 26.9714 615.084 28.0195C615.084 29.0026 615.302 29.7676 615.738 30.3145C616.174 30.8548 616.764 31.125 617.506 31.125C618.222 31.125 618.808 30.8418 619.264 30.2754C619.719 29.709 619.947 28.9863 619.947 28.1074V27.1309Z" fill="white"/>
<rect width="420" height="40" transform="translate(334 45)" fill="white"/>
<rect x="334" y="45" width="420" height="40" fill="white" stroke="#828282"/>
<path d="M546.812 67.8926H541.344V66.6523H546.812V67.8926Z" fill="black"/>
<rect width="420" height="40" transform="translate(334 85)" fill="white"/>
<rect x="334" y="85" width="420" height="40" fill="white" stroke="#828282"/>
<path d="M526.09 113H524.195L521.783 108.957C521.269 108.098 520.807 107.531 520.396 107.258C519.986 106.984 519.492 106.848 518.912 106.848H517.486V113H515.914V98.625H520.143C521.464 98.625 522.512 98.9668 523.287 99.6504C524.068 100.334 524.459 101.268 524.459 102.453C524.459 104.439 523.398 105.728 521.275 106.32V106.359C521.679 106.535 522.011 106.77 522.271 107.062C522.538 107.349 522.916 107.889 523.404 108.684L526.09 113ZM517.486 100.1V105.383H519.84C520.725 105.383 521.438 105.126 521.979 104.611C522.525 104.09 522.799 103.413 522.799 102.58C522.799 101.799 522.545 101.19 522.037 100.754C521.536 100.318 520.81 100.1 519.859 100.1H517.486ZM527.252 110.91C528.15 111.574 529.137 111.906 530.211 111.906C531.669 111.906 532.398 111.415 532.398 110.432C532.398 110.008 532.239 109.66 531.92 109.387C531.601 109.107 530.973 108.791 530.035 108.439C528.954 108.01 528.222 107.574 527.838 107.131C527.46 106.688 527.271 106.128 527.271 105.451C527.271 104.579 527.649 103.869 528.404 103.322C529.16 102.775 530.081 102.502 531.168 102.502C532.04 102.502 532.828 102.655 533.531 102.961V104.572C532.77 104.077 531.9 103.83 530.924 103.83C530.286 103.83 529.785 103.973 529.42 104.26C529.055 104.54 528.873 104.891 528.873 105.314C528.873 105.77 529.007 106.118 529.273 106.359C529.547 106.6 530.136 106.9 531.041 107.258C532.265 107.733 533.062 108.199 533.434 108.654C533.805 109.11 533.99 109.654 533.99 110.285C533.99 111.197 533.613 111.919 532.857 112.453C532.109 112.98 531.148 113.244 529.977 113.244C528.915 113.244 528.007 113.036 527.252 112.619V110.91ZM553.639 109.777H548.121L546.471 113H545.123L546.793 109.777H544.244V108.498H547.447L548.961 105.51H544.244V104.24H549.635L551.227 101.096H552.584L550.973 104.24H553.639V105.51H550.318L548.775 108.498H553.639V109.777ZM563.844 106.105C563.844 103.566 564.257 101.646 565.084 100.344C565.911 99.0417 567.102 98.3906 568.658 98.3906C571.646 98.3906 573.141 100.845 573.141 105.754C573.141 108.176 572.724 110.031 571.891 111.32C571.064 112.603 569.879 113.244 568.336 113.244C566.878 113.244 565.764 112.622 564.996 111.379C564.228 110.129 563.844 108.371 563.844 106.105ZM565.426 106.027C565.426 109.96 566.451 111.926 568.502 111.926C570.54 111.926 571.559 109.93 571.559 105.939C571.559 101.792 570.566 99.7188 568.58 99.7188C566.477 99.7188 565.426 101.822 565.426 106.027Z" fill="black"/>
<rect width="420" height="40" transform="translate(334 125)" fill="white"/>
<rect x="334" y="125" width="420" height="40" fill="white" stroke="#828282"/>
<path d="M365.816 153H363.922L361.51 148.957C360.995 148.098 360.533 147.531 360.123 147.258C359.713 146.984 359.218 146.848 358.639 146.848H357.213V153H355.641V138.625H359.869C361.191 138.625 362.239 138.967 363.014 139.65C363.795 140.334 364.186 141.268 364.186 142.453C364.186 144.439 363.124 145.728 361.002 146.32V146.359C361.406 146.535 361.738 146.77 361.998 147.062C362.265 147.349 362.643 147.889 363.131 148.684L365.816 153ZM357.213 140.1V145.383H359.566C360.452 145.383 361.165 145.126 361.705 144.611C362.252 144.09 362.525 143.413 362.525 142.58C362.525 141.799 362.271 141.19 361.764 140.754C361.262 140.318 360.536 140.1 359.586 140.1H357.213ZM366.979 150.91C367.877 151.574 368.863 151.906 369.938 151.906C371.396 151.906 372.125 151.415 372.125 150.432C372.125 150.008 371.965 149.66 371.646 149.387C371.327 149.107 370.699 148.791 369.762 148.439C368.681 148.01 367.949 147.574 367.564 147.131C367.187 146.688 366.998 146.128 366.998 145.451C366.998 144.579 367.376 143.869 368.131 143.322C368.886 142.775 369.807 142.502 370.895 142.502C371.767 142.502 372.555 142.655 373.258 142.961V144.572C372.496 144.077 371.627 143.83 370.65 143.83C370.012 143.83 369.511 143.973 369.146 144.26C368.782 144.54 368.6 144.891 368.6 145.314C368.6 145.77 368.733 146.118 369 146.359C369.273 146.6 369.863 146.9 370.768 147.258C371.992 147.733 372.789 148.199 373.16 148.654C373.531 149.11 373.717 149.654 373.717 150.285C373.717 151.197 373.339 151.919 372.584 152.453C371.835 152.98 370.875 153.244 369.703 153.244C368.642 153.244 367.734 153.036 366.979 152.619V150.91ZM393.365 149.777H387.848L386.197 153H384.85L386.52 149.777H383.971V148.498H387.174L388.688 145.51H383.971V144.24H389.361L390.953 141.096H392.311L390.699 144.24H393.365V145.51H390.045L388.502 148.498H393.365V149.777ZM403.57 146.105C403.57 143.566 403.984 141.646 404.811 140.344C405.637 139.042 406.829 138.391 408.385 138.391C411.373 138.391 412.867 140.845 412.867 145.754C412.867 148.176 412.451 150.031 411.617 151.32C410.79 152.603 409.605 153.244 408.062 153.244C406.604 153.244 405.491 152.622 404.723 151.379C403.954 150.129 403.57 148.371 403.57 146.105ZM405.152 146.027C405.152 149.96 406.178 151.926 408.229 151.926C410.266 151.926 411.285 149.93 411.285 145.939C411.285 141.792 410.292 139.719 408.307 139.719C406.204 139.719 405.152 141.822 405.152 146.027ZM422.672 143.469C423.674 142.824 424.827 142.502 426.129 142.502C428.512 142.502 429.703 143.765 429.703 146.291V153H428.15V151.389H428.092C427.382 152.626 426.331 153.244 424.938 153.244C423.935 153.244 423.137 152.977 422.545 152.443C421.959 151.903 421.666 151.184 421.666 150.285C421.666 148.378 422.792 147.268 425.045 146.955L428.141 146.506C428.141 144.722 427.431 143.83 426.012 143.83C424.762 143.83 423.648 144.257 422.672 145.109V143.469ZM425.631 148.127C424.83 148.231 424.238 148.426 423.854 148.713C423.469 148.999 423.277 149.488 423.277 150.178C423.277 150.699 423.46 151.118 423.824 151.438C424.195 151.757 424.68 151.916 425.279 151.916C426.106 151.916 426.79 151.623 427.33 151.037C427.87 150.451 428.141 149.715 428.141 148.83V147.795L425.631 148.127ZM441.275 153H439.723V147.141C439.723 144.921 438.912 143.811 437.291 143.811C436.458 143.811 435.764 144.126 435.211 144.758C434.664 145.383 434.391 146.18 434.391 147.15V153H432.838V142.736H434.391V144.455H434.43C435.198 143.153 436.321 142.502 437.799 142.502C438.925 142.502 439.785 142.863 440.377 143.586C440.976 144.309 441.275 145.357 441.275 146.73V153ZM453.072 153H451.539V151.232H451.5C450.738 152.574 449.557 153.244 447.955 153.244C446.666 153.244 445.634 152.785 444.859 151.867C444.091 150.943 443.707 149.689 443.707 148.107C443.707 146.421 444.137 145.067 444.996 144.045C445.855 143.016 446.988 142.502 448.395 142.502C449.807 142.502 450.842 143.062 451.5 144.182H451.539V137.814H453.072V153ZM451.539 146.818C451.539 145.985 451.256 145.275 450.689 144.689C450.123 144.104 449.417 143.811 448.57 143.811C447.555 143.811 446.751 144.191 446.158 144.953C445.572 145.708 445.279 146.734 445.279 148.029C445.279 149.208 445.556 150.152 446.109 150.861C446.669 151.571 447.428 151.926 448.385 151.926C449.296 151.926 450.048 151.59 450.641 150.92C451.24 150.249 451.539 149.403 451.539 148.381V146.818ZM473.883 153H471.988L469.576 148.957C469.062 148.098 468.6 147.531 468.189 147.258C467.779 146.984 467.285 146.848 466.705 146.848H465.279V153H463.707V138.625H467.936C469.257 138.625 470.305 138.967 471.08 139.65C471.861 140.334 472.252 141.268 472.252 142.453C472.252 144.439 471.191 145.728 469.068 146.32V146.359C469.472 146.535 469.804 146.77 470.064 147.062C470.331 147.349 470.709 147.889 471.197 148.684L473.883 153ZM465.279 140.1V145.383H467.633C468.518 145.383 469.231 145.126 469.771 144.611C470.318 144.09 470.592 143.413 470.592 142.58C470.592 141.799 470.338 141.19 469.83 140.754C469.329 140.318 468.603 140.1 467.652 140.1H465.279ZM483.873 148.254H476.598C476.63 149.439 476.946 150.347 477.545 150.979C478.15 151.604 478.961 151.916 479.977 151.916C481.148 151.916 482.216 151.529 483.18 150.754V152.238C482.262 152.909 481.074 153.244 479.615 153.244C478.17 153.244 477.037 152.772 476.217 151.828C475.403 150.878 474.996 149.566 474.996 147.893C474.996 146.337 475.445 145.051 476.344 144.035C477.242 143.013 478.355 142.502 479.684 142.502C481.012 142.502 482.04 142.938 482.77 143.811C483.505 144.676 483.873 145.878 483.873 147.414V148.254ZM482.271 146.887C482.271 145.93 482.04 145.181 481.578 144.641C481.122 144.1 480.484 143.83 479.664 143.83C478.889 143.83 478.222 144.11 477.662 144.67C477.102 145.223 476.754 145.962 476.617 146.887H482.271ZM503.463 149.777H497.945L496.295 153H494.947L496.617 149.777H494.068V148.498H497.271L498.785 145.51H494.068V144.24H499.459L501.051 141.096H502.408L500.797 144.24H503.463V145.51H500.143L498.6 148.498H503.463V149.777ZM513.668 146.105C513.668 143.566 514.081 141.646 514.908 140.344C515.735 139.042 516.926 138.391 518.482 138.391C521.471 138.391 522.965 140.845 522.965 145.754C522.965 148.176 522.548 150.031 521.715 151.32C520.888 152.603 519.703 153.244 518.16 153.244C516.702 153.244 515.589 152.622 514.82 151.379C514.052 150.129 513.668 148.371 513.668 146.105ZM515.25 146.027C515.25 149.96 516.275 151.926 518.326 151.926C520.364 151.926 521.383 149.93 521.383 145.939C521.383 141.792 520.39 139.719 518.404 139.719C516.301 139.719 515.25 141.822 515.25 146.027ZM526.9 150.734L525.289 155.656H524.205L525.387 150.734H526.9ZM536.256 150.91C537.154 151.574 538.141 151.906 539.215 151.906C540.673 151.906 541.402 151.415 541.402 150.432C541.402 150.008 541.243 149.66 540.924 149.387C540.605 149.107 539.977 148.791 539.039 148.439C537.958 148.01 537.226 147.574 536.842 147.131C536.464 146.688 536.275 146.128 536.275 145.451C536.275 144.579 536.653 143.869 537.408 143.322C538.163 142.775 539.085 142.502 540.172 142.502C541.044 142.502 541.832 142.655 542.535 142.961V144.572C541.773 144.077 540.904 143.83 539.928 143.83C539.29 143.83 538.788 143.973 538.424 144.26C538.059 144.54 537.877 144.891 537.877 145.314C537.877 145.77 538.01 146.118 538.277 146.359C538.551 146.6 539.14 146.9 540.045 147.258C541.269 147.733 542.066 148.199 542.438 148.654C542.809 149.11 542.994 149.654 542.994 150.285C542.994 151.197 542.617 151.919 541.861 152.453C541.113 152.98 540.152 153.244 538.98 153.244C537.919 153.244 537.011 153.036 536.256 152.619V150.91ZM545.816 143.469C546.819 142.824 547.971 142.502 549.273 142.502C551.656 142.502 552.848 143.765 552.848 146.291V153H551.295V151.389H551.236C550.527 152.626 549.475 153.244 548.082 153.244C547.079 153.244 546.282 152.977 545.689 152.443C545.104 151.903 544.811 151.184 544.811 150.285C544.811 148.378 545.937 147.268 548.189 146.955L551.285 146.506C551.285 144.722 550.576 143.83 549.156 143.83C547.906 143.83 546.793 144.257 545.816 145.109V143.469ZM548.775 148.127C547.975 148.231 547.382 148.426 546.998 148.713C546.614 148.999 546.422 149.488 546.422 150.178C546.422 150.699 546.604 151.118 546.969 151.438C547.34 151.757 547.825 151.916 548.424 151.916C549.251 151.916 549.934 151.623 550.475 151.037C551.015 150.451 551.285 149.715 551.285 148.83V147.795L548.775 148.127ZM570.445 153H568.893V147.111C568.893 145.907 568.71 145.057 568.346 144.562C567.988 144.061 567.392 143.811 566.559 143.811C565.855 143.811 565.25 144.143 564.742 144.807C564.241 145.464 563.99 146.242 563.99 147.141V153H562.447V146.896C562.447 144.839 561.653 143.811 560.064 143.811C559.342 143.811 558.74 144.123 558.258 144.748C557.776 145.367 557.535 146.164 557.535 147.141V153H555.982V142.736H557.535V144.367H557.574C558.29 143.124 559.348 142.502 560.748 142.502C561.412 142.502 562.008 142.694 562.535 143.078C563.069 143.456 563.44 143.977 563.648 144.641C564.41 143.215 565.546 142.502 567.057 142.502C569.316 142.502 570.445 143.895 570.445 146.682V153ZM581.764 148.254H574.488C574.521 149.439 574.837 150.347 575.436 150.979C576.041 151.604 576.852 151.916 577.867 151.916C579.039 151.916 580.107 151.529 581.07 150.754V152.238C580.152 152.909 578.964 153.244 577.506 153.244C576.061 153.244 574.928 152.772 574.107 151.828C573.294 150.878 572.887 149.566 572.887 147.893C572.887 146.337 573.336 145.051 574.234 144.035C575.133 143.013 576.246 142.502 577.574 142.502C578.902 142.502 579.931 142.938 580.66 143.811C581.396 144.676 581.764 145.878 581.764 147.414V148.254ZM580.162 146.887C580.162 145.93 579.931 145.181 579.469 144.641C579.013 144.1 578.375 143.83 577.555 143.83C576.78 143.83 576.113 144.11 575.553 144.67C574.993 145.223 574.645 145.962 574.508 146.887H580.162ZM590.67 150.91C591.568 151.574 592.555 151.906 593.629 151.906C595.087 151.906 595.816 151.415 595.816 150.432C595.816 150.008 595.657 149.66 595.338 149.387C595.019 149.107 594.391 148.791 593.453 148.439C592.372 148.01 591.64 147.574 591.256 147.131C590.878 146.688 590.689 146.128 590.689 145.451C590.689 144.579 591.067 143.869 591.822 143.322C592.577 142.775 593.499 142.502 594.586 142.502C595.458 142.502 596.246 142.655 596.949 142.961V144.572C596.188 144.077 595.318 143.83 594.342 143.83C593.704 143.83 593.202 143.973 592.838 144.26C592.473 144.54 592.291 144.891 592.291 145.314C592.291 145.77 592.424 146.118 592.691 146.359C592.965 146.6 593.554 146.9 594.459 147.258C595.683 147.733 596.48 148.199 596.852 148.654C597.223 149.11 597.408 149.654 597.408 150.285C597.408 151.197 597.031 151.919 596.275 152.453C595.527 152.98 594.566 153.244 593.395 153.244C592.333 153.244 591.425 153.036 590.67 152.619V150.91ZM599.781 139.045C599.781 138.752 599.879 138.508 600.074 138.312C600.27 138.111 600.507 138.01 600.787 138.01C601.08 138.01 601.324 138.111 601.52 138.312C601.721 138.514 601.822 138.758 601.822 139.045C601.822 139.338 601.721 139.582 601.52 139.777C601.324 139.973 601.08 140.07 600.787 140.07C600.507 140.07 600.27 139.976 600.074 139.787C599.879 139.592 599.781 139.344 599.781 139.045ZM599.996 153V142.736H601.539V153H599.996ZM613.58 152.189C613.58 155.952 611.799 157.834 608.238 157.834C606.988 157.834 605.878 157.59 604.908 157.102V155.52C606.054 156.164 607.161 156.486 608.229 156.486C610.774 156.486 612.047 155.122 612.047 152.395V151.252H612.008C611.201 152.58 610.019 153.244 608.463 153.244C607.193 153.244 606.168 152.785 605.387 151.867C604.605 150.949 604.215 149.729 604.215 148.205C604.215 146.454 604.638 145.067 605.484 144.045C606.331 143.016 607.47 142.502 608.902 142.502C610.296 142.502 611.331 143.062 612.008 144.182H612.047V142.736H613.58V152.189ZM612.047 146.818C612.047 145.985 611.76 145.275 611.188 144.689C610.615 144.104 609.918 143.811 609.098 143.811C608.069 143.811 607.258 144.191 606.666 144.953C606.08 145.708 605.787 146.753 605.787 148.088C605.787 149.247 606.07 150.178 606.637 150.881C607.21 151.577 607.952 151.926 608.863 151.926C609.788 151.926 610.549 151.59 611.148 150.92C611.747 150.249 612.047 149.403 612.047 148.381V146.818ZM625.396 153H623.844V147.141C623.844 144.921 623.033 143.811 621.412 143.811C620.579 143.811 619.885 144.126 619.332 144.758C618.785 145.383 618.512 146.18 618.512 147.15V153H616.959V142.736H618.512V144.455H618.551C619.319 143.153 620.442 142.502 621.92 142.502C623.046 142.502 623.906 142.863 624.498 143.586C625.097 144.309 625.396 145.357 625.396 146.73V153ZM642.506 152.521C641.699 153.003 640.771 153.244 639.723 153.244C638.29 153.244 637.122 152.775 636.217 151.838C635.312 150.9 634.859 149.657 634.859 148.107C634.859 146.408 635.338 145.051 636.295 144.035C637.258 143.013 638.544 142.502 640.152 142.502C641.038 142.502 641.826 142.668 642.516 143V144.621C641.747 144.081 640.93 143.811 640.064 143.811C639.016 143.811 638.147 144.191 637.457 144.953C636.773 145.708 636.432 146.714 636.432 147.971C636.432 149.169 636.744 150.129 637.369 150.852C638.001 151.568 638.863 151.926 639.957 151.926C640.862 151.926 641.712 151.626 642.506 151.027V152.521ZM644.312 148C644.312 146.294 644.775 144.953 645.699 143.977C646.63 142.993 647.9 142.502 649.508 142.502C651.005 142.502 652.184 142.974 653.043 143.918C653.909 144.855 654.342 146.164 654.342 147.844C654.342 149.471 653.876 150.78 652.945 151.77C652.014 152.753 650.787 153.244 649.264 153.244C647.773 153.244 646.575 152.762 645.67 151.799C644.765 150.835 644.312 149.569 644.312 148ZM645.885 147.932C645.885 149.143 646.201 150.113 646.832 150.842C647.47 151.564 648.316 151.926 649.371 151.926C650.465 151.926 651.301 151.577 651.881 150.881C652.467 150.178 652.76 149.182 652.76 147.893C652.76 146.597 652.467 145.594 651.881 144.885C651.295 144.169 650.458 143.811 649.371 143.811C648.31 143.811 647.464 144.178 646.832 144.914C646.201 145.65 645.885 146.656 645.885 147.932ZM665.436 153H663.883V147.141C663.883 144.921 663.072 143.811 661.451 143.811C660.618 143.811 659.924 144.126 659.371 144.758C658.824 145.383 658.551 146.18 658.551 147.15V153H656.998V142.736H658.551V144.455H658.59C659.358 143.153 660.481 142.502 661.959 142.502C663.085 142.502 663.945 142.863 664.537 143.586C665.136 144.309 665.436 145.357 665.436 146.73V153ZM676.52 142.736L672.408 153H670.924L667.027 142.736H668.736L671.383 150.275C671.572 150.822 671.692 151.288 671.744 151.672H671.793C671.858 151.164 671.962 150.708 672.105 150.305L674.889 142.736H676.52ZM686.49 148.254H679.215C679.247 149.439 679.563 150.347 680.162 150.979C680.768 151.604 681.578 151.916 682.594 151.916C683.766 151.916 684.833 151.529 685.797 150.754V152.238C684.879 152.909 683.691 153.244 682.232 153.244C680.787 153.244 679.654 152.772 678.834 151.828C678.02 150.878 677.613 149.566 677.613 147.893C677.613 146.337 678.062 145.051 678.961 144.035C679.859 143.013 680.973 142.502 682.301 142.502C683.629 142.502 684.658 142.938 685.387 143.811C686.122 144.676 686.49 145.878 686.49 147.414V148.254ZM684.889 146.887C684.889 145.93 684.658 145.181 684.195 144.641C683.74 144.1 683.102 143.83 682.281 143.83C681.507 143.83 680.839 144.11 680.279 144.67C679.719 145.223 679.371 145.962 679.234 146.887H684.889ZM697.447 153H695.895V147.141C695.895 144.921 695.084 143.811 693.463 143.811C692.63 143.811 691.936 144.126 691.383 144.758C690.836 145.383 690.562 146.18 690.562 147.15V153H689.01V142.736H690.562V144.455H690.602C691.37 143.153 692.493 142.502 693.971 142.502C695.097 142.502 695.956 142.863 696.549 143.586C697.148 144.309 697.447 145.357 697.447 146.73V153ZM705.24 152.902C704.85 153.117 704.352 153.225 703.746 153.225C701.982 153.225 701.1 152.232 701.1 150.246V144.074H699.322V142.736H701.1V140.217L702.643 139.719V142.736H705.24V144.074H702.643V149.963C702.643 150.686 702.763 151.19 703.004 151.477C703.245 151.763 703.635 151.906 704.176 151.906C704.586 151.906 704.941 151.792 705.24 151.564V152.902ZM707.262 139.045C707.262 138.752 707.359 138.508 707.555 138.312C707.75 138.111 707.988 138.01 708.268 138.01C708.561 138.01 708.805 138.111 709 138.312C709.202 138.514 709.303 138.758 709.303 139.045C709.303 139.338 709.202 139.582 709 139.777C708.805 139.973 708.561 140.07 708.268 140.07C707.988 140.07 707.75 139.976 707.555 139.787C707.359 139.592 707.262 139.344 707.262 139.045ZM707.477 153V142.736H709.02V153H707.477ZM711.695 148C711.695 146.294 712.158 144.953 713.082 143.977C714.013 142.993 715.283 142.502 716.891 142.502C718.388 142.502 719.566 142.974 720.426 143.918C721.292 144.855 721.725 146.164 721.725 147.844C721.725 149.471 721.259 150.78 720.328 151.77C719.397 152.753 718.17 153.244 716.646 153.244C715.156 153.244 713.958 152.762 713.053 151.799C712.148 150.835 711.695 149.569 711.695 148ZM713.268 147.932C713.268 149.143 713.583 150.113 714.215 150.842C714.853 151.564 715.699 151.926 716.754 151.926C717.848 151.926 718.684 151.577 719.264 150.881C719.85 150.178 720.143 149.182 720.143 147.893C720.143 146.597 719.85 145.594 719.264 144.885C718.678 144.169 717.841 143.811 716.754 143.811C715.693 143.811 714.846 144.178 714.215 144.914C713.583 145.65 713.268 146.656 713.268 147.932ZM732.818 153H731.266V147.141C731.266 144.921 730.455 143.811 728.834 143.811C728.001 143.811 727.307 144.126 726.754 144.758C726.207 145.383 725.934 146.18 725.934 147.15V153H724.381V142.736H725.934V144.455H725.973C726.741 143.153 727.864 142.502 729.342 142.502C730.468 142.502 731.327 142.863 731.92 143.586C732.519 144.309 732.818 145.357 732.818 146.73V153Z" fill="black"/>
<rect width="420" height="40" transform="translate(334 165)" fill="white"/>
<rect x="334" y="165" width="420" height="40" fill="white" stroke="#828282"/>
<path d="M375.006 193H373.111L370.699 188.957C370.185 188.098 369.723 187.531 369.312 187.258C368.902 186.984 368.408 186.848 367.828 186.848H366.402V193H364.83V178.625H369.059C370.38 178.625 371.428 178.967 372.203 179.65C372.984 180.334 373.375 181.268 373.375 182.453C373.375 184.439 372.314 185.728 370.191 186.32V186.359C370.595 186.535 370.927 186.77 371.188 187.062C371.454 187.349 371.832 187.889 372.32 188.684L375.006 193ZM366.402 180.1V185.383H368.756C369.641 185.383 370.354 185.126 370.895 184.611C371.441 184.09 371.715 183.413 371.715 182.58C371.715 181.799 371.461 181.19 370.953 180.754C370.452 180.318 369.726 180.1 368.775 180.1H366.402ZM376.168 190.91C377.066 191.574 378.053 191.906 379.127 191.906C380.585 191.906 381.314 191.415 381.314 190.432C381.314 190.008 381.155 189.66 380.836 189.387C380.517 189.107 379.889 188.791 378.951 188.439C377.87 188.01 377.138 187.574 376.754 187.131C376.376 186.688 376.188 186.128 376.188 185.451C376.188 184.579 376.565 183.869 377.32 183.322C378.076 182.775 378.997 182.502 380.084 182.502C380.956 182.502 381.744 182.655 382.447 182.961V184.572C381.686 184.077 380.816 183.83 379.84 183.83C379.202 183.83 378.701 183.973 378.336 184.26C377.971 184.54 377.789 184.891 377.789 185.314C377.789 185.77 377.923 186.118 378.189 186.359C378.463 186.6 379.052 186.9 379.957 187.258C381.181 187.733 381.979 188.199 382.35 188.654C382.721 189.11 382.906 189.654 382.906 190.285C382.906 191.197 382.529 191.919 381.773 192.453C381.025 192.98 380.064 193.244 378.893 193.244C377.831 193.244 376.923 193.036 376.168 192.619V190.91ZM402.555 189.777H397.037L395.387 193H394.039L395.709 189.777H393.16V188.498H396.363L397.877 185.51H393.16V184.24H398.551L400.143 181.096H401.5L399.889 184.24H402.555V185.51H399.234L397.691 188.498H402.555V189.777ZM412.76 186.105C412.76 183.566 413.173 181.646 414 180.344C414.827 179.042 416.018 178.391 417.574 178.391C420.562 178.391 422.057 180.845 422.057 185.754C422.057 188.176 421.64 190.031 420.807 191.32C419.98 192.603 418.795 193.244 417.252 193.244C415.794 193.244 414.68 192.622 413.912 191.379C413.144 190.129 412.76 188.371 412.76 186.105ZM414.342 186.027C414.342 189.96 415.367 191.926 417.418 191.926C419.456 191.926 420.475 189.93 420.475 185.939C420.475 181.792 419.482 179.719 417.496 179.719C415.393 179.719 414.342 181.822 414.342 186.027ZM431.861 183.469C432.864 182.824 434.016 182.502 435.318 182.502C437.701 182.502 438.893 183.765 438.893 186.291V193H437.34V191.389H437.281C436.572 192.626 435.52 193.244 434.127 193.244C433.124 193.244 432.327 192.977 431.734 192.443C431.148 191.903 430.855 191.184 430.855 190.285C430.855 188.378 431.982 187.268 434.234 186.955L437.33 186.506C437.33 184.722 436.62 183.83 435.201 183.83C433.951 183.83 432.838 184.257 431.861 185.109V183.469ZM434.82 188.127C434.02 188.231 433.427 188.426 433.043 188.713C432.659 188.999 432.467 189.488 432.467 190.178C432.467 190.699 432.649 191.118 433.014 191.438C433.385 191.757 433.87 191.916 434.469 191.916C435.296 191.916 435.979 191.623 436.52 191.037C437.06 190.451 437.33 189.715 437.33 188.83V187.795L434.82 188.127ZM450.465 193H448.912V187.141C448.912 184.921 448.102 183.811 446.48 183.811C445.647 183.811 444.954 184.126 444.4 184.758C443.854 185.383 443.58 186.18 443.58 187.15V193H442.027V182.736H443.58V184.455H443.619C444.387 183.153 445.51 182.502 446.988 182.502C448.115 182.502 448.974 182.863 449.566 183.586C450.165 184.309 450.465 185.357 450.465 186.73V193ZM462.262 193H460.729V191.232H460.689C459.928 192.574 458.746 193.244 457.145 193.244C455.855 193.244 454.824 192.785 454.049 191.867C453.281 190.943 452.896 189.689 452.896 188.107C452.896 186.421 453.326 185.067 454.186 184.045C455.045 183.016 456.178 182.502 457.584 182.502C458.997 182.502 460.032 183.062 460.689 184.182H460.729V177.814H462.262V193ZM460.729 186.818C460.729 185.985 460.445 185.275 459.879 184.689C459.312 184.104 458.606 183.811 457.76 183.811C456.744 183.811 455.94 184.191 455.348 184.953C454.762 185.708 454.469 186.734 454.469 188.029C454.469 189.208 454.745 190.152 455.299 190.861C455.859 191.571 456.617 191.926 457.574 191.926C458.486 191.926 459.238 191.59 459.83 190.92C460.429 190.249 460.729 189.403 460.729 188.381V186.818ZM483.072 193H481.178L478.766 188.957C478.251 188.098 477.789 187.531 477.379 187.258C476.969 186.984 476.474 186.848 475.895 186.848H474.469V193H472.896V178.625H477.125C478.447 178.625 479.495 178.967 480.27 179.65C481.051 180.334 481.441 181.268 481.441 182.453C481.441 184.439 480.38 185.728 478.258 186.32V186.359C478.661 186.535 478.993 186.77 479.254 187.062C479.521 187.349 479.898 187.889 480.387 188.684L483.072 193ZM474.469 180.1V185.383H476.822C477.708 185.383 478.421 185.126 478.961 184.611C479.508 184.09 479.781 183.413 479.781 182.58C479.781 181.799 479.527 181.19 479.02 180.754C478.518 180.318 477.792 180.1 476.842 180.1H474.469ZM493.062 188.254H485.787C485.82 189.439 486.135 190.347 486.734 190.979C487.34 191.604 488.15 191.916 489.166 191.916C490.338 191.916 491.406 191.529 492.369 190.754V192.238C491.451 192.909 490.263 193.244 488.805 193.244C487.359 193.244 486.227 192.772 485.406 191.828C484.592 190.878 484.186 189.566 484.186 187.893C484.186 186.337 484.635 185.051 485.533 184.035C486.432 183.013 487.545 182.502 488.873 182.502C490.201 182.502 491.23 182.938 491.959 183.811C492.695 184.676 493.062 185.878 493.062 187.414V188.254ZM491.461 186.887C491.461 185.93 491.23 185.181 490.768 184.641C490.312 184.1 489.674 183.83 488.854 183.83C488.079 183.83 487.411 184.11 486.852 184.67C486.292 185.223 485.943 185.962 485.807 186.887H491.461ZM512.652 185.51H503.258V184.24H512.652V185.51ZM512.652 189.777H503.258V188.498H512.652V189.777ZM522.857 186.105C522.857 183.566 523.271 181.646 524.098 180.344C524.924 179.042 526.116 178.391 527.672 178.391C530.66 178.391 532.154 180.845 532.154 185.754C532.154 188.176 531.738 190.031 530.904 191.32C530.077 192.603 528.893 193.244 527.35 193.244C525.891 193.244 524.778 192.622 524.01 191.379C523.242 190.129 522.857 188.371 522.857 186.105ZM524.439 186.027C524.439 189.96 525.465 191.926 527.516 191.926C529.553 191.926 530.572 189.93 530.572 185.939C530.572 181.792 529.579 179.719 527.594 179.719C525.491 179.719 524.439 181.822 524.439 186.027ZM548.111 178.625L541.217 195.383H539.771L546.637 178.625H548.111ZM567.076 193H565.182L562.77 188.957C562.255 188.098 561.793 187.531 561.383 187.258C560.973 186.984 560.478 186.848 559.898 186.848H558.473V193H556.9V178.625H561.129C562.451 178.625 563.499 178.967 564.273 179.65C565.055 180.334 565.445 181.268 565.445 182.453C565.445 184.439 564.384 185.728 562.262 186.32V186.359C562.665 186.535 562.997 186.77 563.258 187.062C563.525 187.349 563.902 187.889 564.391 188.684L567.076 193ZM558.473 180.1V185.383H560.826C561.712 185.383 562.424 185.126 562.965 184.611C563.512 184.09 563.785 183.413 563.785 182.58C563.785 181.799 563.531 181.19 563.023 180.754C562.522 180.318 561.796 180.1 560.846 180.1H558.473ZM568.238 190.91C569.137 191.574 570.123 191.906 571.197 191.906C572.656 191.906 573.385 191.415 573.385 190.432C573.385 190.008 573.225 189.66 572.906 189.387C572.587 189.107 571.959 188.791 571.021 188.439C569.941 188.01 569.208 187.574 568.824 187.131C568.447 186.688 568.258 186.128 568.258 185.451C568.258 184.579 568.635 183.869 569.391 183.322C570.146 182.775 571.067 182.502 572.154 182.502C573.027 182.502 573.814 182.655 574.518 182.961V184.572C573.756 184.077 572.887 183.83 571.91 183.83C571.272 183.83 570.771 183.973 570.406 184.26C570.042 184.54 569.859 184.891 569.859 185.314C569.859 185.77 569.993 186.118 570.26 186.359C570.533 186.6 571.122 186.9 572.027 187.258C573.251 187.733 574.049 188.199 574.42 188.654C574.791 189.11 574.977 189.654 574.977 190.285C574.977 191.197 574.599 191.919 573.844 192.453C573.095 192.98 572.135 193.244 570.963 193.244C569.902 193.244 568.993 193.036 568.238 192.619V190.91ZM594.625 185.51H585.23V184.24H594.625V185.51ZM594.625 189.777H585.23V188.498H594.625V189.777ZM604.83 186.105C604.83 183.566 605.243 181.646 606.07 180.344C606.897 179.042 608.089 178.391 609.645 178.391C612.633 178.391 614.127 180.845 614.127 185.754C614.127 188.176 613.71 190.031 612.877 191.32C612.05 192.603 610.865 193.244 609.322 193.244C607.864 193.244 606.751 192.622 605.982 191.379C605.214 190.129 604.83 188.371 604.83 186.105ZM606.412 186.027C606.412 189.96 607.438 191.926 609.488 191.926C611.526 191.926 612.545 189.93 612.545 185.939C612.545 181.792 611.552 179.719 609.566 179.719C607.464 179.719 606.412 181.822 606.412 186.027ZM623.932 183.469C624.934 182.824 626.087 182.502 627.389 182.502C629.771 182.502 630.963 183.765 630.963 186.291V193H629.41V191.389H629.352C628.642 192.626 627.59 193.244 626.197 193.244C625.195 193.244 624.397 192.977 623.805 192.443C623.219 191.903 622.926 191.184 622.926 190.285C622.926 188.378 624.052 187.268 626.305 186.955L629.4 186.506C629.4 184.722 628.691 183.83 627.271 183.83C626.021 183.83 624.908 184.257 623.932 185.109V183.469ZM626.891 188.127C626.09 188.231 625.497 188.426 625.113 188.713C624.729 188.999 624.537 189.488 624.537 190.178C624.537 190.699 624.719 191.118 625.084 191.438C625.455 191.757 625.94 191.916 626.539 191.916C627.366 191.916 628.049 191.623 628.59 191.037C629.13 190.451 629.4 189.715 629.4 188.83V187.795L626.891 188.127ZM642.535 193H640.982V187.141C640.982 184.921 640.172 183.811 638.551 183.811C637.717 183.811 637.024 184.126 636.471 184.758C635.924 185.383 635.65 186.18 635.65 187.15V193H634.098V182.736H635.65V184.455H635.689C636.458 183.153 637.581 182.502 639.059 182.502C640.185 182.502 641.044 182.863 641.637 183.586C642.236 184.309 642.535 185.357 642.535 186.73V193ZM654.332 193H652.799V191.232H652.76C651.998 192.574 650.816 193.244 649.215 193.244C647.926 193.244 646.894 192.785 646.119 191.867C645.351 190.943 644.967 189.689 644.967 188.107C644.967 186.421 645.396 185.067 646.256 184.045C647.115 183.016 648.248 182.502 649.654 182.502C651.067 182.502 652.102 183.062 652.76 184.182H652.799V177.814H654.332V193ZM652.799 186.818C652.799 185.985 652.516 185.275 651.949 184.689C651.383 184.104 650.676 183.811 649.83 183.811C648.814 183.811 648.01 184.191 647.418 184.953C646.832 185.708 646.539 186.734 646.539 188.029C646.539 189.208 646.816 190.152 647.369 190.861C647.929 191.571 648.688 191.926 649.645 191.926C650.556 191.926 651.308 191.59 651.9 190.92C652.499 190.249 652.799 189.403 652.799 188.381V186.818ZM675.143 193H673.248L670.836 188.957C670.322 188.098 669.859 187.531 669.449 187.258C669.039 186.984 668.544 186.848 667.965 186.848H666.539V193H664.967V178.625H669.195C670.517 178.625 671.565 178.967 672.34 179.65C673.121 180.334 673.512 181.268 673.512 182.453C673.512 184.439 672.451 185.728 670.328 186.32V186.359C670.732 186.535 671.064 186.77 671.324 187.062C671.591 187.349 671.969 187.889 672.457 188.684L675.143 193ZM666.539 180.1V185.383H668.893C669.778 185.383 670.491 185.126 671.031 184.611C671.578 184.09 671.852 183.413 671.852 182.58C671.852 181.799 671.598 181.19 671.09 180.754C670.589 180.318 669.863 180.1 668.912 180.1H666.539ZM685.133 188.254H677.857C677.89 189.439 678.206 190.347 678.805 190.979C679.41 191.604 680.221 191.916 681.236 191.916C682.408 191.916 683.476 191.529 684.439 190.754V192.238C683.521 192.909 682.333 193.244 680.875 193.244C679.43 193.244 678.297 192.772 677.477 191.828C676.663 190.878 676.256 189.566 676.256 187.893C676.256 186.337 676.705 185.051 677.604 184.035C678.502 183.013 679.615 182.502 680.943 182.502C682.271 182.502 683.3 182.938 684.029 183.811C684.765 184.676 685.133 185.878 685.133 187.414V188.254ZM683.531 186.887C683.531 185.93 683.3 185.181 682.838 184.641C682.382 184.1 681.744 183.83 680.924 183.83C680.149 183.83 679.482 184.11 678.922 184.67C678.362 185.223 678.014 185.962 677.877 186.887H683.531ZM704.723 189.777H699.205L697.555 193H696.207L697.877 189.777H695.328V188.498H698.531L700.045 185.51H695.328V184.24H700.719L702.311 181.096H703.668L702.057 184.24H704.723V185.51H701.402L699.859 188.498H704.723V189.777ZM714.928 186.105C714.928 183.566 715.341 181.646 716.168 180.344C716.995 179.042 718.186 178.391 719.742 178.391C722.73 178.391 724.225 180.845 724.225 185.754C724.225 188.176 723.808 190.031 722.975 191.32C722.148 192.603 720.963 193.244 719.42 193.244C717.962 193.244 716.848 192.622 716.08 191.379C715.312 190.129 714.928 188.371 714.928 186.105ZM716.51 186.027C716.51 189.96 717.535 191.926 719.586 191.926C721.624 191.926 722.643 189.93 722.643 185.939C722.643 181.792 721.65 179.719 719.664 179.719C717.561 179.719 716.51 181.822 716.51 186.027Z" fill="black"/>
</svg>
