<svg width="480" height="410" viewBox="0 0 480 410" fill="none" xmlns="http://www.w3.org/2000/svg">
<rect width="480" height="410" fill="white"/>
<path d="M281.672 79.3359C281.672 80.2839 281.508 81.1484 281.18 81.9297C280.846 82.7109 280.388 83.3229 279.805 83.7656C279.221 84.2031 278.591 84.4219 277.914 84.4219C277.435 84.4219 277.065 84.3047 276.805 84.0703C276.549 83.8307 276.422 83.5 276.422 83.0781C276.422 82.9792 276.424 82.888 276.43 82.8047C276.44 82.7161 276.453 82.6328 276.469 82.5547H276.422C276.161 83.1016 275.773 83.5495 275.258 83.8984C274.747 84.2474 274.224 84.4219 273.688 84.4219C272.87 84.4219 272.234 84.1589 271.781 83.6328C271.333 83.1016 271.109 82.362 271.109 81.4141C271.109 80.5703 271.279 79.7734 271.617 79.0234C271.956 78.2786 272.422 77.6953 273.016 77.2734C273.609 76.8464 274.276 76.6328 275.016 76.6328C276.031 76.6328 276.719 77.0859 277.078 77.9922H277.125L277.43 76.8047H278.648L277.734 80.7578C277.542 81.6432 277.445 82.2682 277.445 82.6328C277.445 82.8932 277.505 83.0781 277.625 83.1875C277.75 83.2969 277.893 83.3516 278.055 83.3516C278.471 83.3516 278.87 83.1693 279.25 82.8047C279.63 82.4453 279.93 81.9635 280.148 81.3594C280.372 80.75 280.484 80.0807 280.484 79.3516C280.484 78.4349 280.286 77.6276 279.891 76.9297C279.495 76.2318 278.919 75.6927 278.164 75.3125C277.414 74.9323 276.542 74.7422 275.547 74.7422C274.297 74.7422 273.195 75.0156 272.242 75.5625C271.289 76.1094 270.539 76.8984 269.992 77.9297C269.451 78.9609 269.18 80.1172 269.18 81.3984C269.18 82.4089 269.388 83.2995 269.805 84.0703C270.221 84.8411 270.802 85.4219 271.547 85.8125C272.297 86.2083 273.177 86.4062 274.188 86.4062C274.953 86.4062 275.719 86.3047 276.484 86.1016C277.25 85.8984 278.018 85.5964 278.789 85.1953L279.273 86.1484C278.398 86.6432 277.542 86.9974 276.703 87.2109C275.87 87.4245 275.013 87.5312 274.133 87.5312C272.904 87.5312 271.823 87.2812 270.891 86.7812C269.953 86.2865 269.221 85.5703 268.695 84.6328C268.174 83.6901 267.914 82.612 267.914 81.3984C267.914 79.9245 268.245 78.5911 268.906 77.3984C269.562 76.2057 270.471 75.2812 271.633 74.625C272.794 73.9688 274.094 73.6406 275.531 73.6406C276.797 73.6406 277.893 73.875 278.82 74.3438C279.747 74.8177 280.453 75.4844 280.938 76.3438C281.427 77.2031 281.672 78.2005 281.672 79.3359ZM276.617 79.3672C276.617 78.8724 276.461 78.4688 276.148 78.1562C275.841 77.8438 275.443 77.6875 274.953 77.6875C274.464 77.6875 274.026 77.849 273.641 78.1719C273.25 78.5 272.945 78.9635 272.727 79.5625C272.513 80.1562 272.406 80.7682 272.406 81.3984C272.406 81.9922 272.531 82.4609 272.781 82.8047C273.036 83.1484 273.424 83.3203 273.945 83.3203C274.289 83.3203 274.622 83.2109 274.945 82.9922C275.273 82.7682 275.565 82.4505 275.82 82.0391C275.992 81.763 276.135 81.4583 276.25 81.125C276.37 80.7865 276.461 80.4609 276.523 80.1484C276.586 79.8359 276.617 79.5755 276.617 79.3672Z" fill="#1F2937"/>
<rect x="96.5" y="68.5" width="76" height="27" rx="3.5" fill="white"/>
<rect x="96.5" y="68.5" width="76" height="27" rx="3.5" stroke="#1E2429"/>
<path d="M118.695 83.6094L118.203 86H117.559L118.051 83.6094H116.873V82.9766H118.191L118.648 80.8145H117.172V80.1816H118.777L119.299 77.791H119.943L119.428 80.1816H121.555L122.07 77.791H122.715L122.199 80.1816H123.436V80.8145H122.07L121.613 82.9766H123.137V83.6094H121.479L120.963 86H120.318L120.822 83.6094H118.695ZM118.842 82.9766H120.963L121.42 80.8145H119.311L118.842 82.9766ZM128.662 84.1309V86H127.666V84.1309H123.775V83.3105L127.555 77.7441H128.662V83.2988H129.822V84.1309H128.662ZM124.748 83.2988H127.666V80.0059C127.666 79.8262 127.666 79.6484 127.666 79.4727C127.67 79.293 127.678 79.1133 127.689 78.9336C127.6 79.1055 127.521 79.2461 127.455 79.3555C127.389 79.4609 127.328 79.5527 127.273 79.6309L124.748 83.2988Z" fill="#BD2218"/>
<path d="M154.996 82.1323L152.53 79.6667L151.434 80.7634L154.996 84.3334L158.566 80.7634L157.461 79.6667L154.996 82.1323Z" fill="#8F8F8F"/>
<path d="M138.695 279.609L138.203 282H137.559L138.051 279.609H136.873V278.977H138.191L138.648 276.814H137.172V276.182H138.777L139.299 273.791H139.943L139.428 276.182H141.555L142.07 273.791H142.715L142.199 276.182H143.436V276.814H142.07L141.613 278.977H143.137V279.609H141.479L140.963 282H140.318L140.822 279.609H138.695ZM138.842 278.977H140.963L141.42 276.814H139.311L138.842 278.977ZM148.662 280.131V282H147.666V280.131H143.775V279.311L147.555 273.744H148.662V279.299H149.822V280.131H148.662ZM144.748 279.299H147.666V276.006C147.666 275.826 147.666 275.648 147.666 275.473C147.67 275.293 147.678 275.113 147.689 274.934C147.6 275.105 147.521 275.246 147.455 275.355C147.389 275.461 147.328 275.553 147.273 275.631L144.748 279.299Z" fill="#BD2218"/>
<path d="M241.695 279.609L241.203 282H240.559L241.051 279.609H239.873V278.977H241.191L241.648 276.814H240.172V276.182H241.777L242.299 273.791H242.943L242.428 276.182H244.555L245.07 273.791H245.715L245.199 276.182H246.436V276.814H245.07L244.613 278.977H246.137V279.609H244.479L243.963 282H243.318L243.822 279.609H241.695ZM241.842 278.977H243.963L244.42 276.814H242.311L241.842 278.977ZM252.646 279.299C252.646 280.17 252.41 280.857 251.938 281.361C251.465 281.865 250.812 282.117 249.98 282.117C249.051 282.117 248.34 281.771 247.848 281.08C247.355 280.389 247.109 279.383 247.109 278.062C247.109 276.633 247.365 275.535 247.877 274.77C248.389 274.004 249.117 273.621 250.062 273.621C250.688 273.621 251.195 273.762 251.586 274.043C251.98 274.324 252.258 274.744 252.418 275.303L251.41 275.484C251.207 274.812 250.754 274.477 250.051 274.477C249.449 274.477 248.982 274.758 248.65 275.32C248.322 275.879 248.158 276.689 248.158 277.752C248.35 277.396 248.619 277.127 248.967 276.943C249.314 276.756 249.713 276.662 250.162 276.662C250.924 276.662 251.527 276.9 251.973 277.377C252.422 277.854 252.646 278.494 252.646 279.299ZM251.574 279.346C251.574 278.748 251.428 278.287 251.135 277.963C250.842 277.639 250.434 277.477 249.91 277.477C249.418 277.477 249.02 277.621 248.715 277.91C248.414 278.195 248.264 278.59 248.264 279.094C248.264 279.516 248.336 279.891 248.48 280.219C248.625 280.547 248.822 280.805 249.072 280.992C249.326 281.176 249.617 281.268 249.945 281.268C250.453 281.268 250.852 281.098 251.141 280.758C251.43 280.414 251.574 279.943 251.574 279.346Z" fill="#8514F6"/>
<path d="M339.695 279.609L339.203 282H338.559L339.051 279.609H337.873V278.977H339.191L339.648 276.814H338.172V276.182H339.777L340.299 273.791H340.943L340.428 276.182H342.555L343.07 273.791H343.715L343.199 276.182H344.436V276.814H343.07L342.613 278.977H344.137V279.609H342.479L341.963 282H341.318L341.822 279.609H339.695ZM339.842 278.977H341.963L342.42 276.814H340.311L339.842 278.977ZM349.662 280.131V282H348.666V280.131H344.775V279.311L348.555 273.744H349.662V279.299H350.822V280.131H349.662ZM345.748 279.299H348.666V276.006C348.666 275.826 348.666 275.648 348.666 275.473C348.67 275.293 348.678 275.113 348.689 274.934C348.6 275.105 348.521 275.246 348.455 275.355C348.389 275.461 348.328 275.553 348.273 275.631L345.748 279.299Z" fill="#BD2218"/>
<path d="M438.695 279.609L438.203 282H437.559L438.051 279.609H436.873V278.977H438.191L438.648 276.814H437.172V276.182H438.777L439.299 273.791H439.943L439.428 276.182H441.555L442.07 273.791H442.715L442.199 276.182H443.436V276.814H442.07L441.613 278.977H443.137V279.609H441.479L440.963 282H440.318L440.822 279.609H438.695ZM438.842 278.977H440.963L441.42 276.814H439.311L438.842 278.977ZM449.646 279.299C449.646 280.17 449.41 280.857 448.938 281.361C448.465 281.865 447.812 282.117 446.98 282.117C446.051 282.117 445.34 281.771 444.848 281.08C444.355 280.389 444.109 279.383 444.109 278.062C444.109 276.633 444.365 275.535 444.877 274.77C445.389 274.004 446.117 273.621 447.062 273.621C447.688 273.621 448.195 273.762 448.586 274.043C448.98 274.324 449.258 274.744 449.418 275.303L448.41 275.484C448.207 274.812 447.754 274.477 447.051 274.477C446.449 274.477 445.982 274.758 445.65 275.32C445.322 275.879 445.158 276.689 445.158 277.752C445.35 277.396 445.619 277.127 445.967 276.943C446.314 276.756 446.713 276.662 447.162 276.662C447.924 276.662 448.527 276.9 448.973 277.377C449.422 277.854 449.646 278.494 449.646 279.299ZM448.574 279.346C448.574 278.748 448.428 278.287 448.135 277.963C447.842 277.639 447.434 277.477 446.91 277.477C446.418 277.477 446.02 277.621 445.715 277.91C445.414 278.195 445.264 278.59 445.264 279.094C445.264 279.516 445.336 279.891 445.48 280.219C445.625 280.547 445.822 280.805 446.072 280.992C446.326 281.176 446.617 281.268 446.945 281.268C447.453 281.268 447.852 281.098 448.141 280.758C448.43 280.414 448.574 279.943 448.574 279.346Z" fill="#8514F6"/>
<rect x="183.5" y="68.5" width="76" height="27" rx="3.5" fill="white"/>
<rect x="183.5" y="68.5" width="76" height="27" rx="3.5" stroke="#1E2429"/>
<path d="M205.695 83.6094L205.203 86H204.559L205.051 83.6094H203.873V82.9766H205.191L205.648 80.8145H204.172V80.1816H205.777L206.299 77.791H206.943L206.428 80.1816H208.555L209.07 77.791H209.715L209.199 80.1816H210.436V80.8145H209.07L208.613 82.9766H210.137V83.6094H208.479L207.963 86H207.318L207.822 83.6094H205.695ZM205.842 82.9766H207.963L208.42 80.8145H206.311L205.842 82.9766ZM216.646 83.2988C216.646 84.1699 216.41 84.8574 215.938 85.3613C215.465 85.8652 214.812 86.1172 213.98 86.1172C213.051 86.1172 212.34 85.7715 211.848 85.0801C211.355 84.3887 211.109 83.3828 211.109 82.0625C211.109 80.6328 211.365 79.5352 211.877 78.7695C212.389 78.0039 213.117 77.6211 214.062 77.6211C214.688 77.6211 215.195 77.7617 215.586 78.043C215.98 78.3242 216.258 78.7441 216.418 79.3027L215.41 79.4844C215.207 78.8125 214.754 78.4766 214.051 78.4766C213.449 78.4766 212.982 78.7578 212.65 79.3203C212.322 79.8789 212.158 80.6895 212.158 81.752C212.35 81.3965 212.619 81.127 212.967 80.9434C213.314 80.7559 213.713 80.6621 214.162 80.6621C214.924 80.6621 215.527 80.9004 215.973 81.377C216.422 81.8535 216.646 82.4941 216.646 83.2988ZM215.574 83.3457C215.574 82.748 215.428 82.2871 215.135 81.9629C214.842 81.6387 214.434 81.4766 213.91 81.4766C213.418 81.4766 213.02 81.6211 212.715 81.9102C212.414 82.1953 212.264 82.5898 212.264 83.0938C212.264 83.5156 212.336 83.8906 212.48 84.2188C212.625 84.5469 212.822 84.8047 213.072 84.9922C213.326 85.1758 213.617 85.2676 213.945 85.2676C214.453 85.2676 214.852 85.0977 215.141 84.7578C215.43 84.4141 215.574 83.9434 215.574 83.3457Z" fill="#8514F6"/>
<path d="M241.996 82.1323L239.53 79.6667L238.434 80.7634L241.996 84.3334L245.566 80.7634L244.461 79.6667L241.996 82.1323Z" fill="#8F8F8F"/>
<rect x="298.5" y="68.5" width="76" height="27" rx="3.5" fill="white"/>
<rect x="298.5" y="68.5" width="76" height="27" rx="3.5" stroke="#1E2429"/>
<path d="M332.568 85.1035V86H327.395V85.1035H329.498V78.752L327.635 80.082V79.0859L329.586 77.7441H330.559V85.1035H332.568ZM339.365 81.8691C339.365 83.248 339.121 84.3008 338.633 85.0273C338.148 85.7539 337.432 86.1172 336.482 86.1172C335.533 86.1172 334.82 85.7559 334.344 85.0332C333.867 84.3105 333.629 83.2559 333.629 81.8691C333.629 80.4512 333.859 79.3887 334.32 78.6816C334.785 77.9746 335.518 77.6211 336.518 77.6211C337.49 77.6211 338.207 77.9785 338.668 78.6934C339.133 79.4082 339.365 80.4668 339.365 81.8691ZM338.293 81.8691C338.293 81.0723 338.232 80.4258 338.111 79.9297C337.994 79.4297 337.805 79.0625 337.543 78.8281C337.281 78.5938 336.939 78.4766 336.518 78.4766C336.088 78.4766 335.738 78.5918 335.469 78.8223C335.199 79.0527 335.002 79.418 334.877 79.918C334.756 80.4141 334.695 81.0645 334.695 81.8691C334.695 82.6504 334.758 83.291 334.883 83.791C335.012 84.291 335.209 84.6602 335.475 84.8984C335.74 85.1367 336.08 85.2559 336.494 85.2559C337.115 85.2559 337.57 84.9785 337.859 84.4238C338.148 83.8691 338.293 83.0176 338.293 81.8691ZM346.045 81.8691C346.045 83.248 345.801 84.3008 345.312 85.0273C344.828 85.7539 344.111 86.1172 343.162 86.1172C342.213 86.1172 341.5 85.7559 341.023 85.0332C340.547 84.3105 340.309 83.2559 340.309 81.8691C340.309 80.4512 340.539 79.3887 341 78.6816C341.465 77.9746 342.197 77.6211 343.197 77.6211C344.17 77.6211 344.887 77.9785 345.348 78.6934C345.812 79.4082 346.045 80.4668 346.045 81.8691ZM344.973 81.8691C344.973 81.0723 344.912 80.4258 344.791 79.9297C344.674 79.4297 344.484 79.0625 344.223 78.8281C343.961 78.5938 343.619 78.4766 343.197 78.4766C342.768 78.4766 342.418 78.5918 342.148 78.8223C341.879 79.0527 341.682 79.418 341.557 79.918C341.436 80.4141 341.375 81.0645 341.375 81.8691C341.375 82.6504 341.438 83.291 341.562 83.791C341.691 84.291 341.889 84.6602 342.154 84.8984C342.42 85.1367 342.76 85.2559 343.174 85.2559C343.795 85.2559 344.25 84.9785 344.539 84.4238C344.828 83.8691 344.973 83.0176 344.973 81.8691Z" fill="#2E7DEA"/>
<path d="M121.568 125.104V126H116.395V125.104H118.498V118.752L116.635 120.082V119.086L118.586 117.744H119.559V125.104H121.568ZM128.365 121.869C128.365 123.248 128.121 124.301 127.633 125.027C127.148 125.754 126.432 126.117 125.482 126.117C124.533 126.117 123.82 125.756 123.344 125.033C122.867 124.311 122.629 123.256 122.629 121.869C122.629 120.451 122.859 119.389 123.32 118.682C123.785 117.975 124.518 117.621 125.518 117.621C126.49 117.621 127.207 117.979 127.668 118.693C128.133 119.408 128.365 120.467 128.365 121.869ZM127.293 121.869C127.293 121.072 127.232 120.426 127.111 119.93C126.994 119.43 126.805 119.062 126.543 118.828C126.281 118.594 125.939 118.477 125.518 118.477C125.088 118.477 124.738 118.592 124.469 118.822C124.199 119.053 124.002 119.418 123.877 119.918C123.756 120.414 123.695 121.064 123.695 121.869C123.695 122.65 123.758 123.291 123.883 123.791C124.012 124.291 124.209 124.66 124.475 124.898C124.74 125.137 125.08 125.256 125.494 125.256C126.115 125.256 126.57 124.979 126.859 124.424C127.148 123.869 127.293 123.018 127.293 121.869ZM135.045 121.869C135.045 123.248 134.801 124.301 134.312 125.027C133.828 125.754 133.111 126.117 132.162 126.117C131.213 126.117 130.5 125.756 130.023 125.033C129.547 124.311 129.309 123.256 129.309 121.869C129.309 120.451 129.539 119.389 130 118.682C130.465 117.975 131.197 117.621 132.197 117.621C133.17 117.621 133.887 117.979 134.348 118.693C134.812 119.408 135.045 120.467 135.045 121.869ZM133.973 121.869C133.973 121.072 133.912 120.426 133.791 119.93C133.674 119.43 133.484 119.062 133.223 118.828C132.961 118.594 132.619 118.477 132.197 118.477C131.768 118.477 131.418 118.592 131.148 118.822C130.879 119.053 130.682 119.418 130.557 119.918C130.436 120.414 130.375 121.064 130.375 121.869C130.375 122.65 130.438 123.291 130.562 123.791C130.691 124.291 130.889 124.66 131.154 124.898C131.42 125.137 131.76 125.256 132.174 125.256C132.795 125.256 133.25 124.979 133.539 124.424C133.828 123.869 133.973 123.018 133.973 121.869Z" fill="#2E7DEA"/>
<path d="M229.568 125.104V126H224.395V125.104H226.498V118.752L224.635 120.082V119.086L226.586 117.744H227.559V125.104H229.568ZM236.365 121.869C236.365 123.248 236.121 124.301 235.633 125.027C235.148 125.754 234.432 126.117 233.482 126.117C232.533 126.117 231.82 125.756 231.344 125.033C230.867 124.311 230.629 123.256 230.629 121.869C230.629 120.451 230.859 119.389 231.32 118.682C231.785 117.975 232.518 117.621 233.518 117.621C234.49 117.621 235.207 117.979 235.668 118.693C236.133 119.408 236.365 120.467 236.365 121.869ZM235.293 121.869C235.293 121.072 235.232 120.426 235.111 119.93C234.994 119.43 234.805 119.062 234.543 118.828C234.281 118.594 233.939 118.477 233.518 118.477C233.088 118.477 232.738 118.592 232.469 118.822C232.199 119.053 232.002 119.418 231.877 119.918C231.756 120.414 231.695 121.064 231.695 121.869C231.695 122.65 231.758 123.291 231.883 123.791C232.012 124.291 232.209 124.66 232.475 124.898C232.74 125.137 233.08 125.256 233.494 125.256C234.115 125.256 234.57 124.979 234.859 124.424C235.148 123.869 235.293 123.018 235.293 121.869ZM243.045 121.869C243.045 123.248 242.801 124.301 242.312 125.027C241.828 125.754 241.111 126.117 240.162 126.117C239.213 126.117 238.5 125.756 238.023 125.033C237.547 124.311 237.309 123.256 237.309 121.869C237.309 120.451 237.539 119.389 238 118.682C238.465 117.975 239.197 117.621 240.197 117.621C241.17 117.621 241.887 117.979 242.348 118.693C242.812 119.408 243.045 120.467 243.045 121.869ZM241.973 121.869C241.973 121.072 241.912 120.426 241.791 119.93C241.674 119.43 241.484 119.062 241.223 118.828C240.961 118.594 240.619 118.477 240.197 118.477C239.768 118.477 239.418 118.592 239.148 118.822C238.879 119.053 238.682 119.418 238.557 119.918C238.436 120.414 238.375 121.064 238.375 121.869C238.375 122.65 238.438 123.291 238.562 123.791C238.691 124.291 238.889 124.66 239.154 124.898C239.42 125.137 239.76 125.256 240.174 125.256C240.795 125.256 241.25 124.979 241.539 124.424C241.828 123.869 241.973 123.018 241.973 121.869Z" fill="#2E7DEA"/>
<path d="M329.568 125.104V126H324.395V125.104H326.498V118.752L324.635 120.082V119.086L326.586 117.744H327.559V125.104H329.568ZM336.365 121.869C336.365 123.248 336.121 124.301 335.633 125.027C335.148 125.754 334.432 126.117 333.482 126.117C332.533 126.117 331.82 125.756 331.344 125.033C330.867 124.311 330.629 123.256 330.629 121.869C330.629 120.451 330.859 119.389 331.32 118.682C331.785 117.975 332.518 117.621 333.518 117.621C334.49 117.621 335.207 117.979 335.668 118.693C336.133 119.408 336.365 120.467 336.365 121.869ZM335.293 121.869C335.293 121.072 335.232 120.426 335.111 119.93C334.994 119.43 334.805 119.062 334.543 118.828C334.281 118.594 333.939 118.477 333.518 118.477C333.088 118.477 332.738 118.592 332.469 118.822C332.199 119.053 332.002 119.418 331.877 119.918C331.756 120.414 331.695 121.064 331.695 121.869C331.695 122.65 331.758 123.291 331.883 123.791C332.012 124.291 332.209 124.66 332.475 124.898C332.74 125.137 333.08 125.256 333.494 125.256C334.115 125.256 334.57 124.979 334.859 124.424C335.148 123.869 335.293 123.018 335.293 121.869ZM343.045 121.869C343.045 123.248 342.801 124.301 342.312 125.027C341.828 125.754 341.111 126.117 340.162 126.117C339.213 126.117 338.5 125.756 338.023 125.033C337.547 124.311 337.309 123.256 337.309 121.869C337.309 120.451 337.539 119.389 338 118.682C338.465 117.975 339.197 117.621 340.197 117.621C341.17 117.621 341.887 117.979 342.348 118.693C342.812 119.408 343.045 120.467 343.045 121.869ZM341.973 121.869C341.973 121.072 341.912 120.426 341.791 119.93C341.674 119.43 341.484 119.062 341.223 118.828C340.961 118.594 340.619 118.477 340.197 118.477C339.768 118.477 339.418 118.592 339.148 118.822C338.879 119.053 338.682 119.418 338.557 119.918C338.436 120.414 338.375 121.064 338.375 121.869C338.375 122.65 338.438 123.291 338.562 123.791C338.691 124.291 338.889 124.66 339.154 124.898C339.42 125.137 339.76 125.256 340.174 125.256C340.795 125.256 341.25 124.979 341.539 124.424C341.828 123.869 341.973 123.018 341.973 121.869Z" fill="#2E7DEA"/>
<line x1="84.5" y1="140" x2="84.5" y2="390" stroke="#7F829B" stroke-width="13"/>
<line x1="184.5" y1="140" x2="184.5" y2="390" stroke="#2E3573" stroke-width="19"/>
<line x1="284.5" y1="140" x2="284.5" y2="390" stroke="#7F829B" stroke-width="13"/>
<line x1="384.5" y1="140" x2="384.5" y2="390" stroke="#2E3573" stroke-width="19"/>
<line x1="84.5" y1="115" x2="84.5" y2="387" stroke="#7F829B"/>
<line x1="184.5" y1="115" x2="184.5" y2="390" stroke="#7F829B"/>
<line x1="134" y1="279.5" x2="84" y2="279.5" stroke="#AFB0C7"/>
<line x1="237" y1="279.5" x2="187" y2="279.5" stroke="#AFB0C7"/>
<line x1="335" y1="279.5" x2="285" y2="279.5" stroke="#AFB0C7"/>
<line x1="434" y1="279.5" x2="384" y2="279.5" stroke="#AFB0C7"/>
<path d="M184 130L179 127.113V132.887L184 130ZM84 130L89 132.887V127.113L84 130ZM179.5 129.5H88.5V130.5H179.5V129.5Z" fill="#616161"/>
<path d="M85 130L80 127.113V132.887L85 130ZM80.5 129.5H35V130.5H80.5V129.5Z" fill="#616161"/>
<path d="M284 130L279 127.113V132.887L284 130ZM184 130L189 132.887V127.113L184 130ZM279.5 129.5H188.5V130.5H279.5V129.5Z" fill="#616161"/>
<path d="M384 130L379 127.113V132.887L384 130ZM284 130L289 132.887V127.113L284 130ZM379.5 129.5H288.5V130.5H379.5V129.5Z" fill="#616161"/>
<path d="M384 130L389 132.887V127.113L384 130ZM434 129.5H388.5V130.5H434V129.5Z" fill="#616161"/>
<line x1="284.5" y1="115" x2="284.5" y2="390" stroke="#7F829B"/>
<line x1="384.5" y1="115" x2="384.5" y2="387" stroke="#7F829B"/>
<circle cx="84.5" cy="279.5" r="2.5" fill="#AFB0C7"/>
<circle cx="383.5" cy="279.5" r="2.5" fill="#AFB0C7"/>
<circle cx="284.5" cy="279.5" r="2.5" fill="#AFB0C7"/>
<circle cx="186.5" cy="279.5" r="2.5" fill="#AFB0C7"/>
<path d="M12.1641 15.6802V26H10.0034V15.6802H12.1641ZM16.2803 21.752V26H14.2222V19.8477C14.2222 19.4229 14.2148 19.0762 14.2002 18.8076C14.1904 18.5342 14.1782 18.29 14.1636 18.0752H16.1265C16.1362 18.1338 16.1484 18.2729 16.1631 18.4927C16.1777 18.7075 16.1899 18.9297 16.1997 19.1592C16.2144 19.3838 16.2217 19.5474 16.2217 19.6499H16.251C16.5293 19.0444 16.8784 18.605 17.2983 18.3315C17.7183 18.0581 18.2188 17.9214 18.7998 17.9214C19.6396 17.9214 20.2842 18.1802 20.7334 18.6978C21.1826 19.2153 21.4072 19.9722 21.4072 20.9683V26H19.3564V21.5542C19.3564 20.856 19.2393 20.3335 19.0049 19.9868C18.7705 19.6401 18.4165 19.4668 17.9429 19.4668C17.4448 19.4668 17.042 19.6816 16.7344 20.1113C16.4316 20.5361 16.2803 21.083 16.2803 21.752ZM30.8921 22.001C30.8921 23.3242 30.626 24.3472 30.0938 25.0698C29.5664 25.7876 28.8193 26.1465 27.8525 26.1465C26.7051 26.1465 25.9043 25.6777 25.4502 24.7402H25.4062C25.4355 24.8867 25.4502 25.3311 25.4502 26.0732V29.1128H23.3921V19.8989C23.3921 19.5229 23.3872 19.1836 23.3774 18.8809C23.3677 18.5781 23.353 18.3096 23.3335 18.0752H25.333C25.3525 18.1338 25.3672 18.2339 25.377 18.3755C25.3916 18.5122 25.4014 18.6685 25.4062 18.8442C25.416 19.02 25.4209 19.1934 25.4209 19.3643H25.4502C25.6797 18.876 26.0068 18.5122 26.4316 18.2729C26.8564 18.0288 27.374 17.9067 27.9844 17.9067C28.9072 17.9067 29.6226 18.2632 30.1304 18.9761C30.6382 19.6841 30.8921 20.6924 30.8921 22.001ZM28.7461 22.001C28.7461 21.1123 28.6094 20.4458 28.3359 20.0015C28.0674 19.5571 27.6597 19.335 27.1128 19.335C26.5659 19.335 26.146 19.5742 25.853 20.0527C25.5649 20.5312 25.4209 21.2002 25.4209 22.0596C25.4209 22.9141 25.5649 23.5757 25.853 24.0444C26.146 24.5083 26.561 24.7402 27.0981 24.7402C27.6499 24.7402 28.0625 24.5132 28.3359 24.0591C28.6094 23.6001 28.7461 22.9141 28.7461 22.001ZM37.6011 24.4253C37.3276 25.0259 36.9785 25.4629 36.5537 25.7363C36.1338 26.0098 35.6333 26.1465 35.0522 26.1465C34.2124 26.1465 33.5679 25.8901 33.1187 25.3774C32.6694 24.8599 32.4448 24.103 32.4448 23.1069V18.0752H34.5029V22.521C34.5029 23.2144 34.6201 23.7368 34.8545 24.0884C35.0889 24.4351 35.4404 24.6084 35.9092 24.6084C36.4072 24.6084 36.8076 24.396 37.1104 23.9712C37.418 23.5415 37.5718 22.9922 37.5718 22.3232V18.0752H39.6299V24.2275C39.6299 24.5645 39.6348 24.8818 39.6445 25.1797C39.6543 25.4727 39.6689 25.7461 39.6885 26H37.7256C37.6963 25.6484 37.6743 25.3408 37.6597 25.0771C37.645 24.8135 37.6377 24.5962 37.6377 24.4253H37.6011ZM45.4966 25.8828C44.9985 26.0488 44.4199 26.1318 43.7607 26.1318C43.1553 26.1318 42.689 25.9683 42.3618 25.6411C42.0347 25.3091 41.8711 24.8086 41.8711 24.1396V19.4668H40.8677V18.0752H41.9736L42.6182 16.2148H43.9072V18.0752H45.4087V19.4668H43.9072V23.583C43.9072 23.9688 43.9805 24.2544 44.127 24.4399C44.2734 24.6206 44.5005 24.7109 44.8081 24.7109C44.9546 24.7109 45.1841 24.6768 45.4966 24.6084V25.8828ZM52.7769 19.7451V26H50.8579V15.6802H53.751L55.5967 21.4517C55.6797 21.7739 55.7651 22.0986 55.853 22.4258C55.9409 22.748 56.0264 23.0703 56.1094 23.3926C56.1631 23.207 56.2144 23.0239 56.2632 22.8433C56.312 22.6577 56.3608 22.4722 56.4097 22.2866C56.4634 22.1011 56.5171 21.918 56.5708 21.7373L58.4678 15.6802H61.3462V26H59.4272V19.7451C59.4272 19.6035 59.4321 19.3203 59.4419 18.8955C59.4565 18.4658 59.4761 17.9995 59.5005 17.4966C59.3296 18.1509 59.1782 18.7075 59.0464 19.1665C58.9194 19.6255 58.8145 19.9844 58.7314 20.2432L56.8711 26H55.333L53.4727 20.2432L52.689 17.4966C52.7183 18.063 52.7402 18.5342 52.7549 18.9102C52.7695 19.2812 52.7769 19.5596 52.7769 19.7451ZM65.0962 22.4331C65.0962 23.2046 65.2378 23.7881 65.521 24.1836C65.8091 24.5742 66.2168 24.7695 66.7441 24.7695C67.1055 24.7695 67.4009 24.6914 67.6304 24.5352C67.8647 24.374 68.0283 24.1372 68.1211 23.8247L70.062 23.9932C69.5005 25.4287 68.3604 26.1465 66.6416 26.1465C65.4502 26.1465 64.5347 25.7949 63.895 25.0918C63.2554 24.3838 62.9355 23.3535 62.9355 22.001C62.9355 20.6924 63.2603 19.6865 63.9097 18.9834C64.5591 18.2803 65.4795 17.9287 66.6709 17.9287C67.8086 17.9287 68.6777 18.3071 69.2783 19.064C69.8789 19.8159 70.1792 20.9194 70.1792 22.3745V22.4331H65.0962ZM68.187 21.144C68.1479 20.5044 67.9941 20.0259 67.7256 19.7085C67.457 19.3862 67.0957 19.2251 66.6416 19.2251C66.1582 19.2251 65.7847 19.3936 65.521 19.7305C65.2622 20.0674 65.1255 20.5386 65.1108 21.144H68.187ZM75.5112 25.8828C75.0132 26.0488 74.4346 26.1318 73.7754 26.1318C73.1699 26.1318 72.7036 25.9683 72.3765 25.6411C72.0493 25.3091 71.8857 24.8086 71.8857 24.1396V19.4668H70.8823V18.0752H71.9883L72.6328 16.2148H73.9219V18.0752H75.4233V19.4668H73.9219V23.583C73.9219 23.9688 73.9951 24.2544 74.1416 24.4399C74.2881 24.6206 74.5151 24.7109 74.8228 24.7109C74.9692 24.7109 75.1987 24.6768 75.5112 24.6084V25.8828ZM78.7705 19.6572C79.0488 19.0518 79.3979 18.6123 79.8179 18.3389C80.2378 18.0654 80.7383 17.9287 81.3193 17.9287C82.1592 17.9287 82.8037 18.1875 83.2529 18.7051C83.7021 19.2227 83.9268 19.9795 83.9268 20.9756V26H81.876V21.5615C81.876 20.8633 81.7588 20.3408 81.5244 19.9941C81.29 19.6475 80.936 19.4741 80.4624 19.4741C79.9644 19.4741 79.5615 19.689 79.2539 20.1187C78.9512 20.5435 78.7998 21.0903 78.7998 21.7593V26H76.7417V15.1309H78.7998V18.0972C78.7998 18.2729 78.7974 18.4487 78.7925 18.6245C78.7876 18.8003 78.7803 18.9736 78.7705 19.1445C78.7656 19.3154 78.7559 19.4863 78.7412 19.6572H78.7705ZM93.4409 22.0303C93.4409 23.3145 93.0845 24.3228 92.3716 25.0552C91.6587 25.7827 90.6724 26.1465 89.4126 26.1465C88.1772 26.1465 87.208 25.7803 86.5049 25.0479C85.8018 24.3154 85.4502 23.3096 85.4502 22.0303C85.4502 20.7559 85.8018 19.7549 86.5049 19.0273C87.208 18.2949 88.1919 17.9287 89.4565 17.9287C90.7505 17.9287 91.7368 18.2827 92.4155 18.9907C93.0991 19.6938 93.4409 20.707 93.4409 22.0303ZM91.2876 22.0303C91.2876 21.0879 91.1338 20.4043 90.8262 19.9795C90.5186 19.5547 90.0718 19.3423 89.4858 19.3423C88.8608 19.3423 88.3921 19.5669 88.0796 20.0161C87.7671 20.4604 87.6108 21.1318 87.6108 22.0303C87.6108 22.9141 87.7622 23.5879 88.0649 24.0518C88.3726 24.5107 88.8145 24.7402 89.3906 24.7402C90.0254 24.7402 90.499 24.5156 90.8115 24.0664C91.1289 23.6123 91.2876 22.9336 91.2876 22.0303ZM100.216 26C100.206 25.9512 100.191 25.8486 100.172 25.6924C100.152 25.5361 100.135 25.3652 100.121 25.1797C100.111 24.9941 100.106 24.8379 100.106 24.7109H100.077C99.8521 25.1895 99.5298 25.5483 99.1099 25.7876C98.6899 26.0269 98.1675 26.1465 97.5425 26.1465C96.6196 26.1465 95.9067 25.7876 95.4038 25.0698C94.9009 24.3472 94.6494 23.3389 94.6494 22.0449C94.6494 20.7314 94.9131 19.7183 95.4404 19.0054C95.9727 18.2876 96.7246 17.9287 97.6963 17.9287C98.2578 17.9287 98.7412 18.0459 99.1465 18.2803C99.5566 18.5146 99.8716 18.8638 100.091 19.3276H100.106L100.091 18.0239V15.1309H102.149V24.2715C102.149 24.5156 102.154 24.7817 102.164 25.0698C102.174 25.3579 102.188 25.668 102.208 26H100.216ZM96.7954 22.0449C96.7954 22.9434 96.9297 23.6172 97.1982 24.0664C97.4717 24.5156 97.877 24.7402 98.4141 24.7402C98.9561 24.7402 99.376 24.5034 99.6738 24.0298C99.9717 23.5513 100.121 22.8726 100.121 21.9937C100.121 21.1392 99.9766 20.4824 99.6885 20.0234C99.4053 19.5596 98.9854 19.3276 98.4287 19.3276C97.877 19.3276 97.4668 19.5522 97.1982 20.0015C96.9297 20.4458 96.7954 21.127 96.7954 22.0449ZM115.121 24.3081V26H107.899V24.5718C108.08 24.1763 108.309 23.7905 108.587 23.4146C108.866 23.0337 109.198 22.6528 109.583 22.272C109.974 21.8862 110.418 21.4907 110.917 21.0854C111.278 20.7925 111.585 20.5264 111.839 20.2871C112.093 20.043 112.291 19.8257 112.433 19.6353C112.579 19.4448 112.689 19.2568 112.762 19.0713C112.835 18.8809 112.872 18.6953 112.872 18.5146C112.872 18.0654 112.757 17.7285 112.528 17.5039C112.303 17.2793 111.966 17.167 111.517 17.167C111.078 17.167 110.741 17.2866 110.506 17.5259C110.277 17.7603 110.128 18.1143 110.06 18.5879L107.987 18.4707C108.104 17.5137 108.46 16.7837 109.056 16.2808C109.657 15.7778 110.472 15.5264 111.502 15.5264C112.616 15.5264 113.47 15.7803 114.066 16.2881C114.662 16.7959 114.959 17.5088 114.959 18.4268C114.959 18.9443 114.852 19.4082 114.637 19.8184C114.422 20.2285 114.149 20.6069 113.817 20.9536C113.543 21.2515 113.233 21.5347 112.887 21.8032C112.545 22.0718 112.213 22.333 111.891 22.5869C111.549 22.8604 111.236 23.1362 110.953 23.4146C110.675 23.6929 110.467 23.9907 110.331 24.3081H115.121Z" fill="#B02681"/>
<path d="M123.456 18.4268V20.4922H121.346V18.4268H123.456ZM123.456 23.9419V26H121.346V23.9419H123.456ZM136.712 19.4668V26H134.662V19.4668H133.504V18.0752H134.662V17.2476C134.662 16.5298 134.852 15.9976 135.233 15.6509C135.614 15.3042 136.192 15.1309 136.969 15.1309C137.369 15.1309 137.804 15.1699 138.272 15.248V16.5737C138.077 16.5298 137.877 16.5078 137.672 16.5078C137.32 16.5078 137.071 16.5786 136.925 16.7202C136.783 16.8569 136.712 17.1011 136.712 17.4526V18.0752H138.272V19.4668H136.712ZM146.82 22.0303C146.82 23.3145 146.463 24.3228 145.75 25.0552C145.038 25.7827 144.051 26.1465 142.792 26.1465C141.556 26.1465 140.587 25.7803 139.884 25.0479C139.181 24.3154 138.829 23.3096 138.829 22.0303C138.829 20.7559 139.181 19.7549 139.884 19.0273C140.587 18.2949 141.571 17.9287 142.835 17.9287C144.129 17.9287 145.116 18.2827 145.794 18.9907C146.478 19.6938 146.82 20.707 146.82 22.0303ZM144.667 22.0303C144.667 21.0879 144.513 20.4043 144.205 19.9795C143.897 19.5547 143.451 19.3423 142.865 19.3423C142.24 19.3423 141.771 19.5669 141.458 20.0161C141.146 20.4604 140.99 21.1318 140.99 22.0303C140.99 22.9141 141.141 23.5879 141.444 24.0518C141.751 24.5107 142.193 24.7402 142.77 24.7402C143.404 24.7402 143.878 24.5156 144.19 24.0664C144.508 23.6123 144.667 22.9336 144.667 22.0303ZM150.519 22.1108V26H148.46V19.9355C148.46 19.501 148.453 19.1396 148.438 18.8516C148.429 18.5586 148.417 18.2998 148.402 18.0752H150.365C150.375 18.1191 150.384 18.2168 150.394 18.3682C150.404 18.5195 150.414 18.6904 150.423 18.8809C150.433 19.0664 150.44 19.2422 150.445 19.4082C150.455 19.5742 150.46 19.6938 150.46 19.7671H150.489C150.685 19.2202 150.863 18.8271 151.024 18.5879C151.18 18.3584 151.366 18.1899 151.581 18.0825C151.795 17.9751 152.064 17.9214 152.386 17.9214C152.65 17.9214 152.862 17.958 153.023 18.0312V19.7524C152.696 19.6792 152.403 19.6426 152.145 19.6426C151.632 19.6426 151.231 19.8501 150.943 20.2651C150.66 20.6802 150.519 21.2954 150.519 22.1108ZM166.852 24.3301V26H158.436V15.6802H166.551V17.3501H160.597V19.9429H166.104V21.6128H160.597V24.3301H166.852ZM170.543 21.752V26H168.485V19.8477C168.485 19.4229 168.478 19.0762 168.463 18.8076C168.453 18.5342 168.441 18.29 168.426 18.0752H170.389C170.399 18.1338 170.411 18.2729 170.426 18.4927C170.44 18.7075 170.453 18.9297 170.462 19.1592C170.477 19.3838 170.484 19.5474 170.484 19.6499H170.514C170.792 19.0444 171.141 18.605 171.561 18.3315C171.981 18.0581 172.481 17.9214 173.062 17.9214C173.902 17.9214 174.547 18.1802 174.996 18.6978C175.445 19.2153 175.67 19.9722 175.67 20.9683V26H173.619V21.5542C173.619 20.856 173.502 20.3335 173.268 19.9868C173.033 19.6401 172.679 19.4668 172.206 19.4668C171.708 19.4668 171.305 19.6816 170.997 20.1113C170.694 20.5361 170.543 21.083 170.543 21.752ZM181.419 25.8828C180.921 26.0488 180.343 26.1318 179.684 26.1318C179.078 26.1318 178.612 25.9683 178.285 25.6411C177.958 25.3091 177.794 24.8086 177.794 24.1396V19.4668H176.791V18.0752H177.896L178.541 16.2148H179.83V18.0752H181.332V19.4668H179.83V23.583C179.83 23.9688 179.903 24.2544 180.05 24.4399C180.196 24.6206 180.423 24.7109 180.731 24.7109C180.877 24.7109 181.107 24.6768 181.419 24.6084V25.8828ZM184.349 22.4331C184.349 23.2046 184.491 23.7881 184.774 24.1836C185.062 24.5742 185.47 24.7695 185.997 24.7695C186.358 24.7695 186.654 24.6914 186.883 24.5352C187.118 24.374 187.281 24.1372 187.374 23.8247L189.315 23.9932C188.753 25.4287 187.613 26.1465 185.895 26.1465C184.703 26.1465 183.788 25.7949 183.148 25.0918C182.508 24.3838 182.188 23.3535 182.188 22.001C182.188 20.6924 182.513 19.6865 183.163 18.9834C183.812 18.2803 184.732 17.9287 185.924 17.9287C187.062 17.9287 187.931 18.3071 188.531 19.064C189.132 19.8159 189.432 20.9194 189.432 22.3745V22.4331H184.349ZM187.44 21.144C187.401 20.5044 187.247 20.0259 186.979 19.7085C186.71 19.3862 186.349 19.2251 185.895 19.2251C185.411 19.2251 185.038 19.3936 184.774 19.7305C184.515 20.0674 184.378 20.5386 184.364 21.144H187.44ZM193.058 22.1108V26H191V19.9355C191 19.501 190.992 19.1396 190.978 18.8516C190.968 18.5586 190.956 18.2998 190.941 18.0752H192.904C192.914 18.1191 192.923 18.2168 192.933 18.3682C192.943 18.5195 192.953 18.6904 192.962 18.8809C192.972 19.0664 192.979 19.2422 192.984 19.4082C192.994 19.5742 192.999 19.6938 192.999 19.7671H193.028C193.224 19.2202 193.402 18.8271 193.563 18.5879C193.719 18.3584 193.905 18.1899 194.12 18.0825C194.334 17.9751 194.603 17.9214 194.925 17.9214C195.189 17.9214 195.401 17.958 195.562 18.0312V19.7524C195.235 19.6792 194.942 19.6426 194.684 19.6426C194.171 19.6426 193.771 19.8501 193.482 20.2651C193.199 20.6802 193.058 21.2954 193.058 22.1108ZM198.902 15.1309V16.647H196.844V15.1309H198.902ZM198.902 18.0752V26H196.844V18.0752H198.902ZM203.077 21.752V26H201.019V19.8477C201.019 19.4229 201.012 19.0762 200.997 18.8076C200.987 18.5342 200.975 18.29 200.96 18.0752H202.923C202.933 18.1338 202.945 18.2729 202.96 18.4927C202.975 18.7075 202.987 18.9297 202.997 19.1592C203.011 19.3838 203.019 19.5474 203.019 19.6499H203.048C203.326 19.0444 203.675 18.605 204.095 18.3315C204.515 18.0581 205.016 17.9214 205.597 17.9214C206.437 17.9214 207.081 18.1802 207.53 18.6978C207.979 19.2153 208.204 19.9722 208.204 20.9683V26H206.153V21.5542C206.153 20.856 206.036 20.3335 205.802 19.9868C205.567 19.6401 205.213 19.4668 204.74 19.4668C204.242 19.4668 203.839 19.6816 203.531 20.1113C203.229 20.5361 203.077 21.083 203.077 21.752ZM213.507 29.1787C212.54 29.1787 211.761 28.9932 211.17 28.6221C210.584 28.2559 210.223 27.731 210.086 27.0474L212.145 26.8057C212.218 27.123 212.374 27.3721 212.613 27.5527C212.857 27.7334 213.175 27.8237 213.565 27.8237C214.137 27.8237 214.554 27.6479 214.818 27.2964C215.082 26.9448 215.213 26.4224 215.213 25.729L215.228 24.5278H215.213C214.989 25.0161 214.664 25.3823 214.239 25.6265C213.814 25.8657 213.29 25.9854 212.665 25.9854C211.742 25.9854 211.026 25.6387 210.519 24.9453C210.011 24.252 209.757 23.2607 209.757 21.9717C209.757 20.6777 210.018 19.6792 210.541 18.9761C211.063 18.2729 211.822 17.9214 212.818 17.9214C213.395 17.9214 213.88 18.041 214.276 18.2803C214.676 18.5146 214.989 18.8711 215.213 19.3496H215.25C215.25 19.2324 215.255 19.0859 215.265 18.9102C215.274 18.7344 215.287 18.5659 215.301 18.4048C215.321 18.2437 215.338 18.1338 215.353 18.0752H217.301C217.271 18.6025 217.257 19.2129 217.257 19.9062V25.7583C217.257 26.8862 216.937 27.7383 216.297 28.3145C215.658 28.8906 214.728 29.1787 213.507 29.1787ZM215.228 21.9277C215.228 21.1123 215.082 20.4775 214.789 20.0234C214.5 19.5645 214.088 19.335 213.551 19.335C213.004 19.335 212.591 19.5547 212.313 19.9941C212.04 20.4336 211.903 21.0928 211.903 21.9717C211.903 22.8311 212.037 23.478 212.306 23.9126C212.579 24.3423 212.989 24.5571 213.536 24.5571C214.083 24.5571 214.5 24.3301 214.789 23.876C215.082 23.417 215.228 22.7676 215.228 21.9277ZM228.148 17.3501V26H225.987V17.3501H222.655V15.6802H231.488V17.3501H228.148ZM235.985 21.1807L234.71 26H232.535L230.484 18.0752H232.418L233.429 22.7627C233.478 22.9873 233.526 23.2144 233.575 23.4438C233.624 23.6733 233.673 23.9028 233.722 24.1323C233.771 23.8979 233.814 23.6636 233.854 23.4292C233.893 23.1948 233.944 22.9629 234.007 22.7334L235.252 18.0752H237.457L238.673 22.7334C238.707 22.8604 238.749 23.041 238.797 23.2754C238.851 23.5049 238.91 23.7905 238.973 24.1323C239.027 23.8979 239.078 23.666 239.127 23.4365C239.181 23.2021 239.232 22.9678 239.281 22.7334L240.321 18.0752H242.225L240.145 26H237.97L236.71 21.166C236.681 21.0537 236.637 20.8633 236.578 20.5947C236.52 20.3213 236.449 19.9697 236.366 19.54C236.302 19.8135 236.241 20.0869 236.183 20.3604C236.124 20.6338 236.058 20.9072 235.985 21.1807ZM250.78 22.0303C250.78 23.3145 250.423 24.3228 249.71 25.0552C248.998 25.7827 248.011 26.1465 246.751 26.1465C245.516 26.1465 244.547 25.7803 243.844 25.0479C243.141 24.3154 242.789 23.3096 242.789 22.0303C242.789 20.7559 243.141 19.7549 243.844 19.0273C244.547 18.2949 245.531 17.9287 246.795 17.9287C248.089 17.9287 249.076 18.2827 249.754 18.9907C250.438 19.6938 250.78 20.707 250.78 22.0303ZM248.626 22.0303C248.626 21.0879 248.473 20.4043 248.165 19.9795C247.857 19.5547 247.411 19.3423 246.825 19.3423C246.2 19.3423 245.731 19.5669 245.418 20.0161C245.106 20.4604 244.95 21.1318 244.95 22.0303C244.95 22.9141 245.101 23.5879 245.404 24.0518C245.711 24.5107 246.153 24.7402 246.729 24.7402C247.364 24.7402 247.838 24.5156 248.15 24.0664C248.468 23.6123 248.626 22.9336 248.626 22.0303ZM261.209 17.3501V26H259.049V17.3501H255.716V15.6802H264.549V17.3501H261.209ZM265.663 29.1128C265.16 29.1128 264.728 29.0811 264.366 29.0176V27.5527C264.64 27.5918 264.876 27.6113 265.077 27.6113C265.555 27.6113 265.912 27.4819 266.146 27.2231C266.385 26.9644 266.617 26.5298 266.842 25.9194L263.707 18.0752H265.882L267.127 21.7886C267.225 22.0571 267.335 22.394 267.457 22.7993C267.579 23.2046 267.716 23.6831 267.867 24.2349C267.979 23.7856 268.087 23.3706 268.189 22.9897C268.292 22.6089 268.404 22.2183 268.526 21.8179L269.698 18.0752H271.852L268.717 26.4175C268.59 26.7544 268.456 27.0522 268.314 27.311C268.172 27.5698 268.028 27.7993 267.882 27.9995C267.584 28.4048 267.259 28.6904 266.908 28.8564C266.556 29.0273 266.141 29.1128 265.663 29.1128ZM280.487 22.001C280.487 23.3242 280.221 24.3472 279.688 25.0698C279.161 25.7876 278.414 26.1465 277.447 26.1465C276.3 26.1465 275.499 25.6777 275.045 24.7402H275.001C275.03 24.8867 275.045 25.3311 275.045 26.0732V29.1128H272.987V19.8989C272.987 19.5229 272.982 19.1836 272.972 18.8809C272.962 18.5781 272.948 18.3096 272.928 18.0752H274.928C274.947 18.1338 274.962 18.2339 274.972 18.3755C274.986 18.5122 274.996 18.6685 275.001 18.8442C275.011 19.02 275.016 19.1934 275.016 19.3643H275.045C275.274 18.876 275.602 18.5122 276.026 18.2729C276.451 18.0288 276.969 17.9067 277.579 17.9067C278.502 17.9067 279.217 18.2632 279.725 18.9761C280.233 19.6841 280.487 20.6924 280.487 22.001ZM278.341 22.001C278.341 21.1123 278.204 20.4458 277.931 20.0015C277.662 19.5571 277.254 19.335 276.708 19.335C276.161 19.335 275.741 19.5742 275.448 20.0527C275.16 20.5312 275.016 21.2002 275.016 22.0596C275.016 22.9141 275.16 23.5757 275.448 24.0444C275.741 24.5083 276.156 24.7402 276.693 24.7402C277.245 24.7402 277.657 24.5132 277.931 24.0591C278.204 23.6001 278.341 22.9141 278.341 22.001ZM283.856 22.4331C283.856 23.2046 283.998 23.7881 284.281 24.1836C284.569 24.5742 284.977 24.7695 285.504 24.7695C285.865 24.7695 286.161 24.6914 286.39 24.5352C286.625 24.374 286.788 24.1372 286.881 23.8247L288.822 23.9932C288.26 25.4287 287.12 26.1465 285.401 26.1465C284.21 26.1465 283.294 25.7949 282.655 25.0918C282.015 24.3838 281.695 23.3535 281.695 22.001C281.695 20.6924 282.02 19.6865 282.669 18.9834C283.319 18.2803 284.239 17.9287 285.431 17.9287C286.568 17.9287 287.438 18.3071 288.038 19.064C288.639 19.8159 288.939 20.9194 288.939 22.3745V22.4331H283.856ZM286.947 21.144C286.908 20.5044 286.754 20.0259 286.485 19.7085C286.217 19.3862 285.855 19.2251 285.401 19.2251C284.918 19.2251 284.544 19.3936 284.281 19.7305C284.022 20.0674 283.885 20.5386 283.871 21.144H286.947ZM297.186 23.6855C297.186 24.4521 296.871 25.0552 296.241 25.4946C295.616 25.9292 294.75 26.1465 293.641 26.1465C292.552 26.1465 291.717 25.9756 291.136 25.6338C290.56 25.2871 290.177 24.75 289.986 24.0225L291.795 23.7515C291.898 24.1274 292.074 24.3936 292.323 24.5498C292.577 24.7061 293.016 24.7842 293.641 24.7842C294.217 24.7842 294.637 24.7109 294.901 24.5645C295.165 24.418 295.296 24.1885 295.296 23.876C295.296 23.6221 295.189 23.4219 294.974 23.2754C294.764 23.124 294.405 22.9971 293.897 22.8945C293.512 22.8164 293.165 22.7407 292.857 22.6675C292.555 22.5942 292.293 22.5234 292.074 22.4551C291.859 22.3818 291.683 22.3135 291.546 22.25C291.141 22.0498 290.831 21.7935 290.616 21.481C290.406 21.1685 290.301 20.7827 290.301 20.3237C290.301 19.5669 290.592 18.9785 291.173 18.5586C291.759 18.1338 292.586 17.9214 293.656 17.9214C294.598 17.9214 295.355 18.1045 295.926 18.4707C296.502 18.8369 296.861 19.3667 297.003 20.0601L295.179 20.2505C295.121 19.9282 294.977 19.689 294.747 19.5327C294.518 19.3716 294.154 19.291 293.656 19.291C293.167 19.291 292.801 19.3545 292.557 19.4814C292.313 19.6035 292.191 19.811 292.191 20.104C292.191 20.3335 292.284 20.5166 292.469 20.6533C292.66 20.7852 292.977 20.895 293.421 20.9829C294.042 21.1099 294.591 21.2417 295.069 21.3784C295.553 21.5103 295.941 21.6689 296.234 21.8545C296.522 22.04 296.751 22.2793 296.922 22.5723C297.098 22.8604 297.186 23.2314 297.186 23.6855ZM310.56 22.0303C310.56 23.3145 310.204 24.3228 309.491 25.0552C308.778 25.7827 307.792 26.1465 306.532 26.1465C305.296 26.1465 304.327 25.7803 303.624 25.0479C302.921 24.3154 302.569 23.3096 302.569 22.0303C302.569 20.7559 302.921 19.7549 303.624 19.0273C304.327 18.2949 305.311 17.9287 306.576 17.9287C307.87 17.9287 308.856 18.2827 309.535 18.9907C310.218 19.6938 310.56 20.707 310.56 22.0303ZM308.407 22.0303C308.407 21.0879 308.253 20.4043 307.945 19.9795C307.638 19.5547 307.191 19.3423 306.605 19.3423C305.98 19.3423 305.511 19.5669 305.199 20.0161C304.886 20.4604 304.73 21.1318 304.73 22.0303C304.73 22.9141 304.881 23.5879 305.184 24.0518C305.492 24.5107 305.934 24.7402 306.51 24.7402C307.145 24.7402 307.618 24.5156 307.931 24.0664C308.248 23.6123 308.407 22.9336 308.407 22.0303ZM314.618 19.4668V26H312.567V19.4668H311.41V18.0752H312.567V17.2476C312.567 16.5298 312.757 15.9976 313.138 15.6509C313.519 15.3042 314.098 15.1309 314.874 15.1309C315.274 15.1309 315.709 15.1699 316.178 15.248V16.5737C315.982 16.5298 315.782 16.5078 315.577 16.5078C315.226 16.5078 314.977 16.5786 314.83 16.7202C314.688 16.8569 314.618 17.1011 314.618 17.4526V18.0752H316.178V19.4668H314.618ZM323.487 22.0815V26H321.327V15.6802H326.483C327.713 15.6802 328.663 15.9463 329.332 16.4785C330.001 17.0059 330.335 17.7651 330.335 18.7563C330.335 19.479 330.13 20.104 329.72 20.6313C329.31 21.1538 328.756 21.498 328.058 21.6641L330.848 26H328.417L326.021 22.0815H323.487ZM328.16 18.8442C328.16 18.3511 328.001 17.98 327.684 17.731C327.367 17.4819 326.891 17.3574 326.256 17.3574H323.487V20.4043H326.314C326.92 20.4043 327.379 20.2676 327.691 19.9941C328.004 19.7207 328.16 19.3374 328.16 18.8442ZM333.91 22.4331C333.91 23.2046 334.051 23.7881 334.334 24.1836C334.623 24.5742 335.03 24.7695 335.558 24.7695C335.919 24.7695 336.214 24.6914 336.444 24.5352C336.678 24.374 336.842 24.1372 336.935 23.8247L338.875 23.9932C338.314 25.4287 337.174 26.1465 335.455 26.1465C334.264 26.1465 333.348 25.7949 332.708 25.0918C332.069 24.3838 331.749 23.3535 331.749 22.001C331.749 20.6924 332.074 19.6865 332.723 18.9834C333.373 18.2803 334.293 17.9287 335.484 17.9287C336.622 17.9287 337.491 18.3071 338.092 19.064C338.692 19.8159 338.993 20.9194 338.993 22.3745V22.4331H333.91ZM337 21.144C336.961 20.5044 336.808 20.0259 336.539 19.7085C336.271 19.3862 335.909 19.2251 335.455 19.2251C334.972 19.2251 334.598 19.3936 334.334 19.7305C334.076 20.0674 333.939 20.5386 333.924 21.144H337ZM348.06 22.0083C348.06 23.3169 347.796 24.335 347.269 25.0625C346.747 25.7852 345.997 26.1465 345.021 26.1465C344.459 26.1465 343.973 26.0244 343.563 25.7803C343.153 25.5361 342.838 25.1846 342.618 24.7256H342.604C342.604 24.8379 342.599 24.9844 342.589 25.165C342.579 25.3457 342.567 25.5166 342.552 25.6777C342.538 25.834 342.521 25.9414 342.501 26H340.501C340.521 25.7705 340.536 25.5068 340.545 25.209C340.555 24.9062 340.56 24.5669 340.56 24.1909V15.1309H342.618V18.1631C342.618 18.3779 342.613 18.5928 342.604 18.8076C342.599 19.0225 342.594 19.2373 342.589 19.4521H342.618C342.848 18.9443 343.175 18.5635 343.6 18.3096C344.024 18.0557 344.542 17.9287 345.152 17.9287C346.09 17.9287 346.808 18.2852 347.306 18.998C347.809 19.7061 348.06 20.7095 348.06 22.0083ZM345.914 22.0083C345.914 21.1099 345.782 20.4434 345.519 20.0088C345.255 19.5742 344.847 19.3569 344.295 19.3569C343.739 19.3569 343.314 19.5913 343.021 20.0601C342.733 20.5239 342.589 21.1953 342.589 22.0742C342.589 22.9141 342.73 23.5684 343.014 24.0371C343.302 24.5059 343.724 24.7402 344.281 24.7402C344.828 24.7402 345.235 24.5132 345.504 24.0591C345.777 23.605 345.914 22.9214 345.914 22.0083ZM351.561 26.1465C350.794 26.1465 350.196 25.939 349.767 25.5239C349.337 25.104 349.122 24.5156 349.122 23.7588C349.122 22.9385 349.388 22.3159 349.92 21.8911C350.458 21.4663 351.234 21.2441 352.25 21.2246L353.956 21.1953V20.7925C353.956 20.2749 353.866 19.8916 353.685 19.6426C353.504 19.3887 353.209 19.2617 352.799 19.2617C352.418 19.2617 352.137 19.3496 351.957 19.5254C351.781 19.6963 351.671 19.9819 351.627 20.3823L349.481 20.2798C349.75 18.7124 350.885 17.9287 352.887 17.9287C353.888 17.9287 354.659 18.1753 355.201 18.6685C355.743 19.1616 356.014 19.8623 356.014 20.7705V23.6562C356.014 24.1006 356.063 24.4082 356.161 24.5791C356.263 24.7451 356.432 24.8281 356.666 24.8281C356.822 24.8281 356.974 24.8135 357.12 24.7842V25.8975C356.866 25.9609 356.649 26.0073 356.468 26.0366C356.288 26.0708 356.065 26.0879 355.802 26.0879C355.284 26.0879 354.901 25.9609 354.652 25.707C354.408 25.4531 354.261 25.0796 354.212 24.5864H354.168C353.88 25.104 353.519 25.4946 353.084 25.7583C352.65 26.0171 352.142 26.1465 351.561 26.1465ZM353.956 22.3306L352.901 22.3452C352.418 22.3696 352.079 22.4209 351.883 22.499C351.683 22.5869 351.529 22.7188 351.422 22.8945C351.319 23.0703 351.268 23.3047 351.268 23.5977C351.268 23.9736 351.354 24.2544 351.524 24.4399C351.7 24.6206 351.932 24.7109 352.22 24.7109C352.542 24.7109 352.838 24.623 353.106 24.4473C353.37 24.2715 353.578 24.0298 353.729 23.7222C353.88 23.4097 353.956 23.0801 353.956 22.7334V22.3306ZM360.138 22.1108V26H358.08V19.9355C358.08 19.501 358.072 19.1396 358.058 18.8516C358.048 18.5586 358.036 18.2998 358.021 18.0752H359.984C359.994 18.1191 360.003 18.2168 360.013 18.3682C360.023 18.5195 360.033 18.6904 360.042 18.8809C360.052 19.0664 360.06 19.2422 360.064 19.4082C360.074 19.5742 360.079 19.6938 360.079 19.7671H360.108C360.304 19.2202 360.482 18.8271 360.643 18.5879C360.799 18.3584 360.985 18.1899 361.2 18.0825C361.415 17.9751 361.683 17.9214 362.005 17.9214C362.269 17.9214 362.481 17.958 362.643 18.0312V19.7524C362.315 19.6792 362.022 19.6426 361.764 19.6426C361.251 19.6426 360.851 19.8501 360.562 20.2651C360.279 20.6802 360.138 21.2954 360.138 22.1108ZM376.471 23.0264C376.471 24.0371 376.095 24.811 375.343 25.3481C374.596 25.8804 373.497 26.1465 372.047 26.1465C369.435 26.1465 367.914 25.2017 367.484 23.312L369.571 22.9678C369.713 23.5146 369.989 23.9126 370.399 24.1616C370.809 24.4058 371.378 24.5278 372.105 24.5278C372.862 24.5278 373.429 24.4131 373.805 24.1836C374.181 23.9541 374.369 23.6099 374.369 23.1509C374.369 22.8579 374.283 22.6162 374.112 22.4258C373.941 22.2354 373.697 22.0767 373.38 21.9497C373.224 21.8862 372.994 21.8179 372.691 21.7446C372.389 21.6665 372.013 21.5811 371.563 21.4883C371.046 21.3662 370.641 21.2637 370.348 21.1807C370.055 21.0928 369.82 21.0098 369.645 20.9316C369.469 20.8486 369.298 20.7583 369.132 20.6606C368.766 20.4409 368.48 20.1479 368.275 19.7817C368.07 19.4155 367.967 18.959 367.967 18.4121C367.967 17.4795 368.316 16.7666 369.015 16.2734C369.718 15.7754 370.738 15.5264 372.076 15.5264C373.355 15.5264 374.315 15.7266 374.955 16.127C375.599 16.5273 376.014 17.189 376.2 18.1118L374.105 18.3975C373.998 17.9531 373.778 17.6187 373.446 17.394C373.119 17.1694 372.647 17.0571 372.032 17.0571C371.378 17.0571 370.887 17.1597 370.56 17.3647C370.233 17.5698 370.069 17.8774 370.069 18.2876C370.069 18.5562 370.138 18.7759 370.274 18.9468C370.416 19.1177 370.624 19.2642 370.897 19.3862C371.156 19.5034 371.71 19.6523 372.56 19.833C373.053 19.9404 373.478 20.043 373.834 20.1406C374.19 20.2334 374.476 20.3237 374.691 20.4116C374.906 20.5044 375.096 20.6021 375.262 20.7046C375.433 20.8071 375.58 20.917 375.702 21.0342C375.951 21.2734 376.141 21.5591 376.273 21.8911C376.405 22.2183 376.471 22.5967 376.471 23.0264ZM380.162 15.1309V16.647H378.104V15.1309H380.162ZM380.162 18.0752V26H378.104V18.0752H380.162ZM388.189 24.4985V26H381.832V24.5425L385.56 19.562H382.132V18.0752H387.831V19.5474L384.125 24.4985H388.189ZM391.478 22.4331C391.478 23.2046 391.62 23.7881 391.903 24.1836C392.191 24.5742 392.599 24.7695 393.126 24.7695C393.487 24.7695 393.783 24.6914 394.012 24.5352C394.247 24.374 394.41 24.1372 394.503 23.8247L396.444 23.9932C395.882 25.4287 394.742 26.1465 393.023 26.1465C391.832 26.1465 390.917 25.7949 390.277 25.0918C389.637 24.3838 389.317 23.3535 389.317 22.001C389.317 20.6924 389.642 19.6865 390.292 18.9834C390.941 18.2803 391.861 17.9287 393.053 17.9287C394.19 17.9287 395.06 18.3071 395.66 19.064C396.261 19.8159 396.561 20.9194 396.561 22.3745V22.4331H391.478ZM394.569 21.144C394.53 20.5044 394.376 20.0259 394.107 19.7085C393.839 19.3862 393.478 19.2251 393.023 19.2251C392.54 19.2251 392.167 19.3936 391.903 19.7305C391.644 20.0674 391.507 20.5386 391.493 21.144H394.569ZM404.808 23.6855C404.808 24.4521 404.493 25.0552 403.863 25.4946C403.238 25.9292 402.372 26.1465 401.263 26.1465C400.174 26.1465 399.339 25.9756 398.758 25.6338C398.182 25.2871 397.799 24.75 397.608 24.0225L399.417 23.7515C399.52 24.1274 399.696 24.3936 399.945 24.5498C400.199 24.7061 400.638 24.7842 401.263 24.7842C401.839 24.7842 402.259 24.7109 402.523 24.5645C402.787 24.418 402.918 24.1885 402.918 23.876C402.918 23.6221 402.811 23.4219 402.596 23.2754C402.386 23.124 402.027 22.9971 401.52 22.8945C401.134 22.8164 400.787 22.7407 400.479 22.6675C400.177 22.5942 399.916 22.5234 399.696 22.4551C399.481 22.3818 399.305 22.3135 399.168 22.25C398.763 22.0498 398.453 21.7935 398.238 21.481C398.028 21.1685 397.923 20.7827 397.923 20.3237C397.923 19.5669 398.214 18.9785 398.795 18.5586C399.381 18.1338 400.208 17.9214 401.278 17.9214C402.22 17.9214 402.977 18.1045 403.548 18.4707C404.125 18.8369 404.483 19.3667 404.625 20.0601L402.801 20.2505C402.743 19.9282 402.599 19.689 402.369 19.5327C402.14 19.3716 401.776 19.291 401.278 19.291C400.79 19.291 400.423 19.3545 400.179 19.4814C399.935 19.6035 399.813 19.811 399.813 20.104C399.813 20.3335 399.906 20.5166 400.091 20.6533C400.282 20.7852 400.599 20.895 401.043 20.9829C401.664 21.1099 402.213 21.2417 402.691 21.3784C403.175 21.5103 403.563 21.6689 403.856 21.8545C404.144 22.04 404.374 22.2793 404.544 22.5723C404.72 22.8604 404.808 23.2314 404.808 23.6855Z" fill="#1F2937"/>
</svg>
