<svg width="480" height="410" viewBox="0 0 480 410" fill="none" xmlns="http://www.w3.org/2000/svg">
<rect width="480" height="410" fill="white"/>
<path d="M12.1641 15.6802V26H10.0034V15.6802H12.1641ZM16.2803 21.752V26H14.2222V19.8477C14.2222 19.4229 14.2148 19.0762 14.2002 18.8076C14.1904 18.5342 14.1782 18.29 14.1636 18.0752H16.1265C16.1362 18.1338 16.1484 18.2729 16.1631 18.4927C16.1777 18.7075 16.1899 18.9297 16.1997 19.1592C16.2144 19.3838 16.2217 19.5474 16.2217 19.6499H16.251C16.5293 19.0444 16.8784 18.605 17.2983 18.3315C17.7183 18.0581 18.2188 17.9214 18.7998 17.9214C19.6396 17.9214 20.2842 18.1802 20.7334 18.6978C21.1826 19.2153 21.4072 19.9722 21.4072 20.9683V26H19.3564V21.5542C19.3564 20.856 19.2393 20.3335 19.0049 19.9868C18.7705 19.6401 18.4165 19.4668 17.9429 19.4668C17.4448 19.4668 17.042 19.6816 16.7344 20.1113C16.4316 20.5361 16.2803 21.083 16.2803 21.752ZM30.8921 22.001C30.8921 23.3242 30.626 24.3472 30.0938 25.0698C29.5664 25.7876 28.8193 26.1465 27.8525 26.1465C26.7051 26.1465 25.9043 25.6777 25.4502 24.7402H25.4062C25.4355 24.8867 25.4502 25.3311 25.4502 26.0732V29.1128H23.3921V19.8989C23.3921 19.5229 23.3872 19.1836 23.3774 18.8809C23.3677 18.5781 23.353 18.3096 23.3335 18.0752H25.333C25.3525 18.1338 25.3672 18.2339 25.377 18.3755C25.3916 18.5122 25.4014 18.6685 25.4062 18.8442C25.416 19.02 25.4209 19.1934 25.4209 19.3643H25.4502C25.6797 18.876 26.0068 18.5122 26.4316 18.2729C26.8564 18.0288 27.374 17.9067 27.9844 17.9067C28.9072 17.9067 29.6226 18.2632 30.1304 18.9761C30.6382 19.6841 30.8921 20.6924 30.8921 22.001ZM28.7461 22.001C28.7461 21.1123 28.6094 20.4458 28.3359 20.0015C28.0674 19.5571 27.6597 19.335 27.1128 19.335C26.5659 19.335 26.146 19.5742 25.853 20.0527C25.5649 20.5312 25.4209 21.2002 25.4209 22.0596C25.4209 22.9141 25.5649 23.5757 25.853 24.0444C26.146 24.5083 26.561 24.7402 27.0981 24.7402C27.6499 24.7402 28.0625 24.5132 28.3359 24.0591C28.6094 23.6001 28.7461 22.9141 28.7461 22.001ZM37.6011 24.4253C37.3276 25.0259 36.9785 25.4629 36.5537 25.7363C36.1338 26.0098 35.6333 26.1465 35.0522 26.1465C34.2124 26.1465 33.5679 25.8901 33.1187 25.3774C32.6694 24.8599 32.4448 24.103 32.4448 23.1069V18.0752H34.5029V22.521C34.5029 23.2144 34.6201 23.7368 34.8545 24.0884C35.0889 24.4351 35.4404 24.6084 35.9092 24.6084C36.4072 24.6084 36.8076 24.396 37.1104 23.9712C37.418 23.5415 37.5718 22.9922 37.5718 22.3232V18.0752H39.6299V24.2275C39.6299 24.5645 39.6348 24.8818 39.6445 25.1797C39.6543 25.4727 39.6689 25.7461 39.6885 26H37.7256C37.6963 25.6484 37.6743 25.3408 37.6597 25.0771C37.645 24.8135 37.6377 24.5962 37.6377 24.4253H37.6011ZM45.4966 25.8828C44.9985 26.0488 44.4199 26.1318 43.7607 26.1318C43.1553 26.1318 42.689 25.9683 42.3618 25.6411C42.0347 25.3091 41.8711 24.8086 41.8711 24.1396V19.4668H40.8677V18.0752H41.9736L42.6182 16.2148H43.9072V18.0752H45.4087V19.4668H43.9072V23.583C43.9072 23.9688 43.9805 24.2544 44.127 24.4399C44.2734 24.6206 44.5005 24.7109 44.8081 24.7109C44.9546 24.7109 45.1841 24.6768 45.4966 24.6084V25.8828ZM52.7769 19.7451V26H50.8579V15.6802H53.751L55.5967 21.4517C55.6797 21.7739 55.7651 22.0986 55.853 22.4258C55.9409 22.748 56.0264 23.0703 56.1094 23.3926C56.1631 23.207 56.2144 23.0239 56.2632 22.8433C56.312 22.6577 56.3608 22.4722 56.4097 22.2866C56.4634 22.1011 56.5171 21.918 56.5708 21.7373L58.4678 15.6802H61.3462V26H59.4272V19.7451C59.4272 19.6035 59.4321 19.3203 59.4419 18.8955C59.4565 18.4658 59.4761 17.9995 59.5005 17.4966C59.3296 18.1509 59.1782 18.7075 59.0464 19.1665C58.9194 19.6255 58.8145 19.9844 58.7314 20.2432L56.8711 26H55.333L53.4727 20.2432L52.689 17.4966C52.7183 18.063 52.7402 18.5342 52.7549 18.9102C52.7695 19.2812 52.7769 19.5596 52.7769 19.7451ZM65.0962 22.4331C65.0962 23.2046 65.2378 23.7881 65.521 24.1836C65.8091 24.5742 66.2168 24.7695 66.7441 24.7695C67.1055 24.7695 67.4009 24.6914 67.6304 24.5352C67.8647 24.374 68.0283 24.1372 68.1211 23.8247L70.062 23.9932C69.5005 25.4287 68.3604 26.1465 66.6416 26.1465C65.4502 26.1465 64.5347 25.7949 63.895 25.0918C63.2554 24.3838 62.9355 23.3535 62.9355 22.001C62.9355 20.6924 63.2603 19.6865 63.9097 18.9834C64.5591 18.2803 65.4795 17.9287 66.6709 17.9287C67.8086 17.9287 68.6777 18.3071 69.2783 19.064C69.8789 19.8159 70.1792 20.9194 70.1792 22.3745V22.4331H65.0962ZM68.187 21.144C68.1479 20.5044 67.9941 20.0259 67.7256 19.7085C67.457 19.3862 67.0957 19.2251 66.6416 19.2251C66.1582 19.2251 65.7847 19.3936 65.521 19.7305C65.2622 20.0674 65.1255 20.5386 65.1108 21.144H68.187ZM75.5112 25.8828C75.0132 26.0488 74.4346 26.1318 73.7754 26.1318C73.1699 26.1318 72.7036 25.9683 72.3765 25.6411C72.0493 25.3091 71.8857 24.8086 71.8857 24.1396V19.4668H70.8823V18.0752H71.9883L72.6328 16.2148H73.9219V18.0752H75.4233V19.4668H73.9219V23.583C73.9219 23.9688 73.9951 24.2544 74.1416 24.4399C74.2881 24.6206 74.5151 24.7109 74.8228 24.7109C74.9692 24.7109 75.1987 24.6768 75.5112 24.6084V25.8828ZM78.7705 19.6572C79.0488 19.0518 79.3979 18.6123 79.8179 18.3389C80.2378 18.0654 80.7383 17.9287 81.3193 17.9287C82.1592 17.9287 82.8037 18.1875 83.2529 18.7051C83.7021 19.2227 83.9268 19.9795 83.9268 20.9756V26H81.876V21.5615C81.876 20.8633 81.7588 20.3408 81.5244 19.9941C81.29 19.6475 80.936 19.4741 80.4624 19.4741C79.9644 19.4741 79.5615 19.689 79.2539 20.1187C78.9512 20.5435 78.7998 21.0903 78.7998 21.7593V26H76.7417V15.1309H78.7998V18.0972C78.7998 18.2729 78.7974 18.4487 78.7925 18.6245C78.7876 18.8003 78.7803 18.9736 78.7705 19.1445C78.7656 19.3154 78.7559 19.4863 78.7412 19.6572H78.7705ZM93.4409 22.0303C93.4409 23.3145 93.0845 24.3228 92.3716 25.0552C91.6587 25.7827 90.6724 26.1465 89.4126 26.1465C88.1772 26.1465 87.208 25.7803 86.5049 25.0479C85.8018 24.3154 85.4502 23.3096 85.4502 22.0303C85.4502 20.7559 85.8018 19.7549 86.5049 19.0273C87.208 18.2949 88.1919 17.9287 89.4565 17.9287C90.7505 17.9287 91.7368 18.2827 92.4155 18.9907C93.0991 19.6938 93.4409 20.707 93.4409 22.0303ZM91.2876 22.0303C91.2876 21.0879 91.1338 20.4043 90.8262 19.9795C90.5186 19.5547 90.0718 19.3423 89.4858 19.3423C88.8608 19.3423 88.3921 19.5669 88.0796 20.0161C87.7671 20.4604 87.6108 21.1318 87.6108 22.0303C87.6108 22.9141 87.7622 23.5879 88.0649 24.0518C88.3726 24.5107 88.8145 24.7402 89.3906 24.7402C90.0254 24.7402 90.499 24.5156 90.8115 24.0664C91.1289 23.6123 91.2876 22.9336 91.2876 22.0303ZM100.216 26C100.206 25.9512 100.191 25.8486 100.172 25.6924C100.152 25.5361 100.135 25.3652 100.121 25.1797C100.111 24.9941 100.106 24.8379 100.106 24.7109H100.077C99.8521 25.1895 99.5298 25.5483 99.1099 25.7876C98.6899 26.0269 98.1675 26.1465 97.5425 26.1465C96.6196 26.1465 95.9067 25.7876 95.4038 25.0698C94.9009 24.3472 94.6494 23.3389 94.6494 22.0449C94.6494 20.7314 94.9131 19.7183 95.4404 19.0054C95.9727 18.2876 96.7246 17.9287 97.6963 17.9287C98.2578 17.9287 98.7412 18.0459 99.1465 18.2803C99.5566 18.5146 99.8716 18.8638 100.091 19.3276H100.106L100.091 18.0239V15.1309H102.149V24.2715C102.149 24.5156 102.154 24.7817 102.164 25.0698C102.174 25.3579 102.188 25.668 102.208 26H100.216ZM96.7954 22.0449C96.7954 22.9434 96.9297 23.6172 97.1982 24.0664C97.4717 24.5156 97.877 24.7402 98.4141 24.7402C98.9561 24.7402 99.376 24.5034 99.6738 24.0298C99.9717 23.5513 100.121 22.8726 100.121 21.9937C100.121 21.1392 99.9766 20.4824 99.6885 20.0234C99.4053 19.5596 98.9854 19.3276 98.4287 19.3276C97.877 19.3276 97.4668 19.5522 97.1982 20.0015C96.9297 20.4458 96.7954 21.127 96.7954 22.0449ZM115.304 24.4692V26H108.324V24.4692H110.88V17.4307L108.404 18.9761V17.3574L110.99 15.6802H112.938V24.4692H115.304Z" fill="#B02681"/>
<path d="M123.456 18.4268V20.4922H121.346V18.4268H123.456ZM123.456 23.9419V26H121.346V23.9419H123.456ZM136.712 19.4668V26H134.662V19.4668H133.504V18.0752H134.662V17.2476C134.662 16.5298 134.852 15.9976 135.233 15.6509C135.614 15.3042 136.192 15.1309 136.969 15.1309C137.369 15.1309 137.804 15.1699 138.272 15.248V16.5737C138.077 16.5298 137.877 16.5078 137.672 16.5078C137.32 16.5078 137.071 16.5786 136.925 16.7202C136.783 16.8569 136.712 17.1011 136.712 17.4526V18.0752H138.272V19.4668H136.712ZM146.82 22.0303C146.82 23.3145 146.463 24.3228 145.75 25.0552C145.038 25.7827 144.051 26.1465 142.792 26.1465C141.556 26.1465 140.587 25.7803 139.884 25.0479C139.181 24.3154 138.829 23.3096 138.829 22.0303C138.829 20.7559 139.181 19.7549 139.884 19.0273C140.587 18.2949 141.571 17.9287 142.835 17.9287C144.129 17.9287 145.116 18.2827 145.794 18.9907C146.478 19.6938 146.82 20.707 146.82 22.0303ZM144.667 22.0303C144.667 21.0879 144.513 20.4043 144.205 19.9795C143.897 19.5547 143.451 19.3423 142.865 19.3423C142.24 19.3423 141.771 19.5669 141.458 20.0161C141.146 20.4604 140.99 21.1318 140.99 22.0303C140.99 22.9141 141.141 23.5879 141.444 24.0518C141.751 24.5107 142.193 24.7402 142.77 24.7402C143.404 24.7402 143.878 24.5156 144.19 24.0664C144.508 23.6123 144.667 22.9336 144.667 22.0303ZM150.519 22.1108V26H148.46V19.9355C148.46 19.501 148.453 19.1396 148.438 18.8516C148.429 18.5586 148.417 18.2998 148.402 18.0752H150.365C150.375 18.1191 150.384 18.2168 150.394 18.3682C150.404 18.5195 150.414 18.6904 150.423 18.8809C150.433 19.0664 150.44 19.2422 150.445 19.4082C150.455 19.5742 150.46 19.6938 150.46 19.7671H150.489C150.685 19.2202 150.863 18.8271 151.024 18.5879C151.18 18.3584 151.366 18.1899 151.581 18.0825C151.795 17.9751 152.064 17.9214 152.386 17.9214C152.65 17.9214 152.862 17.958 153.023 18.0312V19.7524C152.696 19.6792 152.403 19.6426 152.145 19.6426C151.632 19.6426 151.231 19.8501 150.943 20.2651C150.66 20.6802 150.519 21.2954 150.519 22.1108ZM166.852 24.3301V26H158.436V15.6802H166.551V17.3501H160.597V19.9429H166.104V21.6128H160.597V24.3301H166.852ZM170.543 21.752V26H168.485V19.8477C168.485 19.4229 168.478 19.0762 168.463 18.8076C168.453 18.5342 168.441 18.29 168.426 18.0752H170.389C170.399 18.1338 170.411 18.2729 170.426 18.4927C170.44 18.7075 170.453 18.9297 170.462 19.1592C170.477 19.3838 170.484 19.5474 170.484 19.6499H170.514C170.792 19.0444 171.141 18.605 171.561 18.3315C171.981 18.0581 172.481 17.9214 173.062 17.9214C173.902 17.9214 174.547 18.1802 174.996 18.6978C175.445 19.2153 175.67 19.9722 175.67 20.9683V26H173.619V21.5542C173.619 20.856 173.502 20.3335 173.268 19.9868C173.033 19.6401 172.679 19.4668 172.206 19.4668C171.708 19.4668 171.305 19.6816 170.997 20.1113C170.694 20.5361 170.543 21.083 170.543 21.752ZM181.419 25.8828C180.921 26.0488 180.343 26.1318 179.684 26.1318C179.078 26.1318 178.612 25.9683 178.285 25.6411C177.958 25.3091 177.794 24.8086 177.794 24.1396V19.4668H176.791V18.0752H177.896L178.541 16.2148H179.83V18.0752H181.332V19.4668H179.83V23.583C179.83 23.9688 179.903 24.2544 180.05 24.4399C180.196 24.6206 180.423 24.7109 180.731 24.7109C180.877 24.7109 181.107 24.6768 181.419 24.6084V25.8828ZM184.349 22.4331C184.349 23.2046 184.491 23.7881 184.774 24.1836C185.062 24.5742 185.47 24.7695 185.997 24.7695C186.358 24.7695 186.654 24.6914 186.883 24.5352C187.118 24.374 187.281 24.1372 187.374 23.8247L189.315 23.9932C188.753 25.4287 187.613 26.1465 185.895 26.1465C184.703 26.1465 183.788 25.7949 183.148 25.0918C182.508 24.3838 182.188 23.3535 182.188 22.001C182.188 20.6924 182.513 19.6865 183.163 18.9834C183.812 18.2803 184.732 17.9287 185.924 17.9287C187.062 17.9287 187.931 18.3071 188.531 19.064C189.132 19.8159 189.432 20.9194 189.432 22.3745V22.4331H184.349ZM187.44 21.144C187.401 20.5044 187.247 20.0259 186.979 19.7085C186.71 19.3862 186.349 19.2251 185.895 19.2251C185.411 19.2251 185.038 19.3936 184.774 19.7305C184.515 20.0674 184.378 20.5386 184.364 21.144H187.44ZM193.058 22.1108V26H191V19.9355C191 19.501 190.992 19.1396 190.978 18.8516C190.968 18.5586 190.956 18.2998 190.941 18.0752H192.904C192.914 18.1191 192.923 18.2168 192.933 18.3682C192.943 18.5195 192.953 18.6904 192.962 18.8809C192.972 19.0664 192.979 19.2422 192.984 19.4082C192.994 19.5742 192.999 19.6938 192.999 19.7671H193.028C193.224 19.2202 193.402 18.8271 193.563 18.5879C193.719 18.3584 193.905 18.1899 194.12 18.0825C194.334 17.9751 194.603 17.9214 194.925 17.9214C195.189 17.9214 195.401 17.958 195.562 18.0312V19.7524C195.235 19.6792 194.942 19.6426 194.684 19.6426C194.171 19.6426 193.771 19.8501 193.482 20.2651C193.199 20.6802 193.058 21.2954 193.058 22.1108ZM198.902 15.1309V16.647H196.844V15.1309H198.902ZM198.902 18.0752V26H196.844V18.0752H198.902ZM203.077 21.752V26H201.019V19.8477C201.019 19.4229 201.012 19.0762 200.997 18.8076C200.987 18.5342 200.975 18.29 200.96 18.0752H202.923C202.933 18.1338 202.945 18.2729 202.96 18.4927C202.975 18.7075 202.987 18.9297 202.997 19.1592C203.011 19.3838 203.019 19.5474 203.019 19.6499H203.048C203.326 19.0444 203.675 18.605 204.095 18.3315C204.515 18.0581 205.016 17.9214 205.597 17.9214C206.437 17.9214 207.081 18.1802 207.53 18.6978C207.979 19.2153 208.204 19.9722 208.204 20.9683V26H206.153V21.5542C206.153 20.856 206.036 20.3335 205.802 19.9868C205.567 19.6401 205.213 19.4668 204.74 19.4668C204.242 19.4668 203.839 19.6816 203.531 20.1113C203.229 20.5361 203.077 21.083 203.077 21.752ZM213.507 29.1787C212.54 29.1787 211.761 28.9932 211.17 28.6221C210.584 28.2559 210.223 27.731 210.086 27.0474L212.145 26.8057C212.218 27.123 212.374 27.3721 212.613 27.5527C212.857 27.7334 213.175 27.8237 213.565 27.8237C214.137 27.8237 214.554 27.6479 214.818 27.2964C215.082 26.9448 215.213 26.4224 215.213 25.729L215.228 24.5278H215.213C214.989 25.0161 214.664 25.3823 214.239 25.6265C213.814 25.8657 213.29 25.9854 212.665 25.9854C211.742 25.9854 211.026 25.6387 210.519 24.9453C210.011 24.252 209.757 23.2607 209.757 21.9717C209.757 20.6777 210.018 19.6792 210.541 18.9761C211.063 18.2729 211.822 17.9214 212.818 17.9214C213.395 17.9214 213.88 18.041 214.276 18.2803C214.676 18.5146 214.989 18.8711 215.213 19.3496H215.25C215.25 19.2324 215.255 19.0859 215.265 18.9102C215.274 18.7344 215.287 18.5659 215.301 18.4048C215.321 18.2437 215.338 18.1338 215.353 18.0752H217.301C217.271 18.6025 217.257 19.2129 217.257 19.9062V25.7583C217.257 26.8862 216.937 27.7383 216.297 28.3145C215.658 28.8906 214.728 29.1787 213.507 29.1787ZM215.228 21.9277C215.228 21.1123 215.082 20.4775 214.789 20.0234C214.5 19.5645 214.088 19.335 213.551 19.335C213.004 19.335 212.591 19.5547 212.313 19.9941C212.04 20.4336 211.903 21.0928 211.903 21.9717C211.903 22.8311 212.037 23.478 212.306 23.9126C212.579 24.3423 212.989 24.5571 213.536 24.5571C214.083 24.5571 214.5 24.3301 214.789 23.876C215.082 23.417 215.228 22.7676 215.228 21.9277ZM233.524 20.7925C233.524 21.8667 233.307 22.8066 232.872 23.6123C232.442 24.4131 231.834 25.0356 231.048 25.48C230.267 25.9243 229.349 26.1465 228.294 26.1465C227.215 26.1465 226.288 25.9316 225.511 25.502C224.735 25.0674 224.139 24.4497 223.724 23.6489C223.309 22.8481 223.102 21.896 223.102 20.7925C223.102 19.689 223.307 18.7441 223.717 17.958C224.132 17.1719 224.728 16.5713 225.504 16.1562C226.285 15.7363 227.22 15.5264 228.309 15.5264C229.403 15.5264 230.338 15.7388 231.114 16.1636C231.891 16.5835 232.486 17.1865 232.901 17.9727C233.316 18.7588 233.524 19.6987 233.524 20.7925ZM231.319 20.7925C231.319 19.6792 231.056 18.8076 230.528 18.1777C230.001 17.543 229.261 17.2256 228.309 17.2256C227.342 17.2256 226.595 17.5405 226.068 18.1704C225.541 18.7954 225.277 19.6694 225.277 20.7925C225.277 21.5444 225.399 22.1938 225.643 22.7407C225.887 23.2876 226.234 23.71 226.683 24.0078C227.137 24.3008 227.674 24.4473 228.294 24.4473C229.261 24.4473 230.006 24.1299 230.528 23.4951C231.056 22.8604 231.319 21.9595 231.319 20.7925ZM237.267 21.752V26H235.208V19.8477C235.208 19.4229 235.201 19.0762 235.187 18.8076C235.177 18.5342 235.165 18.29 235.15 18.0752H237.113C237.123 18.1338 237.135 18.2729 237.149 18.4927C237.164 18.7075 237.176 18.9297 237.186 19.1592C237.201 19.3838 237.208 19.5474 237.208 19.6499H237.237C237.516 19.0444 237.865 18.605 238.285 18.3315C238.705 18.0581 239.205 17.9214 239.786 17.9214C240.626 17.9214 241.271 18.1802 241.72 18.6978C242.169 19.2153 242.394 19.9722 242.394 20.9683V26H240.343V21.5542C240.343 20.856 240.226 20.3335 239.991 19.9868C239.757 19.6401 239.403 19.4668 238.929 19.4668C238.431 19.4668 238.028 19.6816 237.721 20.1113C237.418 20.5361 237.267 21.083 237.267 21.752ZM246.078 22.4331C246.078 23.2046 246.219 23.7881 246.502 24.1836C246.791 24.5742 247.198 24.7695 247.726 24.7695C248.087 24.7695 248.382 24.6914 248.612 24.5352C248.846 24.374 249.01 24.1372 249.103 23.8247L251.043 23.9932C250.482 25.4287 249.342 26.1465 247.623 26.1465C246.432 26.1465 245.516 25.7949 244.876 25.0918C244.237 24.3838 243.917 23.3535 243.917 22.001C243.917 20.6924 244.242 19.6865 244.891 18.9834C245.541 18.2803 246.461 17.9287 247.652 17.9287C248.79 17.9287 249.659 18.3071 250.26 19.064C250.86 19.8159 251.161 20.9194 251.161 22.3745V22.4331H246.078ZM249.168 21.144C249.129 20.5044 248.976 20.0259 248.707 19.7085C248.438 19.3862 248.077 19.2251 247.623 19.2251C247.14 19.2251 246.766 19.3936 246.502 19.7305C246.244 20.0674 246.107 20.5386 246.092 21.144H249.168ZM259.02 22.0815V26H256.859V15.6802H262.015C263.246 15.6802 264.195 15.9463 264.864 16.4785C265.533 17.0059 265.868 17.7651 265.868 18.7563C265.868 19.479 265.663 20.104 265.252 20.6313C264.842 21.1538 264.288 21.498 263.59 21.6641L266.38 26H263.949L261.554 22.0815H259.02ZM263.692 18.8442C263.692 18.3511 263.534 17.98 263.216 17.731C262.899 17.4819 262.423 17.3574 261.788 17.3574H259.02V20.4043H261.847C262.452 20.4043 262.911 20.2676 263.224 19.9941C263.536 19.7207 263.692 19.3374 263.692 18.8442ZM269.442 22.4331C269.442 23.2046 269.583 23.7881 269.867 24.1836C270.155 24.5742 270.562 24.7695 271.09 24.7695C271.451 24.7695 271.747 24.6914 271.976 24.5352C272.21 24.374 272.374 24.1372 272.467 23.8247L274.408 23.9932C273.846 25.4287 272.706 26.1465 270.987 26.1465C269.796 26.1465 268.88 25.7949 268.241 25.0918C267.601 24.3838 267.281 23.3535 267.281 22.001C267.281 20.6924 267.606 19.6865 268.255 18.9834C268.905 18.2803 269.825 17.9287 271.017 17.9287C272.154 17.9287 273.023 18.3071 273.624 19.064C274.225 19.8159 274.525 20.9194 274.525 22.3745V22.4331H269.442ZM272.533 21.144C272.494 20.5044 272.34 20.0259 272.071 19.7085C271.803 19.3862 271.441 19.2251 270.987 19.2251C270.504 19.2251 270.13 19.3936 269.867 19.7305C269.608 20.0674 269.471 20.5386 269.457 21.144H272.533ZM283.592 22.0083C283.592 23.3169 283.329 24.335 282.801 25.0625C282.279 25.7852 281.529 26.1465 280.553 26.1465C279.991 26.1465 279.505 26.0244 279.095 25.7803C278.685 25.5361 278.37 25.1846 278.15 24.7256H278.136C278.136 24.8379 278.131 24.9844 278.121 25.165C278.111 25.3457 278.099 25.5166 278.084 25.6777C278.07 25.834 278.053 25.9414 278.033 26H276.034C276.053 25.7705 276.068 25.5068 276.078 25.209C276.087 24.9062 276.092 24.5669 276.092 24.1909V15.1309H278.15V18.1631C278.15 18.3779 278.146 18.5928 278.136 18.8076C278.131 19.0225 278.126 19.2373 278.121 19.4521H278.15C278.38 18.9443 278.707 18.5635 279.132 18.3096C279.557 18.0557 280.074 17.9287 280.685 17.9287C281.622 17.9287 282.34 18.2852 282.838 18.998C283.341 19.7061 283.592 20.7095 283.592 22.0083ZM281.446 22.0083C281.446 21.1099 281.314 20.4434 281.051 20.0088C280.787 19.5742 280.379 19.3569 279.828 19.3569C279.271 19.3569 278.846 19.5913 278.553 20.0601C278.265 20.5239 278.121 21.1953 278.121 22.0742C278.121 22.9141 278.263 23.5684 278.546 24.0371C278.834 24.5059 279.256 24.7402 279.813 24.7402C280.36 24.7402 280.768 24.5132 281.036 24.0591C281.31 23.605 281.446 22.9214 281.446 22.0083ZM287.093 26.1465C286.327 26.1465 285.729 25.939 285.299 25.5239C284.869 25.104 284.654 24.5156 284.654 23.7588C284.654 22.9385 284.92 22.3159 285.453 21.8911C285.99 21.4663 286.766 21.2441 287.782 21.2246L289.488 21.1953V20.7925C289.488 20.2749 289.398 19.8916 289.217 19.6426C289.037 19.3887 288.741 19.2617 288.331 19.2617C287.95 19.2617 287.669 19.3496 287.489 19.5254C287.313 19.6963 287.203 19.9819 287.159 20.3823L285.013 20.2798C285.282 18.7124 286.417 17.9287 288.419 17.9287C289.42 17.9287 290.191 18.1753 290.733 18.6685C291.275 19.1616 291.546 19.8623 291.546 20.7705V23.6562C291.546 24.1006 291.595 24.4082 291.693 24.5791C291.795 24.7451 291.964 24.8281 292.198 24.8281C292.354 24.8281 292.506 24.8135 292.652 24.7842V25.8975C292.398 25.9609 292.181 26.0073 292 26.0366C291.82 26.0708 291.598 26.0879 291.334 26.0879C290.816 26.0879 290.433 25.9609 290.184 25.707C289.94 25.4531 289.793 25.0796 289.745 24.5864H289.701C289.413 25.104 289.051 25.4946 288.617 25.7583C288.182 26.0171 287.674 26.1465 287.093 26.1465ZM289.488 22.3306L288.434 22.3452C287.95 22.3696 287.611 22.4209 287.416 22.499C287.215 22.5869 287.062 22.7188 286.954 22.8945C286.852 23.0703 286.8 23.3047 286.8 23.5977C286.8 23.9736 286.886 24.2544 287.057 24.4399C287.232 24.6206 287.464 24.7109 287.752 24.7109C288.075 24.7109 288.37 24.623 288.639 24.4473C288.902 24.2715 289.11 24.0298 289.261 23.7222C289.413 23.4097 289.488 23.0801 289.488 22.7334V22.3306ZM295.67 22.1108V26H293.612V19.9355C293.612 19.501 293.604 19.1396 293.59 18.8516C293.58 18.5586 293.568 18.2998 293.553 18.0752H295.516C295.526 18.1191 295.536 18.2168 295.545 18.3682C295.555 18.5195 295.565 18.6904 295.575 18.8809C295.584 19.0664 295.592 19.2422 295.597 19.4082C295.606 19.5742 295.611 19.6938 295.611 19.7671H295.641C295.836 19.2202 296.014 18.8271 296.175 18.5879C296.332 18.3584 296.517 18.1899 296.732 18.0825C296.947 17.9751 297.215 17.9214 297.538 17.9214C297.801 17.9214 298.014 17.958 298.175 18.0312V19.7524C297.848 19.6792 297.555 19.6426 297.296 19.6426C296.783 19.6426 296.383 19.8501 296.095 20.2651C295.812 20.6802 295.67 21.2954 295.67 22.1108ZM312.003 23.0264C312.003 24.0371 311.627 24.811 310.875 25.3481C310.128 25.8804 309.029 26.1465 307.579 26.1465C304.967 26.1465 303.446 25.2017 303.016 23.312L305.104 22.9678C305.245 23.5146 305.521 23.9126 305.931 24.1616C306.341 24.4058 306.91 24.5278 307.638 24.5278C308.395 24.5278 308.961 24.4131 309.337 24.1836C309.713 23.9541 309.901 23.6099 309.901 23.1509C309.901 22.8579 309.815 22.6162 309.645 22.4258C309.474 22.2354 309.229 22.0767 308.912 21.9497C308.756 21.8862 308.526 21.8179 308.224 21.7446C307.921 21.6665 307.545 21.5811 307.096 21.4883C306.578 21.3662 306.173 21.2637 305.88 21.1807C305.587 21.0928 305.353 21.0098 305.177 20.9316C305.001 20.8486 304.83 20.7583 304.664 20.6606C304.298 20.4409 304.012 20.1479 303.807 19.7817C303.602 19.4155 303.5 18.959 303.5 18.4121C303.5 17.4795 303.849 16.7666 304.547 16.2734C305.25 15.7754 306.271 15.5264 307.608 15.5264C308.888 15.5264 309.847 15.7266 310.487 16.127C311.131 16.5273 311.546 17.189 311.732 18.1118L309.637 18.3975C309.53 17.9531 309.31 17.6187 308.978 17.394C308.651 17.1694 308.18 17.0571 307.564 17.0571C306.91 17.0571 306.419 17.1597 306.092 17.3647C305.765 17.5698 305.602 17.8774 305.602 18.2876C305.602 18.5562 305.67 18.7759 305.807 18.9468C305.948 19.1177 306.156 19.2642 306.429 19.3862C306.688 19.5034 307.242 19.6523 308.092 19.833C308.585 19.9404 309.01 20.043 309.366 20.1406C309.723 20.2334 310.008 20.3237 310.223 20.4116C310.438 20.5044 310.628 20.6021 310.794 20.7046C310.965 20.8071 311.112 20.917 311.234 21.0342C311.483 21.2734 311.673 21.5591 311.805 21.8911C311.937 22.2183 312.003 22.5967 312.003 23.0264ZM315.694 15.1309V16.647H313.636V15.1309H315.694ZM315.694 18.0752V26H313.636V18.0752H315.694ZM323.722 24.4985V26H317.364V24.5425L321.092 19.562H317.665V18.0752H323.363V19.5474L319.657 24.4985H323.722ZM327.01 22.4331C327.01 23.2046 327.152 23.7881 327.435 24.1836C327.723 24.5742 328.131 24.7695 328.658 24.7695C329.02 24.7695 329.315 24.6914 329.544 24.5352C329.779 24.374 329.942 24.1372 330.035 23.8247L331.976 23.9932C331.415 25.4287 330.274 26.1465 328.556 26.1465C327.364 26.1465 326.449 25.7949 325.809 25.0918C325.169 24.3838 324.85 23.3535 324.85 22.001C324.85 20.6924 325.174 19.6865 325.824 18.9834C326.473 18.2803 327.394 17.9287 328.585 17.9287C329.723 17.9287 330.592 18.3071 331.192 19.064C331.793 19.8159 332.093 20.9194 332.093 22.3745V22.4331H327.01ZM330.101 21.144C330.062 20.5044 329.908 20.0259 329.64 19.7085C329.371 19.3862 329.01 19.2251 328.556 19.2251C328.072 19.2251 327.699 19.3936 327.435 19.7305C327.176 20.0674 327.04 20.5386 327.025 21.144H330.101Z" fill="#1F2937"/>
<path d="M281.672 79.3359C281.672 80.2839 281.508 81.1484 281.18 81.9297C280.846 82.7109 280.388 83.3229 279.805 83.7656C279.221 84.2031 278.591 84.4219 277.914 84.4219C277.435 84.4219 277.065 84.3047 276.805 84.0703C276.549 83.8307 276.422 83.5 276.422 83.0781C276.422 82.9792 276.424 82.888 276.43 82.8047C276.44 82.7161 276.453 82.6328 276.469 82.5547H276.422C276.161 83.1016 275.773 83.5495 275.258 83.8984C274.747 84.2474 274.224 84.4219 273.688 84.4219C272.87 84.4219 272.234 84.1589 271.781 83.6328C271.333 83.1016 271.109 82.362 271.109 81.4141C271.109 80.5703 271.279 79.7734 271.617 79.0234C271.956 78.2786 272.422 77.6953 273.016 77.2734C273.609 76.8464 274.276 76.6328 275.016 76.6328C276.031 76.6328 276.719 77.0859 277.078 77.9922H277.125L277.43 76.8047H278.648L277.734 80.7578C277.542 81.6432 277.445 82.2682 277.445 82.6328C277.445 82.8932 277.505 83.0781 277.625 83.1875C277.75 83.2969 277.893 83.3516 278.055 83.3516C278.471 83.3516 278.87 83.1693 279.25 82.8047C279.63 82.4453 279.93 81.9635 280.148 81.3594C280.372 80.75 280.484 80.0807 280.484 79.3516C280.484 78.4349 280.286 77.6276 279.891 76.9297C279.495 76.2318 278.919 75.6927 278.164 75.3125C277.414 74.9323 276.542 74.7422 275.547 74.7422C274.297 74.7422 273.195 75.0156 272.242 75.5625C271.289 76.1094 270.539 76.8984 269.992 77.9297C269.451 78.9609 269.18 80.1172 269.18 81.3984C269.18 82.4089 269.388 83.2995 269.805 84.0703C270.221 84.8411 270.802 85.4219 271.547 85.8125C272.297 86.2083 273.177 86.4062 274.188 86.4062C274.953 86.4062 275.719 86.3047 276.484 86.1016C277.25 85.8984 278.018 85.5964 278.789 85.1953L279.273 86.1484C278.398 86.6432 277.542 86.9974 276.703 87.2109C275.87 87.4245 275.013 87.5312 274.133 87.5312C272.904 87.5312 271.823 87.2812 270.891 86.7812C269.953 86.2865 269.221 85.5703 268.695 84.6328C268.174 83.6901 267.914 82.612 267.914 81.3984C267.914 79.9245 268.245 78.5911 268.906 77.3984C269.562 76.2057 270.471 75.2812 271.633 74.625C272.794 73.9688 274.094 73.6406 275.531 73.6406C276.797 73.6406 277.893 73.875 278.82 74.3438C279.747 74.8177 280.453 75.4844 280.938 76.3438C281.427 77.2031 281.672 78.2005 281.672 79.3359ZM276.617 79.3672C276.617 78.8724 276.461 78.4688 276.148 78.1562C275.841 77.8438 275.443 77.6875 274.953 77.6875C274.464 77.6875 274.026 77.849 273.641 78.1719C273.25 78.5 272.945 78.9635 272.727 79.5625C272.513 80.1562 272.406 80.7682 272.406 81.3984C272.406 81.9922 272.531 82.4609 272.781 82.8047C273.036 83.1484 273.424 83.3203 273.945 83.3203C274.289 83.3203 274.622 83.2109 274.945 82.9922C275.273 82.7682 275.565 82.4505 275.82 82.0391C275.992 81.763 276.135 81.4583 276.25 81.125C276.37 80.7865 276.461 80.4609 276.523 80.1484C276.586 79.8359 276.617 79.5755 276.617 79.3672Z" fill="#1F2937"/>
<rect x="96.5" y="68.5" width="76" height="27" rx="3.5" fill="white"/>
<rect x="96.5" y="68.5" width="76" height="27" rx="3.5" stroke="#1E2429"/>
<path d="M118.695 83.6094L118.203 86H117.559L118.051 83.6094H116.873V82.9766H118.191L118.648 80.8145H117.172V80.1816H118.777L119.299 77.791H119.943L119.428 80.1816H121.555L122.07 77.791H122.715L122.199 80.1816H123.436V80.8145H122.07L121.613 82.9766H123.137V83.6094H121.479L120.963 86H120.318L120.822 83.6094H118.695ZM118.842 82.9766H120.963L121.42 80.8145H119.311L118.842 82.9766ZM128.662 84.1309V86H127.666V84.1309H123.775V83.3105L127.555 77.7441H128.662V83.2988H129.822V84.1309H128.662ZM124.748 83.2988H127.666V80.0059C127.666 79.8262 127.666 79.6484 127.666 79.4727C127.67 79.293 127.678 79.1133 127.689 78.9336C127.6 79.1055 127.521 79.2461 127.455 79.3555C127.389 79.4609 127.328 79.5527 127.273 79.6309L124.748 83.2988Z" fill="#BD2218"/>
<path d="M154.996 82.1323L152.53 79.6667L151.434 80.7634L154.996 84.3334L158.566 80.7634L157.461 79.6667L154.996 82.1323Z" fill="#8F8F8F"/>
<path d="M226.695 275.609L226.203 278H225.559L226.051 275.609H224.873V274.977H226.191L226.648 272.814H225.172V272.182H226.777L227.299 269.791H227.943L227.428 272.182H229.555L230.07 269.791H230.715L230.199 272.182H231.436V272.814H230.07L229.613 274.977H231.137V275.609H229.479L228.963 278H228.318L228.822 275.609H226.695ZM226.842 274.977H228.963L229.42 272.814H227.311L226.842 274.977ZM236.662 276.131V278H235.666V276.131H231.775V275.311L235.555 269.744H236.662V275.299H237.822V276.131H236.662ZM232.748 275.299H235.666V272.006C235.666 271.826 235.666 271.648 235.666 271.473C235.67 271.293 235.678 271.113 235.689 270.934C235.6 271.105 235.521 271.246 235.455 271.355C235.389 271.461 235.328 271.553 235.273 271.631L232.748 275.299Z" fill="#BD2218"/>
<rect x="183.5" y="68.5" width="76" height="27" rx="3.5" fill="white"/>
<rect x="183.5" y="68.5" width="76" height="27" rx="3.5" stroke="#1E2429"/>
<path d="M198.125 80.5156V86H197.129V77.7441H198.43L202.895 84.8223C202.848 84.0527 202.824 83.498 202.824 83.1582V77.7441H203.832V86H202.484L198.066 78.9688C198.074 79.2266 198.086 79.4844 198.102 79.7422C198.117 80 198.125 80.2578 198.125 80.5156ZM210.986 82.8242C210.986 83.9336 210.742 84.7598 210.254 85.3027C209.766 85.8457 209.057 86.1172 208.127 86.1172C207.201 86.1172 206.502 85.8359 206.029 85.2734C205.557 84.707 205.32 83.8906 205.32 82.8242C205.32 81.7305 205.557 80.9102 206.029 80.3633C206.506 79.8164 207.217 79.543 208.162 79.543C209.131 79.543 209.844 79.8105 210.301 80.3457C210.758 80.877 210.986 81.7031 210.986 82.8242ZM209.879 82.8242C209.879 81.9492 209.748 81.3145 209.486 80.9199C209.229 80.5215 208.793 80.3223 208.18 80.3223C207.562 80.3223 207.115 80.5254 206.838 80.9316C206.564 81.334 206.428 81.9648 206.428 82.8242C206.428 83.6602 206.562 84.2891 206.832 84.7109C207.105 85.1289 207.533 85.3379 208.115 85.3379C208.748 85.3379 209.199 85.1348 209.469 84.7285C209.742 84.3223 209.879 83.6875 209.879 82.8242ZM213.383 82.3262V86H212.328V81.0137C212.328 80.6426 212.324 80.3457 212.316 80.123C212.312 79.8965 212.305 79.7422 212.293 79.6602H213.289C213.297 79.7344 213.303 79.8281 213.307 79.9414C213.314 80.0547 213.32 80.1797 213.324 80.3164C213.328 80.4531 213.332 80.5957 213.336 80.7441H213.354C213.596 80.3066 213.875 79.998 214.191 79.8184C214.512 79.6348 214.908 79.543 215.381 79.543C216.076 79.543 216.584 79.7207 216.904 80.0762C217.229 80.4316 217.391 80.998 217.391 81.7754V86H216.33V81.9805C216.33 81.375 216.232 80.9531 216.037 80.7148C215.842 80.4766 215.504 80.3574 215.023 80.3574C214.516 80.3574 214.115 80.5312 213.822 80.8789C213.529 81.2266 213.383 81.709 213.383 82.3262ZM219.793 83.0527C219.793 83.7793 219.943 84.3398 220.244 84.7344C220.545 85.1289 220.984 85.3262 221.562 85.3262C222.02 85.3262 222.385 85.2344 222.658 85.0508C222.936 84.8672 223.123 84.6348 223.221 84.3535L224.146 84.6172C223.768 85.6172 222.906 86.1172 221.562 86.1172C220.625 86.1172 219.91 85.8379 219.418 85.2793C218.93 84.7207 218.686 83.8906 218.686 82.7891C218.686 81.7422 218.93 80.9395 219.418 80.3809C219.91 79.8223 220.611 79.543 221.521 79.543C222.455 79.543 223.154 79.8242 223.619 80.3867C224.084 80.9492 224.316 81.791 224.316 82.9121V83.0527H219.793ZM223.227 82.2441C223.168 81.5762 222.998 81.0898 222.717 80.7852C222.436 80.4766 222.031 80.3223 221.504 80.3223C220.992 80.3223 220.586 80.4941 220.285 80.8379C219.988 81.1777 219.828 81.6465 219.805 82.2441H223.227Z" fill="#4B5563"/>
<path d="M241.996 82.1323L239.53 79.6667L238.434 80.7634L241.996 84.3334L245.566 80.7634L244.461 79.6667L241.996 82.1323Z" fill="#8F8F8F"/>
<rect x="298.5" y="68.5" width="76" height="27" rx="3.5" fill="white"/>
<rect x="298.5" y="68.5" width="76" height="27" rx="3.5" stroke="#1E2429"/>
<path d="M332.568 85.1035V86H327.395V85.1035H329.498V78.752L327.635 80.082V79.0859L329.586 77.7441H330.559V85.1035H332.568ZM339.365 81.8691C339.365 83.248 339.121 84.3008 338.633 85.0273C338.148 85.7539 337.432 86.1172 336.482 86.1172C335.533 86.1172 334.82 85.7559 334.344 85.0332C333.867 84.3105 333.629 83.2559 333.629 81.8691C333.629 80.4512 333.859 79.3887 334.32 78.6816C334.785 77.9746 335.518 77.6211 336.518 77.6211C337.49 77.6211 338.207 77.9785 338.668 78.6934C339.133 79.4082 339.365 80.4668 339.365 81.8691ZM338.293 81.8691C338.293 81.0723 338.232 80.4258 338.111 79.9297C337.994 79.4297 337.805 79.0625 337.543 78.8281C337.281 78.5938 336.939 78.4766 336.518 78.4766C336.088 78.4766 335.738 78.5918 335.469 78.8223C335.199 79.0527 335.002 79.418 334.877 79.918C334.756 80.4141 334.695 81.0645 334.695 81.8691C334.695 82.6504 334.758 83.291 334.883 83.791C335.012 84.291 335.209 84.6602 335.475 84.8984C335.74 85.1367 336.08 85.2559 336.494 85.2559C337.115 85.2559 337.57 84.9785 337.859 84.4238C338.148 83.8691 338.293 83.0176 338.293 81.8691ZM346.045 81.8691C346.045 83.248 345.801 84.3008 345.312 85.0273C344.828 85.7539 344.111 86.1172 343.162 86.1172C342.213 86.1172 341.5 85.7559 341.023 85.0332C340.547 84.3105 340.309 83.2559 340.309 81.8691C340.309 80.4512 340.539 79.3887 341 78.6816C341.465 77.9746 342.197 77.6211 343.197 77.6211C344.17 77.6211 344.887 77.9785 345.348 78.6934C345.812 79.4082 346.045 80.4668 346.045 81.8691ZM344.973 81.8691C344.973 81.0723 344.912 80.4258 344.791 79.9297C344.674 79.4297 344.484 79.0625 344.223 78.8281C343.961 78.5938 343.619 78.4766 343.197 78.4766C342.768 78.4766 342.418 78.5918 342.148 78.8223C341.879 79.0527 341.682 79.418 341.557 79.918C341.436 80.4141 341.375 81.0645 341.375 81.8691C341.375 82.6504 341.438 83.291 341.562 83.791C341.691 84.291 341.889 84.6602 342.154 84.8984C342.42 85.1367 342.76 85.2559 343.174 85.2559C343.795 85.2559 344.25 84.9785 344.539 84.4238C344.828 83.8691 344.973 83.0176 344.973 81.8691Z" fill="#2E7DEA"/>
<path d="M121.568 125.104V126H116.395V125.104H118.498V118.752L116.635 120.082V119.086L118.586 117.744H119.559V125.104H121.568ZM128.365 121.869C128.365 123.248 128.121 124.301 127.633 125.027C127.148 125.754 126.432 126.117 125.482 126.117C124.533 126.117 123.82 125.756 123.344 125.033C122.867 124.311 122.629 123.256 122.629 121.869C122.629 120.451 122.859 119.389 123.32 118.682C123.785 117.975 124.518 117.621 125.518 117.621C126.49 117.621 127.207 117.979 127.668 118.693C128.133 119.408 128.365 120.467 128.365 121.869ZM127.293 121.869C127.293 121.072 127.232 120.426 127.111 119.93C126.994 119.43 126.805 119.062 126.543 118.828C126.281 118.594 125.939 118.477 125.518 118.477C125.088 118.477 124.738 118.592 124.469 118.822C124.199 119.053 124.002 119.418 123.877 119.918C123.756 120.414 123.695 121.064 123.695 121.869C123.695 122.65 123.758 123.291 123.883 123.791C124.012 124.291 124.209 124.66 124.475 124.898C124.74 125.137 125.08 125.256 125.494 125.256C126.115 125.256 126.57 124.979 126.859 124.424C127.148 123.869 127.293 123.018 127.293 121.869ZM135.045 121.869C135.045 123.248 134.801 124.301 134.312 125.027C133.828 125.754 133.111 126.117 132.162 126.117C131.213 126.117 130.5 125.756 130.023 125.033C129.547 124.311 129.309 123.256 129.309 121.869C129.309 120.451 129.539 119.389 130 118.682C130.465 117.975 131.197 117.621 132.197 117.621C133.17 117.621 133.887 117.979 134.348 118.693C134.812 119.408 135.045 120.467 135.045 121.869ZM133.973 121.869C133.973 121.072 133.912 120.426 133.791 119.93C133.674 119.43 133.484 119.062 133.223 118.828C132.961 118.594 132.619 118.477 132.197 118.477C131.768 118.477 131.418 118.592 131.148 118.822C130.879 119.053 130.682 119.418 130.557 119.918C130.436 120.414 130.375 121.064 130.375 121.869C130.375 122.65 130.438 123.291 130.562 123.791C130.691 124.291 130.889 124.66 131.154 124.898C131.42 125.137 131.76 125.256 132.174 125.256C132.795 125.256 133.25 124.979 133.539 124.424C133.828 123.869 133.973 123.018 133.973 121.869Z" fill="#2E7DEA"/>
<path d="M229.568 125.104V126H224.395V125.104H226.498V118.752L224.635 120.082V119.086L226.586 117.744H227.559V125.104H229.568ZM236.365 121.869C236.365 123.248 236.121 124.301 235.633 125.027C235.148 125.754 234.432 126.117 233.482 126.117C232.533 126.117 231.82 125.756 231.344 125.033C230.867 124.311 230.629 123.256 230.629 121.869C230.629 120.451 230.859 119.389 231.32 118.682C231.785 117.975 232.518 117.621 233.518 117.621C234.49 117.621 235.207 117.979 235.668 118.693C236.133 119.408 236.365 120.467 236.365 121.869ZM235.293 121.869C235.293 121.072 235.232 120.426 235.111 119.93C234.994 119.43 234.805 119.062 234.543 118.828C234.281 118.594 233.939 118.477 233.518 118.477C233.088 118.477 232.738 118.592 232.469 118.822C232.199 119.053 232.002 119.418 231.877 119.918C231.756 120.414 231.695 121.064 231.695 121.869C231.695 122.65 231.758 123.291 231.883 123.791C232.012 124.291 232.209 124.66 232.475 124.898C232.74 125.137 233.08 125.256 233.494 125.256C234.115 125.256 234.57 124.979 234.859 124.424C235.148 123.869 235.293 123.018 235.293 121.869ZM243.045 121.869C243.045 123.248 242.801 124.301 242.312 125.027C241.828 125.754 241.111 126.117 240.162 126.117C239.213 126.117 238.5 125.756 238.023 125.033C237.547 124.311 237.309 123.256 237.309 121.869C237.309 120.451 237.539 119.389 238 118.682C238.465 117.975 239.197 117.621 240.197 117.621C241.17 117.621 241.887 117.979 242.348 118.693C242.812 119.408 243.045 120.467 243.045 121.869ZM241.973 121.869C241.973 121.072 241.912 120.426 241.791 119.93C241.674 119.43 241.484 119.062 241.223 118.828C240.961 118.594 240.619 118.477 240.197 118.477C239.768 118.477 239.418 118.592 239.148 118.822C238.879 119.053 238.682 119.418 238.557 119.918C238.436 120.414 238.375 121.064 238.375 121.869C238.375 122.65 238.438 123.291 238.562 123.791C238.691 124.291 238.889 124.66 239.154 124.898C239.42 125.137 239.76 125.256 240.174 125.256C240.795 125.256 241.25 124.979 241.539 124.424C241.828 123.869 241.973 123.018 241.973 121.869Z" fill="#2E7DEA"/>
<path d="M329.568 125.104V126H324.395V125.104H326.498V118.752L324.635 120.082V119.086L326.586 117.744H327.559V125.104H329.568ZM336.365 121.869C336.365 123.248 336.121 124.301 335.633 125.027C335.148 125.754 334.432 126.117 333.482 126.117C332.533 126.117 331.82 125.756 331.344 125.033C330.867 124.311 330.629 123.256 330.629 121.869C330.629 120.451 330.859 119.389 331.32 118.682C331.785 117.975 332.518 117.621 333.518 117.621C334.49 117.621 335.207 117.979 335.668 118.693C336.133 119.408 336.365 120.467 336.365 121.869ZM335.293 121.869C335.293 121.072 335.232 120.426 335.111 119.93C334.994 119.43 334.805 119.062 334.543 118.828C334.281 118.594 333.939 118.477 333.518 118.477C333.088 118.477 332.738 118.592 332.469 118.822C332.199 119.053 332.002 119.418 331.877 119.918C331.756 120.414 331.695 121.064 331.695 121.869C331.695 122.65 331.758 123.291 331.883 123.791C332.012 124.291 332.209 124.66 332.475 124.898C332.74 125.137 333.08 125.256 333.494 125.256C334.115 125.256 334.57 124.979 334.859 124.424C335.148 123.869 335.293 123.018 335.293 121.869ZM343.045 121.869C343.045 123.248 342.801 124.301 342.312 125.027C341.828 125.754 341.111 126.117 340.162 126.117C339.213 126.117 338.5 125.756 338.023 125.033C337.547 124.311 337.309 123.256 337.309 121.869C337.309 120.451 337.539 119.389 338 118.682C338.465 117.975 339.197 117.621 340.197 117.621C341.17 117.621 341.887 117.979 342.348 118.693C342.812 119.408 343.045 120.467 343.045 121.869ZM341.973 121.869C341.973 121.072 341.912 120.426 341.791 119.93C341.674 119.43 341.484 119.062 341.223 118.828C340.961 118.594 340.619 118.477 340.197 118.477C339.768 118.477 339.418 118.592 339.148 118.822C338.879 119.053 338.682 119.418 338.557 119.918C338.436 120.414 338.375 121.064 338.375 121.869C338.375 122.65 338.438 123.291 338.562 123.791C338.691 124.291 338.889 124.66 339.154 124.898C339.42 125.137 339.76 125.256 340.174 125.256C340.795 125.256 341.25 124.979 341.539 124.424C341.828 123.869 341.973 123.018 341.973 121.869Z" fill="#2E7DEA"/>
<line x1="84.5" y1="140" x2="84.5" y2="390" stroke="#7F829B" stroke-width="13"/>
<line x1="185.5" y1="140" x2="185.5" y2="390" stroke="#7F829B" stroke-width="13"/>
<line x1="284.5" y1="140" x2="284.5" y2="390" stroke="#7F829B" stroke-width="13"/>
<line x1="383.5" y1="140" x2="383.5" y2="390" stroke="#7F829B" stroke-width="13"/>
<line x1="84.5" y1="115" x2="84.5" y2="387" stroke="#7F829B"/>
<line x1="184.5" y1="115" x2="184.5" y2="390" stroke="#7F829B"/>
<line x1="384" y1="279.5" x2="87" y2="279.5" stroke="#AFB0C7"/>
<path d="M184 130L179 127.113V132.887L184 130ZM84 130L89 132.887V127.113L84 130ZM179.5 129.5H88.5V130.5H179.5V129.5Z" fill="#616161"/>
<path d="M85 130L80 127.113V132.887L85 130ZM80.5 129.5H35V130.5H80.5V129.5Z" fill="#616161"/>
<path d="M284 130L279 127.113V132.887L284 130ZM184 130L189 132.887V127.113L184 130ZM279.5 129.5H188.5V130.5H279.5V129.5Z" fill="#616161"/>
<path d="M384 130L379 127.113V132.887L384 130ZM284 130L289 132.887V127.113L284 130ZM379.5 129.5H288.5V130.5H379.5V129.5Z" fill="#616161"/>
<path d="M384 130L389 132.887V127.113L384 130ZM434 129.5H388.5V130.5H434V129.5Z" fill="#616161"/>
<line x1="284.5" y1="115" x2="284.5" y2="390" stroke="#7F829B"/>
<line x1="384.5" y1="115" x2="384.5" y2="387" stroke="#7F829B"/>
<circle cx="84.5" cy="279.5" r="2.5" fill="#AFB0C7"/>
<circle cx="383.5" cy="279.5" r="2.5" fill="#AFB0C7"/>
<circle cx="284.5" cy="279.5" r="2.5" fill="#AFB0C7"/>
<circle cx="186.5" cy="279.5" r="2.5" fill="#AFB0C7"/>
</svg>
