<svg xmlns="http://www.w3.org/2000/svg" width="28" height="28" fill="none" viewBox="0 0 28 28">
  <mask id="a" width="28" height="28" x="0" y="0" maskUnits="userSpaceOnUse" style="mask-type:alpha">
    <rect width="28" height="28" fill="#000" rx="2"/>
  </mask>
  <g mask="url(#a)">
    <rect width="28" height="28" fill="#000" rx="2"/>
    <path stroke="#004585" stroke-linecap="round" stroke-width="1.2" d="m7 21 15.588-9"/>
    <path stroke="#004585" stroke-dasharray="1.2 2.8" stroke-linecap="round" stroke-width="1.2" d="m8.5 23.598 15.588-9"/>
    <path stroke="#004585" stroke-linecap="round" stroke-width="1.2" d="m10 26.196 15.588-9"/>
    <path stroke="#1F8FF6" stroke-width="1.2" d="m9.022 4.699-2.598 1.5L4.65 4.625l3.897-2.25.475 2.324Z"/>
    <path fill="#004585" d="m12.196 7.196-.348 5.397L7 10.196 6.424 6.2l2.598-1.5 3.174 2.497Z"/>
    <path stroke="#1F8FF6" stroke-width="1.2" d="m11.848 12.593.348-5.397L9.022 4.7 6.424 6.2 7 10.196l4.848 2.397Zm0 0L9.973 9.346"/>
    <circle cx="9.598" cy="8.696" r=".75" stroke="#1F8FF6" stroke-width="1.2" transform="rotate(150 9.598 8.696)"/>
  </g>
</svg>
