<svg width="655" height="213" viewBox="0 0 655 213" fill="none" xmlns="http://www.w3.org/2000/svg">
<rect width="645" height="200" transform="translate(5 5)" fill="white"/>
<rect width="129" height="40" transform="translate(5 5)" fill="white"/>
<path d="M5 5H134V45H5V5Z" fill="#5F666B" stroke="#828282"/>
<path d="M46.541 33H38.3184V18.625H41.1016V30.6953H46.541V33ZM57.2246 28.6348H50.3691C50.4798 30.3796 51.4694 31.252 53.3379 31.252C54.4772 31.252 55.4928 30.9525 56.3848 30.3535V32.4238C55.4342 32.9772 54.2135 33.2539 52.7227 33.2539C51.1276 33.2539 49.8841 32.7917 48.9922 31.8672C48.1068 30.9427 47.6641 29.6504 47.6641 27.9902C47.6641 26.3626 48.1393 25.041 49.0898 24.0254C50.0469 23.0033 51.2415 22.4922 52.6738 22.4922C54.1061 22.4922 55.2227 22.9316 56.0234 23.8105C56.8242 24.6895 57.2246 25.8971 57.2246 27.4336V28.6348ZM54.6562 26.8477C54.6562 25.2201 53.9857 24.4062 52.6445 24.4062C52.0846 24.4062 51.5898 24.6276 51.1602 25.0703C50.737 25.513 50.4733 26.1055 50.3691 26.8477H54.6562ZM68.7871 33H66.0723V27.248C66.0723 25.4902 65.4375 24.6113 64.168 24.6113C63.5299 24.6113 63.0091 24.8522 62.6055 25.334C62.2083 25.8092 62.0098 26.4147 62.0098 27.1504V33H59.2852V22.7363H62.0098V24.3867H62.0391C62.7943 23.1237 63.9043 22.4922 65.3691 22.4922C67.6478 22.4922 68.7871 23.9017 68.7871 26.7207V33ZM81.1309 31.9355C81.1309 33.8366 80.6068 35.2917 79.5586 36.3008C78.5104 37.3164 76.9902 37.8242 74.998 37.8242C73.6439 37.8242 72.5436 37.6126 71.6973 37.1895V34.8262C72.7715 35.4447 73.849 35.7539 74.9297 35.7539C76.0365 35.7539 76.8926 35.4577 77.498 34.8652C78.11 34.2793 78.416 33.4427 78.416 32.3555V31.4473H78.377C77.6348 32.6517 76.5378 33.2539 75.0859 33.2539C73.8099 33.2539 72.7812 32.7949 72 31.877C71.2188 30.959 70.8281 29.722 70.8281 28.166C70.8281 26.4408 71.2546 25.0638 72.1074 24.0352C72.9668 23.0065 74.0964 22.4922 75.4961 22.4922C76.7656 22.4922 77.7259 22.9935 78.377 23.9961H78.416V22.7363H81.1309V31.9355ZM78.4453 27.1406C78.4453 26.444 78.2272 25.8483 77.791 25.3535C77.3548 24.8587 76.8014 24.6113 76.1309 24.6113C75.3496 24.6113 74.7279 24.9141 74.2656 25.5195C73.8099 26.125 73.582 26.9714 73.582 28.0586C73.582 28.9961 73.8001 29.7415 74.2363 30.2949C74.6725 30.8483 75.252 31.125 75.9746 31.125C76.7103 31.125 77.306 30.8483 77.7617 30.2949C78.2174 29.7415 78.4453 29.0286 78.4453 28.1562V27.1406ZM89.7441 32.8926C89.2819 33.127 88.6374 33.2441 87.8105 33.2441C85.7077 33.2441 84.6562 32.1309 84.6562 29.9043V24.8066H82.957V22.7363H84.6562V20.4414L87.3711 19.6504V22.7363H89.7441V24.8066H87.3711V29.4258C87.3711 30.5586 87.8171 31.125 88.709 31.125C89.0801 31.125 89.4251 31.0208 89.7441 30.8125V32.8926ZM101.121 33H98.4062V27.1504C98.4062 25.4577 97.7878 24.6113 96.5508 24.6113C95.9128 24.6113 95.3919 24.8522 94.9883 25.334C94.5911 25.8092 94.3926 26.4147 94.3926 27.1504V33H91.668V17.8145H94.3926V24.3184H94.4219C95.2031 23.1009 96.2773 22.4922 97.6445 22.4922C99.9622 22.4922 101.121 23.8919 101.121 26.6914V33Z" fill="white"/>
<rect width="129" height="40" transform="translate(134 5)" fill="white"/>
<path d="M134 5H263V45H134V5Z" fill="#5F666B" stroke="#828282"/>
<path d="M198.49 33H195.58L189.223 23.2637C188.962 22.8665 188.747 22.4954 188.578 22.1504H188.539C188.591 22.6061 188.617 23.3483 188.617 24.377V33H185.961V18.625H189.066L195.199 28.1074C195.512 28.5892 195.74 28.9603 195.883 29.2207H195.922C195.87 28.9668 195.844 28.2962 195.844 27.209V18.625H198.49V33ZM204.359 31.7207V33H201.635V17.8145H204.359V24.3574H204.389C205.183 23.1139 206.316 22.4922 207.787 22.4922C209.089 22.4922 210.108 22.9479 210.844 23.8594C211.579 24.7708 211.947 26.0111 211.947 27.5801C211.947 29.2923 211.524 30.666 210.678 31.7012C209.838 32.7363 208.718 33.2539 207.318 33.2539C206.036 33.2539 205.059 32.7428 204.389 31.7207H204.359ZM204.32 28.6152C204.32 29.3249 204.538 29.9206 204.975 30.4023C205.411 30.8841 205.958 31.125 206.615 31.125C207.41 31.125 208.031 30.8158 208.48 30.1973C208.93 29.5788 209.154 28.7096 209.154 27.5898C209.154 26.6589 208.949 25.9297 208.539 25.4023C208.129 24.875 207.549 24.6113 206.801 24.6113C206.078 24.6113 205.482 24.8783 205.014 25.4121C204.551 25.946 204.32 26.6263 204.32 27.4531V28.6152Z" fill="white"/>
<rect width="129" height="160" transform="translate(5 45)" fill="white"/>
<rect x="5" y="45" width="129" height="160" fill="white" stroke="#828282"/>
<path d="M60.2715 115H58.377L55.9648 110.957C55.4505 110.098 54.9883 109.531 54.5781 109.258C54.168 108.984 53.6732 108.848 53.0938 108.848H51.668V115H50.0957V100.625H54.3242C55.6458 100.625 56.694 100.967 57.4688 101.65C58.25 102.334 58.6406 103.268 58.6406 104.453C58.6406 106.439 57.5794 107.728 55.457 108.32V108.359C55.8607 108.535 56.1927 108.77 56.4531 109.062C56.7201 109.349 57.0977 109.889 57.5859 110.684L60.2715 115ZM51.668 102.1V107.383H54.0215C54.9069 107.383 55.6198 107.126 56.1602 106.611C56.707 106.09 56.9805 105.413 56.9805 104.58C56.9805 103.799 56.7266 103.19 56.2188 102.754C55.7174 102.318 54.9915 102.1 54.041 102.1H51.668ZM70.2617 110.254H62.9863C63.0189 111.439 63.3346 112.347 63.9336 112.979C64.5391 113.604 65.3496 113.916 66.3652 113.916C67.5371 113.916 68.6048 113.529 69.5684 112.754V114.238C68.6504 114.909 67.4622 115.244 66.0039 115.244C64.5586 115.244 63.4258 114.772 62.6055 113.828C61.7917 112.878 61.3848 111.566 61.3848 109.893C61.3848 108.337 61.834 107.051 62.7324 106.035C63.6309 105.013 64.7441 104.502 66.0723 104.502C67.4004 104.502 68.429 104.938 69.1582 105.811C69.8939 106.676 70.2617 107.878 70.2617 109.414V110.254ZM68.6602 108.887C68.6602 107.93 68.429 107.181 67.9668 106.641C67.5111 106.1 66.873 105.83 66.0527 105.83C65.278 105.83 64.6107 106.11 64.0508 106.67C63.4909 107.223 63.1426 107.962 63.0059 108.887H68.6602ZM73.0254 105.469C74.028 104.824 75.1803 104.502 76.4824 104.502C78.8652 104.502 80.0566 105.765 80.0566 108.291V115H78.5039V113.389H78.4453C77.7357 114.626 76.6842 115.244 75.291 115.244C74.2884 115.244 73.4909 114.977 72.8984 114.443C72.3125 113.903 72.0195 113.184 72.0195 112.285C72.0195 110.378 73.1458 109.268 75.3984 108.955L78.4941 108.506C78.4941 106.722 77.7845 105.83 76.3652 105.83C75.1152 105.83 74.002 106.257 73.0254 107.109V105.469ZM75.9844 110.127C75.1836 110.231 74.5911 110.426 74.207 110.713C73.8229 110.999 73.6309 111.488 73.6309 112.178C73.6309 112.699 73.8132 113.118 74.1777 113.438C74.5488 113.757 75.0339 113.916 75.6328 113.916C76.4596 113.916 77.1432 113.623 77.6836 113.037C78.224 112.451 78.4941 111.715 78.4941 110.83V109.795L75.9844 110.127ZM83.2012 115V99.8145H84.7441V115H83.2012ZM89.5195 112.734L87.9082 117.656H86.8242L88.0059 112.734H89.5195ZM68.2891 145.355L59.7148 149.691V148.266L66.1504 145.102V145.033L59.7148 141.43V139.984L68.2891 144.838V145.355ZM71.873 144.105C71.873 141.566 72.2865 139.646 73.1133 138.344C73.9401 137.042 75.1315 136.391 76.6875 136.391C79.6758 136.391 81.1699 138.845 81.1699 143.754C81.1699 146.176 80.7533 148.031 79.9199 149.32C79.0931 150.603 77.9082 151.244 76.3652 151.244C74.9069 151.244 73.7936 150.622 73.0254 149.379C72.2572 148.129 71.873 146.371 71.873 144.105ZM73.4551 144.027C73.4551 147.96 74.4805 149.926 76.5312 149.926C78.569 149.926 79.5879 147.93 79.5879 143.939C79.5879 139.792 78.5951 137.719 76.6094 137.719C74.5065 137.719 73.4551 139.822 73.4551 144.027Z" fill="black"/>
<rect width="129" height="160" transform="translate(134 45)" fill="white"/>
<rect x="134" y="45" width="129" height="160" fill="white" stroke="#828282"/>
<path d="M178.686 115H176.703L169.203 103.398C169.047 103.158 168.897 102.858 168.754 102.5H168.705C168.751 102.871 168.773 103.525 168.773 104.463V115H167.191V100.625H169.281L176.576 112.07C176.915 112.598 177.107 112.913 177.152 113.018H177.191C177.12 112.542 177.084 111.833 177.084 110.889V100.625H178.686V115ZM183.832 113.496V115H182.279V99.8145H183.832V106.553H183.871C184.685 105.186 185.87 104.502 187.426 104.502C188.734 104.502 189.763 104.964 190.512 105.889C191.267 106.807 191.645 108.034 191.645 109.57C191.645 111.302 191.218 112.682 190.365 113.711C189.519 114.733 188.383 115.244 186.957 115.244C185.603 115.244 184.574 114.661 183.871 113.496H183.832ZM183.832 110.83C183.832 111.689 184.115 112.422 184.682 113.027C185.255 113.626 185.967 113.926 186.82 113.926C187.829 113.926 188.62 113.538 189.193 112.764C189.773 111.989 190.062 110.908 190.062 109.521C190.062 108.376 189.789 107.471 189.242 106.807C188.702 106.143 187.979 105.811 187.074 105.811C186.124 105.811 185.346 106.149 184.74 106.826C184.135 107.503 183.832 108.35 183.832 109.365V110.83ZM210.951 109.355L202.377 113.691V112.266L208.812 109.102V109.033L202.377 105.43V103.984L210.951 108.838V109.355ZM221.566 108.105C221.566 105.566 221.98 103.646 222.807 102.344C223.633 101.042 224.825 100.391 226.381 100.391C229.369 100.391 230.863 102.845 230.863 107.754C230.863 110.176 230.447 112.031 229.613 113.32C228.786 114.603 227.602 115.244 226.059 115.244C224.6 115.244 223.487 114.622 222.719 113.379C221.951 112.129 221.566 110.371 221.566 108.105ZM223.148 108.027C223.148 111.96 224.174 113.926 226.225 113.926C228.262 113.926 229.281 111.93 229.281 107.939C229.281 103.792 228.288 101.719 226.303 101.719C224.2 101.719 223.148 103.822 223.148 108.027ZM164.945 154.262C162.882 151.905 161.85 148.992 161.85 145.521C161.85 142.025 162.882 139.06 164.945 136.625H166.352C164.249 139.184 163.197 142.143 163.197 145.502C163.197 148.848 164.242 151.768 166.332 154.262H164.945ZM168.021 137.045C168.021 136.752 168.119 136.508 168.314 136.312C168.51 136.111 168.747 136.01 169.027 136.01C169.32 136.01 169.564 136.111 169.76 136.312C169.962 136.514 170.062 136.758 170.062 137.045C170.062 137.338 169.962 137.582 169.76 137.777C169.564 137.973 169.32 138.07 169.027 138.07C168.747 138.07 168.51 137.976 168.314 137.787C168.119 137.592 168.021 137.344 168.021 137.045ZM168.236 151V140.736H169.779V151H168.236ZM181.586 151H180.033V145.141C180.033 142.921 179.223 141.811 177.602 141.811C176.768 141.811 176.075 142.126 175.521 142.758C174.975 143.383 174.701 144.18 174.701 145.15V151H173.148V140.736H174.701V142.455H174.74C175.508 141.153 176.632 140.502 178.109 140.502C179.236 140.502 180.095 140.863 180.688 141.586C181.286 142.309 181.586 143.357 181.586 144.73V151ZM189.379 150.902C188.988 151.117 188.49 151.225 187.885 151.225C186.12 151.225 185.238 150.232 185.238 148.246V142.074H183.461V140.736H185.238V138.217L186.781 137.719V140.736H189.379V142.074H186.781V147.963C186.781 148.686 186.902 149.19 187.143 149.477C187.383 149.763 187.774 149.906 188.314 149.906C188.725 149.906 189.079 149.792 189.379 149.564V150.902ZM199.789 146.254H192.514C192.546 147.439 192.862 148.347 193.461 148.979C194.066 149.604 194.877 149.916 195.893 149.916C197.064 149.916 198.132 149.529 199.096 148.754V150.238C198.178 150.909 196.99 151.244 195.531 151.244C194.086 151.244 192.953 150.772 192.133 149.828C191.319 148.878 190.912 147.566 190.912 145.893C190.912 144.337 191.361 143.051 192.26 142.035C193.158 141.013 194.271 140.502 195.6 140.502C196.928 140.502 197.956 140.938 198.686 141.811C199.421 142.676 199.789 143.878 199.789 145.414V146.254ZM198.188 144.887C198.188 143.93 197.956 143.181 197.494 142.641C197.038 142.1 196.4 141.83 195.58 141.83C194.805 141.83 194.138 142.11 193.578 142.67C193.018 143.223 192.67 143.962 192.533 144.887H198.188ZM210.98 150.189C210.98 153.952 209.2 155.834 205.639 155.834C204.389 155.834 203.279 155.59 202.309 155.102V153.52C203.454 154.164 204.561 154.486 205.629 154.486C208.174 154.486 209.447 153.122 209.447 150.395V149.252H209.408C208.601 150.58 207.419 151.244 205.863 151.244C204.594 151.244 203.568 150.785 202.787 149.867C202.006 148.949 201.615 147.729 201.615 146.205C201.615 144.454 202.038 143.067 202.885 142.045C203.731 141.016 204.87 140.502 206.303 140.502C207.696 140.502 208.731 141.062 209.408 142.182H209.447V140.736H210.98V150.189ZM209.447 144.818C209.447 143.985 209.161 143.275 208.588 142.689C208.015 142.104 207.318 141.811 206.498 141.811C205.469 141.811 204.659 142.191 204.066 142.953C203.48 143.708 203.188 144.753 203.188 146.088C203.188 147.247 203.471 148.178 204.037 148.881C204.61 149.577 205.352 149.926 206.264 149.926C207.188 149.926 207.95 149.59 208.549 148.92C209.148 148.249 209.447 147.403 209.447 146.381V144.818ZM222.543 146.254H215.268C215.3 147.439 215.616 148.347 216.215 148.979C216.82 149.604 217.631 149.916 218.646 149.916C219.818 149.916 220.886 149.529 221.85 148.754V150.238C220.932 150.909 219.743 151.244 218.285 151.244C216.84 151.244 215.707 150.772 214.887 149.828C214.073 148.878 213.666 147.566 213.666 145.893C213.666 144.337 214.115 143.051 215.014 142.035C215.912 141.013 217.025 140.502 218.354 140.502C219.682 140.502 220.71 140.938 221.439 141.811C222.175 142.676 222.543 143.878 222.543 145.414V146.254ZM220.941 144.887C220.941 143.93 220.71 143.181 220.248 142.641C219.792 142.1 219.154 141.83 218.334 141.83C217.559 141.83 216.892 142.11 216.332 142.67C215.772 143.223 215.424 143.962 215.287 144.887H220.941ZM230.336 142.328C230.043 142.107 229.63 141.996 229.096 141.996C228.393 141.996 227.803 142.338 227.328 143.021C226.853 143.705 226.615 144.613 226.615 145.746V151H225.062V140.736H226.615V142.865H226.654C226.889 142.143 227.243 141.579 227.719 141.176C228.201 140.766 228.738 140.561 229.33 140.561C229.76 140.561 230.095 140.606 230.336 140.697V142.328ZM230.707 154.262C232.79 151.775 233.832 148.855 233.832 145.502C233.832 142.13 232.781 139.171 230.678 136.625H232.094C234.171 139.06 235.209 142.025 235.209 145.521C235.209 148.992 234.171 151.905 232.094 154.262H230.707Z" fill="black"/>
<rect width="129" height="40" transform="translate(134 5)" fill="white"/>
<path d="M134 5H263V45H134V5Z" fill="#5F666B" stroke="#828282"/>
<path d="M198.49 33H195.58L189.223 23.2637C188.962 22.8665 188.747 22.4954 188.578 22.1504H188.539C188.591 22.6061 188.617 23.3483 188.617 24.377V33H185.961V18.625H189.066L195.199 28.1074C195.512 28.5892 195.74 28.9603 195.883 29.2207H195.922C195.87 28.9668 195.844 28.2962 195.844 27.209V18.625H198.49V33ZM204.359 31.7207V33H201.635V17.8145H204.359V24.3574H204.389C205.183 23.1139 206.316 22.4922 207.787 22.4922C209.089 22.4922 210.108 22.9479 210.844 23.8594C211.579 24.7708 211.947 26.0111 211.947 27.5801C211.947 29.2923 211.524 30.666 210.678 31.7012C209.838 32.7363 208.718 33.2539 207.318 33.2539C206.036 33.2539 205.059 32.7428 204.389 31.7207H204.359ZM204.32 28.6152C204.32 29.3249 204.538 29.9206 204.975 30.4023C205.411 30.8841 205.958 31.125 206.615 31.125C207.41 31.125 208.031 30.8158 208.48 30.1973C208.93 29.5788 209.154 28.7096 209.154 27.5898C209.154 26.6589 208.949 25.9297 208.539 25.4023C208.129 24.875 207.549 24.6113 206.801 24.6113C206.078 24.6113 205.482 24.8783 205.014 25.4121C204.551 25.946 204.32 26.6263 204.32 27.4531V28.6152Z" fill="white"/>
<rect width="129" height="160" transform="translate(134 45)" fill="white"/>
<rect x="134" y="45" width="129" height="160" fill="white" stroke="#828282"/>
<path d="M167.602 115H166.029V100.625H167.602V115ZM179.643 115H178.09V109.141C178.09 106.921 177.279 105.811 175.658 105.811C174.825 105.811 174.132 106.126 173.578 106.758C173.031 107.383 172.758 108.18 172.758 109.15V115H171.205V104.736H172.758V106.455H172.797C173.565 105.153 174.688 104.502 176.166 104.502C177.292 104.502 178.152 104.863 178.744 105.586C179.343 106.309 179.643 107.357 179.643 108.73V115ZM187.436 114.902C187.045 115.117 186.547 115.225 185.941 115.225C184.177 115.225 183.295 114.232 183.295 112.246V106.074H181.518V104.736H183.295V102.217L184.838 101.719V104.736H187.436V106.074H184.838V111.963C184.838 112.686 184.958 113.19 185.199 113.477C185.44 113.763 185.831 113.906 186.371 113.906C186.781 113.906 187.136 113.792 187.436 113.564V114.902ZM197.846 110.254H190.57C190.603 111.439 190.919 112.347 191.518 112.979C192.123 113.604 192.934 113.916 193.949 113.916C195.121 113.916 196.189 113.529 197.152 112.754V114.238C196.234 114.909 195.046 115.244 193.588 115.244C192.143 115.244 191.01 114.772 190.189 113.828C189.376 112.878 188.969 111.566 188.969 109.893C188.969 108.337 189.418 107.051 190.316 106.035C191.215 105.013 192.328 104.502 193.656 104.502C194.984 104.502 196.013 104.938 196.742 105.811C197.478 106.676 197.846 107.878 197.846 109.414V110.254ZM196.244 108.887C196.244 107.93 196.013 107.181 195.551 106.641C195.095 106.1 194.457 105.83 193.637 105.83C192.862 105.83 192.195 106.11 191.635 106.67C191.075 107.223 190.727 107.962 190.59 108.887H196.244ZM209.037 114.189C209.037 117.952 207.257 119.834 203.695 119.834C202.445 119.834 201.335 119.59 200.365 119.102V117.52C201.511 118.164 202.618 118.486 203.686 118.486C206.231 118.486 207.504 117.122 207.504 114.395V113.252H207.465C206.658 114.58 205.476 115.244 203.92 115.244C202.65 115.244 201.625 114.785 200.844 113.867C200.062 112.949 199.672 111.729 199.672 110.205C199.672 108.454 200.095 107.067 200.941 106.045C201.788 105.016 202.927 104.502 204.359 104.502C205.753 104.502 206.788 105.062 207.465 106.182H207.504V104.736H209.037V114.189ZM207.504 108.818C207.504 107.985 207.217 107.275 206.645 106.689C206.072 106.104 205.375 105.811 204.555 105.811C203.526 105.811 202.715 106.191 202.123 106.953C201.537 107.708 201.244 108.753 201.244 110.088C201.244 111.247 201.527 112.178 202.094 112.881C202.667 113.577 203.409 113.926 204.32 113.926C205.245 113.926 206.007 113.59 206.605 112.92C207.204 112.249 207.504 111.403 207.504 110.381V108.818ZM220.6 110.254H213.324C213.357 111.439 213.673 112.347 214.271 112.979C214.877 113.604 215.688 113.916 216.703 113.916C217.875 113.916 218.943 113.529 219.906 112.754V114.238C218.988 114.909 217.8 115.244 216.342 115.244C214.896 115.244 213.764 114.772 212.943 113.828C212.13 112.878 211.723 111.566 211.723 109.893C211.723 108.337 212.172 107.051 213.07 106.035C213.969 105.013 215.082 104.502 216.41 104.502C217.738 104.502 218.767 104.938 219.496 105.811C220.232 106.676 220.6 107.878 220.6 109.414V110.254ZM218.998 108.887C218.998 107.93 218.767 107.181 218.305 106.641C217.849 106.1 217.211 105.83 216.391 105.83C215.616 105.83 214.949 106.11 214.389 106.67C213.829 107.223 213.48 107.962 213.344 108.887H218.998ZM228.393 106.328C228.1 106.107 227.686 105.996 227.152 105.996C226.449 105.996 225.86 106.338 225.385 107.021C224.91 107.705 224.672 108.613 224.672 109.746V115H223.119V104.736H224.672V106.865H224.711C224.945 106.143 225.3 105.579 225.775 105.176C226.257 104.766 226.794 104.561 227.387 104.561C227.816 104.561 228.152 104.606 228.393 104.697V106.328ZM231.596 112.734L229.984 117.656H228.9L230.082 112.734H231.596ZM193.773 145.355L185.199 149.691V148.266L191.635 145.102V145.033L185.199 141.43V139.984L193.773 144.838V145.355ZM204.389 144.105C204.389 141.566 204.802 139.646 205.629 138.344C206.456 137.042 207.647 136.391 209.203 136.391C212.191 136.391 213.686 138.845 213.686 143.754C213.686 146.176 213.269 148.031 212.436 149.32C211.609 150.603 210.424 151.244 208.881 151.244C207.423 151.244 206.309 150.622 205.541 149.379C204.773 148.129 204.389 146.371 204.389 144.105ZM205.971 144.027C205.971 147.96 206.996 149.926 209.047 149.926C211.085 149.926 212.104 147.93 212.104 143.939C212.104 139.792 211.111 137.719 209.125 137.719C207.022 137.719 205.971 139.822 205.971 144.027Z" fill="black"/>
<rect width="129" height="40" transform="translate(521 5)" fill="white"/>
<path d="M521 5H650V45H521V5Z" fill="#5F666B" stroke="#828282"/>
<path d="M537.551 29.5918C538.69 30.5358 539.995 31.0078 541.467 31.0078C542.352 31.0078 543.013 30.8548 543.449 30.5488C543.885 30.2363 544.104 29.8294 544.104 29.3281C544.104 28.8919 543.921 28.4915 543.557 28.127C543.192 27.7624 542.31 27.2806 540.91 26.6816C539.719 26.1478 538.853 25.5488 538.312 24.8848C537.779 24.2142 537.512 23.4297 537.512 22.5312C537.512 21.2357 538.013 20.2233 539.016 19.4941C540.018 18.7585 541.333 18.3906 542.961 18.3906C544.419 18.3906 545.568 18.5729 546.408 18.9375V21.6035C545.477 20.9655 544.354 20.6465 543.039 20.6465C542.264 20.6465 541.636 20.793 541.154 21.0859C540.679 21.3789 540.441 21.7826 540.441 22.2969C540.441 22.707 540.607 23.0814 540.939 23.4199C541.271 23.7585 542.049 24.1979 543.273 24.7383C544.68 25.3503 545.656 25.9948 546.203 26.6719C546.75 27.3424 547.023 28.1465 547.023 29.084C547.023 30.4382 546.538 31.4733 545.568 32.1895C544.605 32.8991 543.251 33.2539 541.506 33.2539C539.885 33.2539 538.566 32.9837 537.551 32.4434V29.5918ZM558.195 28.6348H551.34C551.451 30.3796 552.44 31.252 554.309 31.252C555.448 31.252 556.464 30.9525 557.355 30.3535V32.4238C556.405 32.9772 555.184 33.2539 553.693 33.2539C552.098 33.2539 550.855 32.7917 549.963 31.8672C549.077 30.9427 548.635 29.6504 548.635 27.9902C548.635 26.3626 549.11 25.041 550.061 24.0254C551.018 23.0033 552.212 22.4922 553.645 22.4922C555.077 22.4922 556.193 22.9316 556.994 23.8105C557.795 24.6895 558.195 25.8971 558.195 27.4336V28.6348ZM555.627 26.8477C555.627 25.2201 554.956 24.4062 553.615 24.4062C553.055 24.4062 552.561 24.6276 552.131 25.0703C551.708 25.513 551.444 26.1055 551.34 26.8477H555.627ZM567.814 32.5996C567.079 33.0358 566.073 33.2539 564.797 33.2539C563.26 33.2539 562.014 32.7819 561.057 31.8379C560.106 30.8874 559.631 29.6471 559.631 28.1172C559.631 26.3724 560.142 24.9987 561.164 23.9961C562.186 22.9935 563.55 22.4922 565.256 22.4922C566.369 22.4922 567.222 22.6549 567.814 22.9805V25.373C567.124 24.8652 566.363 24.6113 565.529 24.6113C564.579 24.6113 563.817 24.9108 563.244 25.5098C562.671 26.1022 562.385 26.9062 562.385 27.9219C562.385 28.9245 562.655 29.709 563.195 30.2754C563.736 30.8418 564.478 31.125 565.422 31.125C566.249 31.125 567.046 30.8646 567.814 30.3438V32.5996ZM575.773 32.8926C575.311 33.127 574.667 33.2441 573.84 33.2441C571.737 33.2441 570.686 32.1309 570.686 29.9043V24.8066H568.986V22.7363H570.686V20.4414L573.4 19.6504V22.7363H575.773V24.8066H573.4V29.4258C573.4 30.5586 573.846 31.125 574.738 31.125C575.109 31.125 575.454 31.0208 575.773 30.8125V32.8926ZM577.443 19.3574C577.443 18.9408 577.59 18.5924 577.883 18.3125C578.182 18.0326 578.566 17.8926 579.035 17.8926C579.491 17.8926 579.872 18.0326 580.178 18.3125C580.484 18.5859 580.637 18.9342 580.637 19.3574C580.637 19.7806 580.484 20.1322 580.178 20.4121C579.878 20.6921 579.497 20.832 579.035 20.832C578.573 20.832 578.192 20.6888 577.893 20.4023C577.593 20.1159 577.443 19.7676 577.443 19.3574ZM577.658 33V22.7363H580.373V33H577.658ZM582.561 27.9316C582.561 26.252 583.055 24.9271 584.045 23.957C585.035 22.9805 586.376 22.4922 588.068 22.4922C589.702 22.4922 590.992 22.9707 591.936 23.9277C592.886 24.8783 593.361 26.1543 593.361 27.7559C593.361 29.4225 592.87 30.7572 591.887 31.7598C590.91 32.7559 589.585 33.2539 587.912 33.2539C586.271 33.2539 584.969 32.7754 584.006 31.8184C583.042 30.8548 582.561 29.5592 582.561 27.9316ZM585.314 27.8926C585.314 30.0475 586.21 31.125 588 31.125C589.725 31.125 590.588 30.0215 590.588 27.8145C590.588 25.679 589.722 24.6113 587.99 24.6113C587.144 24.6113 586.486 24.9043 586.018 25.4902C585.549 26.0697 585.314 26.8704 585.314 27.8926ZM605.09 33H602.375V27.248C602.375 25.4902 601.74 24.6113 600.471 24.6113C599.833 24.6113 599.312 24.8522 598.908 25.334C598.511 25.8092 598.312 26.4147 598.312 27.1504V33H595.588V22.7363H598.312V24.3867H598.342C599.097 23.1237 600.207 22.4922 601.672 22.4922C603.951 22.4922 605.09 23.9017 605.09 26.7207V33ZM617.844 18.625V33H615.061V18.625H617.844ZM621.281 33V18.625H626.047C631.138 18.625 633.684 20.9622 633.684 25.6367C633.684 27.8633 632.964 29.6471 631.525 30.9883C630.093 32.3294 628.247 33 625.988 33H621.281ZM624.064 20.9395V30.6953H625.822C627.365 30.6953 628.573 30.2493 629.445 29.3574C630.318 28.459 630.754 27.2318 630.754 25.6758C630.754 24.1458 630.318 22.974 629.445 22.1602C628.573 21.3464 627.372 20.9395 625.842 20.9395H624.064Z" fill="white"/>
<rect width="129" height="160" transform="translate(521 45)" fill="white"/>
<rect x="521" y="45" width="129" height="160" fill="white" stroke="#828282"/>
<path d="M554.602 115H553.029V100.625H554.602V115ZM566.643 115H565.09V109.141C565.09 106.921 564.279 105.811 562.658 105.811C561.825 105.811 561.132 106.126 560.578 106.758C560.031 107.383 559.758 108.18 559.758 109.15V115H558.205V104.736H559.758V106.455H559.797C560.565 105.153 561.688 104.502 563.166 104.502C564.292 104.502 565.152 104.863 565.744 105.586C566.343 106.309 566.643 107.357 566.643 108.73V115ZM574.436 114.902C574.045 115.117 573.547 115.225 572.941 115.225C571.177 115.225 570.295 114.232 570.295 112.246V106.074H568.518V104.736H570.295V102.217L571.838 101.719V104.736H574.436V106.074H571.838V111.963C571.838 112.686 571.958 113.19 572.199 113.477C572.44 113.763 572.831 113.906 573.371 113.906C573.781 113.906 574.136 113.792 574.436 113.564V114.902ZM584.846 110.254H577.57C577.603 111.439 577.919 112.347 578.518 112.979C579.123 113.604 579.934 113.916 580.949 113.916C582.121 113.916 583.189 113.529 584.152 112.754V114.238C583.234 114.909 582.046 115.244 580.588 115.244C579.143 115.244 578.01 114.772 577.189 113.828C576.376 112.878 575.969 111.566 575.969 109.893C575.969 108.337 576.418 107.051 577.316 106.035C578.215 105.013 579.328 104.502 580.656 104.502C581.984 104.502 583.013 104.938 583.742 105.811C584.478 106.676 584.846 107.878 584.846 109.414V110.254ZM583.244 108.887C583.244 107.93 583.013 107.181 582.551 106.641C582.095 106.1 581.457 105.83 580.637 105.83C579.862 105.83 579.195 106.11 578.635 106.67C578.075 107.223 577.727 107.962 577.59 108.887H583.244ZM596.037 114.189C596.037 117.952 594.257 119.834 590.695 119.834C589.445 119.834 588.335 119.59 587.365 119.102V117.52C588.511 118.164 589.618 118.486 590.686 118.486C593.231 118.486 594.504 117.122 594.504 114.395V113.252H594.465C593.658 114.58 592.476 115.244 590.92 115.244C589.65 115.244 588.625 114.785 587.844 113.867C587.062 112.949 586.672 111.729 586.672 110.205C586.672 108.454 587.095 107.067 587.941 106.045C588.788 105.016 589.927 104.502 591.359 104.502C592.753 104.502 593.788 105.062 594.465 106.182H594.504V104.736H596.037V114.189ZM594.504 108.818C594.504 107.985 594.217 107.275 593.645 106.689C593.072 106.104 592.375 105.811 591.555 105.811C590.526 105.811 589.715 106.191 589.123 106.953C588.537 107.708 588.244 108.753 588.244 110.088C588.244 111.247 588.527 112.178 589.094 112.881C589.667 113.577 590.409 113.926 591.32 113.926C592.245 113.926 593.007 113.59 593.605 112.92C594.204 112.249 594.504 111.403 594.504 110.381V108.818ZM607.6 110.254H600.324C600.357 111.439 600.673 112.347 601.271 112.979C601.877 113.604 602.688 113.916 603.703 113.916C604.875 113.916 605.943 113.529 606.906 112.754V114.238C605.988 114.909 604.8 115.244 603.342 115.244C601.896 115.244 600.764 114.772 599.943 113.828C599.13 112.878 598.723 111.566 598.723 109.893C598.723 108.337 599.172 107.051 600.07 106.035C600.969 105.013 602.082 104.502 603.41 104.502C604.738 104.502 605.767 104.938 606.496 105.811C607.232 106.676 607.6 107.878 607.6 109.414V110.254ZM605.998 108.887C605.998 107.93 605.767 107.181 605.305 106.641C604.849 106.1 604.211 105.83 603.391 105.83C602.616 105.83 601.949 106.11 601.389 106.67C600.829 107.223 600.48 107.962 600.344 108.887H605.998ZM615.393 106.328C615.1 106.107 614.686 105.996 614.152 105.996C613.449 105.996 612.86 106.338 612.385 107.021C611.91 107.705 611.672 108.613 611.672 109.746V115H610.119V104.736H611.672V106.865H611.711C611.945 106.143 612.3 105.579 612.775 105.176C613.257 104.766 613.794 104.561 614.387 104.561C614.816 104.561 615.152 104.606 615.393 104.697V106.328ZM618.596 112.734L616.984 117.656H615.9L617.082 112.734H618.596ZM537.688 151H536.135V138.588C535.835 138.887 535.347 139.213 534.67 139.564C533.993 139.91 533.374 140.15 532.814 140.287V138.627C533.531 138.425 534.299 138.096 535.119 137.641C535.939 137.185 536.587 136.742 537.062 136.312H537.688V151ZM560.695 143.5C560.643 144.49 560.373 145.251 559.885 145.785C559.396 146.312 558.736 146.576 557.902 146.576C557.167 146.576 556.281 146.205 555.246 145.463C554.602 145.014 554.068 144.789 553.645 144.789C552.694 144.789 552.206 145.382 552.18 146.566H550.871C550.904 145.59 551.171 144.835 551.672 144.301C552.18 143.76 552.84 143.49 553.654 143.49C554.357 143.49 555.142 143.79 556.008 144.389C556.9 144.994 557.561 145.297 557.99 145.297C558.407 145.297 558.739 145.134 558.986 144.809C559.24 144.477 559.374 144.04 559.387 143.5H560.695ZM571.555 149.242C572.355 149.698 573.199 149.926 574.084 149.926C575.393 149.926 576.415 149.395 577.15 148.334C577.886 147.266 578.254 145.746 578.254 143.773C578.241 143.786 578.228 143.786 578.215 143.773C577.59 145.023 576.512 145.648 574.982 145.648C573.745 145.648 572.733 145.225 571.945 144.379C571.164 143.526 570.773 142.458 570.773 141.176C570.773 139.796 571.193 138.653 572.033 137.748C572.88 136.843 573.986 136.391 575.354 136.391C576.799 136.391 577.902 136.957 578.664 138.09C579.432 139.223 579.816 140.84 579.816 142.943C579.816 145.567 579.312 147.608 578.303 149.066C577.3 150.518 575.871 151.244 574.016 151.244C573.052 151.244 572.232 151.081 571.555 150.756V149.242ZM572.355 140.941C572.355 141.938 572.616 142.738 573.137 143.344C573.658 143.949 574.383 144.252 575.314 144.252C576.122 144.252 576.796 143.985 577.336 143.451C577.876 142.911 578.146 142.253 578.146 141.479C578.146 140.417 577.88 139.525 577.346 138.803C576.818 138.08 576.105 137.719 575.207 137.719C574.367 137.719 573.68 138.035 573.146 138.666C572.619 139.291 572.355 140.049 572.355 140.941ZM582.57 149.242C583.371 149.698 584.214 149.926 585.1 149.926C586.408 149.926 587.43 149.395 588.166 148.334C588.902 147.266 589.27 145.746 589.27 143.773C589.257 143.786 589.243 143.786 589.23 143.773C588.605 145.023 587.528 145.648 585.998 145.648C584.761 145.648 583.749 145.225 582.961 144.379C582.18 143.526 581.789 142.458 581.789 141.176C581.789 139.796 582.209 138.653 583.049 137.748C583.895 136.843 585.002 136.391 586.369 136.391C587.814 136.391 588.918 136.957 589.68 138.09C590.448 139.223 590.832 140.84 590.832 142.943C590.832 145.567 590.327 147.608 589.318 149.066C588.316 150.518 586.887 151.244 585.031 151.244C584.068 151.244 583.247 151.081 582.57 150.756V149.242ZM583.371 140.941C583.371 141.938 583.632 142.738 584.152 143.344C584.673 143.949 585.399 144.252 586.33 144.252C587.137 144.252 587.811 143.985 588.352 143.451C588.892 142.911 589.162 142.253 589.162 141.479C589.162 140.417 588.895 139.525 588.361 138.803C587.834 138.08 587.121 137.719 586.223 137.719C585.383 137.719 584.696 138.035 584.162 138.666C583.635 139.291 583.371 140.049 583.371 140.941ZM593.586 149.242C594.387 149.698 595.23 149.926 596.115 149.926C597.424 149.926 598.446 149.395 599.182 148.334C599.917 147.266 600.285 145.746 600.285 143.773C600.272 143.786 600.259 143.786 600.246 143.773C599.621 145.023 598.544 145.648 597.014 145.648C595.777 145.648 594.764 145.225 593.977 144.379C593.195 143.526 592.805 142.458 592.805 141.176C592.805 139.796 593.225 138.653 594.064 137.748C594.911 136.843 596.018 136.391 597.385 136.391C598.83 136.391 599.934 136.957 600.695 138.09C601.464 139.223 601.848 140.84 601.848 142.943C601.848 145.567 601.343 147.608 600.334 149.066C599.331 150.518 597.902 151.244 596.047 151.244C595.083 151.244 594.263 151.081 593.586 150.756V149.242ZM594.387 140.941C594.387 141.938 594.647 142.738 595.168 143.344C595.689 143.949 596.415 144.252 597.346 144.252C598.153 144.252 598.827 143.985 599.367 143.451C599.908 142.911 600.178 142.253 600.178 141.479C600.178 140.417 599.911 139.525 599.377 138.803C598.85 138.08 598.137 137.719 597.238 137.719C596.398 137.719 595.712 138.035 595.178 138.666C594.65 139.291 594.387 140.049 594.387 140.941ZM605.949 148.734L604.338 153.656H603.254L604.436 148.734H605.949ZM608.977 149.242C609.777 149.698 610.62 149.926 611.506 149.926C612.814 149.926 613.837 149.395 614.572 148.334C615.308 147.266 615.676 145.746 615.676 143.773C615.663 143.786 615.65 143.786 615.637 143.773C615.012 145.023 613.934 145.648 612.404 145.648C611.167 145.648 610.155 145.225 609.367 144.379C608.586 143.526 608.195 142.458 608.195 141.176C608.195 139.796 608.615 138.653 609.455 137.748C610.301 136.843 611.408 136.391 612.775 136.391C614.221 136.391 615.324 136.957 616.086 138.09C616.854 139.223 617.238 140.84 617.238 142.943C617.238 145.567 616.734 147.608 615.725 149.066C614.722 150.518 613.293 151.244 611.438 151.244C610.474 151.244 609.654 151.081 608.977 150.756V149.242ZM609.777 140.941C609.777 141.938 610.038 142.738 610.559 143.344C611.079 143.949 611.805 144.252 612.736 144.252C613.544 144.252 614.217 143.985 614.758 143.451C615.298 142.911 615.568 142.253 615.568 141.479C615.568 140.417 615.301 139.525 614.768 138.803C614.24 138.08 613.527 137.719 612.629 137.719C611.789 137.719 611.102 138.035 610.568 138.666C610.041 139.291 609.777 140.049 609.777 140.941ZM619.992 149.242C620.793 149.698 621.636 149.926 622.521 149.926C623.83 149.926 624.852 149.395 625.588 148.334C626.324 147.266 626.691 145.746 626.691 143.773C626.678 143.786 626.665 143.786 626.652 143.773C626.027 145.023 624.95 145.648 623.42 145.648C622.183 145.648 621.171 145.225 620.383 144.379C619.602 143.526 619.211 142.458 619.211 141.176C619.211 139.796 619.631 138.653 620.471 137.748C621.317 136.843 622.424 136.391 623.791 136.391C625.236 136.391 626.34 136.957 627.102 138.09C627.87 139.223 628.254 140.84 628.254 142.943C628.254 145.567 627.749 147.608 626.74 149.066C625.738 150.518 624.309 151.244 622.453 151.244C621.49 151.244 620.669 151.081 619.992 150.756V149.242ZM620.793 140.941C620.793 141.938 621.053 142.738 621.574 143.344C622.095 143.949 622.821 144.252 623.752 144.252C624.559 144.252 625.233 143.985 625.773 143.451C626.314 142.911 626.584 142.253 626.584 141.479C626.584 140.417 626.317 139.525 625.783 138.803C625.256 138.08 624.543 137.719 623.645 137.719C622.805 137.719 622.118 138.035 621.584 138.666C621.057 139.291 620.793 140.049 620.793 140.941ZM631.008 149.242C631.809 149.698 632.652 149.926 633.537 149.926C634.846 149.926 635.868 149.395 636.604 148.334C637.339 147.266 637.707 145.746 637.707 143.773C637.694 143.786 637.681 143.786 637.668 143.773C637.043 145.023 635.965 145.648 634.436 145.648C633.199 145.648 632.186 145.225 631.398 144.379C630.617 143.526 630.227 142.458 630.227 141.176C630.227 139.796 630.646 138.653 631.486 137.748C632.333 136.843 633.439 136.391 634.807 136.391C636.252 136.391 637.355 136.957 638.117 138.09C638.885 139.223 639.27 140.84 639.27 142.943C639.27 145.567 638.765 147.608 637.756 149.066C636.753 150.518 635.324 151.244 633.469 151.244C632.505 151.244 631.685 151.081 631.008 150.756V149.242ZM631.809 140.941C631.809 141.938 632.069 142.738 632.59 143.344C633.111 143.949 633.837 144.252 634.768 144.252C635.575 144.252 636.249 143.985 636.789 143.451C637.329 142.911 637.6 142.253 637.6 141.479C637.6 140.417 637.333 139.525 636.799 138.803C636.271 138.08 635.559 137.719 634.66 137.719C633.82 137.719 633.133 138.035 632.6 138.666C632.072 139.291 631.809 140.049 631.809 140.941Z" fill="black"/>
<rect width="129" height="40" transform="translate(263 5)" fill="white"/>
<path d="M263 5H392V45H263V5Z" fill="#5F666B" stroke="#828282"/>
<path d="M279.248 29.5918C280.387 30.5358 281.693 31.0078 283.164 31.0078C284.049 31.0078 284.71 30.8548 285.146 30.5488C285.583 30.2363 285.801 29.8294 285.801 29.3281C285.801 28.8919 285.618 28.4915 285.254 28.127C284.889 27.7624 284.007 27.2806 282.607 26.6816C281.416 26.1478 280.55 25.5488 280.01 24.8848C279.476 24.2142 279.209 23.4297 279.209 22.5312C279.209 21.2357 279.71 20.2233 280.713 19.4941C281.715 18.7585 283.031 18.3906 284.658 18.3906C286.117 18.3906 287.266 18.5729 288.105 18.9375V21.6035C287.174 20.9655 286.051 20.6465 284.736 20.6465C283.962 20.6465 283.333 20.793 282.852 21.0859C282.376 21.3789 282.139 21.7826 282.139 22.2969C282.139 22.707 282.305 23.0814 282.637 23.4199C282.969 23.7585 283.747 24.1979 284.971 24.7383C286.377 25.3503 287.354 25.9948 287.9 26.6719C288.447 27.3424 288.721 28.1465 288.721 29.084C288.721 30.4382 288.236 31.4733 287.266 32.1895C286.302 32.8991 284.948 33.2539 283.203 33.2539C281.582 33.2539 280.264 32.9837 279.248 32.4434V29.5918ZM296.729 32.8926C296.266 33.127 295.622 33.2441 294.795 33.2441C292.692 33.2441 291.641 32.1309 291.641 29.9043V24.8066H289.941V22.7363H291.641V20.4414L294.355 19.6504V22.7363H296.729V24.8066H294.355V29.4258C294.355 30.5586 294.801 31.125 295.693 31.125C296.064 31.125 296.41 31.0208 296.729 30.8125V32.8926ZM304.951 25.2461C304.593 25.0312 304.154 24.9238 303.633 24.9238C302.949 24.9238 302.402 25.2038 301.992 25.7637C301.582 26.3171 301.377 27.0625 301.377 28V33H298.652V22.7363H301.377V24.709H301.406C301.908 23.2767 302.809 22.5605 304.111 22.5605C304.482 22.5605 304.762 22.6061 304.951 22.6973V25.2461ZM306.064 31.75C306.064 31.3138 306.227 30.9557 306.553 30.6758C306.885 30.3958 307.275 30.2559 307.725 30.2559C308.174 30.2559 308.558 30.3958 308.877 30.6758C309.196 30.9557 309.355 31.3138 309.355 31.75C309.355 32.1927 309.196 32.554 308.877 32.834C308.558 33.1074 308.161 33.2441 307.686 33.2441C307.236 33.2441 306.852 33.1009 306.533 32.8145C306.221 32.528 306.064 32.1732 306.064 31.75ZM330.566 32.0234C329.154 32.8438 327.448 33.2539 325.449 33.2539C323.223 33.2539 321.452 32.6094 320.137 31.3203C318.822 30.0247 318.164 28.2637 318.164 26.0371C318.164 23.7975 318.88 21.9648 320.312 20.5391C321.745 19.1068 323.639 18.3906 325.996 18.3906C327.533 18.3906 328.867 18.612 330 19.0547V21.7598C328.893 21.0892 327.533 20.7539 325.918 20.7539C324.492 20.7539 323.33 21.2259 322.432 22.1699C321.54 23.1074 321.094 24.3477 321.094 25.8906C321.094 27.4661 321.497 28.6934 322.305 29.5723C323.112 30.4447 324.219 30.8809 325.625 30.8809C326.484 30.8809 327.201 30.7409 327.773 30.4609V27.2871H324.824V25.0215H330.566V32.0234ZM339.541 25.2461C339.183 25.0312 338.743 24.9238 338.223 24.9238C337.539 24.9238 336.992 25.2038 336.582 25.7637C336.172 26.3171 335.967 27.0625 335.967 28V33H333.242V22.7363H335.967V24.709H335.996C336.497 23.2767 337.399 22.5605 338.701 22.5605C339.072 22.5605 339.352 22.6061 339.541 22.6973V25.2461ZM340.488 27.9316C340.488 26.252 340.983 24.9271 341.973 23.957C342.962 22.9805 344.303 22.4922 345.996 22.4922C347.63 22.4922 348.919 22.9707 349.863 23.9277C350.814 24.8783 351.289 26.1543 351.289 27.7559C351.289 29.4225 350.798 30.7572 349.814 31.7598C348.838 32.7559 347.513 33.2539 345.84 33.2539C344.199 33.2539 342.897 32.7754 341.934 31.8184C340.97 30.8548 340.488 29.5592 340.488 27.9316ZM343.242 27.8926C343.242 30.0475 344.137 31.125 345.928 31.125C347.653 31.125 348.516 30.0215 348.516 27.8145C348.516 25.679 347.65 24.6113 345.918 24.6113C345.072 24.6113 344.414 24.9043 343.945 25.4902C343.477 26.0697 343.242 26.8704 343.242 27.8926ZM362.852 33H360.137V31.418H360.088C359.333 32.6419 358.285 33.2539 356.943 33.2539C354.541 33.2539 353.34 31.8086 353.34 28.918V22.7363H356.064V28.6348C356.064 30.2949 356.709 31.125 357.998 31.125C358.63 31.125 359.144 30.9004 359.541 30.4512C359.938 29.9954 360.137 29.3867 360.137 28.625V22.7363H362.852V33ZM368.408 31.7207V37.7266H365.684V22.7363H368.408V24.3574H368.438C369.232 23.1139 370.358 22.4922 371.816 22.4922C373.112 22.4922 374.131 22.9447 374.873 23.8496C375.622 24.7546 375.996 25.998 375.996 27.5801C375.996 29.2858 375.57 30.6595 374.717 31.7012C373.87 32.7363 372.747 33.2539 371.348 33.2539C370.085 33.2539 369.115 32.7428 368.438 31.7207H368.408ZM368.369 28.5371C368.369 29.2793 368.584 29.8978 369.014 30.3926C369.443 30.8809 369.993 31.125 370.664 31.125C371.458 31.125 372.08 30.8158 372.529 30.1973C372.979 29.5788 373.203 28.7096 373.203 27.5898C373.203 25.6042 372.419 24.6113 370.85 24.6113C370.107 24.6113 369.508 24.888 369.053 25.4414C368.597 25.9948 368.369 26.6914 368.369 27.5312V28.5371Z" fill="white"/>
<rect width="129" height="160" transform="translate(263 45)" fill="white"/>
<rect x="263" y="45" width="129" height="160" fill="white" stroke="#828282"/>
<path d="M302.051 112.51C302.493 112.894 303.086 113.203 303.828 113.438C304.577 113.672 305.267 113.789 305.898 113.789C307.988 113.789 309.033 113.031 309.033 111.514C309.033 111.077 308.923 110.693 308.701 110.361C308.486 110.029 308.203 109.746 307.852 109.512C307.5 109.277 306.768 108.874 305.654 108.301C304.313 107.611 303.379 106.976 302.852 106.396C302.331 105.811 302.07 105.078 302.07 104.199C302.07 103.027 302.546 102.1 303.496 101.416C304.453 100.732 305.632 100.391 307.031 100.391C308.451 100.391 309.466 100.56 310.078 100.898V102.725C309.245 102.145 308.161 101.855 306.826 101.855C305.915 101.855 305.169 102.051 304.59 102.441C304.017 102.832 303.73 103.372 303.73 104.062C303.73 104.688 303.932 105.199 304.336 105.596C304.746 105.986 305.592 106.494 306.875 107.119C308.372 107.868 309.382 108.574 309.902 109.238C310.423 109.902 310.684 110.622 310.684 111.396C310.684 112.64 310.234 113.594 309.336 114.258C308.438 114.915 307.194 115.244 305.605 115.244C305.104 115.244 304.473 115.163 303.711 115C302.956 114.844 302.402 114.648 302.051 114.414V112.51ZM318.027 114.902C317.637 115.117 317.139 115.225 316.533 115.225C314.769 115.225 313.887 114.232 313.887 112.246V106.074H312.109V104.736H313.887V102.217L315.43 101.719V104.736H318.027V106.074H315.43V111.963C315.43 112.686 315.55 113.19 315.791 113.477C316.032 113.763 316.423 113.906 316.963 113.906C317.373 113.906 317.728 113.792 318.027 113.564V114.902ZM325.527 106.328C325.234 106.107 324.821 105.996 324.287 105.996C323.584 105.996 322.995 106.338 322.52 107.021C322.044 107.705 321.807 108.613 321.807 109.746V115H320.254V104.736H321.807V106.865H321.846C322.08 106.143 322.435 105.579 322.91 105.176C323.392 104.766 323.929 104.561 324.521 104.561C324.951 104.561 325.286 104.606 325.527 104.697V106.328ZM327.119 101.045C327.119 100.752 327.217 100.508 327.412 100.312C327.607 100.111 327.845 100.01 328.125 100.01C328.418 100.01 328.662 100.111 328.857 100.312C329.059 100.514 329.16 100.758 329.16 101.045C329.16 101.338 329.059 101.582 328.857 101.777C328.662 101.973 328.418 102.07 328.125 102.07C327.845 102.07 327.607 101.976 327.412 101.787C327.217 101.592 327.119 101.344 327.119 101.045ZM327.334 115V104.736H328.877V115H327.334ZM340.684 115H339.131V109.141C339.131 106.921 338.32 105.811 336.699 105.811C335.866 105.811 335.173 106.126 334.619 106.758C334.072 107.383 333.799 108.18 333.799 109.15V115H332.246V104.736H333.799V106.455H333.838C334.606 105.153 335.729 104.502 337.207 104.502C338.333 104.502 339.193 104.863 339.785 105.586C340.384 106.309 340.684 107.357 340.684 108.73V115ZM352.48 114.189C352.48 117.952 350.7 119.834 347.139 119.834C345.889 119.834 344.779 119.59 343.809 119.102V117.52C344.954 118.164 346.061 118.486 347.129 118.486C349.674 118.486 350.947 117.122 350.947 114.395V113.252H350.908C350.101 114.58 348.919 115.244 347.363 115.244C346.094 115.244 345.068 114.785 344.287 113.867C343.506 112.949 343.115 111.729 343.115 110.205C343.115 108.454 343.538 107.067 344.385 106.045C345.231 105.016 346.37 104.502 347.803 104.502C349.196 104.502 350.231 105.062 350.908 106.182H350.947V104.736H352.48V114.189ZM350.947 108.818C350.947 107.985 350.661 107.275 350.088 106.689C349.515 106.104 348.818 105.811 347.998 105.811C346.969 105.811 346.159 106.191 345.566 106.953C344.98 107.708 344.688 108.753 344.688 110.088C344.688 111.247 344.971 112.178 345.537 112.881C346.11 113.577 346.852 113.926 347.764 113.926C348.688 113.926 349.45 113.59 350.049 112.92C350.648 112.249 350.947 111.403 350.947 110.381V108.818ZM278.467 151H271.084V136.625H272.656V149.555H278.467V151ZM288.652 146.254H281.377C281.41 147.439 281.725 148.347 282.324 148.979C282.93 149.604 283.74 149.916 284.756 149.916C285.928 149.916 286.995 149.529 287.959 148.754V150.238C287.041 150.909 285.853 151.244 284.395 151.244C282.949 151.244 281.816 150.772 280.996 149.828C280.182 148.878 279.775 147.566 279.775 145.893C279.775 144.337 280.225 143.051 281.123 142.035C282.021 141.013 283.135 140.502 284.463 140.502C285.791 140.502 286.82 140.938 287.549 141.811C288.285 142.676 288.652 143.878 288.652 145.414V146.254ZM287.051 144.887C287.051 143.93 286.82 143.181 286.357 142.641C285.902 142.1 285.264 141.83 284.443 141.83C283.669 141.83 283.001 142.11 282.441 142.67C281.882 143.223 281.533 143.962 281.396 144.887H287.051ZM290.527 148.91C291.426 149.574 292.412 149.906 293.486 149.906C294.945 149.906 295.674 149.415 295.674 148.432C295.674 148.008 295.514 147.66 295.195 147.387C294.876 147.107 294.248 146.791 293.311 146.439C292.23 146.01 291.497 145.574 291.113 145.131C290.736 144.688 290.547 144.128 290.547 143.451C290.547 142.579 290.924 141.869 291.68 141.322C292.435 140.775 293.356 140.502 294.443 140.502C295.316 140.502 296.104 140.655 296.807 140.961V142.572C296.045 142.077 295.176 141.83 294.199 141.83C293.561 141.83 293.06 141.973 292.695 142.26C292.331 142.54 292.148 142.891 292.148 143.314C292.148 143.77 292.282 144.118 292.549 144.359C292.822 144.6 293.411 144.9 294.316 145.258C295.54 145.733 296.338 146.199 296.709 146.654C297.08 147.11 297.266 147.654 297.266 148.285C297.266 149.197 296.888 149.919 296.133 150.453C295.384 150.98 294.424 151.244 293.252 151.244C292.191 151.244 291.283 151.036 290.527 150.619V148.91ZM299.199 148.91C300.098 149.574 301.084 149.906 302.158 149.906C303.617 149.906 304.346 149.415 304.346 148.432C304.346 148.008 304.186 147.66 303.867 147.387C303.548 147.107 302.92 146.791 301.982 146.439C300.902 146.01 300.169 145.574 299.785 145.131C299.408 144.688 299.219 144.128 299.219 143.451C299.219 142.579 299.596 141.869 300.352 141.322C301.107 140.775 302.028 140.502 303.115 140.502C303.988 140.502 304.775 140.655 305.479 140.961V142.572C304.717 142.077 303.848 141.83 302.871 141.83C302.233 141.83 301.732 141.973 301.367 142.26C301.003 142.54 300.82 142.891 300.82 143.314C300.82 143.77 300.954 144.118 301.221 144.359C301.494 144.6 302.083 144.9 302.988 145.258C304.212 145.733 305.01 146.199 305.381 146.654C305.752 147.11 305.938 147.654 305.938 148.285C305.938 149.197 305.56 149.919 304.805 150.453C304.056 150.98 303.096 151.244 301.924 151.244C300.863 151.244 299.954 151.036 299.199 150.619V148.91ZM315.605 149.242C316.406 149.698 317.249 149.926 318.135 149.926C319.443 149.926 320.465 149.395 321.201 148.334C321.937 147.266 322.305 145.746 322.305 143.773C322.292 143.786 322.279 143.786 322.266 143.773C321.641 145.023 320.563 145.648 319.033 145.648C317.796 145.648 316.784 145.225 315.996 144.379C315.215 143.526 314.824 142.458 314.824 141.176C314.824 139.796 315.244 138.653 316.084 137.748C316.93 136.843 318.037 136.391 319.404 136.391C320.85 136.391 321.953 136.957 322.715 138.09C323.483 139.223 323.867 140.84 323.867 142.943C323.867 145.567 323.363 147.608 322.354 149.066C321.351 150.518 319.922 151.244 318.066 151.244C317.103 151.244 316.283 151.081 315.605 150.756V149.242ZM316.406 140.941C316.406 141.938 316.667 142.738 317.188 143.344C317.708 143.949 318.434 144.252 319.365 144.252C320.173 144.252 320.846 143.985 321.387 143.451C321.927 142.911 322.197 142.253 322.197 141.479C322.197 140.417 321.93 139.525 321.396 138.803C320.869 138.08 320.156 137.719 319.258 137.719C318.418 137.719 317.731 138.035 317.197 138.666C316.67 139.291 316.406 140.049 316.406 140.941ZM325.752 144.105C325.752 141.566 326.165 139.646 326.992 138.344C327.819 137.042 329.01 136.391 330.566 136.391C333.555 136.391 335.049 138.845 335.049 143.754C335.049 146.176 334.632 148.031 333.799 149.32C332.972 150.603 331.787 151.244 330.244 151.244C328.786 151.244 327.673 150.622 326.904 149.379C326.136 148.129 325.752 146.371 325.752 144.105ZM327.334 144.027C327.334 147.96 328.359 149.926 330.41 149.926C332.448 149.926 333.467 147.93 333.467 143.939C333.467 139.792 332.474 137.719 330.488 137.719C328.385 137.719 327.334 139.822 327.334 144.027ZM351.562 150.521C350.755 151.003 349.827 151.244 348.779 151.244C347.347 151.244 346.178 150.775 345.273 149.838C344.368 148.9 343.916 147.657 343.916 146.107C343.916 144.408 344.395 143.051 345.352 142.035C346.315 141.013 347.601 140.502 349.209 140.502C350.094 140.502 350.882 140.668 351.572 141V142.621C350.804 142.081 349.987 141.811 349.121 141.811C348.073 141.811 347.204 142.191 346.514 142.953C345.83 143.708 345.488 144.714 345.488 145.971C345.488 147.169 345.801 148.129 346.426 148.852C347.057 149.568 347.92 149.926 349.014 149.926C349.919 149.926 350.768 149.626 351.562 149.027V150.521ZM362.5 151H360.957V145.082C360.957 142.901 360.143 141.811 358.516 141.811C357.702 141.811 357.015 142.126 356.455 142.758C355.895 143.389 355.615 144.2 355.615 145.189V151H354.062V135.814H355.615V142.455H355.654C356.442 141.153 357.568 140.502 359.033 140.502C361.344 140.502 362.5 141.895 362.5 144.682V151ZM365.889 141.469C366.891 140.824 368.044 140.502 369.346 140.502C371.729 140.502 372.92 141.765 372.92 144.291V151H371.367V149.389H371.309C370.599 150.626 369.548 151.244 368.154 151.244C367.152 151.244 366.354 150.977 365.762 150.443C365.176 149.903 364.883 149.184 364.883 148.285C364.883 146.378 366.009 145.268 368.262 144.955L371.357 144.506C371.357 142.722 370.648 141.83 369.229 141.83C367.979 141.83 366.865 142.257 365.889 143.109V141.469ZM368.848 146.127C368.047 146.231 367.454 146.426 367.07 146.713C366.686 146.999 366.494 147.488 366.494 148.178C366.494 148.699 366.676 149.118 367.041 149.438C367.412 149.757 367.897 149.916 368.496 149.916C369.323 149.916 370.007 149.623 370.547 149.037C371.087 148.451 371.357 147.715 371.357 146.83V145.795L368.848 146.127ZM381.328 142.328C381.035 142.107 380.622 141.996 380.088 141.996C379.385 141.996 378.796 142.338 378.32 143.021C377.845 143.705 377.607 144.613 377.607 145.746V151H376.055V140.736H377.607V142.865H377.646C377.881 142.143 378.236 141.579 378.711 141.176C379.193 140.766 379.73 140.561 380.322 140.561C380.752 140.561 381.087 140.606 381.328 140.697V142.328ZM382.559 150.141C382.559 149.835 382.666 149.577 382.881 149.369C383.096 149.154 383.346 149.047 383.633 149.047C383.919 149.047 384.17 149.154 384.385 149.369C384.6 149.577 384.707 149.835 384.707 150.141C384.707 150.427 384.6 150.681 384.385 150.902C384.176 151.117 383.926 151.225 383.633 151.225C383.34 151.225 383.086 151.12 382.871 150.912C382.663 150.697 382.559 150.44 382.559 150.141Z" fill="black"/>
<rect width="129" height="40" transform="translate(392 5)" fill="white"/>
<path d="M392 5H521V45H392V5Z" fill="#5F666B" stroke="#828282"/>
<path d="M417.965 33V24.0938C417.965 23.4427 418.004 22.4466 418.082 21.1055H418.023C417.861 21.9258 417.711 22.5117 417.574 22.8633L413.766 33H411.646L407.789 22.9512C407.691 22.6908 407.542 22.0755 407.34 21.1055H407.271C407.343 22.1667 407.379 23.319 407.379 24.5625V33H404.85V18.625H408.854L412.213 27.5801C412.493 28.3223 412.678 28.9798 412.77 29.5527H412.838C412.981 28.9863 413.183 28.3223 413.443 27.5605L416.832 18.625H420.719V33H417.965ZM424.107 23.3906C424.57 23.1237 425.169 22.9089 425.904 22.7461C426.64 22.5768 427.301 22.4922 427.887 22.4922C430.66 22.4922 432.047 23.8984 432.047 26.7109V33H429.449V31.4863H429.4C428.71 32.6647 427.685 33.2539 426.324 33.2539C425.335 33.2539 424.55 32.9772 423.971 32.4238C423.391 31.8639 423.102 31.1152 423.102 30.1777C423.102 28.2181 424.267 27.082 426.598 26.7695L429.459 26.3789C429.459 25.0703 428.821 24.416 427.545 24.416C426.327 24.416 425.182 24.7969 424.107 25.5586V23.3906ZM427.418 28.3125C426.246 28.4622 425.66 28.9863 425.66 29.8848C425.66 30.2884 425.8 30.6172 426.08 30.8711C426.36 31.125 426.738 31.252 427.213 31.252C427.864 31.252 428.401 31.0241 428.824 30.5684C429.247 30.1061 429.459 29.5267 429.459 28.8301V28.0488L427.418 28.3125ZM440.494 32.8926C440.032 33.127 439.387 33.2441 438.561 33.2441C436.458 33.2441 435.406 32.1309 435.406 29.9043V24.8066H433.707V22.7363H435.406V20.4414L438.121 19.6504V22.7363H440.494V24.8066H438.121V29.4258C438.121 30.5586 438.567 31.125 439.459 31.125C439.83 31.125 440.175 31.0208 440.494 30.8125V32.8926ZM451.354 28.6348H444.498C444.609 30.3796 445.598 31.252 447.467 31.252C448.606 31.252 449.622 30.9525 450.514 30.3535V32.4238C449.563 32.9772 448.342 33.2539 446.852 33.2539C445.257 33.2539 444.013 32.7917 443.121 31.8672C442.236 30.9427 441.793 29.6504 441.793 27.9902C441.793 26.3626 442.268 25.041 443.219 24.0254C444.176 23.0033 445.37 22.4922 446.803 22.4922C448.235 22.4922 449.352 22.9316 450.152 23.8105C450.953 24.6895 451.354 25.8971 451.354 27.4336V28.6348ZM448.785 26.8477C448.785 25.2201 448.115 24.4062 446.773 24.4062C446.214 24.4062 445.719 24.6276 445.289 25.0703C444.866 25.513 444.602 26.1055 444.498 26.8477H448.785ZM459.713 25.2461C459.355 25.0312 458.915 24.9238 458.395 24.9238C457.711 24.9238 457.164 25.2038 456.754 25.7637C456.344 26.3171 456.139 27.0625 456.139 28V33H453.414V22.7363H456.139V24.709H456.168C456.669 23.2767 457.571 22.5605 458.873 22.5605C459.244 22.5605 459.524 22.6061 459.713 22.6973V25.2461ZM461.031 19.3574C461.031 18.9408 461.178 18.5924 461.471 18.3125C461.77 18.0326 462.154 17.8926 462.623 17.8926C463.079 17.8926 463.46 18.0326 463.766 18.3125C464.072 18.5859 464.225 18.9342 464.225 19.3574C464.225 19.7806 464.072 20.1322 463.766 20.4121C463.466 20.6921 463.085 20.832 462.623 20.832C462.161 20.832 461.78 20.6888 461.48 20.4023C461.181 20.1159 461.031 19.7676 461.031 19.3574ZM461.246 33V22.7363H463.961V33H461.246ZM467.018 23.3906C467.48 23.1237 468.079 22.9089 468.814 22.7461C469.55 22.5768 470.211 22.4922 470.797 22.4922C473.57 22.4922 474.957 23.8984 474.957 26.7109V33H472.359V31.4863H472.311C471.62 32.6647 470.595 33.2539 469.234 33.2539C468.245 33.2539 467.46 32.9772 466.881 32.4238C466.301 31.8639 466.012 31.1152 466.012 30.1777C466.012 28.2181 467.177 27.082 469.508 26.7695L472.369 26.3789C472.369 25.0703 471.731 24.416 470.455 24.416C469.238 24.416 468.092 24.7969 467.018 25.5586V23.3906ZM470.328 28.3125C469.156 28.4622 468.57 28.9863 468.57 29.8848C468.57 30.2884 468.71 30.6172 468.99 30.8711C469.27 31.125 469.648 31.252 470.123 31.252C470.774 31.252 471.311 31.0241 471.734 30.5684C472.158 30.1061 472.369 29.5267 472.369 28.8301V28.0488L470.328 28.3125ZM477.594 33V17.8145H480.309V33H477.594ZM493.209 18.625V33H490.426V18.625H493.209ZM496.646 33V18.625H501.412C506.503 18.625 509.049 20.9622 509.049 25.6367C509.049 27.8633 508.329 29.6471 506.891 30.9883C505.458 32.3294 503.613 33 501.354 33H496.646ZM499.43 20.9395V30.6953H501.188C502.73 30.6953 503.938 30.2493 504.811 29.3574C505.683 28.459 506.119 27.2318 506.119 25.6758C506.119 24.1458 505.683 22.974 504.811 22.1602C503.938 21.3464 502.737 20.9395 501.207 20.9395H499.43Z" fill="white"/>
<rect width="129" height="160" transform="translate(392 45)" fill="white"/>
<rect x="392" y="45" width="129" height="160" fill="white" stroke="#828282"/>
<path d="M425.602 115H424.029V100.625H425.602V115ZM437.643 115H436.09V109.141C436.09 106.921 435.279 105.811 433.658 105.811C432.825 105.811 432.132 106.126 431.578 106.758C431.031 107.383 430.758 108.18 430.758 109.15V115H429.205V104.736H430.758V106.455H430.797C431.565 105.153 432.688 104.502 434.166 104.502C435.292 104.502 436.152 104.863 436.744 105.586C437.343 106.309 437.643 107.357 437.643 108.73V115ZM445.436 114.902C445.045 115.117 444.547 115.225 443.941 115.225C442.177 115.225 441.295 114.232 441.295 112.246V106.074H439.518V104.736H441.295V102.217L442.838 101.719V104.736H445.436V106.074H442.838V111.963C442.838 112.686 442.958 113.19 443.199 113.477C443.44 113.763 443.831 113.906 444.371 113.906C444.781 113.906 445.136 113.792 445.436 113.564V114.902ZM455.846 110.254H448.57C448.603 111.439 448.919 112.347 449.518 112.979C450.123 113.604 450.934 113.916 451.949 113.916C453.121 113.916 454.189 113.529 455.152 112.754V114.238C454.234 114.909 453.046 115.244 451.588 115.244C450.143 115.244 449.01 114.772 448.189 113.828C447.376 112.878 446.969 111.566 446.969 109.893C446.969 108.337 447.418 107.051 448.316 106.035C449.215 105.013 450.328 104.502 451.656 104.502C452.984 104.502 454.013 104.938 454.742 105.811C455.478 106.676 455.846 107.878 455.846 109.414V110.254ZM454.244 108.887C454.244 107.93 454.013 107.181 453.551 106.641C453.095 106.1 452.457 105.83 451.637 105.83C450.862 105.83 450.195 106.11 449.635 106.67C449.075 107.223 448.727 107.962 448.59 108.887H454.244ZM467.037 114.189C467.037 117.952 465.257 119.834 461.695 119.834C460.445 119.834 459.335 119.59 458.365 119.102V117.52C459.511 118.164 460.618 118.486 461.686 118.486C464.231 118.486 465.504 117.122 465.504 114.395V113.252H465.465C464.658 114.58 463.476 115.244 461.92 115.244C460.65 115.244 459.625 114.785 458.844 113.867C458.062 112.949 457.672 111.729 457.672 110.205C457.672 108.454 458.095 107.067 458.941 106.045C459.788 105.016 460.927 104.502 462.359 104.502C463.753 104.502 464.788 105.062 465.465 106.182H465.504V104.736H467.037V114.189ZM465.504 108.818C465.504 107.985 465.217 107.275 464.645 106.689C464.072 106.104 463.375 105.811 462.555 105.811C461.526 105.811 460.715 106.191 460.123 106.953C459.537 107.708 459.244 108.753 459.244 110.088C459.244 111.247 459.527 112.178 460.094 112.881C460.667 113.577 461.409 113.926 462.32 113.926C463.245 113.926 464.007 113.59 464.605 112.92C465.204 112.249 465.504 111.403 465.504 110.381V108.818ZM478.6 110.254H471.324C471.357 111.439 471.673 112.347 472.271 112.979C472.877 113.604 473.688 113.916 474.703 113.916C475.875 113.916 476.943 113.529 477.906 112.754V114.238C476.988 114.909 475.8 115.244 474.342 115.244C472.896 115.244 471.764 114.772 470.943 113.828C470.13 112.878 469.723 111.566 469.723 109.893C469.723 108.337 470.172 107.051 471.07 106.035C471.969 105.013 473.082 104.502 474.41 104.502C475.738 104.502 476.767 104.938 477.496 105.811C478.232 106.676 478.6 107.878 478.6 109.414V110.254ZM476.998 108.887C476.998 107.93 476.767 107.181 476.305 106.641C475.849 106.1 475.211 105.83 474.391 105.83C473.616 105.83 472.949 106.11 472.389 106.67C471.829 107.223 471.48 107.962 471.344 108.887H476.998ZM486.393 106.328C486.1 106.107 485.686 105.996 485.152 105.996C484.449 105.996 483.86 106.338 483.385 107.021C482.91 107.705 482.672 108.613 482.672 109.746V115H481.119V104.736H482.672V106.865H482.711C482.945 106.143 483.3 105.579 483.775 105.176C484.257 104.766 484.794 104.561 485.387 104.561C485.816 104.561 486.152 104.606 486.393 104.697V106.328ZM489.596 112.734L487.984 117.656H486.9L488.082 112.734H489.596ZM408.688 151H407.135V138.588C406.835 138.887 406.347 139.213 405.67 139.564C404.993 139.91 404.374 140.15 403.814 140.287V138.627C404.531 138.425 405.299 138.096 406.119 137.641C406.939 137.185 407.587 136.742 408.062 136.312H408.688V151ZM431.695 143.5C431.643 144.49 431.373 145.251 430.885 145.785C430.396 146.312 429.736 146.576 428.902 146.576C428.167 146.576 427.281 146.205 426.246 145.463C425.602 145.014 425.068 144.789 424.645 144.789C423.694 144.789 423.206 145.382 423.18 146.566H421.871C421.904 145.59 422.171 144.835 422.672 144.301C423.18 143.76 423.84 143.49 424.654 143.49C425.357 143.49 426.142 143.79 427.008 144.389C427.9 144.994 428.561 145.297 428.99 145.297C429.407 145.297 429.739 145.134 429.986 144.809C430.24 144.477 430.374 144.04 430.387 143.5H431.695ZM442.555 149.242C443.355 149.698 444.199 149.926 445.084 149.926C446.393 149.926 447.415 149.395 448.15 148.334C448.886 147.266 449.254 145.746 449.254 143.773C449.241 143.786 449.228 143.786 449.215 143.773C448.59 145.023 447.512 145.648 445.982 145.648C444.745 145.648 443.733 145.225 442.945 144.379C442.164 143.526 441.773 142.458 441.773 141.176C441.773 139.796 442.193 138.653 443.033 137.748C443.88 136.843 444.986 136.391 446.354 136.391C447.799 136.391 448.902 136.957 449.664 138.09C450.432 139.223 450.816 140.84 450.816 142.943C450.816 145.567 450.312 147.608 449.303 149.066C448.3 150.518 446.871 151.244 445.016 151.244C444.052 151.244 443.232 151.081 442.555 150.756V149.242ZM443.355 140.941C443.355 141.938 443.616 142.738 444.137 143.344C444.658 143.949 445.383 144.252 446.314 144.252C447.122 144.252 447.796 143.985 448.336 143.451C448.876 142.911 449.146 142.253 449.146 141.479C449.146 140.417 448.88 139.525 448.346 138.803C447.818 138.08 447.105 137.719 446.207 137.719C445.367 137.719 444.68 138.035 444.146 138.666C443.619 139.291 443.355 140.049 443.355 140.941ZM453.57 149.242C454.371 149.698 455.214 149.926 456.1 149.926C457.408 149.926 458.43 149.395 459.166 148.334C459.902 147.266 460.27 145.746 460.27 143.773C460.257 143.786 460.243 143.786 460.23 143.773C459.605 145.023 458.528 145.648 456.998 145.648C455.761 145.648 454.749 145.225 453.961 144.379C453.18 143.526 452.789 142.458 452.789 141.176C452.789 139.796 453.209 138.653 454.049 137.748C454.895 136.843 456.002 136.391 457.369 136.391C458.814 136.391 459.918 136.957 460.68 138.09C461.448 139.223 461.832 140.84 461.832 142.943C461.832 145.567 461.327 147.608 460.318 149.066C459.316 150.518 457.887 151.244 456.031 151.244C455.068 151.244 454.247 151.081 453.57 150.756V149.242ZM454.371 140.941C454.371 141.938 454.632 142.738 455.152 143.344C455.673 143.949 456.399 144.252 457.33 144.252C458.137 144.252 458.811 143.985 459.352 143.451C459.892 142.911 460.162 142.253 460.162 141.479C460.162 140.417 459.895 139.525 459.361 138.803C458.834 138.08 458.121 137.719 457.223 137.719C456.383 137.719 455.696 138.035 455.162 138.666C454.635 139.291 454.371 140.049 454.371 140.941ZM464.586 149.242C465.387 149.698 466.23 149.926 467.115 149.926C468.424 149.926 469.446 149.395 470.182 148.334C470.917 147.266 471.285 145.746 471.285 143.773C471.272 143.786 471.259 143.786 471.246 143.773C470.621 145.023 469.544 145.648 468.014 145.648C466.777 145.648 465.764 145.225 464.977 144.379C464.195 143.526 463.805 142.458 463.805 141.176C463.805 139.796 464.225 138.653 465.064 137.748C465.911 136.843 467.018 136.391 468.385 136.391C469.83 136.391 470.934 136.957 471.695 138.09C472.464 139.223 472.848 140.84 472.848 142.943C472.848 145.567 472.343 147.608 471.334 149.066C470.331 150.518 468.902 151.244 467.047 151.244C466.083 151.244 465.263 151.081 464.586 150.756V149.242ZM465.387 140.941C465.387 141.938 465.647 142.738 466.168 143.344C466.689 143.949 467.415 144.252 468.346 144.252C469.153 144.252 469.827 143.985 470.367 143.451C470.908 142.911 471.178 142.253 471.178 141.479C471.178 140.417 470.911 139.525 470.377 138.803C469.85 138.08 469.137 137.719 468.238 137.719C467.398 137.719 466.712 138.035 466.178 138.666C465.65 139.291 465.387 140.049 465.387 140.941ZM476.949 148.734L475.338 153.656H474.254L475.436 148.734H476.949ZM479.977 149.242C480.777 149.698 481.62 149.926 482.506 149.926C483.814 149.926 484.837 149.395 485.572 148.334C486.308 147.266 486.676 145.746 486.676 143.773C486.663 143.786 486.65 143.786 486.637 143.773C486.012 145.023 484.934 145.648 483.404 145.648C482.167 145.648 481.155 145.225 480.367 144.379C479.586 143.526 479.195 142.458 479.195 141.176C479.195 139.796 479.615 138.653 480.455 137.748C481.301 136.843 482.408 136.391 483.775 136.391C485.221 136.391 486.324 136.957 487.086 138.09C487.854 139.223 488.238 140.84 488.238 142.943C488.238 145.567 487.734 147.608 486.725 149.066C485.722 150.518 484.293 151.244 482.438 151.244C481.474 151.244 480.654 151.081 479.977 150.756V149.242ZM480.777 140.941C480.777 141.938 481.038 142.738 481.559 143.344C482.079 143.949 482.805 144.252 483.736 144.252C484.544 144.252 485.217 143.985 485.758 143.451C486.298 142.911 486.568 142.253 486.568 141.479C486.568 140.417 486.301 139.525 485.768 138.803C485.24 138.08 484.527 137.719 483.629 137.719C482.789 137.719 482.102 138.035 481.568 138.666C481.041 139.291 480.777 140.049 480.777 140.941ZM490.992 149.242C491.793 149.698 492.636 149.926 493.521 149.926C494.83 149.926 495.852 149.395 496.588 148.334C497.324 147.266 497.691 145.746 497.691 143.773C497.678 143.786 497.665 143.786 497.652 143.773C497.027 145.023 495.95 145.648 494.42 145.648C493.183 145.648 492.171 145.225 491.383 144.379C490.602 143.526 490.211 142.458 490.211 141.176C490.211 139.796 490.631 138.653 491.471 137.748C492.317 136.843 493.424 136.391 494.791 136.391C496.236 136.391 497.34 136.957 498.102 138.09C498.87 139.223 499.254 140.84 499.254 142.943C499.254 145.567 498.749 147.608 497.74 149.066C496.738 150.518 495.309 151.244 493.453 151.244C492.49 151.244 491.669 151.081 490.992 150.756V149.242ZM491.793 140.941C491.793 141.938 492.053 142.738 492.574 143.344C493.095 143.949 493.821 144.252 494.752 144.252C495.559 144.252 496.233 143.985 496.773 143.451C497.314 142.911 497.584 142.253 497.584 141.479C497.584 140.417 497.317 139.525 496.783 138.803C496.256 138.08 495.543 137.719 494.645 137.719C493.805 137.719 493.118 138.035 492.584 138.666C492.057 139.291 491.793 140.049 491.793 140.941ZM502.008 149.242C502.809 149.698 503.652 149.926 504.537 149.926C505.846 149.926 506.868 149.395 507.604 148.334C508.339 147.266 508.707 145.746 508.707 143.773C508.694 143.786 508.681 143.786 508.668 143.773C508.043 145.023 506.965 145.648 505.436 145.648C504.199 145.648 503.186 145.225 502.398 144.379C501.617 143.526 501.227 142.458 501.227 141.176C501.227 139.796 501.646 138.653 502.486 137.748C503.333 136.843 504.439 136.391 505.807 136.391C507.252 136.391 508.355 136.957 509.117 138.09C509.885 139.223 510.27 140.84 510.27 142.943C510.27 145.567 509.765 147.608 508.756 149.066C507.753 150.518 506.324 151.244 504.469 151.244C503.505 151.244 502.685 151.081 502.008 150.756V149.242ZM502.809 140.941C502.809 141.938 503.069 142.738 503.59 143.344C504.111 143.949 504.837 144.252 505.768 144.252C506.575 144.252 507.249 143.985 507.789 143.451C508.329 142.911 508.6 142.253 508.6 141.479C508.6 140.417 508.333 139.525 507.799 138.803C507.271 138.08 506.559 137.719 505.66 137.719C504.82 137.719 504.133 138.035 503.6 138.666C503.072 139.291 502.809 140.049 502.809 140.941Z" fill="black"/>
</svg>
